<?xml version="1.0" encoding="UTF-8"?>
<svg width="1000px" height="1000px" viewBox="0 0 1000 1000" version="1.1" xmlns="http://www.w3.org/2000/svg" xmlns:xlink="http://www.w3.org/1999/xlink">
    <title>Artboard</title>
    <g id="Artboard" stroke="none" stroke-width="1" fill="none" fill-rule="evenodd">
        <g id="orbiter-gopher" transform="translate(93, 30)">
            <g id="layer3" transform="translate(0, 78)">
                <path d="M317.605643,0 C173.024412,10.5351637 37.1454251,86.5616627 35.2577428,153.899672 C29.7303445,138.559578 27.1694851,130.849495 31.0854703,121.083509 C6.48367854,181.763283 3.37172682,242.38285 13.7871853,300.445306 C8.17095508,293.694661 3.20096316,283.323666 2.63653378,265.522675 C-7.25320209,301.711029 13.1789071,324.768954 22.7409442,335.109202 C32.3029814,345.449451 103.296267,511.962563 162.17953,581.175031 L312.233394,409.740086 L330.122442,295.770487 C298.576743,244.807382 267.313241,218.672339 228.621934,206.431407 C245.49021,215.704594 252.346117,233.450875 263.292355,246.67555 C171.365454,188.985185 126.587226,188.259942 112.906179,182.761642 C77.4513297,166.54488 80.1065033,138.514073 107.903152,108.297036 C112.047626,105.02629 117.322054,93.560779 140.025908,95.8801095 C134.453962,93.5195312 129.637105,92.3081027 125.422978,91.8335254 C166.571992,57.1734705 236.68556,21.9415462 317.605643,0 Z" id="path7056" stroke="#FFFFFF" stroke-width="6" fill="#000000" fill-rule="nonzero"></path>
                <path d="M696.940264,401.815331 C696.940264,401.815331 784.355949,455.767161 803.114676,500.933668 C821.873402,546.100175 813.248789,625.982572 800.728641,671.703878 C788.208528,717.425185 757.317124,761.980236 720.799685,798.885872 C684.28221,835.791543 591.919877,853.729006 530.520792,861.581203 C498.939431,865.620078 430.614311,840.034987 380.114607,802.591066 C332.435116,767.238233 302.84382,720.764063 262.698872,696.781997 C180.034449,647.399356 41.2622447,438.886681 46.7712179,259.705899 C59.1983534,287.123784 60.0744552,321.518934 90.9111391,339.120035 C92.0202061,291.946763 107.697816,250.011327 50.3501382,195.219273 C148.979587,230.222125 136.769059,266.018161 222.367454,267.088405 C307.965832,268.158614 317.976216,309.067486 417.785106,318.221591 L696.940264,401.815331 Z" id="path7013" stroke="#FFFFFF" stroke-width="6" fill="#000000" fill-rule="nonzero"></path>
                <path d="M680.238663,483.020762 L465.503948,737.384712 L263.891889,641.848892 C215.473949,589.637205 160.209827,550.152918 132.665111,459.136816 C146.219453,464.653 154.64101,478.732601 176.805032,469.884581 C145.37645,419.323388 139.31114,381.456888 132.665111,343.29971 C141.836773,350.413735 147.967122,363.616617 166.068293,352.853267 L125.507292,265.676867 C158.06952,291.420631 181.701817,330.573096 231.681668,330.163564 C244.557936,318.489287 227.437689,303.06163 216.173048,288.366641 C296.685264,303.076178 364.300573,327.007236 422.556998,357.630099 L680.238663,483.020762 Z" id="path7011" stroke="#FFFFFF" stroke-width="6" fill="#000000" fill-rule="nonzero"></path>
                <path d="M636.192144,344.84833 C650.258644,353.780673 687.450615,344.587391 707.79908,360.852698 C732.166809,380.931471 714.865235,406.450041 750.471789,429.459304 C786.078236,452.468603 786.760588,520.999787 778.170148,539.493551 C769.579887,557.987279 792.431081,575.016137 777.477762,605.818869 C762.524587,636.621636 775.569149,648.273824 771.63187,684.357143 C767.694734,720.440463 759.628314,721.103749 742.619156,725.949712 C725.609927,730.795496 725.58261,735.39346 716.835375,757.610004 C708.088139,779.826549 677.497151,827.829572 631.557873,820.717799 C585.618595,813.605989 582.828984,813.9243 561.270398,826.465396 C539.711812,839.006529 515.162255,844.974888 497.786264,824.522293 C480.410274,804.069483 455.347588,799.547871 433.972614,794.472853 C412.597605,789.3978 405.366012,790.113273 383.93844,755.128258 C362.510904,720.143207 308.01768,694.365342 275.864878,678.892611 C243.71204,663.41988 252.538334,655.895966 247.073343,633.438035 C241.608316,610.980104 238.646733,598.684361 244.670168,577.62678 C250.69371,556.569199 240.857904,531.313785 227.765385,493.292474 C214.672902,455.271198 244.195424,442.505658 248.907004,409.399047 C253.61862,376.292472 289.854213,354.670583 321.85072,340.55034 C353.847191,326.430096 404.682697,327.806175 435.228086,343.88643 C465.773475,359.966542 478.023096,361.297224 501.917261,359.796359 C525.811426,358.295422 532.853193,341.223563 554.796287,326.194035 C576.739417,311.164472 622.125286,335.916345 636.191858,344.848688 L636.192144,344.84833 Z" id="path4520" stroke="#FFFFFF" stroke-width="5.3" fill="#000000" fill-rule="nonzero"></path>
                <path d="M574.792261,321.506199 C567.231792,321.160052 560.275183,322.440605 554.789395,326.197998 C532.8463,341.227476 525.816224,358.297232 501.922055,359.798146 C478.027896,361.299061 465.778943,359.974057 435.233547,343.893939 C404.68816,327.813727 354.999945,325.931579 323.003474,340.051807 C323.002907,340.080179 323.004041,340.099094 323.003474,340.127467 C322.637653,340.281625 322.220058,340.393225 321.859396,340.552111 C289.862896,354.672339 253.627006,376.289857 248.915384,409.396415 C244.203809,442.503067 214.675965,455.27408 227.76845,493.295352 C240.860973,531.316625 250.694782,556.561494 244.671232,577.619029 C238.647815,598.676659 241.605076,610.982927 247.070106,633.440843 C252.5351,655.898759 243.703669,663.427164 275.856512,678.899917 C308.009308,694.37267 362.507166,720.147919 383.934701,755.132937 C405.362274,790.117955 412.603745,789.402869 433.97876,794.477889 C455.353736,799.552909 480.412636,804.078728 497.788623,824.531548 C515.16461,844.983988 539.707713,839.012203 561.266337,826.471009 C582.824923,813.929909 585.613899,813.6145 631.553143,820.726299 C677.492424,827.838099 708.094866,779.824728 716.842098,757.608169 C723.150859,741.584986 725.003232,734.759088 731.88115,730.36227 C710.395965,737.169347 687.792059,731.958706 668.717133,724.765382 C646.432631,716.36168 613.324166,736.221605 601.253608,754.190964 C589.18304,772.160323 568.461089,797.232686 557.354343,783.487167 C546.247597,769.741648 538.530021,765.669885 523.105902,770.39072 C507.681783,775.111554 470.877133,766.888302 452.357768,729.272476 C433.838402,691.656649 389.69834,706.000264 382.772172,683.684117 C375.846003,661.367875 405.766434,646.294326 413.569939,629.635595 C421.373444,612.976864 427.770249,588.909839 400.431528,581.036328 C373.092806,573.162912 373.724574,598.240571 359.171009,595.629056 C344.617434,593.01754 312.565588,553.203872 305.584008,533.360687 C298.602428,513.517502 283.272192,452.727633 298.830272,435.404698 C314.388351,418.081763 336.806512,406.046737 352.431993,375.449931 C364.216546,383.247687 370.447844,405.670988 406.114993,411.72392 C401.459624,561.524252 666.736779,324.466792 719.702282,376.996904 C717.341492,371.360578 713.945294,365.916051 707.800216,360.852569 C687.451748,344.587273 650.251308,353.788341 636.184807,344.855962 C625.63487,338.15689 597.473667,322.547097 574.792261,321.507712 L574.792261,321.506199 Z" id="path4520-3" stroke="#FFFFFF" stroke-width="5" fill="#000000" fill-rule="nonzero"></path>
                <path d="M613.955313,780.775331 C621.288174,797.019334 647.335234,818.822272 672.920977,795.782196 C698.50672,772.742156 678.209354,728.59921 650.57145,740.806698 C622.933546,753.01415 606.622487,764.531292 613.955313,780.775331 Z" id="path6959" fill="#FFFFFF" fill-rule="nonzero"></path>
                <path d="M510.438855,795.847645 C522.169527,780.857402 531.72188,772.679745 540.487434,779.679887 C549.252987,786.680028 558.50389,805.975447 540.487434,818.031233 C522.470978,830.087018 498.708184,810.837853 510.438855,795.847645 L510.438855,795.847645 Z" id="path6959-8" fill="#FFFFFF" fill-rule="nonzero"></path>
                <path d="M377.747248,599.033055 C360.23203,617.151531 348.982279,592.358408 341.13111,611.980109 C333.279941,631.601809 371.980342,653.404747 397.566085,630.364671 C423.151828,607.324631 395.262536,580.914615 377.747248,599.033055 L377.747248,599.033055 Z" id="path6959-9" fill="#FFFFFF" fill-rule="nonzero"></path>
                <path d="M673.835969,579.611241 C646.198064,591.818693 629.887005,603.335835 637.219831,619.579874 C644.552693,635.823877 670.599753,657.626815 696.185496,634.586739 C721.771239,611.546699 701.473873,567.403753 673.835969,579.611241 Z" id="path6959-3" fill="#FFFFFF" fill-rule="nonzero"></path>
                <path d="M289.919845,661.803844 C291.377105,669.671055 295.532348,674.681624 302.925878,677.709055" id="path4559" stroke="#FFFFFF" stroke-width="2.1" stroke-linecap="round"></path>
                <path d="M311.014222,681.257507 C356.135242,700.080555 390.538423,728.332051 409.434305,770.225129" id="path4576" stroke="#FFFFFF" stroke-width="2.1" stroke-linecap="round"></path>
                <path d="M740.483687,438.536951 C768.691676,468.44173 774.676653,501.186421 765.536125,535.863993" id="path4597" stroke="#FFFFFF" stroke-width="2.1" stroke-linecap="round"></path>
                <path d="M735.115323,434.058698 C730.634848,431.235192 726.118129,428.426164 724.378594,424.505141" id="path4599" stroke="#FFFFFF" stroke-width="2.1" stroke-linecap="round"></path>
                <path d="M725.979866,434.915543 C721.499391,432.092038 718.458892,427.594161 717.984685,422.195364" id="path4599-6" stroke="#FFFFFF" stroke-width="2.1" stroke-linecap="round"></path>
                <path d="M393.886513,517.917058 C398.366989,515.093553 402.883708,512.284524 404.623242,508.363501" id="path4599-2" stroke="#FFFFFF" stroke-width="2.1" stroke-linecap="round"></path>
                <path d="M405.706171,516.086945 C410.186646,513.263439 413.227144,508.765562 413.701351,503.366765" id="path4599-6-1" stroke="#FFFFFF" stroke-width="2.1" stroke-linecap="round"></path>
                <path d="M638.584713,591.097071 C634.104238,593.920576 630.482264,598.819442 628.74273,602.740465" id="path4599-2-1" stroke="#FFFFFF" stroke-width="2.1" stroke-linecap="round"></path>
                <path d="M659.440915,578.957106 C656.899192,580.138481 653.277039,581.753445 650.941032,583.733866" id="path4599-2-1-5" stroke="#FFFFFF" stroke-width="2.1" stroke-linecap="round"></path>
            </g>
            <g id="layer4" transform="translate(273, 0)">
                <path d="M293.65291,61.1675014 L317.862871,46.7909512 C302.05694,16.6964739 285.758984,2.95922443 274.693073,0.434147905 C255.5831,-3.92646439 252.076462,25.1505659 293.65291,61.1675014 Z" id="path9538" stroke="#000000" stroke-width="4.3" fill="#FFFFFF" fill-rule="nonzero"></path>
                <path d="M119.322469,87.6147982 C119.668014,98.1713955 114.326706,104.985174 107.816529,111.028754 C26.9950178,89.6473598 76.2730313,11.8125383 119.322469,87.6147982 Z" id="path9538-5" stroke="#000000" stroke-width="4.3" fill="#FFFFFF" fill-rule="nonzero"></path>
                <path d="M81.2917905,55.1530639 C58.5319351,54.9529533 52.5277504,95.0231716 105.352103,110.295851 C90.390841,92.8763299 79.7423454,75.5738094 93.7913694,58.9413615 C89.302906,56.4046778 85.0589917,55.1861981 81.2917905,55.1530639 Z" id="path9538-5-9" fill="#FFFFFF" fill-rule="nonzero" opacity="0.15"></path>
                <path d="M412.854725,383.719795 C420.846507,382.720661 478.358754,410.043863 470.243217,426.904838 C462.12768,443.765849 393.145899,424.083018 388.915393,419.515753 C379.969693,409.857983 397.692525,385.615217 412.854725,383.719795 Z" id="path7191-0-7" stroke="#000000" stroke-width="4.3" fill="#FFFFFF" fill-rule="nonzero"></path>
                <path d="M404.284814,305.655859 C476.922426,255.98038 452.63698,193.801207 376.329037,277.909796 C377.491778,301.068462 388.279234,303.645934 404.284814,305.655859 Z" id="path7191-01" stroke="#000000" stroke-width="4.3" fill="#FFFFFF" fill-rule="nonzero"></path>
                <path d="M424.247882,286.726169 C458.751241,472.159383 391.550763,419.960643 299.276283,469.385231 C207.00184,518.809818 116.167998,490.190532 83.8112231,318.551124 C51.454448,146.911645 92.7208372,60.326069 243.315641,34.9827902 C393.91048,9.63951139 399.756462,155.100645 424.247882,286.726169 L424.247882,286.726169 Z" id="path4522" stroke="#010101" stroke-width="4.3" fill="#FFFFFF" fill-rule="nonzero" stroke-linecap="round" stroke-linejoin="round"></path>
                <path d="M244.414688,111.391575 L252.831847,269.371993 C210.3755,272.638667 161.168697,248.531682 164.347178,189.06562 C167.525481,129.599557 215.948039,113.736608 244.414688,111.391575 Z" id="path6378" fill="#000000" fill-rule="nonzero" opacity="0.15"></path>
                <path d="M367.840916,183.016676 C372.187732,221.837606 382.728176,252.516489 421.400626,248.152984 C460.073147,243.78948 487.899576,208.781529 483.552725,169.960599 C479.20591,131.139632 444.33182,103.20633 405.659371,107.569834 C366.986886,111.933375 363.494101,144.19571 367.840916,183.016676 L367.840916,183.016676 Z" id="path9334-8" stroke="#000000" stroke-width="5.3" fill="#FFFFFF" fill-rule="nonzero" stroke-linecap="round" stroke-linejoin="round"></path>
                <ellipse id="path9334" stroke="#000000" stroke-width="5.3" fill="#FFFFFF" fill-rule="nonzero" stroke-linecap="round" stroke-linejoin="round" transform="translate(254.7306, 190.071) scale(-1, 1) rotate(6.4132) translate(-254.7306, -190.071)" cx="254.730601" cy="190.070955" rx="79.1150802" ry="79.4112444"></ellipse>
                <ellipse id="path9334-0" fill="#000000" fill-rule="nonzero" transform="translate(294.7079, 221.2364) scale(-1, 1) rotate(6.4132) translate(-294.7079, -221.2364)" cx="294.707901" cy="221.236424" rx="17.9067903" ry="17.9736574"></ellipse>
                <ellipse id="path9334-0-3" fill="#000000" fill-rule="nonzero" transform="translate(416.1423, 205.3002) scale(-1, 1) rotate(6.4132) translate(-416.1423, -205.3002)" cx="416.142349" cy="205.300247" rx="17.9067924" ry="17.9738258"></ellipse>
                <path d="M244.414688,111.391575 C190.823238,133.959486 176.609293,237.085842 252.831847,269.371993 C213.323071,268.426141 180.57013,238.357216 176.111779,198.938665 C171.332747,155.953985 201.696689,117.033678 244.414688,111.391575 L244.414688,111.391575 Z" id="path9334-5" fill="#000000" fill-rule="nonzero" opacity="0.15"></path>
                <circle id="path9334-0-4" fill="#FFFFFF" fill-rule="nonzero" transform="translate(189.6417, 135.9377) scale(-1, 1) rotate(6.4132) translate(-189.6417, -135.9377)" cx="189.641723" cy="135.937743" r="1"></circle>
                <circle id="path9334-0-4-5" fill="#FFFFFF" fill-rule="nonzero" transform="translate(425.9258, 201.4826) scale(-1, 1) rotate(6.4132) translate(-425.9258, -201.4826)" cx="425.925767" cy="201.482608" r="1"></circle>
                <path d="M392.144032,110.718858 C367.434883,144.865101 384.668359,235.669246 412.799794,248.519059 C381.12791,247.608968 371.846212,218.77952 367.841664,183.015031 C364.068347,149.315967 366.219027,120.574667 392.144032,110.718858 L392.144032,110.718858 Z" id="path9334-8-9" fill="#000000" fill-rule="nonzero" opacity="0.15"></path>
                <path d="M377.036122,315.67266 C372.812598,342.661434 361.968786,338.491069 351.7855,333.715037 C341.169107,328.735782 344.124159,314.821858 338.73622,311.217967 C333.348316,307.614076 300.787562,276.368719 332.287136,264.08141 L364.449231,262.391394 L377.036122,315.67266 Z" id="path8279" fill="#000000" fill-rule="nonzero" opacity="0.15"></path>
                <path d="M376.438507,275.195506 C376.438507,275.195506 393.088795,317.323305 381.013952,325.853849 C368.939251,334.384607 357.544028,331.735758 348.840672,319.3205 C340.1381,306.907173 367.56619,273.163838 367.56619,273.163838 L376.438507,275.195506 Z" id="path7331" stroke="#000000" stroke-width="4.3" fill="#FFFFFF" fill-rule="nonzero"></path>
                <path d="M367.56733,273.165161 L376.438934,275.195971 C376.438934,275.195971 380.468489,285.427331 383.125126,296.813131 C367.536694,301.00159 353.604528,306.672981 355.147334,326.202831 C352.924802,324.409825 350.811704,322.131592 348.842453,319.321895 C340.139881,306.908639 367.567615,273.165161 367.567615,273.165161 L367.56733,273.165161 Z" id="path7331-4" fill="#000000" fill-rule="nonzero" opacity="0.15"></path>
                <path d="M332.621318,292.946011 C349.309438,314.691513 353.901911,292.266571 368.045821,290.369861 C382.189838,288.473152 382.703881,300.786315 396.122147,283.162866 C409.540306,265.539059 387.8597,249.432906 362.018231,252.898584 C336.176835,256.364442 315.933376,271.200758 332.621424,292.946118 L332.621318,292.946011 Z" id="path7313-1" stroke="#000000" stroke-width="4.3" fill="#FFFFFF" fill-rule="nonzero" stroke-linecap="round" stroke-linejoin="round"></path>
                <path d="M352.650752,254.72406 C354.301888,254.294583 356.009308,253.932691 357.740276,253.604415 C350.390638,262.62816 337.257465,284.524356 367.658775,290.461943 C353.826746,292.720901 349.148207,314.484928 332.618468,292.945832 C318.016443,273.918481 331.692621,260.182213 352.650895,254.723416 L352.650752,254.72406 Z" id="path7313-1-0" fill="#FFFFFF" fill-rule="nonzero" opacity="0.15"></path>
                <path d="M343.637439,251.947655 C344.98079,262.043449 367.497687,268.224133 376.592506,267.004396 C385.687361,265.784265 396.277286,255.163908 394.93365,245.068078 C393.590299,234.972248 390.204918,229.402237 367.662907,232.425279 C345.119507,235.44807 342.29366,241.851575 343.637439,251.947655 Z" id="path7313" fill="#000000" fill-rule="nonzero"></path>
                <path d="M367.658632,290.462372 C371.066349,301.558731 372.445216,313.170605 371.157544,330.403806" id="path8086" stroke="#000000" stroke-width="2.094918"></path>
                <path d="M198.334966,45.4328628 C84.7354303,80.0955149 54.9554551,165.477875 83.8137955,318.55962 C110.30842,459.102697 176.006997,503.714216 249.603483,488.145798 C235.754738,480.963672 223.259758,471.788008 212.04942,461.009851 C206.610179,455.780293 201.473367,450.173506 196.631078,444.234147 C98.9426675,324.412633 121.124846,69.2298862 198.334966,45.4328628 Z" id="path4522-3" fill="#000000" fill-rule="nonzero" opacity="0.15"></path>
                <path d="M76.241291,244.87054 C-10.7464904,232.245585 -34.6797302,294.562183 78.1845371,284.286051 C92.9107801,266.421115 86.690754,257.205731 76.241291,244.87054 Z" id="path7191" stroke="#000000" stroke-width="4.3" fill="#FFFFFF" fill-rule="nonzero"></path>
                <path d="M181.536731,457.987165 C175.454637,463.286473 157.256984,524.490649 175.174532,529.701523 C193.092116,534.91236 224.617232,470.251445 224.060904,464.0399 C222.884626,450.90533 193.075872,447.93346 181.536731,457.987165 L181.536731,457.987165 Z" id="path7191-0" stroke="#000000" stroke-width="4.3" fill="#FFFFFF" fill-rule="nonzero"></path>
                <path d="M199.752448,452.018497 C192.760293,452.27585 185.854907,454.21716 181.52773,457.987282 C175.445635,463.286665 157.259147,524.49535 175.176694,529.706231 C175.276885,529.734558 193.491659,519.134467 193.592698,519.159729 C190.924931,502.024487 187.959946,475.128862 204.152125,452.203659 C202.689374,452.109044 201.22994,451.964283 199.752419,452.01916 L199.752448,452.018497 Z" id="path7191-0-0" fill="#FFFFFF" fill-rule="nonzero" opacity="0.15"></path>
                <path d="M76.1373255,284.002984 C80.1650893,279.116765 82.8965811,279.372027 84.1325122,275.53909 C84.1325122,275.53909 29.789149,285.489574 28.5505694,267.09426 C27.3119897,248.698947 81.4566297,251.409523 81.4566297,251.409523 C79.5266661,247.740904 77.5076427,248.507323 74.1859947,244.586252 C68.7492606,243.797163 63.5750872,243.292052 58.6489692,243.052459 C-15.242821,239.458481 -29.6729196,293.636858 76.1373255,284.002984 Z" id="path7191-3" fill="#FFFFFF" fill-rule="nonzero" opacity="0.15"></path>
                <path d="M399.321218,417.117474 C403.041991,413.354451 406.801023,409.596971 407.611202,405.382692" id="path4599-5" stroke="#000000" stroke-width="2.1" opacity="0.3" stroke-linecap="round"></path>
                <path d="M410.075972,412.511838 C413.796745,408.748815 415.741701,403.678443 414.990122,398.309332" id="path4599-6-8" stroke="#000000" stroke-width="2.1" opacity="0.3" stroke-linecap="round"></path>
                <path d="M250.788072,473.597435 C245.557623,474.33409 240.348049,472.860422 236.515455,469.039968" id="path4599-6-8-1" stroke="#000000" stroke-width="3.1" opacity="0.3" stroke-linecap="round"></path>
                <g id="uzbek-flag" transform="translate(244.7563, 376.5208) rotate(-13) translate(-244.7563, -376.5208)translate(214.9886, 343.3958)" fill-rule="nonzero">
                    <path d="M58.2454424,48.2706263 C58.2680933,48.1914034 58.2889424,48.1114025 58.3070889,48.0307533 C58.3131377,48.0046914 58.318543,47.9787592 58.3239483,47.9525676 C58.3384913,47.8824209 58.3513611,47.8118853 58.3625578,47.7407013 C58.3673197,47.7101013 58.3723389,47.6793716 58.3767147,47.6485123 C58.3864957,47.577847 58.3935741,47.5067927 58.3998804,47.4354791 C58.4024543,47.4063053 58.4059292,47.3773909 58.4079884,47.3480875 C58.4146807,47.2486374 58.4186732,47.1487984 58.4186732,47.0481813 L58.4178981,41.7437451 L58.4172546,38.3459756 L58.4171259,37.799454 L58.4166111,34.4835007 L58.4155816,28.1529265 L58.4149381,24.7552866 L58.4141659,19.4411258 C58.4140372,19.0526611 58.3615283,18.6722354 58.2647471,18.3065911 C58.2126243,18.1098952 58.1469881,17.9179967 58.0689969,17.731544 C57.7502112,16.9695257 57.2229341,16.3031972 56.534398,15.8203392 C56.4334985,15.7496739 56.3305398,15.6814722 56.2228193,15.6188458 L53.2789736,13.9073191 L50.5230275,12.3049671 L48.3042682,11.0149687 L39.8203453,6.0818819 L36.5106103,4.15706266 L34.0282768,2.71367513 L32.4899456,1.81927276 C31.134366,1.03119251 29.4643764,1.03132217 28.1090543,1.82005073 L26.5811477,2.70913699 L24.0988142,4.15356181 L20.7890791,6.079548 L12.3059284,11.0157466 L8.58783353,13.179272 L5.83265958,14.7825317 L4.38068497,15.6275331 C4.27605323,15.6883442 4.17605462,15.7544714 4.07785779,15.8229324 C3.65675684,16.1167445 3.29640151,16.480055 3.00567197,16.8908214 C2.8104366,17.1667402 2.6477619,17.4643125 2.51996446,17.7778331 C2.30709741,18.300497 2.19088281,18.8668568 2.19088281,19.4503318 L2.1917837,24.7550273 L2.19242719,28.1526671 L2.19397157,37.7136184 L2.19410027,38.2336891 L2.19410027,38.3437714 L2.19410027,38.3457163 L2.19474376,41.7434858 L2.19474376,41.9851741 L2.19500116,43.6211084 L2.19551595,47.056739 L2.19551595,47.0575169 C2.19564465,47.157745 2.199763,47.2570654 2.20632661,47.3562561 C2.20838579,47.3853002 2.21173194,47.414085 2.21417721,47.4429994 C2.22048343,47.514313 2.22781924,47.585108 2.23734291,47.6553843 C2.24158996,47.6859844 2.24660919,47.7164547 2.25149973,47.7469251 C2.26256779,47.8177201 2.27518022,47.8878667 2.28972314,47.9577541 C2.29525716,47.9838159 2.30079119,48.0100075 2.30658262,48.0359397 C2.32460038,48.1156813 2.34493472,48.1943856 2.36719953,48.2725712 C2.37144658,48.2872229 2.37505013,48.3020043 2.37942587,48.316656 C2.49641266,48.7110851 2.66758145,49.0855464 2.88662601,49.4303153 C3.03771786,49.6682435 3.21081711,49.8911309 3.4050229,50.0967735 C3.41132912,50.1035158 3.41763534,50.1105175 3.42394156,50.1172599 C3.51531737,50.2125608 3.61106893,50.3038423 3.71132494,50.3911042 C3.72741223,50.4053669 3.74427171,50.4189813 3.7604877,50.4328551 C3.86164459,50.5185611 3.96563285,50.6014145 4.07502643,50.6779146 C4.17592592,50.7485799 4.27888459,50.816652 4.3866051,50.8794079 L7.28900993,52.5669473 L10.0449561,54.1694291 L12.3050275,55.4835445 L24.0994577,62.3413208 L26.5817911,63.7847083 L28.1201223,64.6791107 C29.4757019,65.4671909 31.1456915,65.4670613 32.5010136,64.6783327 L34.0289203,63.7892465 L36.5112537,62.3448216 L39.8209888,60.4189651 L46.9706961,56.2586586 L48.3043969,55.4826368 L51.696885,53.508676 L54.452059,51.9054163 L56.229769,50.87098 C56.3344008,50.8101689 56.4343994,50.7440417 56.5324675,50.6755807 C56.6419898,50.5990806 56.7461068,50.5166161 56.8472637,50.4314288 C56.8638657,50.4175551 56.8805965,50.403811 56.8969412,50.3895483 C56.9971972,50.3025456 57.0933349,50.2113939 57.1847107,50.1159633 C57.1906308,50.1097396 57.1962935,50.1032565 57.2022137,50.0970328 C57.681615,49.5925214 58.0355354,48.9807802 58.2342456,48.3122475 C58.2379779,48.2986331 58.2415814,48.2845001 58.2454424,48.2706263 Z" id="Path" fill="#FFFFFF"></path>
                    <path d="M58.2454424,48.2706263 C58.2680933,48.1914034 58.2889424,48.1114025 58.3070889,48.0307533 C58.3131377,48.0046914 58.318543,47.9787592 58.3239483,47.9525676 C58.3384913,47.8824209 58.3513611,47.8118853 58.3625578,47.7407013 C58.3673197,47.7101013 58.3723389,47.6793716 58.3767147,47.6485123 C58.3864957,47.577847 58.3935741,47.5067927 58.3998804,47.4354791 C58.4024543,47.4063053 58.4059292,47.3773909 58.4079884,47.3480875 C58.4146807,47.2486374 58.4186732,47.1487984 58.4186732,47.0481813 L58.4178981,41.7437451 L58.4172546,38.3459756 L58.4171259,37.799454 L58.4166111,34.4835007 L58.4155816,28.1529265 L58.4149381,24.7552866 L58.4141659,19.4411258 C58.4140372,19.0526611 58.3615283,18.6722354 58.2647471,18.3065911 C58.2126243,18.1098952 58.1469881,17.9179967 58.0689969,17.731544 C57.7502112,16.9695257 57.2229341,16.3031972 56.534398,15.8203392 C56.4334985,15.7496739 56.3305398,15.6814722 56.2228193,15.6188458 L53.2789736,13.9073191 L50.5230275,12.3049671 L48.3042682,11.0149687 L39.8203453,6.0818819 L36.5106103,4.15706266 L34.0282768,2.71367513 L32.4899456,1.81927276 C31.134366,1.03119251 29.4643764,1.03132217 28.1090543,1.82005073 L26.5811477,2.70913699 L24.0988142,4.15356181 L20.7890791,6.079548 L12.3059284,11.0157466 L8.58783353,13.179272 L5.83265958,14.7825317 L4.38068497,15.6275331 C4.27605323,15.6883442 4.17605462,15.7544714 4.07785779,15.8229324 C3.65675684,16.1167445 3.29640151,16.480055 3.00567197,16.8908214 C2.8104366,17.1667402 2.6477619,17.4643125 2.51996446,17.7778331 C2.30709741,18.300497 2.19088281,18.8668568 2.19088281,19.4503318 L2.1917837,24.7550273 L2.19242719,28.1526671 L2.19397157,37.7136184 L2.19410027,38.2336891 L2.19410027,38.3437714 L2.19410027,38.3457163 L2.19474376,41.7434858 L2.19474376,41.9851741 L2.19500116,43.6211084 L2.19551595,47.056739 L2.19551595,47.0575169 C2.19564465,47.157745 2.199763,47.2570654 2.20632661,47.3562561 C2.20838579,47.3853002 2.21173194,47.414085 2.21417721,47.4429994 C2.22048343,47.514313 2.22781924,47.585108 2.23734291,47.6553843 C2.24158996,47.6859844 2.24660919,47.7164547 2.25149973,47.7469251 C2.26256779,47.8177201 2.27518022,47.8878667 2.28972314,47.9577541 C2.29525716,47.9838159 2.30079119,48.0100075 2.30658262,48.0359397 C2.32460038,48.1156813 2.34493472,48.1943856 2.36719953,48.2725712 C2.37144658,48.2872229 2.37505013,48.3020043 2.37942587,48.316656 C2.49641266,48.7110851 2.66758145,49.0855464 2.88662601,49.4303153 C3.03771786,49.6682435 3.21081711,49.8911309 3.4050229,50.0967735 C3.41132912,50.1035158 3.41763534,50.1105175 3.42394156,50.1172599 C3.51531737,50.2125608 3.61106893,50.3038423 3.71132494,50.3911042 C3.72741223,50.4053669 3.74427171,50.4189813 3.7604877,50.4328551 C3.86164459,50.5185611 3.96563285,50.6014145 4.07502643,50.6779146 C4.17592592,50.7485799 4.27888459,50.816652 4.3866051,50.8794079 L7.28900993,52.5669473 L10.0449561,54.1694291 L12.3050275,55.4835445 L24.0994577,62.3413208 L26.5817911,63.7847083 L28.1201223,64.6791107 C29.4757019,65.4671909 31.1456915,65.4670613 32.5010136,64.6783327 L34.0289203,63.7892465 L36.5112537,62.3448216 L39.8209888,60.4189651 L46.9706961,56.2586586 L48.3043969,55.4826368 L51.696885,53.508676 L54.452059,51.9054163 L56.229769,50.87098 C56.3344008,50.8101689 56.4343994,50.7440417 56.5324675,50.6755807 C56.6419898,50.5990806 56.7461068,50.5166161 56.8472637,50.4314288 C56.8638657,50.4175551 56.8805965,50.403811 56.8969412,50.3895483 C56.9971972,50.3025456 57.0933349,50.2113939 57.1847107,50.1159633 C57.1906308,50.1097396 57.1962935,50.1032565 57.2022137,50.0970328 C57.681615,49.5925214 58.0355354,48.9807802 58.2342456,48.3122475 C58.2379779,48.2986331 58.2415814,48.2845001 58.2454424,48.2706263 Z" id="Path" fill="#FFFFFF"></path>
                    <path d="M58.5846975,19.7317817 C58.5845687,19.3503395 58.5320569,18.976791 58.4352705,18.6177567 C58.3831448,18.4246166 58.317505,18.2361872 58.2396382,18.0531052 C57.9205775,17.3048623 57.3934002,16.6505795 56.7048262,16.1764505 C56.6039212,16.1070626 56.5009568,16.0400938 56.3932304,15.9785996 L53.4492228,14.2980134 L50.6931252,12.7246281 L48.4742439,11.4579499 L39.9894683,6.61391461 L36.67968,4.72414627 L34.19721,3.30685185 L32.6587942,2.42861821 C31.3031401,1.65478462 29.6330587,1.65491194 28.277662,2.42938211 L26.7496714,3.30239575 L24.2672014,4.72070871 L20.9572843,6.61187753 L20.9572843,6.61187753 L12.4736672,11.4588411 L8.75536783,13.5832549 L6.00004239,15.1575314 L4.54798794,15.9872572 C4.44335044,16.0469689 4.34334633,16.1119007 4.24514411,16.1791241 C3.8238913,16.4676248 3.46364485,16.8243674 3.17289932,17.2277081 C2.97765322,17.498639 2.81496958,17.7908318 2.6871651,18.0986847 C2.47428635,18.6119001 2.35806537,19.1680214 2.35806537,19.7409485 L2.3588376,23.9317195 L58.5858558,23.9317195 L58.5846975,19.7317817 Z" id="Path" fill="#FFFFFF"></path>
                    <path d="M2.02370026,43.3924429 L2.0243438,46.7659652 L2.0243438,46.7667291 L2.0243438,46.7667291 C2.0244725,46.8651453 2.02859111,46.9626702 2.03515515,47.0600678 C2.03721446,47.0885868 2.04056083,47.1168512 2.04300625,47.145243 C2.04931287,47.2152674 2.05664915,47.2847826 2.06617344,47.3537884 C2.07042076,47.3838353 2.07544031,47.4137548 2.08033116,47.4436744 C2.09139993,47.5131895 2.10401318,47.5820681 2.11855702,47.650692 C2.1239627,47.6762828 2.12962579,47.7020008 2.13541758,47.7274643 C2.15343651,47.8057643 2.17377215,47.8830458 2.19603839,47.959818 C2.2002857,47.9742049 2.20388949,47.988719 2.20826551,48.0031059 C2.3252598,48.3904046 2.49643957,48.7580965 2.71536948,49.0966328 C2.71549818,49.0966328 2.71549818,49.0967601 2.71549818,49.0968874 L2.7157556,49.0970148 C2.86659972,49.3302598 3.03971008,49.5491179 3.23392833,49.7510429 C3.24023495,49.7576634 3.24654157,49.7645385 3.2528482,49.771159 C3.34422987,49.8647371 3.43998758,49.9543684 3.54025001,50.0400528 C3.55633833,50.0540577 3.5731989,50.067426 3.58941593,50.0810489 C3.69057931,50.1652056 3.79457423,50.2465612 3.90397483,50.3216783 C4.0048808,50.3910662 4.10784607,50.458035 4.21557349,50.5195292 L7.1181645,52.1765618 L9.87428741,53.7500743 L12.1345038,55.0404336 L23.9296905,61.7742372 L26.4121832,63.1915316 L27.9506131,64.0697652 C29.3062796,64.8435988 30.9763763,64.8434715 32.3317854,64.0690013 L33.8597901,63.1959877 L36.3422828,61.7776747 L39.6522301,59.8866332 L46.802396,55.8015354 L48.1361824,55.0395423 L51.5288881,53.1011389 L54.2842388,51.5268624 L56.0620629,50.5111262 C56.1667014,50.4514145 56.2667064,50.3864828 56.3647808,50.3192593 C56.4744388,50.2441422 56.5784337,50.1631685 56.6795971,50.0795211 C56.6962003,50.0658982 56.7129321,50.0524026 56.7292779,50.0383977 C56.8295403,49.9528406 56.9256841,49.8634639 57.0170658,49.7697585 C57.023115,49.7636473 57.0286494,49.7572814 57.0345699,49.7511702 C57.5140019,49.2557792 57.8679451,48.655097 58.066668,47.9986498 C58.0709154,47.9851542 58.0743904,47.9712766 58.0782516,47.9576537 C58.100904,47.8798629 58.1217545,47.8013082 58.1399021,47.7221169 C58.1459513,47.6965262 58.151357,47.6710628 58.1567626,47.6453447 C58.1713065,47.5764661 58.1841771,47.5072056 58.1953746,47.4374358 C58.2001368,47.407389 58.2051563,47.3772148 58.2095323,47.3469133 C58.219314,47.2775255 58.2263929,47.2077557 58.2326995,47.1377313 C58.2352737,47.1090849 58.23862,47.0806932 58.240808,47.0519195 C58.2475008,46.9542673 58.2514907,46.8562331 58.2514907,46.757435 L58.2514907,46.757435 L58.2514907,46.7566711 L58.2508472,42.5666639 L2.02370026,42.5666639 L2.02370026,43.3924429 Z" id="Path" fill="#FFFFFF"></path>
                    <g id="Group" transform="translate(2.0669, 24.4017)" fill="#000000">
                        <polygon id="Path" points="56.2276617 17.7498994 56.2272756 16.4619853 0.00296009572 16.4619853 0.00308879553 17.7498994 0.00308879553 17.7498994 0.00308879553 17.987896 0.00321749535 18.7708333 56.2277904 18.7708333 56.2276617 17.7500271"></polygon>
                        <polygon id="Path" points="56.2247016 1.02093395 56.2245729 -6.37243923e-13 1.3735475e-13 -6.37243923e-13 0.000128699814 1.02093395 0.000386099442 2.308848 56.2248303 2.308848"></polygon>
                    </g>
                    <path d="M29.2332173,21.3084885 C29.2332173,22.0527903 28.668755,22.6583455 27.9749615,22.6583455 C27.2811679,22.6583455 26.7169682,22.0527903 26.7169682,21.3084885 C26.7169682,20.5641867 27.2812992,19.9586315 27.9749615,19.9586315 C28.668755,19.9586315 29.2332173,20.5641867 29.2332173,21.3084885 Z M36.2458632,19.9586315 C35.5520696,19.9586315 34.9876074,20.5641867 34.9876074,21.3084885 C34.9876074,22.0527903 35.5520696,22.6583455 36.2458632,22.6583455 C36.9396568,22.6583455 37.5038564,22.0527903 37.5038564,21.3084885 C37.5039877,20.5641867 36.9396568,19.9586315 36.2458632,19.9586315 Z M32.1105436,19.9586315 C31.4167501,19.9586315 30.8525504,20.5641867 30.8525504,21.3084885 C30.8525504,22.0527903 31.4168814,22.6583455 32.1105436,22.6583455 C32.8043372,22.6583455 33.3685369,22.0527903 33.3685369,21.3084885 C33.3685369,20.5641867 32.8040746,19.9586315 32.1105436,19.9586315 Z M36.2458632,15.4205596 C36.9396568,15.4205596 37.5038564,14.8150044 37.5038564,14.0707025 C37.5038564,13.3264007 36.9395255,12.7208455 36.2458632,12.7208455 C35.5520696,12.7208455 34.9876074,13.3262598 34.9876074,14.0707025 C34.9877387,14.8150044 35.5523322,15.4205596 36.2458632,15.4205596 Z M23.8396419,19.9586315 C23.1458483,19.9586315 22.5813861,20.5641867 22.5813861,21.3084885 C22.5813861,22.0527903 23.1458483,22.6583455 23.8396419,22.6583455 C24.5334355,22.6583455 25.0976351,22.0527903 25.0976351,21.3084885 C25.0976351,20.5641867 24.5331729,19.9586315 23.8396419,19.9586315 Z M27.9749615,16.301636 C27.2811679,16.301636 26.7169682,16.9070503 26.7169682,17.651493 C26.7169682,18.3959357 27.2812992,19.00135 27.9749615,19.00135 C28.668755,19.00135 29.2332173,18.3959357 29.2332173,17.651493 C29.2332173,16.9070503 28.6686237,16.301636 27.9749615,16.301636 Z M32.1105436,16.301636 C31.4167501,16.301636 30.8525504,16.9070503 30.8525504,17.651493 C30.8525504,18.3959357 31.4168814,19.00135 32.1105436,19.00135 C32.8043372,19.00135 33.3685369,18.3959357 33.3685369,17.651493 C33.3685369,16.9070503 32.8040746,16.301636 32.1105436,16.301636 Z M27.9749615,12.7208455 C27.2811679,12.7208455 26.7169682,13.3262598 26.7169682,14.0707025 C26.7169682,14.8150044 27.2812992,15.4205596 27.9749615,15.4205596 C28.668755,15.4205596 29.2332173,14.8150044 29.2332173,14.0707025 C29.2332173,13.3264007 28.6686237,12.7208455 27.9749615,12.7208455 Z M32.1105436,12.7208455 C31.4167501,12.7208455 30.8525504,13.3262598 30.8525504,14.0707025 C30.8525504,14.8150044 31.4168814,15.4205596 32.1105436,15.4205596 C32.8043372,15.4205596 33.3685369,14.8150044 33.3685369,14.0707025 C33.3685369,13.3264007 32.8040746,12.7208455 32.1105436,12.7208455 Z M23.8396419,16.301636 C23.1458483,16.301636 22.5813861,16.9070503 22.5813861,17.651493 C22.5813861,18.3959357 23.1458483,19.00135 23.8396419,19.00135 C24.5334355,19.00135 25.0976351,18.3959357 25.0976351,17.651493 C25.0976351,16.9070503 24.5331729,16.301636 23.8396419,16.301636 Z M19.7040598,19.9586315 C19.0102662,19.9586315 18.4460665,20.5641867 18.4460665,21.3084885 C18.4460665,22.0527903 19.0103975,22.6583455 19.7040598,22.6583455 C20.3978533,22.6583455 20.9623156,22.0527903 20.9623156,21.3084885 C20.9623156,20.5641867 20.397722,19.9586315 19.7040598,19.9586315 Z M36.2458632,16.301636 C35.5520696,16.301636 34.9876074,16.9070503 34.9876074,17.651493 C34.9876074,18.3959357 35.5520696,19.00135 36.2458632,19.00135 C36.9396568,19.00135 37.5038564,18.3959357 37.5038564,17.651493 C37.5039877,16.9070503 36.9396568,16.301636 36.2458632,16.301636 Z M16.8267334,21.3465206 C16.8267334,20.643068 16.295359,20.0730094 15.6396426,20.0730094 C14.4146059,20.0730094 13.4179014,19.0037446 13.4179014,17.6895251 C13.4179014,16.3753055 14.4146059,15.3063225 15.6396426,15.3063225 C16.295359,15.3063225 16.8267334,14.736123 16.8267334,14.0328113 C16.8267334,13.3293588 16.295359,12.7593002 15.6396426,12.7593002 C13.1052741,12.7593002 11.0437198,14.9710767 11.0437198,17.689666 C11.0437198,20.4085369 13.1054054,22.6201726 15.6396426,22.6201726 C16.2952277,22.6200317 16.8267334,22.0498323 16.8267334,21.3465206 Z" id="Shape" fill="#000000"></path>
                    <path d="M29.7721013,66.25 L29.7721013,66.25 C28.784173,66.25 27.8099842,65.9918579 26.9543467,65.5036523 L2.8239046,51.7323218 C2.69632446,51.6594727 2.56913688,51.5789893 2.42323754,51.4787085 C2.29421803,51.3898145 2.16166554,51.2887573 2.01799068,51.1693262 L1.95400433,51.1160156 C1.8272093,51.007583 1.70290044,50.8912573 1.58552672,50.7709204 C1.579115,50.7643213 1.56236601,50.7464648 1.55582344,50.7397363 C1.3132249,50.4878052 1.08907641,50.2053369 0.894892895,49.9051416 C0.894631192,49.904624 0.894238638,49.9042358 0.893976935,49.9037183 L0.893976935,49.9037183 C0.892406718,49.9012598 0.890836501,49.8989307 0.889266284,49.8963428 C0.608197423,49.4604126 0.390198949,48.9894165 0.241290028,48.4961646 C0.237233633,48.4824487 0.231476171,48.4632983 0.226242114,48.4440186 C0.19653884,48.3412793 0.170368555,48.2416455 0.147207853,48.1413647 C0.140011025,48.1099219 0.132814196,48.0769263 0.125748219,48.0439307 C0.106774763,47.9546484 0.0902874832,47.8651074 0.0758938265,47.77479 C0.0686969981,47.7302783 0.0634629411,47.6967651 0.0587522898,47.6631226 C0.0459288501,47.571123 0.0363766961,47.481582 0.0286564621,47.392041 L0.0269553935,47.3753491 C0.0236841079,47.3444238 0.0208053766,47.3136279 0.0185809023,47.2821851 C0.00929045117,47.1481323 0.00484150272,47.0246899 0.00484150272,46.9047412 L1.88346051e-13,19.354834 C1.88346051e-13,18.6291895 0.142235499,17.9181665 0.423173508,17.2415625 C0.588046304,16.8448389 0.798193692,16.4681714 1.04811991,16.1212646 C1.42929011,15.5928174 1.89328927,15.1392896 2.42794819,14.7728442 C2.5709688,14.6748926 2.69501595,14.5967383 2.81853969,14.5262183 L26.9432244,0.747382813 C27.7993852,0.258530273 28.7743592,2.94360975e-13 29.7628109,2.94360975e-13 C30.7507391,2.94360975e-13 31.724928,0.25814209 32.5805654,0.746347656 L56.7110076,14.5175488 C56.839242,14.5906567 56.9665604,14.6713989 57.112198,14.7716797 C57.9878558,15.3741406 58.6707693,16.2084766 59.0868769,17.1844995 C59.1886793,17.4233618 59.2733402,17.6677881 59.3391584,17.912085 C59.4660843,18.3828223 59.5307249,18.8652051 59.5307249,19.3451294 L59.5353075,46.8946484 C59.5353075,47.0125269 59.5309866,47.136875 59.5215653,47.2739038 C59.5194717,47.3050879 59.5167238,47.3360132 59.5133217,47.3670679 L59.5114898,47.3855713 C59.5036387,47.4742065 59.4939557,47.5634888 59.4817865,47.6525122 C59.4766833,47.6884839 59.4715801,47.7216089 59.4659535,47.7548633 L59.4634673,47.77052 C59.4489428,47.860061 59.4325863,47.9490845 59.4138746,48.0375903 C59.4064161,48.0718799 59.3994809,48.1044873 59.3918916,48.1370947 C59.3682074,48.2394458 59.3415138,48.3403735 59.312203,48.4403955 C59.306969,48.4599341 59.300819,48.4812842 59.2942764,48.5026343 C59.0426491,49.3334766 58.5834914,50.1129492 57.9692749,50.7476294 L57.9492546,50.7687207 C57.8300489,50.8903516 57.7053475,51.0065479 57.576328,51.1166626 L57.5141736,51.1681616 C57.3693211,51.2881104 57.2368994,51.3887793 57.1076182,51.4772852 C56.9642051,51.5753662 56.8402888,51.6535205 56.716765,51.7240405 L32.5916878,65.502876 C31.7355269,65.9914697 30.760553,66.25 29.7721013,66.25 Z M2.89129308,48.6492383 C3.00343276,48.8215918 3.13205971,48.9837231 3.27416435,49.1309741 C3.27874415,49.1357617 3.29196015,49.1499951 3.2966708,49.1547827 C3.35607735,49.2157275 3.42843818,49.2832715 3.50263094,49.3468042 L3.53717572,49.3754004 C3.62955682,49.4521313 3.70427299,49.5094531 3.7745402,49.5578467 C3.86430428,49.6195679 3.93823534,49.6666675 4.00706319,49.705874 L28.1373745,63.4770752 C28.6336939,63.7603198 29.1991029,63.9101587 29.772363,63.9101587 C30.3458848,63.9101587 30.9116864,63.7601904 31.4085292,63.4765576 L55.5337373,49.697334 C55.6003407,49.6594214 55.6720472,49.6137451 55.7602411,49.5535767 C55.8294615,49.5059595 55.906533,49.4472144 55.9942035,49.374624 L56.0318887,49.3435693 C56.1068665,49.2797778 56.1792274,49.2123633 56.2463541,49.1435254 L56.2564297,49.1326562 C56.6156169,48.7615527 56.8818995,48.3099658 57.0294999,47.8234424 L57.0377436,47.794458 C57.0556702,47.7327368 57.0713724,47.6742505 57.0851118,47.6151172 L57.0976735,47.5574072 C57.1081416,47.5074609 57.1178246,47.4555737 57.1261991,47.4032983 L57.1370598,47.3343311 C57.1438641,47.2850317 57.149229,47.2324976 57.1538088,47.1799634 L57.1604822,47.112937 C57.1651929,47.0438403 57.1684778,46.9709912 57.1684778,46.8976245 L57.1638843,19.3455176 C57.1638843,19.0691309 57.12633,18.7897681 57.0521372,18.5149341 C57.0140595,18.373894 56.9648593,18.2320776 56.9057145,18.0931079 C56.6640319,17.5266187 56.2678138,17.0419067 55.7599794,16.6925415 C55.6702153,16.6308203 55.5964151,16.5837207 55.5274564,16.5443848 L31.3977994,2.77279541 C30.9013491,2.48955078 30.3360709,2.33971191 29.7628109,2.33971191 C29.1892891,2.33971191 28.6234875,2.48980957 28.1266446,2.77331299 L4.00117487,16.552666 C3.9345715,16.5905786 3.86286491,16.6362549 3.77467105,16.6964233 C3.46586169,16.9081128 3.19656946,17.1715601 2.97464544,17.4792603 C2.82979292,17.6803394 2.70770854,17.8991455 2.61179444,18.1297266 C2.44862271,18.5228271 2.36592461,18.9349487 2.36592461,19.3544458 L2.37063527,46.9037061 C2.37063527,46.9782373 2.37390655,47.0510864 2.3788789,47.1236768 L2.38502892,47.1852686 C2.38987042,47.2392261 2.39510448,47.2913721 2.40217046,47.3431299 L2.40989069,47.3915234 C2.40989069,47.3917822 2.41250772,47.4073096 2.41250772,47.4075684 C2.42114392,47.4619141 2.43043437,47.5123779 2.44116418,47.5627124 L2.45359507,47.619646 C2.46733447,47.6795557 2.48264408,47.737395 2.49913136,47.7948462 L2.50907607,47.8296533 C2.59478376,48.1135449 2.72223304,48.3879907 2.88671329,48.6423804 C2.8882835,48.6447095 2.88985372,48.6469092 2.89129308,48.6492383 Z" id="Shape" fill="#000000"></path>
                </g>
            </g>
        </g>
    </g>
</svg>