<?xml version="1.0" encoding="UTF-8"?>
<svg width="5111px" height="1000px" viewBox="0 0 5111 1000" version="1.1" xmlns="http://www.w3.org/2000/svg" xmlns:xlink="http://www.w3.org/1999/xlink">
    <title>Artboard</title>
    <defs>
        <linearGradient x1="21.4146839%" y1="96.8668474%" x2="53.9670721%" y2="23.928785%" id="linearGradient-1">
            <stop stop-color="#699AD7" offset="0%"></stop>
            <stop stop-color="#7EB1DD" offset="24.3%"></stop>
            <stop stop-color="#7EBAE4" offset="100%"></stop>
        </linearGradient>
        <linearGradient x1="21.4146839%" y1="96.8668474%" x2="53.9670721%" y2="23.928785%" id="linearGradient-2">
            <stop stop-color="#000000" offset="0%"></stop>
            <stop stop-color="#000000" offset="24.3%"></stop>
            <stop stop-color="#000000" offset="100%"></stop>
        </linearGradient>
        <linearGradient x1="81.4106726%" y1="96.8674837%" x2="48.4854351%" y2="23.928785%" id="linearGradient-3">
            <stop stop-color="#699AD7" offset="0%"></stop>
            <stop stop-color="#7EB1DD" offset="24.3%"></stop>
            <stop stop-color="#7EBAE4" offset="100%"></stop>
        </linearGradient>
        <linearGradient x1="81.4106726%" y1="96.8674837%" x2="48.4854351%" y2="23.928785%" id="linearGradient-4">
            <stop stop-color="#000000" offset="0%"></stop>
            <stop stop-color="#000000" offset="24.3%"></stop>
            <stop stop-color="#000000" offset="100%"></stop>
        </linearGradient>
        <linearGradient x1="75.2203643%" y1="0.652209878%" x2="43.2458039%" y2="73.874063%" id="linearGradient-5">
            <stop stop-color="#415E9A" offset="0%"></stop>
            <stop stop-color="#4A6BAF" offset="23.2%"></stop>
            <stop stop-color="#5277C3" offset="100%"></stop>
        </linearGradient>
        <linearGradient x1="75.2203643%" y1="0.652209878%" x2="43.2458039%" y2="73.874063%" id="linearGradient-6">
            <stop stop-color="#000000" offset="0%"></stop>
            <stop stop-color="#000000" offset="23.2%"></stop>
            <stop stop-color="#000000" offset="100%"></stop>
        </linearGradient>
        <linearGradient x1="24.7793599%" y1="0.652209878%" x2="56.7538569%" y2="73.874063%" id="linearGradient-7">
            <stop stop-color="#415E9A" offset="0%"></stop>
            <stop stop-color="#4A6BAF" offset="23.2%"></stop>
            <stop stop-color="#5277C3" offset="100%"></stop>
        </linearGradient>
        <linearGradient x1="24.7793599%" y1="0.652209878%" x2="56.7538569%" y2="73.874063%" id="linearGradient-8">
            <stop stop-color="#000000" offset="0%"></stop>
            <stop stop-color="#000000" offset="23.2%"></stop>
            <stop stop-color="#000000" offset="100%"></stop>
        </linearGradient>
    </defs>
    <g id="Artboard" stroke="none" stroke-width="1" fill="none" fill-rule="evenodd">
        <g id="Group" transform="translate(128, 74)">
            <polygon id="Path" fill="url(#linearGradient-2)" points="691.181235 844 1176 4.08948956 953.192296 2 823.759078 227.654157 693.39908 3.20547475 582.694331 3.24833607 526 101.218608 711.720408 420.594408 579.881847 650.041792"></polygon>
            <polygon id="Path" fill="url(#linearGradient-4)" points="561.931024 616 215 -4.97217753e-14 429.634011 1.37134874e-13 673 422.155981"></polygon>
            <polygon id="Path" fill="url(#linearGradient-6)" points="1217.8174 3 733 842.91051 955.804184 845 1085.23847 619.345843 1215.59954 843.794525 1326.3052 843.751664 1383 745.781392 1197.27806 426.405592 1329.12307 196.958208"></polygon>
            <polygon id="Path" fill="url(#linearGradient-8)" points="165.180436 3 650 842.91051 427.191928 845 297.758498 619.345843 167.403642 843.794525 56.6954962 843.751664 0 745.781392 185.719643 426.405592 53.8787213 196.95285"></polygon>
        </g>
        <g id="Xinux" transform="translate(1974.4685, 160.4331)" fill="#000000" fill-rule="nonzero">
            <polygon id="Path" points="0 676.566879 246.200348 303.88504 221.823074 386.214333 221.823074 339.309395 2.18196106 9.32029724 126.004639 9.32029724 291.01725 267.716507 338.680817 267.716507 270.599297 306.211502 460.559959 9.32029724 577.822304 9.32029724 351.490807 342.871338 351.490807 389.783501 326.860657 307.620384 573.494507 676.566879 451.911591 676.566879 285.793549 422.180565 238.129982 422.180565 306.977356 384.480324 115.015358 676.566879"></polygon>
            <path d="M651.553915,676.566879 L651.553915,190.242439 L752.025275,190.242439 L752.025275,676.566879 L651.553915,676.566879 Z M701.789595,115.39106 C685.600696,115.39106 671.82496,109.723019 660.462386,98.3869362 C649.099811,87.0508537 643.418524,73.4858475 643.418524,57.6919174 C643.418524,41.5897191 649.099811,27.94885 660.462386,16.76931 C671.82496,5.58977 685.600696,0 701.789595,0 C718.233778,0 732.073336,5.58977 743.308268,16.76931 C754.5432,27.94885 760.160666,41.5897191 760.160666,57.6919174 C760.160666,73.4858475 754.5432,87.0508537 743.308268,98.3869362 C732.073336,109.723019 718.233778,115.39106 701.789595,115.39106 Z" id="Shape"></path>
            <path d="M854.579476,676.566879 L854.579476,190.242439 L955.043611,190.242439 L955.043611,263.511536 L957.232797,263.511536 C970.122262,238.80191 989.010916,218.815051 1013.89876,203.550957 C1038.7866,188.286863 1069.61583,180.654816 1106.38645,180.654816 C1159.72167,180.654816 1201.06815,196.791935 1230.42588,229.066174 C1259.78361,261.340412 1274.46248,305.505857 1274.46248,361.562508 L1274.46248,676.566879 L1173.99835,676.566879 L1173.99835,380.896706 C1173.99835,344.23687 1165.40657,316.053206 1148.22303,296.345715 C1131.03948,276.638223 1105.16542,266.784477 1070.60085,266.784477 C1047.24471,266.784477 1026.90021,272.02865 1009.56735,282.516994 C992.234487,293.005339 978.813981,307.687818 969.305833,326.56443 C959.797685,345.441043 955.043611,367.552063 955.043611,392.897491 L955.043611,676.566879 L854.579476,676.566879 Z" id="Path"></path>
            <path d="M1536.31666,686.154503 C1500.7743,686.154503 1470.46888,678.839153 1445.40041,664.208454 C1420.33194,649.577755 1401.20486,628.71787 1388.01917,601.628799 C1374.83348,574.539729 1368.24063,542.412399 1368.24063,505.246811 L1368.24063,190.242439 L1468.70477,190.242439 L1468.70477,485.912613 C1468.70477,522.572449 1477.29654,550.756112 1494.48009,570.463604 C1511.66363,590.171096 1537.53528,600.024841 1572.09504,600.024841 C1589.73858,600.024841 1605.61078,597.013205 1619.71164,590.989933 C1633.81251,584.966661 1645.97345,576.431484 1656.19447,565.384403 C1666.41549,554.337322 1674.21491,541.034826 1679.59275,525.476913 C1684.97058,509.919001 1687.6595,492.730639 1687.6595,473.911827 L1687.6595,190.242439 L1788.12364,190.242439 L1788.12364,676.566879 L1687.6595,676.566879 L1687.6595,603.297783 L1685.47032,603.297783 C1676.89661,619.563749 1665.69419,633.935551 1651.86306,646.413189 C1638.03193,658.890827 1621.47455,668.633789 1602.19093,675.642075 C1582.90731,682.65036 1560.94922,686.154503 1536.31666,686.154503 Z" id="Path"></path>
            <polygon id="Path" points="1850.34283 676.566879 2010.97707 433.740623 1852.51757 190.242439 1965.11976 190.242439 2070.96655 365.919205 2073.15573 365.919205 2177.78871 190.242439 2288.44015 190.242439 2128.84632 430.424332 2286.54719 676.566879 2176.19198 676.566879 2068.77014 497.609947 2066.58095 497.609947 1958.91345 676.566879"></polygon>
        </g>
    </g>
</svg>