<?xml version="1.0" encoding="UTF-8"?>
<svg width="5111px" height="1000px" viewBox="0 0 5111 1000" version="1.1" xmlns="http://www.w3.org/2000/svg" xmlns:xlink="http://www.w3.org/1999/xlink">
    <title>Artboard</title>
    <g id="Artboard" stroke="none" stroke-width="1" fill="none" fill-rule="evenodd">
        <g id="Rust-Logo" fill-rule="nonzero">
            <path d="M962.676963,545.045045 C974.259974,550.19305 985.842986,555.341055 997.425997,561.132561 C989.266474,527.912136 977.842395,495.579838 963.320463,464.607465 C976.190476,467.181467 988.416988,470.39897 1000,473.616474 C986.055356,442.447037 969.478818,412.523157 950.45045,384.169884 C962.676963,384.813385 975.546976,385.456885 988.416988,387.387387 C969.413172,358.926943 947.642823,332.414538 923.423423,308.236808 C935.649936,306.306306 948.519949,305.019305 961.389961,303.732304 C937.599824,279.215537 911.527443,257.021692 883.526384,237.451737 C895.752896,232.947233 907.979408,229.72973 920.20592,226.512227 C892.483906,206.464993 862.972453,189.016616 832.046332,174.388674 C843.629344,168.597169 854.568855,163.449163 866.151866,158.301158 C835.418711,143.080262 803.315335,130.799104 770.27027,121.621622 C780.566281,113.899614 790.862291,106.821107 801.158301,99.7425997 C768.419703,90.1171664 734.782777,83.8641482 700.772201,81.0810811 C709.137709,71.4285714 718.146718,62.4195624 727.155727,53.4105534 C693.166047,49.7734095 658.909537,49.34251 624.839125,52.1235521 C631.917632,41.8275418 638.352638,31.5315315 646.074646,20.5920206 C611.971232,23.1839076 578.163359,28.7826637 545.045045,37.3230373 C550.19305,25.7400257 555.341055,14.1570142 561.132561,2.57400257 C527.912102,10.73341 495.579792,22.1574925 464.607465,36.6795367 C467.181467,23.8095238 470.39897,12.2265122 473.616474,0 C442.446982,13.9446384 412.523094,30.5212705 384.169884,49.5498177 C384.602938,37.0619399 385.676853,24.6045305 387.387387,12.2267804 C358.941776,31.007943 332.428545,52.5634157 308.236808,76.5768447 C306.306306,64.3503325 305.019305,52.1238202 303.732304,39.2538074 C279.226716,62.8211803 257.03208,88.6790092 237.451737,116.473885 C233.128976,104.459331 229.476848,92.2139608 226.512227,79.7943479 C206.602171,107.606007 189.161276,137.104804 174.388674,167.953936 C168.597169,157.014425 163.449163,145.431414 158.301158,133.848402 C143.080291,164.58157 130.799135,196.684943 121.621622,229.729998 C113.899614,219.433988 106.821107,209.781478 99.7425997,198.841967 C90.1153824,231.799298 83.8627471,265.649772 81.0810811,299.871568 C71.4285714,290.862291 62.4195624,282.497051 53.4105534,272.844541 C49.7733147,306.834215 49.3424151,341.090735 52.1235521,375.161143 C41.8275418,368.082368 31.5315315,361.647362 20.5920206,353.925354 C23.1314463,388.035072 28.7309707,421.847585 37.3230373,454.954955 C25.7400257,449.80695 14.1570142,444.658945 2.57400257,438.867439 C10.7335021,472.087871 22.1575815,504.420171 36.6795367,535.392535 C24.4530245,532.818533 12.2265122,530.24453 0,526.383526 C13.9446471,557.552961 30.521185,587.476841 49.5495495,615.830116 C37.061663,615.397207 24.6042462,614.323292 12.2265122,612.612613 C31.0017342,641.261038 52.5560314,667.988366 76.5765766,692.406692 C64.3500644,693.693694 52.1235521,695.624196 39.2535393,696.267696 C62.8118071,720.975324 88.6684445,743.38441 116.473616,763.191763 C104.247104,766.409266 92.6640927,770.27027 79.7940798,773.487773 C107.453708,793.63005 136.974338,811.083853 167.953668,825.611326 C157.014157,831.402831 145.431145,837.194337 133.848134,842.342342 C164.716266,857.081389 196.795044,869.137842 229.72973,878.378378 C219.852916,886.245859 209.540554,893.550449 198.841699,900.2574 C231.63502,909.781756 265.240945,916.244434 299.227799,919.56242 C290.862291,928.571429 281.853282,937.580706 272.844273,946.589447 C306.618722,950.226524 340.661683,950.657447 374.517375,947.876448 C368.082368,958.172458 361.003861,969.111969 353.281853,979.407979 C387.43468,977.236889 421.282017,971.631598 454.311454,962.676963 C449.80695,974.259974 444.658945,985.842986 438.867439,997.425997 C472.026015,989.060579 504.338931,977.643348 535.392535,963.320463 C532.175032,976.190476 529.60103,988.416988 525.740026,1000 C557.048731,986.335758 586.997192,969.745604 615.186615,950.45045 C615.186615,962.676963 613.899614,975.546976 612.612613,988.416988 C641.073097,969.413226 667.585508,947.642873 691.763192,923.423423 C693.050193,935.649936 694.337194,948.519949 695.624196,961.389961 C720.520434,937.777292 742.9444,911.687871 762.548263,883.526384 C766.409266,895.752896 769.62677,907.979408 772.844273,920.20592 C793.354379,892.789868 810.831051,863.230558 824.967825,832.046332 C831.402831,843.629344 836.550837,854.568855 841.698842,866.151866 C856.99195,835.522503 869.068512,803.390221 877.734878,770.27027 C885.456885,780.566549 893.178893,790.862291 900.2574,801.158301 C909.882972,768.419736 916.135993,734.782796 918.918919,700.772201 C927.927928,709.137387 937.580438,718.146718 946.589447,727.155727 C950.017069,693.146105 950.232521,658.88917 947.232947,624.839125 C958.13365,631.320279 968.660818,638.410005 978.764479,646.074646 C977.386284,611.883378 971.986597,577.973345 962.676963,545.045045 Z" id="Path" fill="#FFFFFF"></path>
            <path d="M937.571429,519.477195 C948.5,523.336964 960.071429,527.840027 971,532.343091 C961.57768,501.466459 949.310743,471.531984 934.357143,442.925119 C945.928571,445.498298 957.5,447.428182 969.071429,450.001361 C954.60998,421.025338 937.15778,393.643385 917,368.302927 C929.214286,368.302927 940.785714,368.302927 953,368.946222 C933.744505,343.075394 911.997343,319.158778 888.071429,297.540504 C899.642857,294.967325 911.214286,293.680735 923.428571,291.750851 C899.732212,269.984105 874.12927,250.392057 846.928571,233.211028 C858.5,228.707965 869.428571,224.848196 881,220.988428 C853.741687,203.34034 824.903408,188.265312 794.857143,175.957794 C805.142857,170.16841 815.428571,164.378489 826.357143,159.232131 C796.647975,146.670264 765.884794,136.767679 734.428571,129.640572 C743.428571,121.921035 752.428571,114.201498 762.071429,107.125255 C730.644758,99.6873959 698.560053,95.3777925 666.285714,94.2593601 C674,85.2532335 681.714286,76.2471069 690.071429,67.2409803 C657.880848,65.2604376 625.57251,66.5536509 593.642857,71.1007488 C599.021526,60.6648171 605.032739,50.5676984 611.642857,40.8658952 C579.766509,44.680216 548.334131,51.574194 517.785714,61.4513274 C521.399796,50.0538815 525.693206,38.8834155 530.642857,28 C499.746197,37.3133255 469.821367,49.5930122 441.285714,64.6678012 C443.214286,53.0884956 445.142857,40.8658952 447.714286,29.2865895 C418.961445,43.7624043 391.81176,61.2276545 366.714286,81.3934649 C366.714286,69.8141593 366.714286,57.5915589 367.357143,45.3689585 C341.490029,64.8600748 317.590489,86.8367648 296,110.985024 C293.428571,98.7624234 291.5,87.1831178 290.214286,75.6038121 C267.972637,98.8291357 248.155839,124.263635 231.071429,151.512594 C226.642736,140.568417 222.780474,129.403174 219.5,118.061266 C201.740752,145.039854 186.668602,173.696433 174.5,203.619469 C168.090561,193.468525 162.294469,182.94253 157.142857,172.098026 C144.589564,201.827428 134.693716,232.611548 127.571429,264.089176 C119.857143,255.726344 112.785714,246.076923 105.071429,236.427502 C97.6804803,267.883295 93.3743641,299.985699 92.2142857,332.278421 C83.2142857,324.558884 74.2142857,316.839346 65.2142857,308.476515 C63.4730593,340.710861 64.9806677,373.038747 69.7142857,404.970728 C58.7857143,399.181076 49.1428571,392.748128 38.8571429,386.31518 C42.6689292,418.423666 49.5577849,450.090888 59.4285714,480.87951 C48.0773002,477.154151 36.9203621,472.8601 26,468.013615 C35.3070912,498.931271 47.5784204,528.876463 62.6428571,557.431586 C50.9539518,555.692028 39.3660687,553.329927 27.9285714,550.355344 C42.4057327,579.179946 59.628386,606.53952 79.3571429,632.053778 C67.7857143,632.053778 55.5714286,632.053778 44,631.410483 C63.0716035,657.432376 84.835056,681.366907 108.928571,702.816201 C97.3571429,705.389381 85.7857143,706.67597 73.5714286,708.605854 C97.0045576,730.872989 122.635935,750.702333 150.071429,767.788972 C138.5,771.648741 127.571429,775.508188 116,779.368278 C143.111874,796.881323 171.724232,811.95071 201.5,824.398911 C191.857143,830.188564 180.928571,836.621511 170.642857,841.767869 C200.228553,854.503426 231.029114,864.202508 262.571429,870.716133 C253.571429,878.435992 244.571429,886.155208 234.928571,893.23145 C266.086571,900.940039 297.986357,905.253756 330.071429,906.097345 C322.866184,915.527889 315.13985,924.548083 306.928571,933.115725 C339.119433,935.069518 371.425075,933.776412 403.357143,929.255956 C397.571429,939.548673 391.142857,949.841389 384.714286,960.134105 C416.748119,956.009496 448.365773,949.122056 479.214286,939.548673 C475.491324,950.907622 471.200197,962.072148 466.357143,973 C497.2538,963.686666 527.178629,951.40698 555.714286,936.332199 C553.976107,948.029096 551.61561,959.624877 548.642857,971.070116 C577.599177,956.598836 604.962504,939.134755 630.285714,918.96324 C630.285714,931.185841 630.285714,942.765468 629.642857,954.987747 C655.49611,935.719173 679.396459,913.957205 701,890.014976 C703.571429,901.594282 704.857143,913.173587 706.785714,925.396188 C728.888192,901.819209 748.692216,876.185696 765.928571,848.844112 C769.785714,860.423417 773.642857,871.359428 777.5,882.938734 C795.136173,855.661918 810.200949,826.803999 822.5,796.737236 C828.285714,807.029952 834.714286,817.322668 839.857143,828.258679 C852.493714,798.619357 862.183311,767.807008 868.785714,736.267529 C876.5,745.273656 884.214286,754.279782 891.285714,763.929204 C899.032095,732.539962 903.343168,700.400603 904.142857,668.078285 C913.576293,675.505907 922.590175,683.452113 931.142857,691.880191 C933.122053,659.667696 931.829719,627.337365 927.285714,595.385977 C937.571429,600.532335 947.857143,606.965283 958.142857,613.39823 C954.263111,581.511721 947.375236,550.064396 937.571429,519.477195 Z" id="Path" fill="#000000"></path>
            <path d="M130.001671,499.850575 C129.933686,560.155517 144.476581,619.574844 172.380038,673 L178.158906,641.45977 C158.849893,596.748559 148.80128,548.57159 148.622468,499.850575 C148.317786,409.102792 183.331768,321.814054 246.221132,256.54023 L252,225 C174.077581,294.971018 129.686151,394.980667 130.001671,499.850575 L130.001671,499.850575 Z" id="Path" fill="#FFFFFF"></path>
            <path d="M831.057177,333 C831.658384,347.412986 831.011756,361.850953 829.124522,376.152542 C844.415053,415.814901 852.276522,457.95125 852.316388,500.457627 C852.362053,556.226572 839.111562,611.203247 813.663278,660.830508 L804,713 C882.375007,600.997424 892.772415,454.972769 831.057177,333 L831.057177,333 Z" id="Path" fill="#FFFFFF"></path>
            <path d="M499.639932,148.518494 C549.327154,148.4343 598.459463,158.884127 643.749147,179.168722 C659.832765,179.807268 676.559727,181.084361 692,183 C576.389775,113.968124 432.238618,112.259025 315,178.530175 L356.817406,178.530175 C401.796805,158.754553 450.445208,148.531934 499.639932,148.518494 Z" id="Path" fill="#FFFFFF"></path>
            <path d="M500.321274,852.603425 C433.376048,852.536252 367.840172,833.246422 311.412446,797 L278,797 C409.3167,897 590.6833,897 722,797 L689.230101,797 C632.802369,833.246408 567.266497,852.536237 500.321274,852.603425 Z" id="Path" fill="#FFFFFF"></path>
            <path d="M773.656435,395.248017 C800.680837,241.305758 722.181382,231 606.362515,231 L303.303145,231 L284,341.142788 L720.251068,341.142788 L628.88285,369.483623 C630.576552,380.603328 630.358939,391.931039 628.239412,402.977336 C618.58784,454.506126 596.067504,468.032433 564.539035,468.032433 L458.37174,468.032433 L551.026834,637.433651 L532.367127,745 L745.345156,745 L764.004862,637.433651 L717.677315,637.433651 L662.985072,538.884841 C726.68545,517.628893 758.857357,476.40613 773.656435,395.248017 Z" id="Path" fill="#FFFFFF"></path>
            <polygon id="Path" fill="#FFFFFF" points="466.068182 382 319.25 407.145648 278.037879 637.325044 231.674242 637.325044 213 745 448.681818 745 468 637.325044 420.992424 637.325044"></polygon>
        </g>
        <g id="Rust-Uzbekistan" transform="translate(1239.7676, 170.2539)" fill="#000000" fill-rule="nonzero">
            <path d="M200.519531,593.556641 L234.880859,593.556641 L158.626953,368.089844 L145.447266,368.089844 L116.263672,368.089844 L116.263672,593.556641 L174.160156,593.556641 L174.160156,646.746094 L0,646.746094 L0,593.556641 L57.4257812,593.556641 L57.4257812,52.71875 L0,52.71875 L0,0 L176.984375,0 C218.092448,0 248.452799,15.3763021 268.06543,46.1289062 C287.67806,76.8815104 297.484375,123.48112 297.484375,185.927734 C297.484375,234.567057 290.894531,273.321615 277.714844,302.191406 C264.535156,331.061198 243.196615,350.830729 213.699219,361.5 L297.484375,593.556641 L349.732422,593.556641 L349.732422,646.746094 L200.519531,646.746094 L200.519531,593.556641 Z M232.998047,185.927734 C232.998047,158.313151 231.89974,135.797852 229.703125,118.381836 C227.50651,100.96582 223.740885,87.3938802 218.40625,77.6660156 C213.071615,67.938151 206.089518,61.3483073 197.459961,57.8964844 C188.830404,54.4446615 178.239583,52.71875 165.6875,52.71875 L116.263672,52.71875 L116.263672,314.900391 L164.746094,314.900391 C177.298177,314.900391 187.967448,313.409831 196.753906,310.428711 C205.540365,307.447591 212.600911,301.328451 217.935547,292.071289 C223.270182,282.814128 227.114258,269.791341 229.467773,253.00293 C231.821289,236.214518 232.998047,213.85612 232.998047,185.927734 Z" id="Shape"></path>
            <path d="M640.626953,646.746094 L543.662109,646.746094 L543.662109,595.439453 C538.955078,608.619141 533.855794,619.366862 528.364258,627.682617 C522.872721,635.998372 517.067383,642.509766 510.948242,647.216797 C504.829102,651.923828 498.396159,655.140299 491.649414,656.866211 C484.902669,658.592122 478.077474,659.455078 471.173828,659.455078 C462.073568,659.455078 453.287109,657.729167 444.814453,654.277344 C436.341797,650.825521 428.810547,644.863281 422.220703,636.390625 C415.630859,627.917969 410.374674,616.542643 406.452148,602.264648 C402.529622,587.986654 400.568359,570.021484 400.568359,548.369141 L400.568359,251.355469 L361.970703,251.355469 L361.970703,198.636719 L459.40625,198.636719 L459.40625,518.714844 C459.40625,536.601562 460.033854,551.193359 461.289062,562.490234 C462.544271,573.787109 464.348633,582.652018 466.702148,589.084961 C469.055664,595.517904 471.958333,599.989583 475.410156,602.5 C478.861979,605.010417 482.627604,606.265625 486.707031,606.265625 C493.610677,606.265625 500.200521,602.813802 506.476562,595.910156 C512.752604,589.00651 518.479492,580.141602 523.657227,569.31543 C528.834961,558.489258 533.14974,546.250977 536.601562,532.600586 C540.053385,518.950195 542.406901,505.535156 543.662109,492.355469 L543.662109,251.355469 L495.179688,251.355469 L495.179688,198.636719 L602.029297,198.636719 L602.029297,593.556641 L640.626953,593.556641 L640.626953,646.746094 Z" id="Path"></path>
            <path d="M675.458984,646.746094 L675.458984,482 L725.824219,482 L725.824219,521.539062 C725.824219,537.856771 727.157878,551.35026 729.825195,562.019531 C732.492513,572.688802 735.865885,581.161458 739.945312,587.4375 C744.02474,593.713542 748.65332,598.106771 753.831055,600.617188 C759.008789,603.127604 764.108073,604.382812 769.128906,604.382812 C773.835938,604.382812 778.542969,603.441406 783.25,601.558594 C787.957031,599.675781 792.193359,596.223958 795.958984,591.203125 C799.724609,586.182292 802.78418,579.357096 805.137695,570.727539 C807.491211,562.097982 808.667969,550.879557 808.667969,537.072266 C808.667969,518.557943 805.451497,502.867839 799.018555,490.001953 C792.585612,477.136068 784.505208,465.525391 774.777344,455.169922 C765.049479,444.814453 754.61556,434.929688 743.475586,425.515625 C732.335612,416.101562 721.901693,405.432292 712.173828,393.507812 C702.445964,381.583333 694.36556,367.619141 687.932617,351.615234 C681.499674,335.611328 678.283203,315.998698 678.283203,292.777344 C678.283203,276.145833 680.401367,261.318685 684.637695,248.295898 C688.874023,235.273112 694.522461,224.290039 701.583008,215.34668 C708.643555,206.40332 716.723958,199.578125 725.824219,194.871094 C734.924479,190.164062 744.181641,187.810547 753.595703,187.810547 C764.264974,187.810547 773.992839,190.948568 782.779297,197.224609 C791.565755,203.500651 798.626302,212.600911 803.960938,224.525391 L803.960938,198.636719 L851.03125,198.636719 L851.03125,349.732422 L800.666016,349.732422 L800.666016,312.076172 C800.666016,298.26888 799.80306,286.658203 798.077148,277.244141 C796.351237,267.830078 794.076172,260.220378 791.251953,254.415039 C788.427734,248.609701 785.054362,244.451823 781.131836,241.941406 C777.20931,239.43099 772.894531,238.175781 768.1875,238.175781 C764.108073,238.175781 760.107096,239.038737 756.18457,240.764648 C752.262044,242.49056 748.731771,245.393229 745.59375,249.472656 C742.455729,253.552083 739.945312,258.965169 738.0625,265.711914 C736.179688,272.458659 735.238281,280.852865 735.238281,290.894531 C735.238281,310.036458 738.454753,325.883464 744.887695,338.435547 C751.320638,350.98763 759.401042,362.284505 769.128906,372.326172 C778.856771,382.367839 789.29069,392.017253 800.430664,401.274414 C811.570638,410.531576 822.004557,421.200846 831.732422,433.282227 C841.460286,445.363607 849.54069,459.876953 855.973633,476.822266 C862.406576,493.767578 865.623047,514.792318 865.623047,539.896484 C865.623047,561.235026 862.955729,579.200195 857.621094,593.791992 C852.286458,608.383789 845.618164,620.151367 837.616211,629.094727 C829.614258,638.038086 820.90625,644.471029 811.492188,648.393555 C802.078125,652.316081 793.448568,654.277344 785.603516,654.277344 C770.541016,654.277344 758.145833,650.903971 748.417969,644.157227 C738.690104,637.410482 730.217448,627.917969 723,615.679688 L723,646.746094 L675.458984,646.746094 Z" id="Path"></path>
            <path d="M1027.54492,602.5 C1036.64518,602.5 1044.49023,600.303385 1051.08008,595.910156 C1057.66992,591.516927 1063.94596,586.652995 1069.9082,581.318359 L1095.79688,626.505859 C1092.34505,629.64388 1088.18717,633.095703 1083.32324,636.861328 C1078.45931,640.626953 1072.81087,644.078776 1066.37793,647.216797 C1059.94499,650.354818 1052.80599,653.022135 1044.96094,655.21875 C1037.11589,657.415365 1028.80013,658.513672 1020.01367,658.513672 C994.281901,658.513672 973.963216,649.805664 959.057617,632.389648 C944.152018,614.973633 936.699219,588.535807 936.699219,553.076172 L936.699219,251.355469 L883.039062,251.355469 L883.039062,198.636719 L936.699219,198.636719 L936.699219,62.6035156 L995.537109,62.6035156 L995.537109,198.636719 L1073.67383,198.636719 L1073.67383,251.355469 L995.537109,251.355469 L995.537109,553.076172 C995.537109,570.021484 998.204427,582.495117 1003.53906,590.49707 C1008.8737,598.499023 1016.87565,602.5 1027.54492,602.5 Z" id="Path"></path>
            <path d="M1251.12891,0 L1425.75977,0 L1425.75977,52.71875 L1367.86328,52.71875 L1367.86328,467.408203 C1367.86328,489.060547 1368.49089,508.516276 1369.74609,525.775391 C1371.0013,543.034505 1373.98242,557.704753 1378.68945,569.786133 C1383.39648,581.867513 1390.61393,591.124674 1400.3418,597.557617 C1410.06966,603.99056 1423.40625,607.207031 1440.35156,607.207031 C1457.29688,607.207031 1470.47656,603.99056 1479.89062,597.557617 C1489.30469,591.124674 1496.36523,581.867513 1501.07227,569.786133 C1505.7793,557.704753 1508.68197,543.034505 1509.78027,525.775391 C1510.87858,508.516276 1511.42773,489.060547 1511.42773,467.408203 L1511.42773,52.71875 L1453.53125,52.71875 L1453.53125,0 L1628.16211,0 L1628.16211,52.71875 L1570.26562,52.71875 L1570.26562,474.939453 C1570.26562,508.830078 1567.99056,537.464518 1563.44043,560.842773 C1558.8903,584.221029 1551.51595,603.206055 1541.31738,617.797852 C1531.11882,632.389648 1517.70378,642.980469 1501.07227,649.570312 C1484.44076,656.160156 1464.20052,659.455078 1440.35156,659.455078 C1416.1888,659.455078 1395.79167,656.160156 1379.16016,649.570312 C1362.52865,642.980469 1349.03516,632.389648 1338.67969,617.797852 C1328.32422,603.206055 1320.79297,584.221029 1316.08594,560.842773 C1311.37891,537.464518 1309.02539,508.830078 1309.02539,474.939453 L1309.02539,52.71875 L1251.12891,52.71875 L1251.12891,0 Z" id="Path"></path>
            <polygon id="Path" points="1658.75781 198.636719 1849.86328 198.636719 1849.86328 244.765625 1715.71289 591.673828 1802.32227 591.673828 1802.32227 491.414062 1852.6875 491.414062 1852.6875 646.746094 1654.05078 646.746094 1654.05078 598.734375 1787.25977 253.238281 1709.12305 253.238281 1709.12305 340.318359 1658.75781 340.318359"></polygon>
            <path d="M1883.2832,0 L1980.71875,0 L1980.71875,233.939453 C1997.03646,201.931641 2017.27669,185.927734 2041.43945,185.927734 C2053.67773,185.927734 2065.52376,190.085612 2076.97754,198.401367 C2088.43132,206.717122 2098.70833,220.367513 2107.80859,239.352539 C2116.90885,258.337565 2124.20475,283.12793 2129.69629,313.723633 C2135.18783,344.319336 2137.93359,381.740234 2137.93359,425.986328 C2137.93359,465.525391 2135.34473,499.965169 2130.16699,529.305664 C2124.98926,558.646159 2118.00716,582.96582 2109.2207,602.264648 C2100.43424,621.563477 2090.07878,635.919922 2078.1543,645.333984 C2066.22982,654.748047 2053.67773,659.455078 2040.49805,659.455078 C2026.06315,659.455078 2013.66797,655.061849 2003.3125,646.275391 C1992.95703,637.488932 1983.22917,624.779948 1974.12891,608.148438 C1974.12891,613.169271 1973.73665,617.954753 1972.95215,622.504883 C1972.16764,627.055013 1971.46159,631.05599 1970.83398,634.507812 C1969.57878,638.58724 1968.48047,642.666667 1967.53906,646.746094 L1912.4668,646.746094 C1914.34961,640.470052 1915.91862,634.19401 1917.17383,627.917969 C1918.42904,622.583333 1919.52734,616.856445 1920.46875,610.737305 C1921.41016,604.618164 1921.88086,598.891276 1921.88086,593.556641 L1921.88086,52.71875 L1883.2832,52.71875 L1883.2832,0 Z M1980.71875,549.310547 C1986.68099,566.883464 1993.74154,581.239909 2001.90039,592.379883 C2010.05924,603.519857 2019.15951,609.089844 2029.20117,609.089844 C2044.57747,609.089844 2056.89421,593.242839 2066.15137,561.548828 C2075.40853,529.854818 2080.03711,484.667318 2080.03711,425.986328 C2080.03711,364.794922 2075.80078,317.88151 2067.32812,285.246094 C2058.85547,252.610677 2046.46029,236.292969 2030.14258,236.292969 C2024.80794,236.292969 2019.70866,239.038737 2014.84473,244.530273 C2009.98079,250.02181 2005.43066,257.160807 2001.19434,265.947266 C1996.95801,274.733724 1993.11393,284.461589 1989.66211,295.130859 C1986.21029,305.80013 1983.22917,316.3125 1980.71875,326.667969 L1980.71875,549.310547 Z" id="Shape"></path>
            <path d="M2329.50977,401.980469 C2329.19596,380.955729 2328.17611,360.715495 2326.4502,341.259766 C2324.72428,321.804036 2322.13542,304.623372 2318.68359,289.717773 C2315.23177,274.812174 2310.76009,262.966146 2305.26855,254.179688 C2299.77702,245.393229 2293.10872,241 2285.26367,241 C2278.04622,241 2271.77018,245.393229 2266.43555,254.179688 C2261.10091,262.966146 2256.55078,274.812174 2252.78516,289.717773 C2249.01953,304.623372 2246.03841,321.804036 2243.8418,341.259766 C2241.64518,360.715495 2240.38997,380.955729 2240.07617,401.980469 L2329.50977,401.980469 Z M2293.26562,608.148438 C2302.36589,608.148438 2309.89714,605.245768 2315.85938,599.44043 C2321.82161,593.635091 2326.68555,586.417643 2330.45117,577.788086 C2334.2168,569.158529 2337.19792,559.901367 2339.39453,550.016602 C2341.59115,540.131836 2343.47396,530.953125 2345.04297,522.480469 L2391.64258,522.480469 C2389.13216,541.936198 2385.20964,560.058268 2379.875,576.84668 C2374.54036,593.635091 2367.63672,608.148438 2359.16406,620.386719 C2350.69141,632.625 2340.72819,642.195964 2329.27441,649.099609 C2317.82064,656.003255 2304.8763,659.455078 2290.44141,659.455078 C2273.49609,659.455078 2258.19824,654.434245 2244.54785,644.392578 C2230.89746,634.350911 2219.20833,619.445312 2209.48047,599.675781 C2199.7526,579.90625 2192.2998,555.429688 2187.12207,526.246094 C2181.94434,497.0625 2179.35547,463.328776 2179.35547,425.044922 C2179.35547,388.957682 2181.94434,356.322266 2187.12207,327.138672 C2192.2998,297.955078 2199.5957,273.164714 2209.00977,252.767578 C2218.42383,232.370443 2229.64225,216.601888 2242.66504,205.461914 C2255.68783,194.32194 2270.20117,188.751953 2286.20508,188.751953 C2319.4681,188.751953 2345.19987,210.247396 2363.40039,253.238281 C2381.60091,296.229167 2390.70117,358.675781 2390.70117,440.578125 L2390.70117,450.933594 L2240.07617,450.933594 C2241.01758,502.397135 2245.41081,541.465495 2253.25586,568.138672 C2261.10091,594.811849 2274.4375,608.148438 2293.26562,608.148438 Z" id="Shape"></path>
            <path d="M2422.70898,0 L2519.67383,0 L2519.67383,364.324219 L2606.75391,231.115234 C2614.91276,217.935547 2623.93457,207.89388 2633.81934,200.990234 C2643.7041,194.086589 2655.23633,190.634766 2668.41602,190.634766 C2674.69206,190.634766 2680.8112,191.576172 2686.77344,193.458984 C2692.73568,195.341797 2698.22721,198.009115 2703.24805,201.460938 L2685.83203,247.589844 C2680.4974,245.079427 2675.63346,243.824219 2671.24023,243.824219 C2664.96419,243.824219 2659.2373,246.883789 2654.05957,253.00293 C2648.88184,259.12207 2641.74284,269.242188 2632.64258,283.363281 L2583.68945,358.675781 L2671.24023,593.556641 L2709.83789,593.556641 L2709.83789,646.746094 L2579.45312,646.746094 L2579.45312,593.556641 L2610.51953,593.556641 L2545.0918,414.21875 L2519.67383,451.875 L2519.67383,593.556641 L2558.27148,593.556641 L2558.27148,646.746094 L2422.70898,646.746094 L2422.70898,593.556641 L2460.83594,593.556641 L2460.83594,52.71875 L2422.70898,52.71875 L2422.70898,0 Z" id="Path"></path>
            <path d="M2720.66406,198.636719 L2818.09961,198.636719 L2818.09961,593.556641 L2865.16992,593.556641 L2865.16992,646.746094 L2720.66406,646.746094 L2720.66406,593.556641 L2759.26172,593.556641 L2759.26172,251.355469 L2720.66406,251.355469 L2720.66406,198.636719 Z M2737.13867,72.0175781 C2737.13867,59.4654948 2741.29655,48.796224 2749.6123,40.0097656 C2757.92806,31.2233073 2768.51888,26.8300781 2781.38477,26.8300781 C2793.93685,26.8300781 2804.60612,31.2233073 2813.39258,40.0097656 C2822.17904,48.796224 2826.57227,59.4654948 2826.57227,72.0175781 C2826.57227,84.8834635 2822.17904,95.5527344 2813.39258,104.025391 C2804.60612,112.498047 2793.93685,116.734375 2781.38477,116.734375 C2768.51888,116.734375 2757.92806,112.498047 2749.6123,104.025391 C2741.29655,95.5527344 2737.13867,84.8834635 2737.13867,72.0175781 Z" id="Shape"></path>
            <path d="M2893.88281,646.746094 L2893.88281,482 L2944.24805,482 L2944.24805,521.539062 C2944.24805,537.856771 2945.58171,551.35026 2948.24902,562.019531 C2950.91634,572.688802 2954.28971,581.161458 2958.36914,587.4375 C2962.44857,593.713542 2967.07715,598.106771 2972.25488,600.617188 C2977.43262,603.127604 2982.5319,604.382812 2987.55273,604.382812 C2992.25977,604.382812 2996.9668,603.441406 3001.67383,601.558594 C3006.38086,599.675781 3010.61719,596.223958 3014.38281,591.203125 C3018.14844,586.182292 3021.20801,579.357096 3023.56152,570.727539 C3025.91504,562.097982 3027.0918,550.879557 3027.0918,537.072266 C3027.0918,518.557943 3023.87533,502.867839 3017.44238,490.001953 C3011.00944,477.136068 3002.92904,465.525391 2993.20117,455.169922 C2983.47331,444.814453 2973.03939,434.929688 2961.89941,425.515625 C2950.75944,416.101562 2940.32552,405.432292 2930.59766,393.507812 C2920.86979,381.583333 2912.78939,367.619141 2906.35645,351.615234 C2899.9235,335.611328 2896.70703,315.998698 2896.70703,292.777344 C2896.70703,276.145833 2898.8252,261.318685 2903.06152,248.295898 C2907.29785,235.273112 2912.94629,224.290039 2920.00684,215.34668 C2927.06738,206.40332 2935.14779,199.578125 2944.24805,194.871094 C2953.34831,190.164062 2962.60547,187.810547 2972.01953,187.810547 C2982.6888,187.810547 2992.41667,190.948568 3001.20312,197.224609 C3009.98958,203.500651 3017.05013,212.600911 3022.38477,224.525391 L3022.38477,198.636719 L3069.45508,198.636719 L3069.45508,349.732422 L3019.08984,349.732422 L3019.08984,312.076172 C3019.08984,298.26888 3018.22689,286.658203 3016.50098,277.244141 C3014.77507,267.830078 3012.5,260.220378 3009.67578,254.415039 C3006.85156,248.609701 3003.47819,244.451823 2999.55566,241.941406 C2995.63314,239.43099 2991.31836,238.175781 2986.61133,238.175781 C2982.5319,238.175781 2978.53092,239.038737 2974.6084,240.764648 C2970.68587,242.49056 2967.1556,245.393229 2964.01758,249.472656 C2960.87956,253.552083 2958.36914,258.965169 2956.48633,265.711914 C2954.60352,272.458659 2953.66211,280.852865 2953.66211,290.894531 C2953.66211,310.036458 2956.87858,325.883464 2963.31152,338.435547 C2969.74447,350.98763 2977.82487,362.284505 2987.55273,372.326172 C2997.2806,382.367839 3007.71452,392.017253 3018.85449,401.274414 C3029.99447,410.531576 3040.42839,421.200846 3050.15625,433.282227 C3059.88411,445.363607 3067.96452,459.876953 3074.39746,476.822266 C3080.8304,493.767578 3084.04688,514.792318 3084.04688,539.896484 C3084.04688,561.235026 3081.37956,579.200195 3076.04492,593.791992 C3070.71029,608.383789 3064.04199,620.151367 3056.04004,629.094727 C3048.03809,638.038086 3039.33008,644.471029 3029.91602,648.393555 C3020.50195,652.316081 3011.8724,654.277344 3004.02734,654.277344 C2988.96484,654.277344 2976.56966,650.903971 2966.8418,644.157227 C2957.11393,637.410482 2948.64128,627.917969 2941.42383,615.679688 L2941.42383,646.746094 L2893.88281,646.746094 Z" id="Path"></path>
            <path d="M3245.96875,602.5 C3255.06901,602.5 3262.91406,600.303385 3269.50391,595.910156 C3276.09375,591.516927 3282.36979,586.652995 3288.33203,581.318359 L3314.2207,626.505859 C3310.76888,629.64388 3306.611,633.095703 3301.74707,636.861328 C3296.88314,640.626953 3291.2347,644.078776 3284.80176,647.216797 C3278.36882,650.354818 3271.22982,653.022135 3263.38477,655.21875 C3255.53971,657.415365 3247.22396,658.513672 3238.4375,658.513672 C3212.70573,658.513672 3192.38704,649.805664 3177.48145,632.389648 C3162.57585,614.973633 3155.12305,588.535807 3155.12305,553.076172 L3155.12305,251.355469 L3101.46289,251.355469 L3101.46289,198.636719 L3155.12305,198.636719 L3155.12305,62.6035156 L3213.96094,62.6035156 L3213.96094,198.636719 L3292.09766,198.636719 L3292.09766,251.355469 L3213.96094,251.355469 L3213.96094,553.076172 C3213.96094,570.021484 3216.62826,582.495117 3221.96289,590.49707 C3227.29753,598.499023 3235.29948,602.5 3245.96875,602.5 Z" id="Path"></path>
            <path d="M3459.19727,411.394531 C3442.56576,412.963542 3429.15072,416.336914 3418.95215,421.514648 C3408.75358,426.692383 3400.83008,433.909831 3395.18164,443.166992 C3389.5332,452.424154 3385.76758,463.799479 3383.88477,477.292969 C3382.00195,490.786458 3381.06055,506.476562 3381.06055,524.363281 C3381.06055,551.977865 3383.88477,573.002604 3389.5332,587.4375 C3395.18164,601.872396 3402.86979,609.089844 3412.59766,609.089844 C3416.67708,609.089844 3420.99186,607.520833 3425.54199,604.382812 C3430.09212,601.244792 3434.48535,597.008464 3438.72168,591.673828 C3442.95801,586.339193 3446.88053,579.984701 3450.48926,572.610352 C3454.09798,565.236003 3457.00065,557.469401 3459.19727,549.310547 L3459.19727,411.394531 Z M3339.63867,297.013672 C3341.52148,274.419922 3345.28711,255.984049 3350.93555,241.706055 C3356.58398,227.42806 3363.40918,216.131185 3371.41113,207.81543 C3379.41309,199.499674 3388.4349,193.772786 3398.47656,190.634766 C3408.51823,187.496745 3419.0306,185.927734 3430.01367,185.927734 C3442.25195,185.927734 3453.70573,187.888997 3464.375,191.811523 C3475.04427,195.734049 3484.37988,202.794596 3492.38184,212.993164 C3500.38379,223.191732 3506.65983,237.234375 3511.20996,255.121094 C3515.76009,273.007812 3518.03516,295.915365 3518.03516,323.84375 L3518.03516,593.556641 L3556.63281,593.556641 L3556.63281,646.746094 L3459.19727,646.746094 L3459.19727,615.679688 C3450.09701,630.428385 3440.83984,641.411458 3431.42578,648.628906 C3422.01172,655.846354 3409.61654,659.455078 3394.24023,659.455078 C3384.82617,659.455078 3375.88281,656.630859 3367.41016,650.982422 C3358.9375,645.333984 3351.40625,636.939779 3344.81641,625.799805 C3338.22656,614.659831 3332.97038,600.852539 3329.04785,584.37793 C3325.12533,567.90332 3323.16406,548.839844 3323.16406,527.1875 C3323.16406,496.434896 3326.61589,471.252279 3333.51953,451.639648 C3340.42318,432.027018 3349.99414,416.336914 3362.23242,404.569336 C3374.4707,392.801758 3388.82715,384.172201 3405.30176,378.680664 C3421.77637,373.189128 3439.74154,369.03125 3459.19727,366.207031 L3459.19727,322.902344 C3459.19727,304.074219 3458.33431,289.011719 3456.6084,277.714844 C3454.88249,266.417969 3452.60742,257.709961 3449.7832,251.59082 C3446.95898,245.47168 3443.74251,241.392253 3440.13379,239.352539 C3436.52507,237.312826 3432.83789,236.292969 3429.07227,236.292969 C3419.0306,236.292969 3411.34245,241.862956 3406.00781,253.00293 C3400.67318,264.142904 3397.22135,281.951172 3395.65234,306.427734 L3339.63867,297.013672 Z" id="Shape"></path>
            <path d="M3580.63867,198.636719 L3678.07422,198.636719 L3678.07422,248.53125 C3689.05729,229.703125 3700.74642,214.562174 3713.1416,203.108398 C3725.53678,191.654622 3739.73633,185.927734 3755.74023,185.927734 C3778.96159,185.927734 3795.5931,196.126302 3805.63477,216.523438 C3815.67643,236.920573 3820.69727,265.947266 3820.69727,303.603516 L3820.69727,593.556641 L3859.29492,593.556641 L3859.29492,646.746094 L3732.67578,646.746094 L3732.67578,593.556641 L3761.85938,593.556641 L3761.85938,321.960938 C3761.85938,304.701823 3761.46712,290.73763 3760.68262,280.068359 C3759.89811,269.399089 3758.6429,261.004883 3756.91699,254.885742 C3755.19108,248.766602 3752.91602,244.608724 3750.0918,242.412109 C3747.26758,240.215495 3743.81576,239.117188 3739.73633,239.117188 C3733.46029,239.117188 3727.10579,242.176758 3720.67285,248.295898 C3714.23991,254.415039 3708.19922,262.338542 3702.55078,272.066406 C3696.90234,281.794271 3691.88151,292.698893 3687.48828,304.780273 C3683.09505,316.861654 3679.95703,329.021484 3678.07422,341.259766 L3678.07422,593.556641 L3706.78711,593.556641 L3706.78711,646.746094 L3580.63867,646.746094 L3580.63867,593.556641 L3619.23633,593.556641 L3619.23633,251.355469 L3580.63867,251.355469 L3580.63867,198.636719 Z" id="Path"></path>
        </g>
    </g>
</svg>