<?xml version="1.0" encoding="UTF-8"?>
<svg width="1000px" height="1000px" viewBox="0 0 1000 1000" version="1.1" xmlns="http://www.w3.org/2000/svg" xmlns:xlink="http://www.w3.org/1999/xlink">
    <title>Artboard</title>
    <g id="Artboard" stroke="none" stroke-width="1" fill="none" fill-rule="evenodd">
        <g id="Rust-Logo" fill-rule="nonzero">
            <path d="M962.676963,545.045045 C974.259974,550.19305 985.842986,555.341055 997.425997,561.132561 C989.266474,527.912136 977.842395,495.579838 963.320463,464.607465 C976.190476,467.181467 988.416988,470.39897 1000,473.616474 C986.055356,442.447037 969.478818,412.523157 950.45045,384.169884 C962.676963,384.813385 975.546976,385.456885 988.416988,387.387387 C969.413172,358.926943 947.642823,332.414538 923.423423,308.236808 C935.649936,306.306306 948.519949,305.019305 961.389961,303.732304 C937.599824,279.215537 911.527443,257.021692 883.526384,237.451737 C895.752896,232.947233 907.979408,229.72973 920.20592,226.512227 C892.483906,206.464993 862.972453,189.016616 832.046332,174.388674 C843.629344,168.597169 854.568855,163.449163 866.151866,158.301158 C835.418711,143.080262 803.315335,130.799104 770.27027,121.621622 C780.566281,113.899614 790.862291,106.821107 801.158301,99.7425997 C768.419703,90.1171664 734.782777,83.8641482 700.772201,81.0810811 C709.137709,71.4285714 718.146718,62.4195624 727.155727,53.4105534 C693.166047,49.7734095 658.909537,49.34251 624.839125,52.1235521 C631.917632,41.8275418 638.352638,31.5315315 646.074646,20.5920206 C611.971232,23.1839076 578.163359,28.7826637 545.045045,37.3230373 C550.19305,25.7400257 555.341055,14.1570142 561.132561,2.57400257 C527.912102,10.73341 495.579792,22.1574925 464.607465,36.6795367 C467.181467,23.8095238 470.39897,12.2265122 473.616474,0 C442.446982,13.9446384 412.523094,30.5212705 384.169884,49.5498177 C384.602938,37.0619399 385.676853,24.6045305 387.387387,12.2267804 C358.941776,31.007943 332.428545,52.5634157 308.236808,76.5768447 C306.306306,64.3503325 305.019305,52.1238202 303.732304,39.2538074 C279.226716,62.8211803 257.03208,88.6790092 237.451737,116.473885 C233.128976,104.459331 229.476848,92.2139608 226.512227,79.7943479 C206.602171,107.606007 189.161276,137.104804 174.388674,167.953936 C168.597169,157.014425 163.449163,145.431414 158.301158,133.848402 C143.080291,164.58157 130.799135,196.684943 121.621622,229.729998 C113.899614,219.433988 106.821107,209.781478 99.7425997,198.841967 C90.1153824,231.799298 83.8627471,265.649772 81.0810811,299.871568 C71.4285714,290.862291 62.4195624,282.497051 53.4105534,272.844541 C49.7733147,306.834215 49.3424151,341.090735 52.1235521,375.161143 C41.8275418,368.082368 31.5315315,361.647362 20.5920206,353.925354 C23.1314463,388.035072 28.7309707,421.847585 37.3230373,454.954955 C25.7400257,449.80695 14.1570142,444.658945 2.57400257,438.867439 C10.7335021,472.087871 22.1575815,504.420171 36.6795367,535.392535 C24.4530245,532.818533 12.2265122,530.24453 0,526.383526 C13.9446471,557.552961 30.521185,587.476841 49.5495495,615.830116 C37.061663,615.397207 24.6042462,614.323292 12.2265122,612.612613 C31.0017342,641.261038 52.5560314,667.988366 76.5765766,692.406692 C64.3500644,693.693694 52.1235521,695.624196 39.2535393,696.267696 C62.8118071,720.975324 88.6684445,743.38441 116.473616,763.191763 C104.247104,766.409266 92.6640927,770.27027 79.7940798,773.487773 C107.453708,793.63005 136.974338,811.083853 167.953668,825.611326 C157.014157,831.402831 145.431145,837.194337 133.848134,842.342342 C164.716266,857.081389 196.795044,869.137842 229.72973,878.378378 C219.852916,886.245859 209.540554,893.550449 198.841699,900.2574 C231.63502,909.781756 265.240945,916.244434 299.227799,919.56242 C290.862291,928.571429 281.853282,937.580706 272.844273,946.589447 C306.618722,950.226524 340.661683,950.657447 374.517375,947.876448 C368.082368,958.172458 361.003861,969.111969 353.281853,979.407979 C387.43468,977.236889 421.282017,971.631598 454.311454,962.676963 C449.80695,974.259974 444.658945,985.842986 438.867439,997.425997 C472.026015,989.060579 504.338931,977.643348 535.392535,963.320463 C532.175032,976.190476 529.60103,988.416988 525.740026,1000 C557.048731,986.335758 586.997192,969.745604 615.186615,950.45045 C615.186615,962.676963 613.899614,975.546976 612.612613,988.416988 C641.073097,969.413226 667.585508,947.642873 691.763192,923.423423 C693.050193,935.649936 694.337194,948.519949 695.624196,961.389961 C720.520434,937.777292 742.9444,911.687871 762.548263,883.526384 C766.409266,895.752896 769.62677,907.979408 772.844273,920.20592 C793.354379,892.789868 810.831051,863.230558 824.967825,832.046332 C831.402831,843.629344 836.550837,854.568855 841.698842,866.151866 C856.99195,835.522503 869.068512,803.390221 877.734878,770.27027 C885.456885,780.566549 893.178893,790.862291 900.2574,801.158301 C909.882972,768.419736 916.135993,734.782796 918.918919,700.772201 C927.927928,709.137387 937.580438,718.146718 946.589447,727.155727 C950.017069,693.146105 950.232521,658.88917 947.232947,624.839125 C958.13365,631.320279 968.660818,638.410005 978.764479,646.074646 C977.386284,611.883378 971.986597,577.973345 962.676963,545.045045 Z" id="Path" fill="#FFFFFF"></path>
            <path d="M937.571429,519.477195 C948.5,523.336964 960.071429,527.840027 971,532.343091 C961.57768,501.466459 949.310743,471.531984 934.357143,442.925119 C945.928571,445.498298 957.5,447.428182 969.071429,450.001361 C954.60998,421.025338 937.15778,393.643385 917,368.302927 C929.214286,368.302927 940.785714,368.302927 953,368.946222 C933.744505,343.075394 911.997343,319.158778 888.071429,297.540504 C899.642857,294.967325 911.214286,293.680735 923.428571,291.750851 C899.732212,269.984105 874.12927,250.392057 846.928571,233.211028 C858.5,228.707965 869.428571,224.848196 881,220.988428 C853.741687,203.34034 824.903408,188.265312 794.857143,175.957794 C805.142857,170.16841 815.428571,164.378489 826.357143,159.232131 C796.647975,146.670264 765.884794,136.767679 734.428571,129.640572 C743.428571,121.921035 752.428571,114.201498 762.071429,107.125255 C730.644758,99.6873959 698.560053,95.3777925 666.285714,94.2593601 C674,85.2532335 681.714286,76.2471069 690.071429,67.2409803 C657.880848,65.2604376 625.57251,66.5536509 593.642857,71.1007488 C599.021526,60.6648171 605.032739,50.5676984 611.642857,40.8658952 C579.766509,44.680216 548.334131,51.574194 517.785714,61.4513274 C521.399796,50.0538815 525.693206,38.8834155 530.642857,28 C499.746197,37.3133255 469.821367,49.5930122 441.285714,64.6678012 C443.214286,53.0884956 445.142857,40.8658952 447.714286,29.2865895 C418.961445,43.7624043 391.81176,61.2276545 366.714286,81.3934649 C366.714286,69.8141593 366.714286,57.5915589 367.357143,45.3689585 C341.490029,64.8600748 317.590489,86.8367648 296,110.985024 C293.428571,98.7624234 291.5,87.1831178 290.214286,75.6038121 C267.972637,98.8291357 248.155839,124.263635 231.071429,151.512594 C226.642736,140.568417 222.780474,129.403174 219.5,118.061266 C201.740752,145.039854 186.668602,173.696433 174.5,203.619469 C168.090561,193.468525 162.294469,182.94253 157.142857,172.098026 C144.589564,201.827428 134.693716,232.611548 127.571429,264.089176 C119.857143,255.726344 112.785714,246.076923 105.071429,236.427502 C97.6804803,267.883295 93.3743641,299.985699 92.2142857,332.278421 C83.2142857,324.558884 74.2142857,316.839346 65.2142857,308.476515 C63.4730593,340.710861 64.9806677,373.038747 69.7142857,404.970728 C58.7857143,399.181076 49.1428571,392.748128 38.8571429,386.31518 C42.6689292,418.423666 49.5577849,450.090888 59.4285714,480.87951 C48.0773002,477.154151 36.9203621,472.8601 26,468.013615 C35.3070912,498.931271 47.5784204,528.876463 62.6428571,557.431586 C50.9539518,555.692028 39.3660687,553.329927 27.9285714,550.355344 C42.4057327,579.179946 59.628386,606.53952 79.3571429,632.053778 C67.7857143,632.053778 55.5714286,632.053778 44,631.410483 C63.0716035,657.432376 84.835056,681.366907 108.928571,702.816201 C97.3571429,705.389381 85.7857143,706.67597 73.5714286,708.605854 C97.0045576,730.872989 122.635935,750.702333 150.071429,767.788972 C138.5,771.648741 127.571429,775.508188 116,779.368278 C143.111874,796.881323 171.724232,811.95071 201.5,824.398911 C191.857143,830.188564 180.928571,836.621511 170.642857,841.767869 C200.228553,854.503426 231.029114,864.202508 262.571429,870.716133 C253.571429,878.435992 244.571429,886.155208 234.928571,893.23145 C266.086571,900.940039 297.986357,905.253756 330.071429,906.097345 C322.866184,915.527889 315.13985,924.548083 306.928571,933.115725 C339.119433,935.069518 371.425075,933.776412 403.357143,929.255956 C397.571429,939.548673 391.142857,949.841389 384.714286,960.134105 C416.748119,956.009496 448.365773,949.122056 479.214286,939.548673 C475.491324,950.907622 471.200197,962.072148 466.357143,973 C497.2538,963.686666 527.178629,951.40698 555.714286,936.332199 C553.976107,948.029096 551.61561,959.624877 548.642857,971.070116 C577.599177,956.598836 604.962504,939.134755 630.285714,918.96324 C630.285714,931.185841 630.285714,942.765468 629.642857,954.987747 C655.49611,935.719173 679.396459,913.957205 701,890.014976 C703.571429,901.594282 704.857143,913.173587 706.785714,925.396188 C728.888192,901.819209 748.692216,876.185696 765.928571,848.844112 C769.785714,860.423417 773.642857,871.359428 777.5,882.938734 C795.136173,855.661918 810.200949,826.803999 822.5,796.737236 C828.285714,807.029952 834.714286,817.322668 839.857143,828.258679 C852.493714,798.619357 862.183311,767.807008 868.785714,736.267529 C876.5,745.273656 884.214286,754.279782 891.285714,763.929204 C899.032095,732.539962 903.343168,700.400603 904.142857,668.078285 C913.576293,675.505907 922.590175,683.452113 931.142857,691.880191 C933.122053,659.667696 931.829719,627.337365 927.285714,595.385977 C937.571429,600.532335 947.857143,606.965283 958.142857,613.39823 C954.263111,581.511721 947.375236,550.064396 937.571429,519.477195 Z" id="Path" fill="#000000"></path>
            <path d="M130.001671,499.850575 C129.933686,560.155517 144.476581,619.574844 172.380038,673 L178.158906,641.45977 C158.849893,596.748559 148.80128,548.57159 148.622468,499.850575 C148.317786,409.102792 183.331768,321.814054 246.221132,256.54023 L252,225 C174.077581,294.971018 129.686151,394.980667 130.001671,499.850575 L130.001671,499.850575 Z" id="Path" fill="#FFFFFF"></path>
            <path d="M831.057177,333 C831.658384,347.412986 831.011756,361.850953 829.124522,376.152542 C844.415053,415.814901 852.276522,457.95125 852.316388,500.457627 C852.362053,556.226572 839.111562,611.203247 813.663278,660.830508 L804,713 C882.375007,600.997424 892.772415,454.972769 831.057177,333 L831.057177,333 Z" id="Path" fill="#FFFFFF"></path>
            <path d="M499.639932,148.518494 C549.327154,148.4343 598.459463,158.884127 643.749147,179.168722 C659.832765,179.807268 676.559727,181.084361 692,183 C576.389775,113.968124 432.238618,112.259025 315,178.530175 L356.817406,178.530175 C401.796805,158.754553 450.445208,148.531934 499.639932,148.518494 Z" id="Path" fill="#FFFFFF"></path>
            <path d="M500.321274,852.603425 C433.376048,852.536252 367.840172,833.246422 311.412446,797 L278,797 C409.3167,897 590.6833,897 722,797 L689.230101,797 C632.802369,833.246408 567.266497,852.536237 500.321274,852.603425 Z" id="Path" fill="#FFFFFF"></path>
            <path d="M773.656435,395.248017 C800.680837,241.305758 722.181382,231 606.362515,231 L303.303145,231 L284,341.142788 L720.251068,341.142788 L628.88285,369.483623 C630.576552,380.603328 630.358939,391.931039 628.239412,402.977336 C618.58784,454.506126 596.067504,468.032433 564.539035,468.032433 L458.37174,468.032433 L551.026834,637.433651 L532.367127,745 L745.345156,745 L764.004862,637.433651 L717.677315,637.433651 L662.985072,538.884841 C726.68545,517.628893 758.857357,476.40613 773.656435,395.248017 Z" id="Path" fill="#FFFFFF"></path>
            <polygon id="Path" fill="#FFFFFF" points="466.068182 382 319.25 407.145648 278.037879 637.325044 231.674242 637.325044 213 745 448.681818 745 468 637.325044 420.992424 637.325044"></polygon>
        </g>
    </g>
</svg>