<?xml version="1.0" encoding="UTF-8"?>
<svg width="5111px" height="1000px" viewBox="0 0 5111 1000" version="1.1" xmlns="http://www.w3.org/2000/svg" xmlns:xlink="http://www.w3.org/1999/xlink">
    <title>Artboard</title>
    <g id="Artboard" stroke="none" stroke-width="1" fill="none" fill-rule="evenodd">
        <g id="DevOps-Journey" transform="translate(1193.657, 318.4503)" fill="#000000" fill-rule="nonzero">
            <path d="M125.039063,357.549716 L9.09494702e-13,357.549716 L9.09494702e-13,4.82244318 L126.072443,4.82244318 C161.551847,4.82244318 192.093987,11.8551728 217.698864,25.9206321 C243.303741,39.9860914 263.024089,60.1657197 276.859908,86.459517 C290.695727,112.753314 297.613636,144.214015 297.613636,180.841619 C297.613636,217.584044 290.695727,249.159564 276.859908,275.568182 C263.024089,301.976799 243.217625,322.242543 217.440518,336.365412 C191.663411,350.488281 160.862926,357.549716 125.039063,357.549716 Z M74.5756392,293.652344 L121.93892,293.652344 C143.984375,293.652344 162.556522,289.719756 177.655362,281.854581 C192.754202,273.989406 204.12139,261.761068 211.756925,245.169567 C219.39246,228.578066 223.210227,207.135417 223.210227,180.841619 C223.210227,154.777462 219.39246,133.478338 211.756925,116.944247 C204.12139,100.410156 192.782907,88.2392282 177.741477,80.4314631 C162.700047,72.6236979 144.156605,68.7198153 122.111151,68.7198153 L74.5756392,68.7198153 L74.5756392,293.652344 Z" id="Shape"></path>
            <path d="M471.910511,362.716619 C444.698153,362.716619 421.303563,357.176551 401.72674,346.096413 C382.149917,335.016276 367.079782,319.285926 356.516335,298.905362 C345.952888,278.524799 340.671165,254.383878 340.671165,226.482599 C340.671165,199.270241 345.952888,175.387666 356.516335,154.834872 C367.079782,134.282079 381.977687,118.264678 401.21005,106.78267 C420.442412,95.3006629 443.033262,89.5596591 468.982599,89.5596591 C486.435251,89.5596591 502.710997,92.3440459 517.809837,97.9128196 C532.908677,103.481593 546.112985,111.834754 557.422763,122.972301 C568.73254,134.109848 577.544981,148.089193 583.860085,164.910334 C590.175189,181.731475 593.332741,201.394413 593.332741,223.899148 L593.332741,244.050071 L369.950284,244.050071 L369.950284,198.581321 L524.268466,198.581321 C524.268466,188.017874 521.972064,178.660038 517.379261,170.507812 C512.786458,162.355587 506.442649,155.954368 498.347834,151.304155 C490.253018,146.653942 480.866477,144.328835 470.18821,144.328835 C459.050663,144.328835 449.204841,146.883582 440.650746,151.993075 C432.09665,157.102569 425.408381,163.934363 420.585938,172.488459 C415.763494,181.042554 413.294863,190.543916 413.180043,200.992543 L413.180043,244.222301 C413.180043,257.31179 415.619969,268.621567 420.499822,278.151634 C425.379676,287.6817 432.297585,295.030185 441.253551,300.197088 C450.209517,305.363991 460.830374,307.947443 473.116122,307.947443 C481.268348,307.947443 488.731652,306.799242 495.506037,304.502841 C502.280421,302.206439 508.078835,298.761837 512.901278,294.169034 C517.723722,289.576231 521.397964,283.950047 523.924006,277.290483 L591.78267,281.768466 C588.338068,298.072917 581.305339,312.281901 570.684482,324.395419 C560.063625,336.508937 546.400036,345.924183 529.693714,352.641158 C512.987393,359.358132 493.726326,362.716619 471.910511,362.716619 Z" id="Path"></path>
            <polygon id="Path" points="887.846236 93.0042614 795.358665 357.549716 712.68821 357.549716 620.200639 93.0042614 697.70419 93.0042614 752.645597 282.285156 755.401278 282.285156 810.170455 93.0042614"></polygon>
            <path d="M1250.90732,181.18608 C1250.90732,219.650805 1243.64495,252.374527 1229.12021,279.357244 C1214.59547,306.339962 1194.84641,326.921461 1169.87305,341.10174 C1144.89968,355.282019 1116.85488,362.372159 1085.73864,362.372159 C1054.39276,362.372159 1026.26184,355.253314 1001.34588,341.015625 C976.429924,326.777936 956.738281,306.167732 942.270952,279.185014 C927.803622,252.202296 920.569957,219.535985 920.569957,181.18608 C920.569957,142.721354 927.803622,109.997633 942.270952,83.0149148 C956.738281,56.032197 976.429924,35.4506984 1001.34588,21.270419 C1026.26184,7.09013968 1054.39276,0 1085.73864,0 C1116.85488,0 1144.89968,7.09013968 1169.87305,21.270419 C1194.84641,35.4506984 1214.59547,56.032197 1229.12021,83.0149148 C1243.64495,109.997633 1250.90732,142.721354 1250.90732,181.18608 Z M1175.2983,181.18608 C1175.2983,156.270123 1171.59535,135.258049 1164.18945,118.149858 C1156.78356,101.041667 1146.36364,88.0669981 1132.92969,79.2258523 C1119.49574,70.3847064 1103.76539,65.9641335 1085.73864,65.9641335 C1067.71188,65.9641335 1051.98153,70.3847064 1038.54759,79.2258523 C1025.11364,88.0669981 1014.69371,101.041667 1007.28782,118.149858 C999.881925,135.258049 996.178977,156.270123 996.178977,181.18608 C996.178977,206.102036 999.881925,227.11411 1007.28782,244.222301 C1014.69371,261.330492 1025.11364,274.305161 1038.54759,283.146307 C1051.98153,291.987453 1067.71188,296.408026 1085.73864,296.408026 C1103.76539,296.408026 1119.49574,291.987453 1132.92969,283.146307 C1146.36364,274.305161 1156.78356,261.330492 1164.18945,244.222301 C1171.59535,227.11411 1175.2983,206.102036 1175.2983,181.18608 Z" id="Shape"></path>
            <path d="M1304.64311,456.754261 L1304.64311,93.0042614 L1376.97976,93.0042614 L1376.97976,137.439631 L1380.25213,137.439631 C1383.46709,130.320786 1388.14601,123.058416 1394.28888,115.652521 C1400.43176,108.246626 1408.46916,102.046342 1418.4011,97.051669 C1428.33304,92.0569957 1440.7049,89.5596591 1455.51669,89.5596591 C1474.80646,89.5596591 1492.60357,94.5830374 1508.90803,104.629794 C1525.21248,114.676551 1538.24455,129.775391 1548.00426,149.926314 C1557.76397,170.077237 1562.64382,195.308949 1562.64382,225.621449 C1562.64382,255.130208 1557.90749,280.01746 1548.43484,300.283203 C1538.96218,320.548946 1526.10233,335.877427 1509.85529,346.268643 C1493.60825,356.65986 1475.43797,361.855469 1455.34446,361.855469 C1441.10677,361.855469 1429.02196,359.501657 1419.09002,354.794034 C1409.15808,350.086411 1401.03456,344.144472 1394.71946,336.968217 C1388.40436,329.791963 1383.58191,322.529593 1380.25213,315.181108 L1378.01314,315.181108 L1378.01314,456.754261 L1304.64311,456.754261 Z M1376.46307,225.276989 C1376.46307,241.007339 1378.64465,254.728338 1383.00781,266.439986 C1387.37098,278.151634 1393.68608,287.251125 1401.95313,293.738459 C1410.22017,300.225793 1420.26693,303.46946 1432.09339,303.46946 C1444.03468,303.46946 1454.13885,300.168383 1462.40589,293.566229 C1470.67294,286.964074 1476.95934,277.778468 1481.26509,266.009411 C1485.57085,254.240353 1487.72372,240.662879 1487.72372,225.276989 C1487.72372,210.005919 1485.59955,196.57197 1481.35121,184.975142 C1477.10286,173.378314 1470.84517,164.307528 1462.57813,157.762784 C1454.31108,151.21804 1444.1495,147.945668 1432.09339,147.945668 C1420.15211,147.945668 1410.07665,151.10322 1401.86701,157.418324 C1393.65737,163.733428 1387.37098,172.689394 1383.00781,184.286222 C1378.64465,195.883049 1376.46307,209.546638 1376.46307,225.276989 Z" id="Shape"></path>
            <path d="M1831.49503,168.441051 L1764.32528,172.574574 C1763.17708,166.83357 1760.70845,161.637962 1756.91939,156.987749 C1753.13033,152.337536 1748.16436,148.605883 1742.02148,145.792791 C1735.87861,142.979699 1728.55883,141.573153 1720.06214,141.573153 C1708.69496,141.573153 1699.10748,143.95567 1691.29972,148.720703 C1683.49195,153.485736 1679.58807,159.829545 1679.58807,167.752131 C1679.58807,174.067235 1682.11411,179.406368 1687.16619,183.769531 C1692.21828,188.132694 1700.88719,191.634706 1713.17294,194.275568 L1761.05291,203.920455 C1786.77261,209.202178 1805.94756,217.698864 1818.57777,229.410511 C1831.20798,241.122159 1837.52308,256.508049 1837.52308,275.568182 C1837.52308,292.906013 1832.44229,308.119673 1822.28072,321.209162 C1812.11914,334.298651 1798.22591,344.488932 1780.60103,351.780007 C1762.97615,359.071082 1742.6817,362.716619 1719.71768,362.716619 C1684.69756,362.716619 1656.82499,355.396839 1636.09996,340.75728 C1615.37494,326.11772 1603.23272,306.167732 1599.6733,280.907315 L1671.83771,277.118253 C1674.01929,287.79652 1679.30102,295.92004 1687.68288,301.488814 C1696.06475,307.057588 1706.80043,309.841974 1719.88991,309.841974 C1732.74976,309.841974 1743.11228,307.344638 1750.97745,302.349964 C1758.84263,297.355291 1762.83262,290.896662 1762.94744,282.974077 C1762.83262,276.314512 1760.01953,270.831854 1754.50817,266.526101 C1748.9968,262.220348 1740.50012,258.919271 1729.01811,256.622869 L1683.2049,247.494673 C1657.37038,242.32777 1638.16673,233.371804 1625.59393,220.626776 C1613.02113,207.881747 1606.73473,191.634706 1606.73473,171.885653 C1606.73473,154.892282 1611.35624,140.252723 1620.59925,127.966974 C1629.84227,115.681226 1642.87435,106.20857 1659.69549,99.5490057 C1676.51663,92.8894413 1696.23698,89.5596591 1718.85653,89.5596591 C1752.26918,89.5596591 1778.59168,96.6210937 1797.82404,110.743963 C1817.0564,124.866832 1828.28007,144.099195 1831.49503,168.441051 Z" id="Path"></path>
            <path d="M2138.92578,4.82244318 L2212.64027,4.82244318 L2212.64027,250.767045 C2212.64027,273.50142 2207.55948,293.250473 2197.3979,310.014205 C2187.23633,326.777936 2173.14216,339.695194 2155.11541,348.76598 C2137.08866,357.836766 2116.134,362.372159 2092.25142,362.372159 C2071.00971,362.372159 2051.74864,358.611802 2034.46822,351.091087 C2017.1878,343.570372 2003.4955,332.088364 1993.39134,316.645064 C1983.28717,301.201764 1978.2925,281.768466 1978.40538,258.34517 L2052.63849,258.34517 C2052.86813,267.645597 2054.79137,275.596887 2058.4082,282.199041 C2062.02504,288.801196 2067.01971,293.853279 2073.39222,297.355291 C2079.76474,300.857304 2087.31416,302.60831 2096.04048,302.60831 C2105.22609,302.60831 2113.00515,300.627663 2119.37766,296.666371 C2125.75018,292.705078 2130.60133,286.877959 2133.93111,279.185014 C2137.26089,271.492069 2138.92578,262.019413 2138.92578,250.767045 L2138.92578,4.82244318 Z" id="Path"></path>
            <path d="M2392.27628,362.716619 C2365.5232,362.716619 2342.41566,357.004321 2322.95366,345.579723 C2303.49165,334.155125 2288.47893,318.195135 2277.91548,297.699751 C2267.35204,277.204368 2262.07031,253.407907 2262.07031,226.310369 C2262.07031,198.983191 2267.35204,175.071911 2277.91548,154.576527 C2288.47893,134.081143 2303.49165,118.121153 2322.95366,106.696555 C2342.41566,95.2719579 2365.5232,89.5596591 2392.27628,89.5596591 C2419.02936,89.5596591 2442.1369,95.2719579 2461.5989,106.696555 C2481.0609,118.121153 2496.07363,134.081143 2506.63707,154.576527 C2517.20052,175.071911 2522.48224,198.983191 2522.48224,226.310369 C2522.48224,253.407907 2517.20052,277.204368 2506.63707,297.699751 C2496.07363,318.195135 2481.0609,334.155125 2461.5989,345.579723 C2442.1369,357.004321 2419.02936,362.716619 2392.27628,362.716619 Z M2392.62074,305.880682 C2404.79167,305.880682 2414.95324,302.407375 2423.10547,295.46076 C2431.25769,288.514145 2437.42927,279.012784 2441.62021,266.956676 C2445.81114,254.900568 2447.90661,241.179569 2447.90661,225.793679 C2447.90661,210.407789 2445.81114,196.68679 2441.62021,184.630682 C2437.42927,172.574574 2431.25769,163.044508 2423.10547,156.040483 C2414.95324,149.036458 2404.79167,145.534446 2392.62074,145.534446 C2380.33499,145.534446 2370.02989,149.036458 2361.70543,156.040483 C2353.38098,163.044508 2347.12328,172.574574 2342.93235,184.630682 C2338.74142,196.68679 2336.64595,210.407789 2336.64595,225.793679 C2336.64595,241.179569 2338.74142,254.900568 2342.93235,266.956676 C2347.12328,279.012784 2353.38098,288.514145 2361.70543,295.46076 C2370.02989,302.407375 2380.33499,305.880682 2392.62074,305.880682 Z" id="Shape"></path>
            <path d="M2740.00888,244.911222 L2740.00888,93.0042614 L2813.37891,93.0042614 L2813.37891,357.549716 L2742.93679,357.549716 L2742.93679,309.497514 L2740.18111,309.497514 C2734.21046,324.998224 2724.30723,337.456203 2710.47141,346.871449 C2696.63559,356.286695 2679.78575,360.994318 2659.92188,360.994318 C2642.23958,360.994318 2626.68146,356.975616 2613.24751,348.93821 C2599.81357,340.900805 2589.33623,329.476207 2581.81552,314.664418 C2574.2948,299.852628 2570.47704,282.112926 2570.36222,261.445312 L2570.36222,93.0042614 L2643.73224,93.0042614 L2643.73224,248.355824 C2643.84706,263.971354 2648.038,276.314512 2656.30504,285.385298 C2664.57209,294.456084 2675.65223,298.991477 2689.54545,298.991477 C2698.3866,298.991477 2706.65365,296.953421 2714.34659,292.877308 C2722.03954,288.801196 2728.26853,282.744437 2733.03356,274.707031 C2737.79859,266.669626 2740.1237,256.737689 2740.00888,244.911222 Z" id="Path"></path>
            <path d="M2871.93714,357.549716 L2871.93714,93.0042614 L2943.06818,93.0042614 L2943.06818,139.161932 L2945.82386,139.161932 C2950.64631,122.742661 2958.74112,110.313388 2970.10831,101.874112 C2981.4755,93.4348366 2994.56499,89.2151989 3009.37678,89.2151989 C3013.05102,89.2151989 3017.01231,89.444839 3021.26065,89.9041193 C3025.509,90.3633996 3029.24065,90.99491 3032.45561,91.7986506 L3032.45561,156.901634 C3029.01101,155.868253 3024.24598,154.949692 3018.16051,154.145952 C3012.07505,153.342211 3006.50627,152.940341 3001.45419,152.940341 C2990.6611,152.940341 2981.04492,155.265447 2972.60565,159.915661 C2964.16637,164.565874 2957.50681,171.024503 2952.62695,179.291548 C2947.7471,187.558594 2945.30717,197.08866 2945.30717,207.881747 L2945.30717,357.549716 L2871.93714,357.549716 Z" id="Path"></path>
            <path d="M3143.54403,204.609375 L3143.54403,357.549716 L3070.17401,357.549716 L3070.17401,93.0042614 L3140.09943,93.0042614 L3140.09943,139.678622 L3143.19957,139.678622 C3149.0554,124.292732 3158.87251,112.093099 3172.65092,103.079723 C3186.42933,94.0663471 3203.13565,89.5596591 3222.76989,89.5596591 C3241.1411,89.5596591 3257.1585,93.5783617 3270.82209,101.615767 C3284.48568,109.653172 3295.10653,121.106475 3302.68466,135.975675 C3310.26278,150.844875 3314.05185,168.555871 3314.05185,189.108665 L3314.05185,357.549716 L3240.68182,357.549716 L3240.68182,202.198153 C3240.79664,186.008523 3236.66312,173.349609 3228.28125,164.221413 C3219.89938,155.093217 3208.35997,150.529119 3193.663,150.529119 C3183.78847,150.529119 3175.09085,152.653291 3167.57013,156.901634 C3160.04942,161.149976 3154.1936,167.321555 3150.00266,175.416371 C3145.81173,183.511186 3143.65885,193.242187 3143.54403,204.609375 Z" id="Path"></path>
            <path d="M3492.31001,362.716619 C3465.09766,362.716619 3441.70307,357.176551 3422.12624,346.096413 C3402.54942,335.016276 3387.47929,319.285926 3376.91584,298.905362 C3366.35239,278.524799 3361.07067,254.383878 3361.07067,226.482599 C3361.07067,199.270241 3366.35239,175.387666 3376.91584,154.834872 C3387.47929,134.282079 3402.37719,118.264678 3421.60955,106.78267 C3440.84192,95.3006629 3463.43277,89.5596591 3489.3821,89.5596591 C3506.83475,89.5596591 3523.1105,92.3440459 3538.20934,97.9128196 C3553.30818,103.481593 3566.51249,111.834754 3577.82227,122.972301 C3589.13204,134.109848 3597.94448,148.089193 3604.25959,164.910334 C3610.57469,181.731475 3613.73224,201.394413 3613.73224,223.899148 L3613.73224,244.050071 L3390.34979,244.050071 L3390.34979,198.581321 L3544.66797,198.581321 C3544.66797,188.017874 3542.37157,178.660038 3537.77876,170.507812 C3533.18596,162.355587 3526.84215,155.954368 3518.74734,151.304155 C3510.65252,146.653942 3501.26598,144.328835 3490.58771,144.328835 C3479.45017,144.328835 3469.60434,146.883582 3461.05025,151.993075 C3452.49615,157.102569 3445.80788,163.934363 3440.98544,172.488459 C3436.163,181.042554 3433.69437,190.543916 3433.57955,200.992543 L3433.57955,244.222301 C3433.57955,257.31179 3436.01947,268.621567 3440.89933,278.151634 C3445.77918,287.6817 3452.69709,295.030185 3461.65305,300.197088 C3470.60902,305.363991 3481.22988,307.947443 3493.51563,307.947443 C3501.66785,307.947443 3509.13116,306.799242 3515.90554,304.502841 C3522.67992,302.206439 3528.47834,298.761837 3533.30078,294.169034 C3538.12322,289.576231 3541.79747,283.950047 3544.32351,277.290483 L3612.18217,281.768466 C3608.73757,298.072917 3601.70484,312.281901 3591.08398,324.395419 C3580.46313,336.508937 3566.79954,345.924183 3550.09322,352.641158 C3533.3869,359.358132 3514.12583,362.716619 3492.31001,362.716619 Z" id="Path"></path>
            <path d="M3706.90874,456.754261 C3697.60831,456.754261 3688.91069,456.036636 3680.81587,454.601385 C3672.72106,453.166134 3666.03279,451.357718 3660.75107,449.176136 L3677.28516,394.40696 C3685.89666,397.047822 3693.67572,398.483073 3700.62234,398.712713 C3707.56895,398.942353 3713.59701,397.334872 3718.7065,393.89027 C3723.81599,390.445668 3727.97822,384.589844 3731.19318,376.322798 L3735.49893,365.127841 L3640.60014,93.0042614 L3717.75923,93.0042614 L3772.52841,287.27983 L3775.28409,287.27983 L3830.56996,93.0042614 L3908.24574,93.0042614 L3805.42436,386.139915 C3800.4871,400.377604 3793.79883,412.806877 3785.35955,423.427734 C3776.92028,434.048591 3766.27071,442.258227 3753.41087,448.056641 C3740.55102,453.855054 3725.05031,456.754261 3706.90874,456.754261 Z" id="Path"></path>
        </g>
        <g id="logo-dark" transform="translate(0, -18)" fill="#000000" fill-rule="nonzero">
            <g id="Group" transform="translate(496.5, 500) scale(-1, 1) rotate(-180) translate(-496.5, -500)">
                <path d="M453.140489,997.895823 C355.046,986.782625 266.013357,948.680234 190.120392,885.629848 C159.763206,860.455053 113.321242,808.744665 102.447026,788.10587 C100.634657,784.70387 96.7833724,782.662671 89.7604413,781.755471 C68.2385556,778.353472 49.6617701,757.714676 48.075947,735.034681 C46.9432161,718.478285 50.5679548,707.365088 60.9890784,695.79829 C71.6367481,684.004693 84.0967872,678.334694 99.7284725,678.334694 C115.360158,678.334694 127.820197,684.004693 138.467867,695.79829 C151.607544,710.313487 154.552644,726.189483 148.435898,750.910678 C146.396982,758.621876 163.841037,781.528671 196.916777,815.095064 C266.46645,886.083448 344.851423,925.546639 446.344105,940.288636 C479.419845,945.278234 547.61024,944.144235 581.818711,938.020636 C604.92642,933.938237 605.379512,933.711437 609.457343,925.773439 C617.386459,910.124242 635.05706,897.196645 650.235653,895.835845 C660.883323,894.701846 680.139747,898.103845 678.553923,900.825444 C677.874285,901.959444 678.553923,902.186244 680.366293,901.505844 C683.764485,900.371844 697.810347,912.165442 697.810347,916.474641 C697.810347,917.835441 696.677617,918.28904 695.091793,917.381841 C693.732516,916.474641 693.279424,916.701441 693.959063,918.06224 C695.31834,920.33024 685.350308,936.886636 682.405208,936.886636 C681.499024,936.886636 678.553923,934.391837 675.608823,931.443437 C666.093884,921.46424 649.78256,921.23744 638.908345,930.763038 C628.487221,939.835036 632.338506,960.700631 645.931276,967.504629 C650.009107,969.772629 652.048022,972.040628 650.915291,973.855028 C650.009107,975.442628 651.368384,974.989028 653.633845,973.174628 C657.938222,969.772629 657.938222,969.772629 653.860391,976.576627 C643.89236,992.679424 635.510152,996.535023 626.674852,989.277425 C624.635936,987.463025 619.878467,987.009425 613.988266,987.916625 C607.87152,988.823825 603.340597,988.370225 600.848589,986.329025 C597.450396,983.834226 597.450396,983.834226 599.942404,987.009425 C602.434412,990.411424 601.301681,991.091824 588.615096,993.359824 C550.328794,999.937022 489.16133,1001.97822 453.140489,997.895823 Z M116.492889,746.601479 C128.952928,733.673882 123.742366,712.581486 106.97795,707.591888 C82.0578717,700.107489 64.613817,730.952282 84.3233333,747.508679 C94.2913646,755.900277 108.110681,755.446677 116.492889,746.601479 Z" id="Shape"></path>
                <path d="M647.290553,994.947423 C651.59493,987.689825 661.109869,976.349827 669.492077,968.185029 C676.9681,961.154231 678.78047,960.247031 679.9132,963.42223 C681.045931,966.82423 681.272477,966.82423 682.631754,963.42223 C683.311393,961.607831 682.858301,959.566631 681.72557,959.113031 C678.78047,958.205831 681.499024,945.958634 684.444124,945.958634 C685.576854,945.958634 686.483039,944.824634 686.483039,943.463835 C686.483039,940.061836 699.849263,923.278639 702.794363,923.278639 C703.927094,923.278639 704.15364,925.319839 703.474001,928.041438 C702.341271,931.443437 702.567817,932.350637 704.380186,931.443437 C705.739463,930.536238 706.872194,930.082638 707.09874,930.536238 C709.137656,943.463835 709.137656,950.494633 707.09874,950.494633 C705.739463,950.494633 704.606732,951.628633 704.606732,952.989433 C704.606732,954.123432 705.739463,954.577032 707.09874,953.669833 C708.684563,952.762633 709.364202,953.443033 708.684563,955.257432 C708.004925,957.071832 706.192555,958.205831 704.833278,957.752232 C703.247455,957.525432 702.567817,958.205831 703.247455,959.339831 C704.380186,960.927431 698.26344,969.772629 678.100831,995.627823 C677.647739,996.308223 670.171715,996.988623 661.562961,997.442223 C648.64983,997.895823 645.931276,997.442223 647.290553,994.947423 Z" id="Path"></path>
                <path d="M464.694344,871.795051 C456.312136,870.661051 456.538682,875.19705 462.202336,833.692659 L464.92089,815.321863 L483.271129,817.136263 C509.323938,819.404263 549.649156,815.548663 580.232888,807.837465 C622.370475,797.177868 660.203684,778.807072 694.185609,752.271478 C708.004925,741.61188 738.135565,713.035086 741.986849,707.365088 C743.346126,705.323888 750.142511,695.11789 757.391989,684.458293 C764.41492,674.025495 773.703313,658.829898 778.00769,650.6651 L785.483713,636.149904 L807.911783,645.902301 C820.145276,651.1187 831.699131,655.427899 833.284954,655.654699 C837.136239,655.654699 837.136239,655.881499 826.941661,675.613095 C814.481622,699.880689 798.623391,724.148284 796.584475,722.107084 C795.678291,721.199885 795.225198,721.426684 795.678291,722.787484 C797.037568,727.323483 774.382951,753.859077 744.705403,782.435871 C716.160587,809.651865 662.2426,840.950258 619.651921,855.011855 C581.818711,867.485852 557.804818,871.341451 513.175223,872.248651 C490.747153,872.702251 468.998721,872.475451 464.694344,871.795051 Z" id="Path"></path>
                <path d="M864.548325,818.497063 C865.681055,816.682663 865.001417,816.455863 862.509409,817.363063 C856.845755,819.404263 857.525393,812.827064 863.189048,809.878665 C865.681055,808.517865 867.719971,806.249866 867.719971,804.889066 C867.719971,800.126267 874.742902,794.456268 879.273825,795.590268 C881.539287,796.270668 883.578202,797.177868 883.578202,797.631467 C883.578202,799.899467 866.58724,821.218662 864.774871,821.218662 C863.868686,821.218662 863.64214,820.084662 864.548325,818.497063 Z" id="Path"></path>
                <path d="M910.763742,817.816663 C910.763742,816.002263 933.644905,784.93067 934.777636,784.93067 C936.363459,784.93067 933.191813,795.363468 929.567074,801.260267 C925.489243,808.291065 910.763742,820.991862 910.763742,817.816663 Z M925.489243,805.342666 C926.168881,804.208666 925.715789,803.074666 924.583058,803.074666 C923.223781,803.074666 922.09105,804.208666 922.09105,805.342666 C922.09105,806.703465 922.544143,807.610665 922.997235,807.610665 C923.676874,807.610665 924.809604,806.703465 925.489243,805.342666 Z" id="Shape"></path>
                <path d="M838.948608,792.415069 C840.534431,785.61107 984.1647,594.418713 985.070884,598.274312 C985.523977,599.861912 960.150806,635.696304 928.434343,677.427494 C896.944426,719.385485 866.58724,759.982676 860.923586,767.920674 C855.259932,775.631872 847.783908,785.61107 844.385716,789.693469 C839.175154,796.043868 838.268969,796.497468 838.948608,792.415069 Z" id="Path"></path>
                <path d="M834.644231,770.642273 C834.870777,764.291875 836.909693,755.219877 839.175154,750.683878 C843.479531,741.38508 857.75194,726.643083 860.017401,728.911083 C860.923586,729.818283 862.735955,728.911083 864.095232,727.096683 C867.493425,722.787484 879.047279,720.065885 879.047279,723.467884 C879.047279,726.189483 840.081339,779.033872 836.230054,781.301871 C835.097323,782.209071 834.417685,777.673072 834.644231,770.642273 Z" id="Path"></path>
                <path d="M906.232819,758.848676 C903.967357,756.127077 904.42045,754.312677 908.724827,749.096278 C911.669927,745.467479 915.747758,740.25108 917.560127,737.302681 C922.544143,729.818283 932.965266,716.210286 936.590005,712.354687 C938.175828,710.540287 941.574021,706.004288 943.839482,702.148689 C949.729683,692.623091 965.361368,671.530696 966.494099,671.530696 C967.400283,671.530696 962.189722,684.458293 958.111891,692.396291 C956.97916,694.66429 956.072975,697.38589 956.072975,698.74669 C956.072975,700.787889 911.216835,762.250675 909.631011,762.250675 C909.404465,762.250675 907.818642,760.663076 906.232819,758.848676 Z" id="Path"></path>
                <path d="M468.998721,717.797885 C449.062659,713.715486 429.806235,706.684688 412.815272,697.38589 C405.112703,693.076691 395.371217,689.674692 391.293387,689.674692 C381.098809,689.447892 366.826401,682.417093 359.576923,674.025495 C342.812507,653.8403 348.929254,624.129506 372.263509,612.789509 C390.160656,604.171111 407.831257,607.57311 420.744388,622.315107 C424.595673,626.624306 428.446958,633.655104 429.353142,637.510703 C431.165512,646.129101 436.376073,649.531101 457.444867,656.788699 C501.168276,671.530696 546.024417,667.901896 585.44345,645.902301 C596.997304,639.325103 599.262766,637.283903 601.754774,628.665505 C604.92642,617.779108 613.76172,607.34631 623.956298,601.903111 C634.377421,596.459912 654.54003,598.727912 664.961153,606.66591 C674.023,613.696709 681.72557,627.985105 681.952116,638.191103 C681.952116,657.695899 663.37533,678.334694 645.704729,678.334694 C641.173806,678.334694 631.885413,682.417093 620.105013,689.674692 C598.130035,703.282689 574.116141,712.808286 550.102248,717.797885 C528.806908,722.107084 489.387876,722.333884 468.998721,717.797885 Z M400.808325,664.726697 C406.47198,661.778298 411.002903,650.2115 409.190534,643.180702 C405.792341,630.026305 385.856279,625.717106 376.794432,636.376704 C362.74857,652.4795 382.004994,674.932695 400.808325,664.726697 Z M653.633845,652.2527 C660.656776,645.448701 661.109869,633.428304 654.993122,625.943906 C651.821476,621.861507 648.423283,620.500707 641.400352,620.500707 C629.166859,620.500707 622.143928,627.304706 622.143928,638.871503 C622.143928,655.427899 642.079991,664.046297 653.633845,652.2527 Z" id="Shape"></path>
                <path d="M197.596416,702.602289 C175.168345,667.221497 160.216299,630.933505 150.474813,588.521914 C141.639513,549.285523 140.280236,492.358736 147.303167,450.400745 C156.138468,397.556357 174.262161,352.423167 203.939708,307.743577 C212.775009,294.58918 220.704124,283.475983 221.610309,282.795583 C222.74304,282.115183 233.164164,289.599581 244.944564,299.125179 L266.46645,316.588775 L255.592234,331.330772 C224.781955,373.061962 204.619347,427.49395 199.182239,484.420738 C193.292039,545.883524 208.470632,612.335909 240.866733,666.767897 L252.194041,685.819092 L246.756933,689.901492 C237.468541,697.15909 208.923724,716.890685 207.790993,716.890685 C207.111355,716.890685 202.580431,710.540287 197.596416,702.602289 Z" id="Path"></path>
                <path d="M893.999326,703.282689 C895.358603,701.468289 898.077157,695.11789 900.342619,689.221092 C902.60808,683.097493 905.100088,678.334694 906.006273,678.334694 C906.912457,678.334694 907.592096,676.520295 907.818642,674.479095 C908.498281,666.541097 925.942335,618.459508 928.660889,617.552308 C930.020166,617.098708 931.152897,615.284308 931.152897,613.696709 C931.152897,612.109109 932.059082,610.294709 932.965266,609.841109 C935.004182,608.93391 973.743576,557.903921 985.070884,541.120725 L992.773454,529.780727 L991.187631,552.460722 C990.281446,564.93472 988.695623,575.594317 987.562892,575.821117 C986.430161,576.274717 985.977069,577.635517 986.656707,578.542716 C987.789438,580.357116 901.022257,698.29309 894.225872,704.416688 C892.413503,706.004288 892.413503,705.777488 893.999326,703.282689 Z" id="Path"></path>
                <path d="M928.887435,605.30511 C928.887435,604.397911 930.926351,591.697114 933.418359,576.955117 C942.027113,526.151928 938.855467,459.472743 925.262697,405.494355 C909.857558,343.577969 875.875633,277.579184 835.323869,230.404794 C822.184192,215.209198 821.051461,214.528798 807.911783,212.260798 C800.209214,210.899999 791.147367,208.178399 787.296082,206.1372 C755.806166,189.127204 751.501788,143.086814 778.913874,120.406819 C797.717206,104.984422 828.527484,105.211222 846.424631,120.860419 C859.111217,131.973616 864.095232,143.767214 864.321778,162.36481 L864.321778,178.240806 L878.594187,195.250802 C898.530249,218.611197 926.84852,261.703187 940.44129,288.465581 C973.063938,353.783967 989.148715,415.473553 991.640723,484.420738 L993,520.708729 L987.1098,529.780727 C983.711607,534.770326 980.313415,539.986725 979.180684,541.120725 C978.274499,542.481525 973.063938,549.285523 967.62683,556.316321 C962.189722,563.57392 956.752614,568.790319 955.393337,567.883119 C954.03406,567.202719 953.807514,567.656319 954.713698,569.017119 C956.526067,572.192318 955.16679,574.687117 945.878398,586.480715 C934.777636,600.542312 929.113982,606.89271 928.887435,605.30511 Z M830.792946,175.519207 C843.932624,159.41641 832.152223,136.282815 811.08343,136.282815 C800.662306,136.282815 788.428813,148.983613 788.428813,159.41641 C788.655359,175.519207 799.076483,184.591205 815.614353,183.003605 C823.316923,182.323205 826.941661,180.508806 830.792946,175.519207 Z" id="Shape"></path>
                <path d="M314.947329,596.913512 C310.642952,594.645513 304.073113,588.521914 300.221828,583.305515 C294.78472,575.594317 293.65199,571.511918 293.65199,561.98632 C293.65199,555.182322 295.464359,547.017524 297.72982,542.708324 C300.448374,537.265126 301.807651,528.193128 302.48729,508.688332 C304.299659,453.122345 324.235722,406.401555 362.522024,368.072364 C371.130778,359.453965 384.497002,348.567568 392.199571,343.577969 C399.902141,338.81517 408.510895,332.237972 411.455995,329.062772 C414.401095,325.887573 421.19748,318.629975 426.634588,312.733176 C434.563704,304.114778 438.188443,302.073578 446.797197,300.712779 C481.911852,295.49638 506.831931,333.145171 487.802053,362.629165 C478.966752,376.010362 465.827075,382.13396 449.515751,380.546361 C438.188443,379.412361 436.376073,379.865961 423.689488,388.257559 C384.723548,414.566353 357.9911,464.008742 357.9911,510.275932 C357.9911,525.244728 358.670739,527.285928 365.240578,535.677526 C374.982063,547.697923 376.794432,566.295519 369.544955,580.357116 C360.030016,598.954712 333.524115,606.89271 314.947329,596.913512 Z M346.890338,574.233517 C355.046,566.068719 355.272546,558.357521 347.569977,549.285523 C332.61793,531.368327 306.112029,551.099923 317.439337,571.965518 C322.876445,582.171516 337.601945,583.305515 346.890338,574.233517 Z M468.545629,352.649967 C479.419845,340.40277 470.81109,322.258774 454.27322,322.258774 C438.641535,322.258774 429.806235,338.81517 438.641535,351.289167 C446.117558,362.175565 459.483782,362.629165 468.545629,352.649967 Z" id="Shape"></path>
                <path d="M672.890269,594.191913 C654.993122,586.934315 643.89236,569.017119 646.384368,550.873123 C647.064006,545.656724 650.688745,537.038326 654.54003,531.595127 C660.203684,523.657129 661.562961,519.57473 661.562961,509.822332 C661.562961,490.090736 655.446215,467.410741 644.345453,444.730746 C635.736698,427.49395 630.29959,420.009552 616.480274,406.174755 C596.317666,386.21636 573.663049,372.835163 566.640118,376.690762 C564.14811,377.824761 558.031364,378.958761 552.820802,378.958761 C521.557431,378.958761 502.980646,346.299568 517.932693,317.495975 C527.447632,298.898379 556.898633,292.321181 574.79578,304.795178 C579.779796,308.197177 585.216904,313.640376 587.029273,316.815575 C588.615096,319.990774 595.184935,325.207173 601.528227,328.382372 C633.24469,344.485169 669.945169,377.371161 686.029947,404.587155 C705.286371,436.565948 715.027856,469.451941 717.066771,508.461532 C717.74641,522.749929 719.332233,531.141527 722.050787,535.223926 C727.940987,544.522724 728.620626,562.43992 723.183518,573.099518 C717.74641,583.985915 712.535848,588.748714 701.661632,593.284713 C692.373239,597.140312 681.272477,597.593912 672.890269,594.191913 Z M703.927094,563.12032 C706.645648,556.769921 706.645648,554.048322 704.380186,548.605123 C696.677617,530.007527 668.359346,535.677526 668.359346,555.862722 C668.359346,576.274717 695.997978,582.171516 703.927094,563.12032 Z M559.843733,356.278766 C560.976464,356.278766 563.921564,354.237567 566.413572,351.742767 C572.756864,345.392369 572.530318,332.011172 565.96048,325.207173 C560.296825,319.310374 547.383694,318.176375 540.813855,323.165974 C535.150201,327.475173 532.658193,337.90797 535.376747,345.845969 C537.642209,352.423167 549.196063,359.227166 554.633171,357.412766 C556.445541,356.732366 558.711002,356.278766 559.843733,356.278766 Z" id="Shape"></path>
                <path d="M481.232214,586.707515 C451.781212,573.099518 434.110612,542.935124 438.188443,513.224331 C440.453904,497.575135 451.781212,475.802339 462.655428,466.276742 C490.747153,442.235947 533.337832,444.050347 559.617187,470.359141 C571.171041,481.925938 576.608149,492.131936 579.553249,508.234732 C584.084173,532.729127 574.569234,559.718321 556.445541,575.367517 C536.736024,592.377513 503.88683,597.367112 481.232214,586.707515 Z" id="Path"></path>
                <path d="M39.0141004,469.905541 C27.9133383,466.957141 14.3205684,457.204744 7.52418348,446.771946 C-0.404932281,434.524749 -2.44384776,412.978754 3.21980635,398.236757 C7.52418348,387.577159 19.304584,375.556762 30.6318923,370.793963 C36.7486387,368.299164 38.3344619,365.804364 43.998116,347.433568 C51.7006856,322.712374 71.4102019,281.207983 89.0808028,252.857989 C152.513729,150.117612 254.006411,73.6860295 370.904232,40.119637 C403.979972,30.5940391 431.618604,25.8312402 471.264183,22.4292409 C500.262092,20.1612414 502.301007,19.7076415 509.550484,13.130443 C536.056386,-9.77635186 575.248872,-1.83835364 591.560196,30.1404392 C597.22385,41.0268368 597.22385,61.6656321 591.560196,73.9128294 C586.349634,85.4796268 571.397587,99.0876238 560.296825,102.036023 C538.77494,108.159622 522.010524,103.623623 506.831931,87.9744263 L495.731168,76.4076288 L467.639444,79.1292282 C332.61793,91.8300254 218.438663,159.64321 143.904975,271.228785 C127.593651,295.72318 105.845219,338.81517 96.3302801,365.804364 L90.2135336,383.26796 L94.5179107,389.618359 C116.719435,421.143552 95.8771877,465.823142 56.6847012,470.359141 C51.0210471,471.039541 43.0919313,470.812741 39.0141004,469.905541 Z M68.691648,433.390749 C87.7215258,412.071554 58.4970705,382.13396 36.5220926,400.731556 C27.9133383,407.989155 25.4213305,418.875552 30.4053461,428.62795 C38.3344619,443.823547 57.1377936,446.091546 68.691648,433.390749 Z M558.711002,71.6448299 C569.132126,65.0676314 571.397587,43.9752361 562.335741,35.8104379 C546.250963,21.0684412 521.104339,31.047639 521.104339,52.1400343 C521.104339,71.6448299 541.493494,82.3044275 558.711002,71.6448299 Z" id="Shape"></path>
                <path d="M790.694275,399.370757 C790.694275,393.247158 773.476766,360.134365 758.071627,337.000771 C702.794363,253.991989 607.87152,203.6424 505.6992,203.4156 C481.005668,203.1888 475.56856,202.508401 474.888921,199.786801 C474.209283,197.972402 473.076552,187.312804 472.170367,175.972807 C471.490729,164.859609 470.357998,153.746412 469.904906,151.705212 C469.225267,147.849613 472.170367,147.622813 502.301007,147.622813 C542.399678,147.622813 574.342688,152.158812 609.230797,162.59161 C709.590748,192.982803 794.772106,268.280386 836.003508,363.536365 L844.612262,383.04116 L820.371822,391.659558 C807.232145,396.195557 794.998652,400.504756 793.639375,401.185156 C792.053552,401.638756 790.694275,400.958356 790.694275,399.370757 Z" id="Path"></path>
            </g>
        </g>
    </g>
</svg>