<?xml version="1.0" encoding="UTF-8"?>
<svg width="1000px" height="1000px" viewBox="0 0 1000 1000" version="1.1" xmlns="http://www.w3.org/2000/svg" xmlns:xlink="http://www.w3.org/1999/xlink">
    <title>Artboard</title>
    <g id="Artboard" stroke="none" stroke-width="1" fill="none" fill-rule="evenodd">
        <g id="logo-dark" transform="translate(4, 0)" fill="#000000" fill-rule="nonzero">
            <g id="Group" transform="translate(496.5, 500) scale(-1, 1) rotate(-180) translate(-496.5, -500)">
                <path d="M453.140489,997.895823 C355.046,986.782625 266.013357,948.680234 190.120392,885.629848 C159.763206,860.455053 113.321242,808.744665 102.447026,788.10587 C100.634657,784.70387 96.7833724,782.662671 89.7604413,781.755471 C68.2385556,778.353472 49.6617701,757.714676 48.075947,735.034681 C46.9432161,718.478285 50.5679548,707.365088 60.9890784,695.79829 C71.6367481,684.004693 84.0967872,678.334694 99.7284725,678.334694 C115.360158,678.334694 127.820197,684.004693 138.467867,695.79829 C151.607544,710.313487 154.552644,726.189483 148.435898,750.910678 C146.396982,758.621876 163.841037,781.528671 196.916777,815.095064 C266.46645,886.083448 344.851423,925.546639 446.344105,940.288636 C479.419845,945.278234 547.61024,944.144235 581.818711,938.020636 C604.92642,933.938237 605.379512,933.711437 609.457343,925.773439 C617.386459,910.124242 635.05706,897.196645 650.235653,895.835845 C660.883323,894.701846 680.139747,898.103845 678.553923,900.825444 C677.874285,901.959444 678.553923,902.186244 680.366293,901.505844 C683.764485,900.371844 697.810347,912.165442 697.810347,916.474641 C697.810347,917.835441 696.677617,918.28904 695.091793,917.381841 C693.732516,916.474641 693.279424,916.701441 693.959063,918.06224 C695.31834,920.33024 685.350308,936.886636 682.405208,936.886636 C681.499024,936.886636 678.553923,934.391837 675.608823,931.443437 C666.093884,921.46424 649.78256,921.23744 638.908345,930.763038 C628.487221,939.835036 632.338506,960.700631 645.931276,967.504629 C650.009107,969.772629 652.048022,972.040628 650.915291,973.855028 C650.009107,975.442628 651.368384,974.989028 653.633845,973.174628 C657.938222,969.772629 657.938222,969.772629 653.860391,976.576627 C643.89236,992.679424 635.510152,996.535023 626.674852,989.277425 C624.635936,987.463025 619.878467,987.009425 613.988266,987.916625 C607.87152,988.823825 603.340597,988.370225 600.848589,986.329025 C597.450396,983.834226 597.450396,983.834226 599.942404,987.009425 C602.434412,990.411424 601.301681,991.091824 588.615096,993.359824 C550.328794,999.937022 489.16133,1001.97822 453.140489,997.895823 Z M116.492889,746.601479 C128.952928,733.673882 123.742366,712.581486 106.97795,707.591888 C82.0578717,700.107489 64.613817,730.952282 84.3233333,747.508679 C94.2913646,755.900277 108.110681,755.446677 116.492889,746.601479 Z" id="Shape"></path>
                <path d="M647.290553,994.947423 C651.59493,987.689825 661.109869,976.349827 669.492077,968.185029 C676.9681,961.154231 678.78047,960.247031 679.9132,963.42223 C681.045931,966.82423 681.272477,966.82423 682.631754,963.42223 C683.311393,961.607831 682.858301,959.566631 681.72557,959.113031 C678.78047,958.205831 681.499024,945.958634 684.444124,945.958634 C685.576854,945.958634 686.483039,944.824634 686.483039,943.463835 C686.483039,940.061836 699.849263,923.278639 702.794363,923.278639 C703.927094,923.278639 704.15364,925.319839 703.474001,928.041438 C702.341271,931.443437 702.567817,932.350637 704.380186,931.443437 C705.739463,930.536238 706.872194,930.082638 707.09874,930.536238 C709.137656,943.463835 709.137656,950.494633 707.09874,950.494633 C705.739463,950.494633 704.606732,951.628633 704.606732,952.989433 C704.606732,954.123432 705.739463,954.577032 707.09874,953.669833 C708.684563,952.762633 709.364202,953.443033 708.684563,955.257432 C708.004925,957.071832 706.192555,958.205831 704.833278,957.752232 C703.247455,957.525432 702.567817,958.205831 703.247455,959.339831 C704.380186,960.927431 698.26344,969.772629 678.100831,995.627823 C677.647739,996.308223 670.171715,996.988623 661.562961,997.442223 C648.64983,997.895823 645.931276,997.442223 647.290553,994.947423 Z" id="Path"></path>
                <path d="M464.694344,871.795051 C456.312136,870.661051 456.538682,875.19705 462.202336,833.692659 L464.92089,815.321863 L483.271129,817.136263 C509.323938,819.404263 549.649156,815.548663 580.232888,807.837465 C622.370475,797.177868 660.203684,778.807072 694.185609,752.271478 C708.004925,741.61188 738.135565,713.035086 741.986849,707.365088 C743.346126,705.323888 750.142511,695.11789 757.391989,684.458293 C764.41492,674.025495 773.703313,658.829898 778.00769,650.6651 L785.483713,636.149904 L807.911783,645.902301 C820.145276,651.1187 831.699131,655.427899 833.284954,655.654699 C837.136239,655.654699 837.136239,655.881499 826.941661,675.613095 C814.481622,699.880689 798.623391,724.148284 796.584475,722.107084 C795.678291,721.199885 795.225198,721.426684 795.678291,722.787484 C797.037568,727.323483 774.382951,753.859077 744.705403,782.435871 C716.160587,809.651865 662.2426,840.950258 619.651921,855.011855 C581.818711,867.485852 557.804818,871.341451 513.175223,872.248651 C490.747153,872.702251 468.998721,872.475451 464.694344,871.795051 Z" id="Path"></path>
                <path d="M864.548325,818.497063 C865.681055,816.682663 865.001417,816.455863 862.509409,817.363063 C856.845755,819.404263 857.525393,812.827064 863.189048,809.878665 C865.681055,808.517865 867.719971,806.249866 867.719971,804.889066 C867.719971,800.126267 874.742902,794.456268 879.273825,795.590268 C881.539287,796.270668 883.578202,797.177868 883.578202,797.631467 C883.578202,799.899467 866.58724,821.218662 864.774871,821.218662 C863.868686,821.218662 863.64214,820.084662 864.548325,818.497063 Z" id="Path"></path>
                <path d="M910.763742,817.816663 C910.763742,816.002263 933.644905,784.93067 934.777636,784.93067 C936.363459,784.93067 933.191813,795.363468 929.567074,801.260267 C925.489243,808.291065 910.763742,820.991862 910.763742,817.816663 Z M925.489243,805.342666 C926.168881,804.208666 925.715789,803.074666 924.583058,803.074666 C923.223781,803.074666 922.09105,804.208666 922.09105,805.342666 C922.09105,806.703465 922.544143,807.610665 922.997235,807.610665 C923.676874,807.610665 924.809604,806.703465 925.489243,805.342666 Z" id="Shape"></path>
                <path d="M838.948608,792.415069 C840.534431,785.61107 984.1647,594.418713 985.070884,598.274312 C985.523977,599.861912 960.150806,635.696304 928.434343,677.427494 C896.944426,719.385485 866.58724,759.982676 860.923586,767.920674 C855.259932,775.631872 847.783908,785.61107 844.385716,789.693469 C839.175154,796.043868 838.268969,796.497468 838.948608,792.415069 Z" id="Path"></path>
                <path d="M834.644231,770.642273 C834.870777,764.291875 836.909693,755.219877 839.175154,750.683878 C843.479531,741.38508 857.75194,726.643083 860.017401,728.911083 C860.923586,729.818283 862.735955,728.911083 864.095232,727.096683 C867.493425,722.787484 879.047279,720.065885 879.047279,723.467884 C879.047279,726.189483 840.081339,779.033872 836.230054,781.301871 C835.097323,782.209071 834.417685,777.673072 834.644231,770.642273 Z" id="Path"></path>
                <path d="M906.232819,758.848676 C903.967357,756.127077 904.42045,754.312677 908.724827,749.096278 C911.669927,745.467479 915.747758,740.25108 917.560127,737.302681 C922.544143,729.818283 932.965266,716.210286 936.590005,712.354687 C938.175828,710.540287 941.574021,706.004288 943.839482,702.148689 C949.729683,692.623091 965.361368,671.530696 966.494099,671.530696 C967.400283,671.530696 962.189722,684.458293 958.111891,692.396291 C956.97916,694.66429 956.072975,697.38589 956.072975,698.74669 C956.072975,700.787889 911.216835,762.250675 909.631011,762.250675 C909.404465,762.250675 907.818642,760.663076 906.232819,758.848676 Z" id="Path"></path>
                <path d="M468.998721,717.797885 C449.062659,713.715486 429.806235,706.684688 412.815272,697.38589 C405.112703,693.076691 395.371217,689.674692 391.293387,689.674692 C381.098809,689.447892 366.826401,682.417093 359.576923,674.025495 C342.812507,653.8403 348.929254,624.129506 372.263509,612.789509 C390.160656,604.171111 407.831257,607.57311 420.744388,622.315107 C424.595673,626.624306 428.446958,633.655104 429.353142,637.510703 C431.165512,646.129101 436.376073,649.531101 457.444867,656.788699 C501.168276,671.530696 546.024417,667.901896 585.44345,645.902301 C596.997304,639.325103 599.262766,637.283903 601.754774,628.665505 C604.92642,617.779108 613.76172,607.34631 623.956298,601.903111 C634.377421,596.459912 654.54003,598.727912 664.961153,606.66591 C674.023,613.696709 681.72557,627.985105 681.952116,638.191103 C681.952116,657.695899 663.37533,678.334694 645.704729,678.334694 C641.173806,678.334694 631.885413,682.417093 620.105013,689.674692 C598.130035,703.282689 574.116141,712.808286 550.102248,717.797885 C528.806908,722.107084 489.387876,722.333884 468.998721,717.797885 Z M400.808325,664.726697 C406.47198,661.778298 411.002903,650.2115 409.190534,643.180702 C405.792341,630.026305 385.856279,625.717106 376.794432,636.376704 C362.74857,652.4795 382.004994,674.932695 400.808325,664.726697 Z M653.633845,652.2527 C660.656776,645.448701 661.109869,633.428304 654.993122,625.943906 C651.821476,621.861507 648.423283,620.500707 641.400352,620.500707 C629.166859,620.500707 622.143928,627.304706 622.143928,638.871503 C622.143928,655.427899 642.079991,664.046297 653.633845,652.2527 Z" id="Shape"></path>
                <path d="M197.596416,702.602289 C175.168345,667.221497 160.216299,630.933505 150.474813,588.521914 C141.639513,549.285523 140.280236,492.358736 147.303167,450.400745 C156.138468,397.556357 174.262161,352.423167 203.939708,307.743577 C212.775009,294.58918 220.704124,283.475983 221.610309,282.795583 C222.74304,282.115183 233.164164,289.599581 244.944564,299.125179 L266.46645,316.588775 L255.592234,331.330772 C224.781955,373.061962 204.619347,427.49395 199.182239,484.420738 C193.292039,545.883524 208.470632,612.335909 240.866733,666.767897 L252.194041,685.819092 L246.756933,689.901492 C237.468541,697.15909 208.923724,716.890685 207.790993,716.890685 C207.111355,716.890685 202.580431,710.540287 197.596416,702.602289 Z" id="Path"></path>
                <path d="M893.999326,703.282689 C895.358603,701.468289 898.077157,695.11789 900.342619,689.221092 C902.60808,683.097493 905.100088,678.334694 906.006273,678.334694 C906.912457,678.334694 907.592096,676.520295 907.818642,674.479095 C908.498281,666.541097 925.942335,618.459508 928.660889,617.552308 C930.020166,617.098708 931.152897,615.284308 931.152897,613.696709 C931.152897,612.109109 932.059082,610.294709 932.965266,609.841109 C935.004182,608.93391 973.743576,557.903921 985.070884,541.120725 L992.773454,529.780727 L991.187631,552.460722 C990.281446,564.93472 988.695623,575.594317 987.562892,575.821117 C986.430161,576.274717 985.977069,577.635517 986.656707,578.542716 C987.789438,580.357116 901.022257,698.29309 894.225872,704.416688 C892.413503,706.004288 892.413503,705.777488 893.999326,703.282689 Z" id="Path"></path>
                <path d="M928.887435,605.30511 C928.887435,604.397911 930.926351,591.697114 933.418359,576.955117 C942.027113,526.151928 938.855467,459.472743 925.262697,405.494355 C909.857558,343.577969 875.875633,277.579184 835.323869,230.404794 C822.184192,215.209198 821.051461,214.528798 807.911783,212.260798 C800.209214,210.899999 791.147367,208.178399 787.296082,206.1372 C755.806166,189.127204 751.501788,143.086814 778.913874,120.406819 C797.717206,104.984422 828.527484,105.211222 846.424631,120.860419 C859.111217,131.973616 864.095232,143.767214 864.321778,162.36481 L864.321778,178.240806 L878.594187,195.250802 C898.530249,218.611197 926.84852,261.703187 940.44129,288.465581 C973.063938,353.783967 989.148715,415.473553 991.640723,484.420738 L993,520.708729 L987.1098,529.780727 C983.711607,534.770326 980.313415,539.986725 979.180684,541.120725 C978.274499,542.481525 973.063938,549.285523 967.62683,556.316321 C962.189722,563.57392 956.752614,568.790319 955.393337,567.883119 C954.03406,567.202719 953.807514,567.656319 954.713698,569.017119 C956.526067,572.192318 955.16679,574.687117 945.878398,586.480715 C934.777636,600.542312 929.113982,606.89271 928.887435,605.30511 Z M830.792946,175.519207 C843.932624,159.41641 832.152223,136.282815 811.08343,136.282815 C800.662306,136.282815 788.428813,148.983613 788.428813,159.41641 C788.655359,175.519207 799.076483,184.591205 815.614353,183.003605 C823.316923,182.323205 826.941661,180.508806 830.792946,175.519207 Z" id="Shape"></path>
                <path d="M314.947329,596.913512 C310.642952,594.645513 304.073113,588.521914 300.221828,583.305515 C294.78472,575.594317 293.65199,571.511918 293.65199,561.98632 C293.65199,555.182322 295.464359,547.017524 297.72982,542.708324 C300.448374,537.265126 301.807651,528.193128 302.48729,508.688332 C304.299659,453.122345 324.235722,406.401555 362.522024,368.072364 C371.130778,359.453965 384.497002,348.567568 392.199571,343.577969 C399.902141,338.81517 408.510895,332.237972 411.455995,329.062772 C414.401095,325.887573 421.19748,318.629975 426.634588,312.733176 C434.563704,304.114778 438.188443,302.073578 446.797197,300.712779 C481.911852,295.49638 506.831931,333.145171 487.802053,362.629165 C478.966752,376.010362 465.827075,382.13396 449.515751,380.546361 C438.188443,379.412361 436.376073,379.865961 423.689488,388.257559 C384.723548,414.566353 357.9911,464.008742 357.9911,510.275932 C357.9911,525.244728 358.670739,527.285928 365.240578,535.677526 C374.982063,547.697923 376.794432,566.295519 369.544955,580.357116 C360.030016,598.954712 333.524115,606.89271 314.947329,596.913512 Z M346.890338,574.233517 C355.046,566.068719 355.272546,558.357521 347.569977,549.285523 C332.61793,531.368327 306.112029,551.099923 317.439337,571.965518 C322.876445,582.171516 337.601945,583.305515 346.890338,574.233517 Z M468.545629,352.649967 C479.419845,340.40277 470.81109,322.258774 454.27322,322.258774 C438.641535,322.258774 429.806235,338.81517 438.641535,351.289167 C446.117558,362.175565 459.483782,362.629165 468.545629,352.649967 Z" id="Shape"></path>
                <path d="M672.890269,594.191913 C654.993122,586.934315 643.89236,569.017119 646.384368,550.873123 C647.064006,545.656724 650.688745,537.038326 654.54003,531.595127 C660.203684,523.657129 661.562961,519.57473 661.562961,509.822332 C661.562961,490.090736 655.446215,467.410741 644.345453,444.730746 C635.736698,427.49395 630.29959,420.009552 616.480274,406.174755 C596.317666,386.21636 573.663049,372.835163 566.640118,376.690762 C564.14811,377.824761 558.031364,378.958761 552.820802,378.958761 C521.557431,378.958761 502.980646,346.299568 517.932693,317.495975 C527.447632,298.898379 556.898633,292.321181 574.79578,304.795178 C579.779796,308.197177 585.216904,313.640376 587.029273,316.815575 C588.615096,319.990774 595.184935,325.207173 601.528227,328.382372 C633.24469,344.485169 669.945169,377.371161 686.029947,404.587155 C705.286371,436.565948 715.027856,469.451941 717.066771,508.461532 C717.74641,522.749929 719.332233,531.141527 722.050787,535.223926 C727.940987,544.522724 728.620626,562.43992 723.183518,573.099518 C717.74641,583.985915 712.535848,588.748714 701.661632,593.284713 C692.373239,597.140312 681.272477,597.593912 672.890269,594.191913 Z M703.927094,563.12032 C706.645648,556.769921 706.645648,554.048322 704.380186,548.605123 C696.677617,530.007527 668.359346,535.677526 668.359346,555.862722 C668.359346,576.274717 695.997978,582.171516 703.927094,563.12032 Z M559.843733,356.278766 C560.976464,356.278766 563.921564,354.237567 566.413572,351.742767 C572.756864,345.392369 572.530318,332.011172 565.96048,325.207173 C560.296825,319.310374 547.383694,318.176375 540.813855,323.165974 C535.150201,327.475173 532.658193,337.90797 535.376747,345.845969 C537.642209,352.423167 549.196063,359.227166 554.633171,357.412766 C556.445541,356.732366 558.711002,356.278766 559.843733,356.278766 Z" id="Shape"></path>
                <path d="M481.232214,586.707515 C451.781212,573.099518 434.110612,542.935124 438.188443,513.224331 C440.453904,497.575135 451.781212,475.802339 462.655428,466.276742 C490.747153,442.235947 533.337832,444.050347 559.617187,470.359141 C571.171041,481.925938 576.608149,492.131936 579.553249,508.234732 C584.084173,532.729127 574.569234,559.718321 556.445541,575.367517 C536.736024,592.377513 503.88683,597.367112 481.232214,586.707515 Z" id="Path"></path>
                <path d="M39.0141004,469.905541 C27.9133383,466.957141 14.3205684,457.204744 7.52418348,446.771946 C-0.404932281,434.524749 -2.44384776,412.978754 3.21980635,398.236757 C7.52418348,387.577159 19.304584,375.556762 30.6318923,370.793963 C36.7486387,368.299164 38.3344619,365.804364 43.998116,347.433568 C51.7006856,322.712374 71.4102019,281.207983 89.0808028,252.857989 C152.513729,150.117612 254.006411,73.6860295 370.904232,40.119637 C403.979972,30.5940391 431.618604,25.8312402 471.264183,22.4292409 C500.262092,20.1612414 502.301007,19.7076415 509.550484,13.130443 C536.056386,-9.77635186 575.248872,-1.83835364 591.560196,30.1404392 C597.22385,41.0268368 597.22385,61.6656321 591.560196,73.9128294 C586.349634,85.4796268 571.397587,99.0876238 560.296825,102.036023 C538.77494,108.159622 522.010524,103.623623 506.831931,87.9744263 L495.731168,76.4076288 L467.639444,79.1292282 C332.61793,91.8300254 218.438663,159.64321 143.904975,271.228785 C127.593651,295.72318 105.845219,338.81517 96.3302801,365.804364 L90.2135336,383.26796 L94.5179107,389.618359 C116.719435,421.143552 95.8771877,465.823142 56.6847012,470.359141 C51.0210471,471.039541 43.0919313,470.812741 39.0141004,469.905541 Z M68.691648,433.390749 C87.7215258,412.071554 58.4970705,382.13396 36.5220926,400.731556 C27.9133383,407.989155 25.4213305,418.875552 30.4053461,428.62795 C38.3344619,443.823547 57.1377936,446.091546 68.691648,433.390749 Z M558.711002,71.6448299 C569.132126,65.0676314 571.397587,43.9752361 562.335741,35.8104379 C546.250963,21.0684412 521.104339,31.047639 521.104339,52.1400343 C521.104339,71.6448299 541.493494,82.3044275 558.711002,71.6448299 Z" id="Shape"></path>
                <path d="M790.694275,399.370757 C790.694275,393.247158 773.476766,360.134365 758.071627,337.000771 C702.794363,253.991989 607.87152,203.6424 505.6992,203.4156 C481.005668,203.1888 475.56856,202.508401 474.888921,199.786801 C474.209283,197.972402 473.076552,187.312804 472.170367,175.972807 C471.490729,164.859609 470.357998,153.746412 469.904906,151.705212 C469.225267,147.849613 472.170367,147.622813 502.301007,147.622813 C542.399678,147.622813 574.342688,152.158812 609.230797,162.59161 C709.590748,192.982803 794.772106,268.280386 836.003508,363.536365 L844.612262,383.04116 L820.371822,391.659558 C807.232145,396.195557 794.998652,400.504756 793.639375,401.185156 C792.053552,401.638756 790.694275,400.958356 790.694275,399.370757 Z" id="Path"></path>
            </g>
        </g>
    </g>
</svg>