<?xml version="1.0" encoding="UTF-8"?>
<svg width="5111px" height="1000px" viewBox="0 0 5111 1000" version="1.1" xmlns="http://www.w3.org/2000/svg" xmlns:xlink="http://www.w3.org/1999/xlink">
    <title>Artboard</title>
    <g id="Artboard" stroke="none" stroke-width="1" fill="none" fill-rule="evenodd">
        <g id="scala_logo_option_3" transform="translate(55.1533, 32.4973)" fill="#FFFFFF" fill-rule="nonzero">
            <path d="M784.0767,183.2727 C791.9997,214.9667 789.5887,254.5837 777.8757,297.9907 C751.6937,288.3447 723.7897,279.7317 694.5067,272.8417 C687.6177,243.5597 679.0047,215.6557 669.3587,189.4737 C713.1097,177.7607 752.3827,175.6937 784.0767,183.2727 Z" id="Path"></path>
            <path d="M484.0187,58.9097 C511.9227,75.7897 538.1047,105.4167 560.8417,144.3447 C535.3487,156.0577 509.5117,169.8377 484.0187,185.3397 C458.5257,169.4927 432.6887,155.7137 407.1957,144.3447 C429.5877,105.4167 455.7697,76.1347 484.0187,58.9097 Z" id="Path"></path>
            <path d="M183.6177,183.2727 C215.3107,175.3497 254.9287,177.7607 298.3347,189.4737 C288.6887,215.6557 280.0767,243.5597 273.1867,272.8417 C243.9047,279.7317 215.9997,288.3447 189.8187,297.9907 C178.4497,254.5837 176.0387,215.3107 183.6177,183.2727 Z" id="Path"></path>
            <path d="M59.2537,483.6747 C76.1337,455.7707 105.7607,429.5887 144.6887,406.8517 C156.4017,432.3447 170.1817,458.1817 185.6837,483.6747 C169.8367,509.1677 156.0577,535.0047 144.6887,560.4977 C105.7607,537.7607 76.4787,511.5787 59.2537,483.6747 Z" id="Path"></path>
            <path d="M183.6177,783.7317 C175.6937,752.0377 178.1057,712.4207 189.8187,669.0137 C215.9997,678.6597 243.9047,687.2727 273.1867,694.1627 C280.0767,723.4447 288.6887,751.3487 298.3347,777.5307 C254.9287,789.2437 215.6557,791.6547 183.6177,783.7317 Z" id="Path"></path>
            <path d="M484.0187,908.0947 C456.1147,891.2147 429.9327,861.5877 407.1957,822.6597 C432.6887,810.9467 458.5257,797.1667 484.0187,781.6647 C509.5117,797.5117 535.3487,811.2907 560.8417,822.6597 C538.1047,861.5877 511.9227,891.2147 484.0187,908.0947 Z" id="Path"></path>
            <path d="M784.0767,783.7317 C752.3827,791.6547 712.7657,789.2437 669.3587,777.5307 C679.0047,751.3487 687.6177,723.4447 694.5067,694.1627 C723.7897,687.2727 751.6937,678.6597 777.8757,669.0137 C789.5887,712.4207 791.9997,752.0377 784.0767,783.7317 Z" id="Path"></path>
            <path d="M823.0047,560.4977 C811.2917,535.0047 797.5117,509.1677 782.0097,483.6747 C797.8557,458.1817 811.6357,432.3447 823.0047,406.8517 C861.9327,429.5887 891.5597,455.7707 908.4397,483.6747 C891.5597,511.5787 861.9327,537.7607 823.0047,560.4977 Z" id="Path"></path>
            <path d="M965.2867,478.5067 C942.8897,426.4877 891.2147,379.9807 818.8707,344.8417 C845.0527,268.7077 848.8417,199.4637 827.8277,146.7557 L825.7607,141.5887 L820.5937,139.5217 C767.8847,118.5067 698.6407,122.2967 622.5067,148.4787 C587.3687,76.1337 540.8617,24.4593 488.8417,2.067 L483.6747,-9.09494702e-13 L478.5067,2.067 C426.4877,24.4593 379.9807,76.1337 344.8417,148.4787 C268.7087,122.2967 199.4647,118.5067 146.7557,139.5217 L141.5887,141.5887 L139.5217,146.7557 C118.5067,199.4637 122.2967,268.7077 148.4787,344.8417 C76.1337,379.9807 24.4595,426.4877 2.0671,478.5067 L0,483.6747 L2.0671,488.8417 C24.4595,540.8607 76.1337,587.3687 148.4787,622.5067 C122.2967,698.6407 118.5067,767.8847 139.5217,820.5927 L141.5887,825.7607 L146.7557,827.8277 C199.4647,848.8417 268.7087,845.0527 344.8417,818.8707 C379.9807,891.2147 426.4877,942.8897 478.5067,965.2827 L483.6747,967.3527 L488.8417,965.2827 C540.8617,942.8897 587.3687,891.2147 622.5067,818.8707 C665.5697,833.6837 706.5647,841.6077 743.4257,841.6077 C771.6747,841.6077 797.5117,837.1287 820.2487,827.8277 L825.4167,825.7607 L827.4827,820.5927 C848.4977,767.8847 844.7077,698.6407 818.5267,622.5067 C890.8707,587.3687 942.5457,540.8607 964.9367,488.8417 L967.0067,483.6747 L965.2867,478.5067 Z M805.7797,161.5697 C822.3157,207.3877 818.1817,267.6747 795.4447,334.1627 C758.5837,318.3157 717.2437,305.2247 672.1147,295.5787 C662.4687,250.4497 649.3777,209.1097 633.5307,172.2487 C699.6747,149.5117 759.9617,145.3777 805.7797,161.5697 Z M723.7897,490.5647 C750.3157,530.8707 771.3297,570.8327 786.4877,608.7267 C748.5937,624.9187 705.8757,638.3537 658.3347,647.9997 L650.0667,649.7227 L648.3447,657.9907 C638.6987,705.1867 625.2637,748.2487 609.0717,786.1437 C570.8327,770.9857 531.2157,749.9707 490.9087,723.4447 L483.6747,718.6217 L476.4407,723.4447 C436.1337,749.9707 396.1727,770.9857 358.2777,786.1437 C342.0857,748.2487 328.6507,705.5307 319.0047,657.9907 L317.2827,649.7227 L309.0147,647.9997 C261.8177,638.3537 218.7557,624.9187 180.8617,608.7267 C196.0187,570.4877 217.0337,530.8707 243.5597,490.5647 L248.3827,483.3297 L243.5597,476.0957 C217.0337,435.7897 196.0187,395.8277 180.8617,357.9327 C218.7557,341.7417 261.4737,328.3057 309.0147,318.6607 L317.2827,316.9377 L319.0047,308.6697 C328.6507,261.4737 342.0857,218.4117 358.2777,180.5167 C396.5167,195.6747 436.1337,216.6887 476.4407,243.2157 L483.6747,248.0387 L490.9087,243.2157 C531.2157,216.6887 571.1767,195.6747 609.0717,180.5167 C625.2637,218.4117 638.6987,261.1287 648.3447,308.6697 L650.0667,316.9377 L658.3347,318.6607 C705.5307,328.3057 748.5937,341.7417 786.4877,357.9327 C771.3297,396.1717 750.3157,435.7897 723.7897,476.0957 L718.9667,483.3297 L723.7897,490.5647 Z M484.0187,28.2488 C528.1147,49.2627 567.7317,94.3927 598.7367,157.7797 C561.5307,172.5937 522.9477,192.5737 484.0187,217.7227 C445.0907,192.9187 406.5067,172.5937 369.3017,157.7797 C400.3067,94.7367 439.9237,49.2627 484.0187,28.2488 Z M161.9137,161.5697 C207.7317,145.0337 268.0197,149.1677 334.5077,171.9047 C318.6607,208.7657 305.5697,250.1057 295.9237,295.2347 C250.7947,304.8807 209.4547,317.9717 172.5937,333.8177 C149.8567,267.6747 145.7227,207.7317 161.9137,161.5697 Z M28.5935,483.6747 C49.6077,439.5787 94.7367,399.9617 157.7797,368.9567 C172.5937,406.1627 192.5737,444.7467 217.7227,483.6747 C192.9187,522.6027 172.5937,561.1867 157.7797,598.3917 C95.0817,567.3877 49.6077,527.7697 28.5935,483.6747 Z M161.9137,805.4347 C145.3777,759.6167 149.5117,699.3297 172.2487,632.8417 C209.1097,648.6887 250.4497,661.7797 295.5787,671.4257 C305.2247,716.5547 318.3157,757.8947 334.1627,794.7557 C268.0187,817.8367 208.0767,821.9707 161.9137,805.4347 Z M484.0187,938.7557 C439.9237,917.7417 400.3067,872.6117 369.3017,809.5687 C406.5067,794.7557 445.0907,774.7747 484.0187,749.6267 C522.9477,774.7747 561.5307,794.7557 598.7367,809.5687 C567.7317,872.6117 528.1147,918.0857 484.0187,938.7557 Z M805.7797,805.4347 C759.9617,821.9707 699.6747,817.8367 633.1867,795.1007 C649.0337,758.2387 662.1247,716.8997 671.7707,671.7697 C716.8997,662.1247 758.2397,649.0337 795.1007,633.1867 C818.1817,699.3297 822.3157,759.6167 805.7797,805.4347 Z M809.9137,598.3917 C795.1007,561.1867 775.1197,522.6027 749.9717,483.6747 C774.7747,444.7467 795.1007,406.1627 809.9137,368.9567 C872.9567,399.9617 918.4307,439.5787 939.1007,483.6747 C918.4307,527.7697 872.9567,567.3877 809.9137,598.3917 Z" id="Shape"></path>
            <g id="Group" opacity="0.6" transform="translate(367.8467, 344.7867)">
                <path d="M0,92.477 C0,92.477 230.826,115.596 230.826,154.129 L230.826,61.652 C230.826,61.652 230.826,23.119 0,0 L0,35.963 L0,92.477 Z" id="Path"></path>
                <path d="M0,215.78 C0,215.78 230.826,238.899 230.826,277.431 L230.826,184.954 C230.826,184.954 230.826,146.422 0,123.303 L0,215.78 Z" id="Path"></path>
            </g>
            <path d="M599.0387,283.5027 L599.0387,375.9797 C599.0387,375.9797 599.0387,414.5117 368.213264,437.6307 L368.213264,344.7867 C367.8467,344.7867 599.0387,322.0347 599.0387,283.5027 Z" id="Path"></path>
            <path d="M367.8467,468.0897 C367.8467,468.0897 598.6727,444.9707 598.6727,406.4387 L598.6727,498.9157 C598.6727,498.9157 598.6727,537.4477 367.8467,560.5667 L367.8467,468.0897 Z" id="Path"></path>
            <path d="M367.8467,683.5027 L367.8467,591.0257 C367.8467,591.0257 598.6727,567.9067 598.6727,529.3747 L598.6727,621.8517 C599.0397,622.2187 599.0397,660.3837 367.8467,683.5027 Z" id="Path"></path>
        </g>
        <g id="Scala-Uzbekistan" transform="translate(1208.7656, 316.2734)" fill="#FFFFFF" fill-rule="nonzero">
            <path d="M136.40625,360.585938 C109.609375,360.585938 86.25,356.660156 66.328125,348.808594 C46.40625,340.957031 30.7421875,329.628906 19.3359375,314.824219 C7.9296875,300.019531 1.5625,282.265625 0.234375,261.5625 L0,257.695312 L66.796875,257.695312 L67.265625,260.390625 C68.828125,269.0625 72.7734375,276.582031 79.1015625,282.949219 C85.4296875,289.316406 93.6523438,294.257812 103.769531,297.773438 C113.886719,301.289062 125.351563,303.046875 138.164062,303.046875 C151.289062,303.046875 162.597656,301.269531 172.089844,297.714844 C181.582031,294.160156 188.925781,289.140625 194.121094,282.65625 C199.316406,276.171875 201.914062,268.632812 201.914062,260.039062 L201.914062,259.804688 C201.914062,248.398438 197.421875,239.453125 188.4375,232.96875 C179.453125,226.484375 164.453125,221.09375 143.4375,216.796875 L107.695312,209.648438 C74.4140625,203.007812 49.3359375,191.699219 32.4609375,175.722656 C15.5859375,159.746094 7.1484375,139.023438 7.1484375,113.554688 L7.1484375,113.320313 C7.2265625,92.6953125 12.7929688,74.7070312 23.8476562,59.3554688 C34.9023438,44.0039062 50.1367188,32.0507812 69.5507812,23.4960938 C88.9648438,14.9414062 111.132813,10.6640625 136.054688,10.6640625 C162.148438,10.6640625 184.6875,14.7460938 203.671875,22.9101562 C222.65625,31.0742188 237.480469,42.5585938 248.144531,57.3632812 C258.808594,72.1679688 264.6875,89.453125 265.78125,109.21875 L266.015625,113.554688 L199.21875,113.554688 L198.867188,110.742188 C197.695312,101.835938 194.355469,94.2382812 188.847656,87.9492188 C183.339844,81.6601562 176.09375,76.796875 167.109375,73.359375 C158.125,69.921875 147.773438,68.203125 136.054688,68.203125 C124.023437,68.203125 113.652344,69.9414062 104.941406,73.4179688 C96.2304688,76.8945312 89.5507813,81.6992188 84.9023438,87.8320312 C80.2539062,93.9648438 77.9296875,101.054688 77.9296875,109.101562 L77.9296875,109.335938 C77.9296875,120.039062 82.4609375,128.652344 91.5234375,135.175781 C100.585938,141.699219 114.84375,146.953125 134.296875,150.9375 L170.039062,158.085938 C193.710938,162.773438 213.105469,169.257812 228.222656,177.539062 C243.339844,185.820312 254.53125,196.25 261.796875,208.828125 C269.0625,221.40625 272.695312,236.5625 272.695312,254.296875 L272.695312,254.53125 C272.695312,276.171875 267.265625,294.941406 256.40625,310.839844 C245.546875,326.738281 229.941406,339.003906 209.589844,347.636719 C189.238281,356.269531 164.84375,360.585938 136.40625,360.585938 Z" id="Path"></path>
            <path d="M424.6875,359.882812 C399.21875,359.882812 377.207031,354.589844 358.652344,344.003906 C340.097656,333.417969 325.800781,318.320312 315.761719,298.710938 C305.722656,279.101562 300.703125,255.820312 300.703125,228.867188 L300.703125,228.632812 C300.703125,201.835938 305.761719,178.691406 315.878906,159.199219 C325.996094,139.707031 340.292969,124.6875 358.769531,114.140625 C377.246094,103.59375 399.023438,98.3203125 424.101562,98.3203125 C446.835938,98.3203125 466.582031,102.578125 483.339844,111.09375 C500.097656,119.609375 513.203125,131.132812 522.65625,145.664062 C532.109375,160.195312 537.265625,176.523438 538.125,194.648438 L538.242188,196.289062 L474.609375,196.289062 L474.257812,194.179688 C472.226562,182.226562 467.050781,172.207031 458.730469,164.121094 C450.410156,156.035156 439.179688,151.992188 425.039062,151.992188 C413.867188,151.992188 404.179688,155.078125 395.976562,161.25 C387.773438,167.421875 381.445312,176.25 376.992188,187.734375 C372.539062,199.21875 370.3125,212.96875 370.3125,228.984375 L370.3125,229.21875 C370.3125,245.546875 372.539062,259.453125 376.992188,270.9375 C381.445312,282.421875 387.792969,291.171875 396.035156,297.1875 C404.277344,303.203125 414.023438,306.210938 425.273438,306.210938 C439.023438,306.210938 450.078125,302.363281 458.4375,294.667969 C466.796875,286.972656 472.109375,276.757812 474.375,264.023438 L474.726562,261.914062 L538.476562,261.914062 L538.359375,263.4375 C537.265625,281.71875 531.953125,298.125 522.421875,312.65625 C512.890625,327.1875 499.824219,338.691406 483.222656,347.167969 C466.621094,355.644531 447.109375,359.882812 424.6875,359.882812 Z" id="Path"></path>
            <path d="M646.171875,358.710938 C629.453125,358.710938 614.746094,355.46875 602.050781,348.984375 C589.355469,342.5 579.453125,333.535156 572.34375,322.089844 C565.234375,310.644531 561.679688,297.539062 561.679688,282.773438 L561.679688,282.421875 C561.679688,267.109375 565.507812,254.023438 573.164062,243.164062 C580.820312,232.304688 591.933594,223.730469 606.503906,217.441406 C621.074219,211.152344 638.75,207.34375 659.53125,206.015625 L757.5,199.921875 L757.5,242.460938 L669.84375,248.203125 C656.640625,248.984375 646.601562,252.070312 639.726562,257.460938 C632.851562,262.851562 629.414062,270 629.414062,278.90625 L629.414062,279.257812 C629.414062,288.476562 632.949219,295.703125 640.019531,300.9375 C647.089844,306.171875 656.523438,308.789062 668.320312,308.789062 C678.554688,308.789062 687.675781,306.796875 695.683594,302.8125 C703.691406,298.828125 710.019531,293.359375 714.667969,286.40625 C719.316406,279.453125 721.640625,271.640625 721.640625,262.96875 L721.640625,186.796875 C721.640625,175.625 718.105469,166.816406 711.035156,160.371094 C703.964844,153.925781 693.710938,150.703125 680.273438,150.703125 C667.539062,150.703125 657.402344,153.339844 649.863281,158.613281 C642.324219,163.886719 637.695312,170.585938 635.976562,178.710938 L635.507812,180.9375 L572.929688,180.9375 L573.164062,178.125 C574.492188,162.578125 579.648438,148.808594 588.632812,136.816406 C597.617188,124.824219 610.097656,115.410156 626.074219,108.574219 C642.050781,101.738281 661.09375,98.3203125 683.203125,98.3203125 C704.84375,98.3203125 723.652344,101.816406 739.628906,108.808594 C755.605469,115.800781 768.007812,125.605469 776.835938,138.222656 C785.664062,150.839844 790.078125,165.585938 790.078125,182.460938 L790.078125,354.726562 L721.640625,354.726562 L721.640625,317.34375 L720.234375,317.34375 C715.46875,325.859375 709.394531,333.222656 702.011719,339.433594 C694.628906,345.644531 686.230469,350.410156 676.816406,353.730469 C667.402344,357.050781 657.1875,358.710938 646.171875,358.710938 Z" id="Path"></path>
            <polygon id="Path" points="835.664062 354.726562 835.664062 16.5234375 904.101562 16.5234375 904.101562 354.726562"></polygon>
            <path d="M1025.03906,358.710938 C1008.32031,358.710938 993.613281,355.46875 980.917969,348.984375 C968.222656,342.5 958.320312,333.535156 951.210938,322.089844 C944.101562,310.644531 940.546875,297.539062 940.546875,282.773438 L940.546875,282.421875 C940.546875,267.109375 944.375,254.023438 952.03125,243.164062 C959.6875,232.304688 970.800781,223.730469 985.371094,217.441406 C999.941406,211.152344 1017.61719,207.34375 1038.39844,206.015625 L1136.36719,199.921875 L1136.36719,242.460938 L1048.71094,248.203125 C1035.50781,248.984375 1025.46875,252.070312 1018.59375,257.460938 C1011.71875,262.851562 1008.28125,270 1008.28125,278.90625 L1008.28125,279.257812 C1008.28125,288.476562 1011.81641,295.703125 1018.88672,300.9375 C1025.95703,306.171875 1035.39062,308.789062 1047.1875,308.789062 C1057.42188,308.789062 1066.54297,306.796875 1074.55078,302.8125 C1082.55859,298.828125 1088.88672,293.359375 1093.53516,286.40625 C1098.18359,279.453125 1100.50781,271.640625 1100.50781,262.96875 L1100.50781,186.796875 C1100.50781,175.625 1096.97266,166.816406 1089.90234,160.371094 C1082.83203,153.925781 1072.57812,150.703125 1059.14062,150.703125 C1046.40625,150.703125 1036.26953,153.339844 1028.73047,158.613281 C1021.19141,163.886719 1016.5625,170.585938 1014.84375,178.710938 L1014.375,180.9375 L951.796875,180.9375 L952.03125,178.125 C953.359375,162.578125 958.515625,148.808594 967.5,136.816406 C976.484375,124.824219 988.964844,115.410156 1004.94141,108.574219 C1020.91797,101.738281 1039.96094,98.3203125 1062.07031,98.3203125 C1083.71094,98.3203125 1102.51953,101.816406 1118.49609,108.808594 C1134.47266,115.800781 1146.875,125.605469 1155.70312,138.222656 C1164.53125,150.839844 1168.94531,165.585938 1168.94531,182.460938 L1168.94531,354.726562 L1100.50781,354.726562 L1100.50781,317.34375 L1099.10156,317.34375 C1094.33594,325.859375 1088.26172,333.222656 1080.87891,339.433594 C1073.49609,345.644531 1065.09766,350.410156 1055.68359,353.730469 C1046.26953,357.050781 1036.05469,358.710938 1025.03906,358.710938 Z" id="Path"></path>
            <path d="M1455.35156,360.585938 C1426.52344,360.585938 1401.50391,355.371094 1380.29297,344.941406 C1359.08203,334.511719 1342.67578,319.882812 1331.07422,301.054688 C1319.47266,282.226562 1313.67188,260.273438 1313.67188,235.195312 L1313.67188,16.5234375 L1384.45312,16.5234375 L1384.45312,228.867187 C1384.45312,243.476563 1387.22656,256.132812 1392.77344,266.835938 C1398.32031,277.539062 1406.36719,285.839844 1416.91406,291.738281 C1427.46094,297.636719 1440.3125,300.585938 1455.46875,300.585938 C1470.625,300.585938 1483.47656,297.636719 1494.02344,291.738281 C1504.57031,285.839844 1512.57812,277.539062 1518.04688,266.835938 C1523.51562,256.132812 1526.25,243.476563 1526.25,228.867187 L1526.25,16.5234375 L1597.03125,16.5234375 L1597.03125,235.195312 C1597.03125,260.195312 1591.26953,282.109375 1579.74609,300.9375 C1568.22266,319.765625 1551.875,334.414062 1530.70312,344.882812 C1509.53125,355.351562 1484.41406,360.585938 1455.35156,360.585938 Z" id="Path"></path>
            <polygon id="Path" points="1642.61719 354.726562 1642.61719 315.820312 1768.94531 156.328125 1768.94531 155.039062 1644.60938 155.039062 1644.60938 103.476562 1847.22656 103.476562 1847.22656 146.835938 1728.51562 301.875 1728.51562 303.164062 1850.15625 303.164062 1850.15625 354.726562"></polygon>
            <path d="M2038.71094,359.882812 C2026.67969,359.882812 2015.64453,357.949219 2005.60547,354.082031 C1995.56641,350.214844 1986.81641,344.726562 1979.35547,337.617188 C1971.89453,330.507812 1965.89844,321.953125 1961.36719,311.953125 L1959.96094,311.953125 L1959.96094,354.726562 L1891.52344,354.726562 L1891.52344,16.5234375 L1959.96094,16.5234375 L1959.96094,147.1875 L1961.36719,147.1875 C1965.97656,137.03125 1972.05078,128.300781 1979.58984,120.996094 C1987.12891,113.691406 1995.91797,108.085938 2005.95703,104.179688 C2015.99609,100.273438 2026.95312,98.3203125 2038.82812,98.3203125 C2059.92188,98.3203125 2078.08594,103.515625 2093.32031,113.90625 C2108.55469,124.296875 2120.3125,139.238281 2128.59375,158.730469 C2136.875,178.222656 2141.01562,201.601562 2141.01562,228.867188 L2141.01562,229.101562 C2141.01562,256.289062 2136.89453,279.648438 2128.65234,299.179688 C2120.41016,318.710938 2108.63281,333.710938 2093.32031,344.179688 C2078.00781,354.648438 2059.80469,359.882812 2038.71094,359.882812 Z M2015.85938,303.164062 C2027.26562,303.164062 2037.12891,300.175781 2045.44922,294.199219 C2053.76953,288.222656 2060.17578,279.6875 2064.66797,268.59375 C2069.16016,257.5 2071.40625,244.335938 2071.40625,229.101562 L2071.40625,228.867188 C2071.40625,213.554688 2069.14062,200.390625 2064.60938,189.375 C2060.07812,178.359375 2053.65234,169.882812 2045.33203,163.945312 C2037.01172,158.007812 2027.1875,155.039062 2015.85938,155.039062 C2004.84375,155.039062 1995.13672,158.046875 1986.73828,164.0625 C1978.33984,170.078125 1971.75781,178.613281 1966.99219,189.667969 C1962.22656,200.722656 1959.84375,213.828125 1959.84375,228.984375 L1959.84375,229.21875 C1959.84375,244.296875 1962.20703,257.382812 1966.93359,268.476562 C1971.66016,279.570312 1978.22266,288.125 1986.62109,294.140625 C1995.01953,300.15625 2004.76562,303.164062 2015.85938,303.164062 Z" id="Shape"></path>
            <path d="M2290.66406,359.882812 C2265.03906,359.882812 2242.98828,354.609375 2224.51172,344.0625 C2206.03516,333.515625 2191.83594,318.476562 2181.91406,298.945312 C2171.99219,279.414062 2167.03125,256.289062 2167.03125,229.570312 L2167.03125,229.335938 C2167.03125,202.695312 2171.99219,179.570312 2181.91406,159.960938 C2191.83594,140.351562 2205.83984,125.175781 2223.92578,114.433594 C2242.01172,103.691406 2263.32031,98.3203125 2287.85156,98.3203125 C2312.38281,98.3203125 2333.59375,103.535156 2351.48438,113.964844 C2369.375,124.394531 2383.18359,139.0625 2392.91016,157.96875 C2402.63672,176.875 2407.5,198.984375 2407.5,224.296875 L2407.5,245.390625 L2200.66406,245.390625 L2200.66406,202.265625 L2375.15625,202.265625 L2342.69531,242.578125 L2342.69531,216.210938 C2342.69531,201.523438 2340.42969,189.21875 2335.89844,179.296875 C2331.36719,169.375 2325.07812,161.914062 2317.03125,156.914062 C2308.98438,151.914062 2299.64844,149.414062 2289.02344,149.414062 C2278.39844,149.414062 2268.98438,151.992188 2260.78125,157.148438 C2252.57812,162.304688 2246.15234,169.863281 2241.50391,179.824219 C2236.85547,189.785156 2234.53125,201.914062 2234.53125,216.210938 L2234.53125,242.8125 C2234.53125,256.640625 2236.85547,268.476562 2241.50391,278.320312 C2246.15234,288.164062 2252.77344,295.703125 2261.36719,300.9375 C2269.96094,306.171875 2280.19531,308.789062 2292.07031,308.789062 C2301.44531,308.789062 2309.57031,307.324219 2316.44531,304.394531 C2323.32031,301.464844 2328.92578,297.734375 2333.26172,293.203125 C2337.59766,288.671875 2340.54688,284.023438 2342.10938,279.257812 L2342.57812,277.851562 L2405.39062,277.851562 L2404.80469,280.546875 C2402.85156,289.765625 2399.16016,299.042969 2393.73047,308.378906 C2388.30078,317.714844 2380.9375,326.289062 2371.64062,334.101562 C2362.34375,341.914062 2350.99609,348.164062 2337.59766,352.851562 C2324.19922,357.539062 2308.55469,359.882812 2290.66406,359.882812 Z" id="Path"></path>
            <path d="M2444.88281,354.726562 L2444.88281,16.5234375 L2513.32031,16.5234375 L2513.32031,354.726562 L2444.88281,354.726562 Z M2602.96875,354.726562 L2525.39062,243.75 L2568.63281,191.601562 L2681.83594,354.726562 L2602.96875,354.726562 Z M2505,280.78125 L2505,204.023438 L2514.72656,204.023438 L2599.57031,103.476562 L2677.14844,103.476562 L2561.25,235.546875 L2546.01562,235.546875 L2505,280.78125 Z" id="Shape"></path>
            <path d="M2702.10938,354.726562 L2702.10938,103.476562 L2770.54688,103.476562 L2770.54688,354.726562 L2702.10938,354.726562 Z M2736.32812,71.25 C2726.09375,71.25 2717.44141,67.734375 2710.37109,60.703125 C2703.30078,53.671875 2699.76562,45.3125 2699.76562,35.625 C2699.76562,25.78125 2703.30078,17.3828125 2710.37109,10.4296875 C2717.44141,3.4765625 2726.09375,0 2736.32812,0 C2746.64062,0 2755.3125,3.4765625 2762.34375,10.4296875 C2769.375,17.3828125 2772.89062,25.78125 2772.89062,35.625 C2772.89062,45.3125 2769.375,53.671875 2762.34375,60.703125 C2755.3125,67.734375 2746.64062,71.25 2736.32812,71.25 Z" id="Shape"></path>
            <path d="M2919.60938,359.882812 C2896.48438,359.882812 2876.79688,356.542969 2860.54688,349.863281 C2844.29688,343.183594 2831.62109,333.867188 2822.51953,321.914062 C2813.41797,309.960938 2807.92969,296.054688 2806.05469,280.195312 L2805.82031,278.085938 L2872.61719,278.085938 L2873.08594,280.195312 C2875.27344,290.039062 2880.17578,297.714844 2887.79297,303.222656 C2895.41016,308.730469 2906.05469,311.484375 2919.72656,311.484375 C2928.39844,311.484375 2935.80078,310.429688 2941.93359,308.320312 C2948.06641,306.210938 2952.79297,303.183594 2956.11328,299.238281 C2959.43359,295.292969 2961.09375,290.625 2961.09375,285.234375 L2961.09375,285 C2961.09375,278.28125 2958.67188,272.871094 2953.82812,268.769531 C2948.98438,264.667969 2940.42969,261.25 2928.16406,258.515625 L2885.39062,249.492188 C2869.21875,246.054688 2855.68359,241.09375 2844.78516,234.609375 C2833.88672,228.125 2825.70312,220.078125 2820.23438,210.46875 C2814.76562,200.859375 2812.03125,189.804688 2812.03125,177.304688 L2812.03125,177.070312 C2812.03125,161.054688 2816.34766,147.167969 2824.98047,135.410156 C2833.61328,123.652344 2845.83984,114.53125 2861.66016,108.046875 C2877.48047,101.5625 2896.01562,98.3203125 2917.26562,98.3203125 C2939.53125,98.3203125 2958.4375,101.894531 2973.98438,109.042969 C2989.53125,116.191406 3001.46484,125.761719 3009.78516,137.753906 C3018.10547,149.746094 3022.5,163.085938 3022.96875,177.773438 L3023.08594,180.117188 L2960.03906,180.117188 L2959.80469,178.242188 C2958.71094,169.257812 2954.53125,161.757812 2947.26562,155.742188 C2940,149.726562 2930,146.71875 2917.26562,146.71875 C2909.45312,146.71875 2902.65625,147.8125 2896.875,150 C2891.09375,152.1875 2886.64062,155.273438 2883.51562,159.257812 C2880.39062,163.242188 2878.82812,167.96875 2878.82812,173.4375 L2878.82812,173.671875 C2878.82812,177.890625 2879.90234,181.679688 2882.05078,185.039062 C2884.19922,188.398438 2887.77344,191.328125 2892.77344,193.828125 C2897.77344,196.328125 2904.45312,198.515625 2912.8125,200.390625 L2955.58594,209.414062 C2981.91406,214.960938 3000.82031,223.183594 3012.30469,234.082031 C3023.78906,244.980469 3029.53125,259.648438 3029.53125,278.085938 L3029.53125,278.320312 C3029.53125,294.726562 3024.86328,309.042969 3015.52734,321.269531 C3006.19141,333.496094 2993.26172,342.988281 2976.73828,349.746094 C2960.21484,356.503906 2941.17188,359.882812 2919.60938,359.882812 Z" id="Path"></path>
            <path d="M3163.24219,359.882812 C3135.35156,359.882812 3114.70703,354.042969 3101.30859,342.363281 C3087.91016,330.683594 3081.21094,311.40625 3081.21094,284.53125 L3081.21094,155.039062 L3046.28906,155.039062 L3046.28906,103.476562 L3081.21094,103.476562 L3081.21094,42.1875 L3150.35156,42.1875 L3150.35156,103.476562 L3196.28906,103.476562 L3196.28906,155.039062 L3150.35156,155.039062 L3150.35156,277.03125 C3150.35156,288.75 3152.94922,296.894531 3158.14453,301.464844 C3163.33984,306.035156 3171.13281,308.320312 3181.52344,308.320312 C3184.57031,308.320312 3187.26562,308.203125 3189.60938,307.96875 C3191.95312,307.734375 3194.17969,307.5 3196.28906,307.265625 L3196.28906,357.304688 C3192.46094,357.929688 3187.77344,358.515625 3182.22656,359.0625 C3176.67969,359.609375 3170.35156,359.882812 3163.24219,359.882812 Z" id="Path"></path>
            <path d="M3308.67188,358.710938 C3291.95312,358.710938 3277.24609,355.46875 3264.55078,348.984375 C3251.85547,342.5 3241.95312,333.535156 3234.84375,322.089844 C3227.73438,310.644531 3224.17969,297.539062 3224.17969,282.773438 L3224.17969,282.421875 C3224.17969,267.109375 3228.00781,254.023438 3235.66406,243.164062 C3243.32031,232.304688 3254.43359,223.730469 3269.00391,217.441406 C3283.57422,211.152344 3301.25,207.34375 3322.03125,206.015625 L3420,199.921875 L3420,242.460938 L3332.34375,248.203125 C3319.14062,248.984375 3309.10156,252.070312 3302.22656,257.460938 C3295.35156,262.851562 3291.91406,270 3291.91406,278.90625 L3291.91406,279.257812 C3291.91406,288.476562 3295.44922,295.703125 3302.51953,300.9375 C3309.58984,306.171875 3319.02344,308.789062 3330.82031,308.789062 C3341.05469,308.789062 3350.17578,306.796875 3358.18359,302.8125 C3366.19141,298.828125 3372.51953,293.359375 3377.16797,286.40625 C3381.81641,279.453125 3384.14062,271.640625 3384.14062,262.96875 L3384.14062,186.796875 C3384.14062,175.625 3380.60547,166.816406 3373.53516,160.371094 C3366.46484,153.925781 3356.21094,150.703125 3342.77344,150.703125 C3330.03906,150.703125 3319.90234,153.339844 3312.36328,158.613281 C3304.82422,163.886719 3300.19531,170.585938 3298.47656,178.710938 L3298.00781,180.9375 L3235.42969,180.9375 L3235.66406,178.125 C3236.99219,162.578125 3242.14844,148.808594 3251.13281,136.816406 C3260.11719,124.824219 3272.59766,115.410156 3288.57422,108.574219 C3304.55078,101.738281 3323.59375,98.3203125 3345.70312,98.3203125 C3367.34375,98.3203125 3386.15234,101.816406 3402.12891,108.808594 C3418.10547,115.800781 3430.50781,125.605469 3439.33594,138.222656 C3448.16406,150.839844 3452.57812,165.585938 3452.57812,182.460938 L3452.57812,354.726562 L3384.14062,354.726562 L3384.14062,317.34375 L3382.73438,317.34375 C3377.96875,325.859375 3371.89453,333.222656 3364.51172,339.433594 C3357.12891,345.644531 3348.73047,350.410156 3339.31641,353.730469 C3329.90234,357.050781 3319.6875,358.710938 3308.67188,358.710938 Z" id="Path"></path>
            <path d="M3496.52344,354.726562 L3496.52344,103.476562 L3564.96094,103.476562 L3564.96094,144.84375 L3566.36719,144.84375 C3572.85156,130.390625 3582.5,119.023438 3595.3125,110.742188 C3608.125,102.460938 3624.02344,98.3203125 3643.00781,98.3203125 C3670.58594,98.3203125 3691.91406,106.660156 3706.99219,123.339844 C3722.07031,140.019531 3729.60938,163.085938 3729.60938,192.539062 L3729.60938,354.726562 L3661.17188,354.726562 L3661.17188,206.71875 C3661.17188,190.3125 3657.32422,177.597656 3649.62891,168.574219 C3641.93359,159.550781 3630.39062,155.039062 3615,155.039062 C3604.84375,155.039062 3596.01562,157.363281 3588.51562,162.011719 C3581.01562,166.660156 3575.21484,173.125 3571.11328,181.40625 C3567.01172,189.6875 3564.96094,199.335938 3564.96094,210.351562 L3564.96094,354.726562 L3496.52344,354.726562 Z" id="Path"></path>
        </g>
    </g>
</svg>