<?xml version="1.0" encoding="UTF-8"?>
<svg width="1000px" height="1000px" viewBox="0 0 1000 1000" version="1.1" xmlns="http://www.w3.org/2000/svg" xmlns:xlink="http://www.w3.org/1999/xlink">
    <title>Artboard</title>
    <g id="Artboard" stroke="none" stroke-width="1" fill="none" fill-rule="evenodd">
        <g id="scala_logo_option_3" transform="translate(16.1533, 16.4973)" fill="#FFFFFF" fill-rule="nonzero">
            <path d="M784.0767,183.2727 C791.9997,214.9667 789.5887,254.5837 777.8757,297.9907 C751.6937,288.3447 723.7897,279.7317 694.5067,272.8417 C687.6177,243.5597 679.0047,215.6557 669.3587,189.4737 C713.1097,177.7607 752.3827,175.6937 784.0767,183.2727 Z" id="Path"></path>
            <path d="M484.0187,58.9097 C511.9227,75.7897 538.1047,105.4167 560.8417,144.3447 C535.3487,156.0577 509.5117,169.8377 484.0187,185.3397 C458.5257,169.4927 432.6887,155.7137 407.1957,144.3447 C429.5877,105.4167 455.7697,76.1347 484.0187,58.9097 Z" id="Path"></path>
            <path d="M183.6177,183.2727 C215.3107,175.3497 254.9287,177.7607 298.3347,189.4737 C288.6887,215.6557 280.0767,243.5597 273.1867,272.8417 C243.9047,279.7317 215.9997,288.3447 189.8187,297.9907 C178.4497,254.5837 176.0387,215.3107 183.6177,183.2727 Z" id="Path"></path>
            <path d="M59.2537,483.6747 C76.1337,455.7707 105.7607,429.5887 144.6887,406.8517 C156.4017,432.3447 170.1817,458.1817 185.6837,483.6747 C169.8367,509.1677 156.0577,535.0047 144.6887,560.4977 C105.7607,537.7607 76.4787,511.5787 59.2537,483.6747 Z" id="Path"></path>
            <path d="M183.6177,783.7317 C175.6937,752.0377 178.1057,712.4207 189.8187,669.0137 C215.9997,678.6597 243.9047,687.2727 273.1867,694.1627 C280.0767,723.4447 288.6887,751.3487 298.3347,777.5307 C254.9287,789.2437 215.6557,791.6547 183.6177,783.7317 Z" id="Path"></path>
            <path d="M484.0187,908.0947 C456.1147,891.2147 429.9327,861.5877 407.1957,822.6597 C432.6887,810.9467 458.5257,797.1667 484.0187,781.6647 C509.5117,797.5117 535.3487,811.2907 560.8417,822.6597 C538.1047,861.5877 511.9227,891.2147 484.0187,908.0947 Z" id="Path"></path>
            <path d="M784.0767,783.7317 C752.3827,791.6547 712.7657,789.2437 669.3587,777.5307 C679.0047,751.3487 687.6177,723.4447 694.5067,694.1627 C723.7897,687.2727 751.6937,678.6597 777.8757,669.0137 C789.5887,712.4207 791.9997,752.0377 784.0767,783.7317 Z" id="Path"></path>
            <path d="M823.0047,560.4977 C811.2917,535.0047 797.5117,509.1677 782.0097,483.6747 C797.8557,458.1817 811.6357,432.3447 823.0047,406.8517 C861.9327,429.5887 891.5597,455.7707 908.4397,483.6747 C891.5597,511.5787 861.9327,537.7607 823.0047,560.4977 Z" id="Path"></path>
            <path d="M965.2867,478.5067 C942.8897,426.4877 891.2147,379.9807 818.8707,344.8417 C845.0527,268.7077 848.8417,199.4637 827.8277,146.7557 L825.7607,141.5887 L820.5937,139.5217 C767.8847,118.5067 698.6407,122.2967 622.5067,148.4787 C587.3687,76.1337 540.8617,24.4593 488.8417,2.067 L483.6747,-9.09494702e-13 L478.5067,2.067 C426.4877,24.4593 379.9807,76.1337 344.8417,148.4787 C268.7087,122.2967 199.4647,118.5067 146.7557,139.5217 L141.5887,141.5887 L139.5217,146.7557 C118.5067,199.4637 122.2967,268.7077 148.4787,344.8417 C76.1337,379.9807 24.4595,426.4877 2.0671,478.5067 L0,483.6747 L2.0671,488.8417 C24.4595,540.8607 76.1337,587.3687 148.4787,622.5067 C122.2967,698.6407 118.5067,767.8847 139.5217,820.5927 L141.5887,825.7607 L146.7557,827.8277 C199.4647,848.8417 268.7087,845.0527 344.8417,818.8707 C379.9807,891.2147 426.4877,942.8897 478.5067,965.2827 L483.6747,967.3527 L488.8417,965.2827 C540.8617,942.8897 587.3687,891.2147 622.5067,818.8707 C665.5697,833.6837 706.5647,841.6077 743.4257,841.6077 C771.6747,841.6077 797.5117,837.1287 820.2487,827.8277 L825.4167,825.7607 L827.4827,820.5927 C848.4977,767.8847 844.7077,698.6407 818.5267,622.5067 C890.8707,587.3687 942.5457,540.8607 964.9367,488.8417 L967.0067,483.6747 L965.2867,478.5067 Z M805.7797,161.5697 C822.3157,207.3877 818.1817,267.6747 795.4447,334.1627 C758.5837,318.3157 717.2437,305.2247 672.1147,295.5787 C662.4687,250.4497 649.3777,209.1097 633.5307,172.2487 C699.6747,149.5117 759.9617,145.3777 805.7797,161.5697 Z M723.7897,490.5647 C750.3157,530.8707 771.3297,570.8327 786.4877,608.7267 C748.5937,624.9187 705.8757,638.3537 658.3347,647.9997 L650.0667,649.7227 L648.3447,657.9907 C638.6987,705.1867 625.2637,748.2487 609.0717,786.1437 C570.8327,770.9857 531.2157,749.9707 490.9087,723.4447 L483.6747,718.6217 L476.4407,723.4447 C436.1337,749.9707 396.1727,770.9857 358.2777,786.1437 C342.0857,748.2487 328.6507,705.5307 319.0047,657.9907 L317.2827,649.7227 L309.0147,647.9997 C261.8177,638.3537 218.7557,624.9187 180.8617,608.7267 C196.0187,570.4877 217.0337,530.8707 243.5597,490.5647 L248.3827,483.3297 L243.5597,476.0957 C217.0337,435.7897 196.0187,395.8277 180.8617,357.9327 C218.7557,341.7417 261.4737,328.3057 309.0147,318.6607 L317.2827,316.9377 L319.0047,308.6697 C328.6507,261.4737 342.0857,218.4117 358.2777,180.5167 C396.5167,195.6747 436.1337,216.6887 476.4407,243.2157 L483.6747,248.0387 L490.9087,243.2157 C531.2157,216.6887 571.1767,195.6747 609.0717,180.5167 C625.2637,218.4117 638.6987,261.1287 648.3447,308.6697 L650.0667,316.9377 L658.3347,318.6607 C705.5307,328.3057 748.5937,341.7417 786.4877,357.9327 C771.3297,396.1717 750.3157,435.7897 723.7897,476.0957 L718.9667,483.3297 L723.7897,490.5647 Z M484.0187,28.2488 C528.1147,49.2627 567.7317,94.3927 598.7367,157.7797 C561.5307,172.5937 522.9477,192.5737 484.0187,217.7227 C445.0907,192.9187 406.5067,172.5937 369.3017,157.7797 C400.3067,94.7367 439.9237,49.2627 484.0187,28.2488 Z M161.9137,161.5697 C207.7317,145.0337 268.0197,149.1677 334.5077,171.9047 C318.6607,208.7657 305.5697,250.1057 295.9237,295.2347 C250.7947,304.8807 209.4547,317.9717 172.5937,333.8177 C149.8567,267.6747 145.7227,207.7317 161.9137,161.5697 Z M28.5935,483.6747 C49.6077,439.5787 94.7367,399.9617 157.7797,368.9567 C172.5937,406.1627 192.5737,444.7467 217.7227,483.6747 C192.9187,522.6027 172.5937,561.1867 157.7797,598.3917 C95.0817,567.3877 49.6077,527.7697 28.5935,483.6747 Z M161.9137,805.4347 C145.3777,759.6167 149.5117,699.3297 172.2487,632.8417 C209.1097,648.6887 250.4497,661.7797 295.5787,671.4257 C305.2247,716.5547 318.3157,757.8947 334.1627,794.7557 C268.0187,817.8367 208.0767,821.9707 161.9137,805.4347 Z M484.0187,938.7557 C439.9237,917.7417 400.3067,872.6117 369.3017,809.5687 C406.5067,794.7557 445.0907,774.7747 484.0187,749.6267 C522.9477,774.7747 561.5307,794.7557 598.7367,809.5687 C567.7317,872.6117 528.1147,918.0857 484.0187,938.7557 Z M805.7797,805.4347 C759.9617,821.9707 699.6747,817.8367 633.1867,795.1007 C649.0337,758.2387 662.1247,716.8997 671.7707,671.7697 C716.8997,662.1247 758.2397,649.0337 795.1007,633.1867 C818.1817,699.3297 822.3157,759.6167 805.7797,805.4347 Z M809.9137,598.3917 C795.1007,561.1867 775.1197,522.6027 749.9717,483.6747 C774.7747,444.7467 795.1007,406.1627 809.9137,368.9567 C872.9567,399.9617 918.4307,439.5787 939.1007,483.6747 C918.4307,527.7697 872.9567,567.3877 809.9137,598.3917 Z" id="Shape"></path>
            <g id="Group" opacity="0.6" transform="translate(367.8467, 344.7867)">
                <path d="M0,92.477 C0,92.477 230.826,115.596 230.826,154.129 L230.826,61.652 C230.826,61.652 230.826,23.119 0,0 L0,35.963 L0,92.477 Z" id="Path"></path>
                <path d="M0,215.78 C0,215.78 230.826,238.899 230.826,277.431 L230.826,184.954 C230.826,184.954 230.826,146.422 0,123.303 L0,215.78 Z" id="Path"></path>
            </g>
            <path d="M599.0387,283.5027 L599.0387,375.9797 C599.0387,375.9797 599.0387,414.5117 368.213264,437.6307 L368.213264,344.7867 C367.8467,344.7867 599.0387,322.0347 599.0387,283.5027 Z" id="Path"></path>
            <path d="M367.8467,468.0897 C367.8467,468.0897 598.6727,444.9707 598.6727,406.4387 L598.6727,498.9157 C598.6727,498.9157 598.6727,537.4477 367.8467,560.5667 L367.8467,468.0897 Z" id="Path"></path>
            <path d="M367.8467,683.5027 L367.8467,591.0257 C367.8467,591.0257 598.6727,567.9067 598.6727,529.3747 L598.6727,621.8517 C599.0397,622.2187 599.0397,660.3837 367.8467,683.5027 Z" id="Path"></path>
        </g>
    </g>
</svg>