<?xml version="1.0" encoding="UTF-8"?>
<svg width="1000px" height="1000px" viewBox="0 0 1000 1000" version="1.1" xmlns="http://www.w3.org/2000/svg" xmlns:xlink="http://www.w3.org/1999/xlink">
    <title>Artboard</title>
    <g id="Artboard" stroke="none" stroke-width="1" fill="none" fill-rule="evenodd">
        <path d="M1001,0 L1001,1000 L-2,1000 L-2,0 L1001,0 Z M569.318359,688.164062 L510.333984,688.164062 L510.333984,870.390625 C510.333984,891.289062 515.167969,909.583333 524.835938,925.273438 C534.503906,940.963542 548.175781,953.154297 565.851562,961.845703 C583.527344,970.537109 604.376953,974.882812 628.400391,974.882812 C652.619141,974.882812 673.55013,970.520833 691.193359,961.796875 C708.836589,953.072917 722.459635,940.865885 732.0625,925.175781 C741.665365,909.485677 746.466797,891.223958 746.466797,870.390625 L746.466797,688.164062 L687.482422,688.164062 L687.482422,865.117188 C687.482422,877.291667 685.203776,887.838542 680.646484,896.757812 C676.089193,905.677083 669.416016,912.594401 660.626953,917.509766 C651.837891,922.42513 641.128255,924.882812 628.498047,924.882812 C615.867839,924.882812 605.158203,922.42513 596.369141,917.509766 C587.580078,912.594401 580.874349,905.677083 576.251953,896.757812 C571.629557,887.838542 569.318359,877.291667 569.318359,865.117188 L569.318359,688.164062 Z M980.060547,688.164062 L793.341797,688.164062 L793.341797,970 L980.060547,970 L980.060547,921.367188 L852.326172,921.367188 L852.326172,850.566406 L972.833984,850.566406 L972.833984,804.472656 L852.326172,804.472656 L852.326172,736.796875 L980.060547,736.796875 L980.060547,688.164062 Z M683.625,520.808594 C672.306641,520.808594 662.573161,523.607259 654.424561,529.20459 C646.27596,534.801921 640.013753,542.772705 635.637939,553.116943 C631.262126,563.461182 629.074219,575.730469 629.074219,589.924805 L629.074219,590.110352 C629.074219,604.304688 631.262126,616.573975 635.637939,626.918213 C640.013753,637.262451 646.27596,645.248698 654.424561,650.876953 C662.573161,656.505208 672.306641,659.319336 683.625,659.319336 C694.943359,659.319336 704.676839,656.505208 712.825439,650.876953 C720.97404,645.248698 727.236247,637.262451 731.612061,626.918213 C735.987874,616.573975 738.175781,604.304688 738.175781,590.110352 L738.175781,589.924805 C738.175781,575.730469 735.987874,563.461182 731.612061,553.116943 C727.236247,542.772705 720.97404,534.801921 712.825439,529.20459 C704.676839,523.607259 694.943359,520.808594 683.625,520.808594 Z M965.006836,523.12793 L879.608887,523.12793 L873.48584,601.753418 L897.838867,601.753418 C898.611979,600.330892 899.547445,598.993408 900.645264,597.740967 C901.743083,596.488525 902.941406,595.352051 904.240234,594.331543 C906.528646,592.476074 909.134033,591.06901 912.056396,590.110352 C914.97876,589.151693 918.140788,588.672363 921.54248,588.672363 C926.366699,588.672363 930.642008,589.692871 934.368408,591.733887 C938.094808,593.774902 941.024902,596.596761 943.158691,600.199463 C945.29248,603.802165 946.359375,607.953776 946.359375,612.654297 L946.359375,612.839844 C946.359375,617.602214 945.300212,621.815674 943.181885,625.480225 C941.063558,629.144775 938.133464,632.00529 934.391602,634.061768 C930.64974,636.118245 926.335775,637.146484 921.449707,637.146484 C917.182129,637.146484 913.339762,636.35791 909.922607,634.780762 C906.505452,633.203613 903.699056,631.062093 901.503418,628.356201 C899.30778,625.650309 897.869792,622.627441 897.189453,619.287598 L897.050293,618.638184 L871.166504,618.638184 L871.259277,619.983398 C871.815918,627.436198 874.220296,634.131348 878.472412,640.068848 C882.724528,646.006348 888.507406,650.699137 895.821045,654.147217 C903.134684,657.595296 911.646647,659.319336 921.356934,659.319336 C931.562012,659.319336 940.553304,657.3479 948.330811,653.405029 C956.108317,649.462158 962.184977,643.957601 966.560791,636.891357 C970.936605,629.825114 973.124512,621.637858 973.124512,612.32959 L973.124512,612.144043 C973.124512,603.70166 971.238118,596.210205 967.465332,589.669678 C963.692546,583.12915 958.520426,577.980225 951.948975,574.2229 C945.377523,570.465576 937.839681,568.586914 929.335449,568.586914 C924.820475,568.586914 920.622477,569.174479 916.741455,570.349609 C912.860433,571.52474 909.427816,573.18693 906.443604,575.336182 C903.459391,577.485433 901.024089,580.075358 899.137695,583.105957 L898.581055,583.105957 L901.874512,545.393555 L965.006836,545.393555 L965.006836,523.12793 Z M563.900879,520.808594 C554.468913,520.808594 546.034261,522.633138 538.596924,526.282227 C531.159587,529.931315 525.307129,534.987467 521.039551,541.450684 C516.771973,547.9139 514.638184,555.351237 514.638184,563.762695 L514.638184,564.504883 L540.614746,564.504883 L540.661133,563.669922 C540.784831,559.64974 541.836263,556.054769 543.81543,552.88501 C545.794596,549.715251 548.523682,547.210368 552.002686,545.370361 C555.481689,543.530355 559.494141,542.610352 564.040039,542.610352 C568.029297,542.610352 571.546956,543.414388 574.593018,545.022461 C577.639079,546.630534 580.027995,548.841634 581.759766,551.655762 C583.491536,554.469889 584.357422,557.71696 584.357422,561.396973 L584.357422,561.58252 C584.357422,564.674967 583.816243,567.635986 582.733887,570.465576 C581.65153,573.295166 579.625977,576.503581 576.657227,580.09082 C573.688477,583.67806 569.312663,588.177572 563.529785,593.589355 L516.215332,637.842285 L516.215332,657 L613.534668,657 L613.534668,634.734375 L552.814,634.735 L552.814,633.596 L580.878418,608.015625 C588.345274,601.118529 594.29277,595.144681 598.720905,590.09408 L599.131592,589.623291 C603.600179,584.474365 606.800863,579.596029 608.733643,574.988281 C610.666423,570.380534 611.632812,565.370768 611.632812,559.958984 L611.632812,559.773438 C611.632812,552.166016 609.622721,545.43221 605.602539,539.572021 C601.582357,533.711833 595.992757,529.119548 588.83374,525.795166 C581.674723,522.470785 573.36377,520.808594 563.900879,520.808594 Z M803.070801,520.808594 C793.638835,520.808594 785.204183,522.633138 777.766846,526.282227 C770.329508,529.931315 764.477051,534.987467 760.209473,541.450684 C755.941895,547.9139 753.808105,555.351237 753.808105,563.762695 L753.808105,564.504883 L779.784668,564.504883 L779.831055,563.669922 C779.954753,559.64974 781.006185,556.054769 782.985352,552.88501 C784.964518,549.715251 787.693604,547.210368 791.172607,545.370361 C794.651611,543.530355 798.664062,542.610352 803.209961,542.610352 C807.199219,542.610352 810.716878,543.414388 813.762939,545.022461 C816.809001,546.630534 819.197917,548.841634 820.929688,551.655762 C822.661458,554.469889 823.527344,557.71696 823.527344,561.396973 L823.527344,561.58252 C823.527344,564.674967 822.986165,567.635986 821.903809,570.465576 C820.821452,573.295166 818.795898,576.503581 815.827148,580.09082 C812.858398,583.67806 808.482585,588.177572 802.699707,593.589355 L755.385254,637.842285 L755.385254,657 L852.70459,657 L852.70459,634.734375 L791.984,634.735 L791.984,633.596 L820.04834,608.015625 C827.515196,601.118529 833.462692,595.144681 837.890827,590.09408 L838.301514,589.623291 C842.770101,584.474365 845.970785,579.596029 847.903564,574.988281 C849.836344,570.380534 850.802734,565.370768 850.802734,559.958984 L850.802734,559.773438 C850.802734,552.166016 848.792643,545.43221 844.772461,539.572021 C840.752279,533.711833 835.162679,529.119548 828.003662,525.795166 C820.844645,522.470785 812.533691,520.808594 803.070801,520.808594 Z M683.625,543.259766 C689.191406,543.259766 693.930583,545.107503 697.842529,548.802979 C701.754476,552.498454 704.738688,557.825195 706.795166,564.783203 C708.851644,571.741211 709.879883,580.121745 709.879883,589.924805 L709.879883,590.110352 C709.879883,599.913411 708.851644,608.309408 706.795166,615.29834 C704.738688,622.287272 701.754476,627.637207 697.842529,631.348145 C693.930583,635.059082 689.191406,636.914551 683.625,636.914551 C678.058594,636.914551 673.319417,635.059082 669.407471,631.348145 C665.495524,627.637207 662.519043,622.287272 660.478027,615.29834 C658.437012,608.309408 657.416504,599.913411 657.416504,590.110352 L657.416504,589.924805 C657.416504,580.121745 658.437012,571.741211 660.478027,564.783203 C662.519043,557.825195 665.495524,552.498454 669.407471,548.802979 C673.319417,545.107503 678.058594,543.259766 683.625,543.259766 Z" id="Combined-Shape" fill="#000000"></path>
    </g>
</svg>