<?xml version="1.0" encoding="UTF-8"?>
<svg width="5111px" height="1000px" viewBox="0 0 5111 1000" version="1.1" xmlns="http://www.w3.org/2000/svg" xmlns:xlink="http://www.w3.org/1999/xlink">
    <title>Artboard</title>
    <g id="Artboard" stroke="none" stroke-width="1" fill="none" fill-rule="evenodd">
        <path d="M1003,0 L1003,1000 L0,1000 L0,0 L1003,0 Z M571.318359,688.164062 L512.333984,688.164062 L512.333984,870.390625 C512.333984,891.289062 517.167969,909.583333 526.835938,925.273438 C536.503906,940.963542 550.175781,953.154297 567.851562,961.845703 C585.527344,970.537109 606.376953,974.882812 630.400391,974.882812 C654.619141,974.882812 675.55013,970.520833 693.193359,961.796875 C710.836589,953.072917 724.459635,940.865885 734.0625,925.175781 C743.665365,909.485677 748.466797,891.223958 748.466797,870.390625 L748.466797,688.164062 L689.482422,688.164062 L689.482422,865.117188 C689.482422,877.291667 687.203776,887.838542 682.646484,896.757812 C678.089193,905.677083 671.416016,912.594401 662.626953,917.509766 C653.837891,922.42513 643.128255,924.882812 630.498047,924.882812 C617.867839,924.882812 607.158203,922.42513 598.369141,917.509766 C589.580078,912.594401 582.874349,905.677083 578.251953,896.757812 C573.629557,887.838542 571.318359,877.291667 571.318359,865.117188 L571.318359,688.164062 Z M982.060547,688.164062 L795.341797,688.164062 L795.341797,970 L982.060547,970 L982.060547,921.367188 L854.326172,921.367188 L854.326172,850.566406 L974.833984,850.566406 L974.833984,804.472656 L854.326172,804.472656 L854.326172,736.796875 L982.060547,736.796875 L982.060547,688.164062 Z M685.625,520.808594 C674.306641,520.808594 664.573161,523.607259 656.424561,529.20459 C648.27596,534.801921 642.013753,542.772705 637.637939,553.116943 C633.262126,563.461182 631.074219,575.730469 631.074219,589.924805 L631.074219,590.110352 C631.074219,604.304688 633.262126,616.573975 637.637939,626.918213 C642.013753,637.262451 648.27596,645.248698 656.424561,650.876953 C664.573161,656.505208 674.306641,659.319336 685.625,659.319336 C696.943359,659.319336 706.676839,656.505208 714.825439,650.876953 C722.97404,645.248698 729.236247,637.262451 733.612061,626.918213 C737.987874,616.573975 740.175781,604.304688 740.175781,590.110352 L740.175781,589.924805 C740.175781,575.730469 737.987874,563.461182 733.612061,553.116943 C729.236247,542.772705 722.97404,534.801921 714.825439,529.20459 C706.676839,523.607259 696.943359,520.808594 685.625,520.808594 Z M967.006836,523.12793 L881.608887,523.12793 L875.48584,601.753418 L899.838867,601.753418 C900.611979,600.330892 901.547445,598.993408 902.645264,597.740967 C903.743083,596.488525 904.941406,595.352051 906.240234,594.331543 C908.528646,592.476074 911.134033,591.06901 914.056396,590.110352 C916.97876,589.151693 920.140788,588.672363 923.54248,588.672363 C928.366699,588.672363 932.642008,589.692871 936.368408,591.733887 C940.094808,593.774902 943.024902,596.596761 945.158691,600.199463 C947.29248,603.802165 948.359375,607.953776 948.359375,612.654297 L948.359375,612.839844 C948.359375,617.602214 947.300212,621.815674 945.181885,625.480225 C943.063558,629.144775 940.133464,632.00529 936.391602,634.061768 C932.64974,636.118245 928.335775,637.146484 923.449707,637.146484 C919.182129,637.146484 915.339762,636.35791 911.922607,634.780762 C908.505452,633.203613 905.699056,631.062093 903.503418,628.356201 C901.30778,625.650309 899.869792,622.627441 899.189453,619.287598 L899.050293,618.638184 L873.166504,618.638184 L873.259277,619.983398 C873.815918,627.436198 876.220296,634.131348 880.472412,640.068848 C884.724528,646.006348 890.507406,650.699137 897.821045,654.147217 C905.134684,657.595296 913.646647,659.319336 923.356934,659.319336 C933.562012,659.319336 942.553304,657.3479 950.330811,653.405029 C958.108317,649.462158 964.184977,643.957601 968.560791,636.891357 C972.936605,629.825114 975.124512,621.637858 975.124512,612.32959 L975.124512,612.144043 C975.124512,603.70166 973.238118,596.210205 969.465332,589.669678 C965.692546,583.12915 960.520426,577.980225 953.948975,574.2229 C947.377523,570.465576 939.839681,568.586914 931.335449,568.586914 C926.820475,568.586914 922.622477,569.174479 918.741455,570.349609 C914.860433,571.52474 911.427816,573.18693 908.443604,575.336182 C905.459391,577.485433 903.024089,580.075358 901.137695,583.105957 L900.581055,583.105957 L903.874512,545.393555 L967.006836,545.393555 L967.006836,523.12793 Z M565.900879,520.808594 C556.468913,520.808594 548.034261,522.633138 540.596924,526.282227 C533.159587,529.931315 527.307129,534.987467 523.039551,541.450684 C518.771973,547.9139 516.638184,555.351237 516.638184,563.762695 L516.638184,564.504883 L542.614746,564.504883 L542.661133,563.669922 C542.784831,559.64974 543.836263,556.054769 545.81543,552.88501 C547.794596,549.715251 550.523682,547.210368 554.002686,545.370361 C557.481689,543.530355 561.494141,542.610352 566.040039,542.610352 C570.029297,542.610352 573.546956,543.414388 576.593018,545.022461 C579.639079,546.630534 582.027995,548.841634 583.759766,551.655762 C585.491536,554.469889 586.357422,557.71696 586.357422,561.396973 L586.357422,561.58252 C586.357422,564.674967 585.816243,567.635986 584.733887,570.465576 C583.65153,573.295166 581.625977,576.503581 578.657227,580.09082 C575.688477,583.67806 571.312663,588.177572 565.529785,593.589355 L518.215332,637.842285 L518.215332,657 L615.534668,657 L615.534668,634.734375 L554.814,634.735 L554.814,633.596 L582.878418,608.015625 C590.345274,601.118529 596.29277,595.144681 600.720905,590.09408 L601.131592,589.623291 C605.600179,584.474365 608.800863,579.596029 610.733643,574.988281 C612.666423,570.380534 613.632812,565.370768 613.632812,559.958984 L613.632812,559.773438 C613.632812,552.166016 611.622721,545.43221 607.602539,539.572021 C603.582357,533.711833 597.992757,529.119548 590.83374,525.795166 C583.674723,522.470785 575.36377,520.808594 565.900879,520.808594 Z M805.070801,520.808594 C795.638835,520.808594 787.204183,522.633138 779.766846,526.282227 C772.329508,529.931315 766.477051,534.987467 762.209473,541.450684 C757.941895,547.9139 755.808105,555.351237 755.808105,563.762695 L755.808105,564.504883 L781.784668,564.504883 L781.831055,563.669922 C781.954753,559.64974 783.006185,556.054769 784.985352,552.88501 C786.964518,549.715251 789.693604,547.210368 793.172607,545.370361 C796.651611,543.530355 800.664062,542.610352 805.209961,542.610352 C809.199219,542.610352 812.716878,543.414388 815.762939,545.022461 C818.809001,546.630534 821.197917,548.841634 822.929688,551.655762 C824.661458,554.469889 825.527344,557.71696 825.527344,561.396973 L825.527344,561.58252 C825.527344,564.674967 824.986165,567.635986 823.903809,570.465576 C822.821452,573.295166 820.795898,576.503581 817.827148,580.09082 C814.858398,583.67806 810.482585,588.177572 804.699707,593.589355 L757.385254,637.842285 L757.385254,657 L854.70459,657 L854.70459,634.734375 L793.984,634.735 L793.984,633.596 L822.04834,608.015625 C829.515196,601.118529 835.462692,595.144681 839.890827,590.09408 L840.301514,589.623291 C844.770101,584.474365 847.970785,579.596029 849.903564,574.988281 C851.836344,570.380534 852.802734,565.370768 852.802734,559.958984 L852.802734,559.773438 C852.802734,552.166016 850.792643,545.43221 846.772461,539.572021 C842.752279,533.711833 837.162679,529.119548 830.003662,525.795166 C822.844645,522.470785 814.533691,520.808594 805.070801,520.808594 Z M685.625,543.259766 C691.191406,543.259766 695.930583,545.107503 699.842529,548.802979 C703.754476,552.498454 706.738688,557.825195 708.795166,564.783203 C710.851644,571.741211 711.879883,580.121745 711.879883,589.924805 L711.879883,590.110352 C711.879883,599.913411 710.851644,608.309408 708.795166,615.29834 C706.738688,622.287272 703.754476,627.637207 699.842529,631.348145 C695.930583,635.059082 691.191406,636.914551 685.625,636.914551 C680.058594,636.914551 675.319417,635.059082 671.407471,631.348145 C667.495524,627.637207 664.519043,622.287272 662.478027,615.29834 C660.437012,608.309408 659.416504,599.913411 659.416504,590.110352 L659.416504,589.924805 C659.416504,580.121745 660.437012,571.741211 662.478027,564.783203 C664.519043,557.825195 667.495524,552.498454 671.407471,548.802979 C675.319417,545.107503 680.058594,543.259766 685.625,543.259766 Z" id="Combined-Shape" fill="#FFFFFF"></path>
        <g id="Ecma-Uzbekistan" transform="translate(1197.8477, 315.2734)" fill="#FFFFFF" fill-rule="nonzero">
            <polygon id="Path" points="0 354.726562 0 16.5234375 224.0625 16.5234375 224.0625 74.8828125 70.78125 74.8828125 70.78125 156.09375 215.390625 156.09375 215.390625 211.40625 70.78125 211.40625 70.78125 296.367188 224.0625 296.367188 224.0625 354.726562"></polygon>
            <path d="M383.90625,359.882812 C358.4375,359.882812 336.425781,354.589844 317.871094,344.003906 C299.316406,333.417969 285.019531,318.320312 274.980469,298.710938 C264.941406,279.101562 259.921875,255.820312 259.921875,228.867188 L259.921875,228.632812 C259.921875,201.835938 264.980469,178.691406 275.097656,159.199219 C285.214844,139.707031 299.511719,124.6875 317.988281,114.140625 C336.464844,103.59375 358.242188,98.3203125 383.320312,98.3203125 C406.054688,98.3203125 425.800781,102.578125 442.558594,111.09375 C459.316406,119.609375 472.421875,131.132812 481.875,145.664062 C491.328125,160.195312 496.484375,176.523438 497.34375,194.648438 L497.460938,196.289062 L433.828125,196.289062 L433.476562,194.179688 C431.445312,182.226562 426.269531,172.207031 417.949219,164.121094 C409.628906,156.035156 398.398438,151.992188 384.257812,151.992188 C373.085938,151.992188 363.398438,155.078125 355.195312,161.25 C346.992188,167.421875 340.664062,176.25 336.210938,187.734375 C331.757812,199.21875 329.53125,212.96875 329.53125,228.984375 L329.53125,229.21875 C329.53125,245.546875 331.757812,259.453125 336.210938,270.9375 C340.664062,282.421875 347.011719,291.171875 355.253906,297.1875 C363.496094,303.203125 373.242188,306.210938 384.492188,306.210938 C398.242188,306.210938 409.296875,302.363281 417.65625,294.667969 C426.015625,286.972656 431.328125,276.757812 433.59375,264.023438 L433.945312,261.914062 L497.695312,261.914062 L497.578125,263.4375 C496.484375,281.71875 491.171875,298.125 481.640625,312.65625 C472.109375,327.1875 459.042969,338.691406 442.441406,347.167969 C425.839844,355.644531 406.328125,359.882812 383.90625,359.882812 Z" id="Path"></path>
            <path d="M530.625,354.726562 L530.625,103.476562 L599.0625,103.476562 L599.0625,145.78125 L600.46875,145.78125 C605.546875,131.40625 614.316406,119.902344 626.777344,111.269531 C639.238281,102.636719 653.867188,98.3203125 670.664062,98.3203125 C682.460938,98.3203125 693.046875,100.351562 702.421875,104.414062 C711.796875,108.476562 719.707031,114.355469 726.152344,122.050781 C732.597656,129.746094 737.1875,139.140625 739.921875,150.234375 L741.328125,150.234375 C745.078125,139.609375 750.722656,130.429688 758.261719,122.695312 C765.800781,114.960938 774.785156,108.964844 785.214844,104.707031 C795.644531,100.449219 806.992188,98.3203125 819.257812,98.3203125 C835.742188,98.3203125 850.136719,101.855469 862.441406,108.925781 C874.746094,115.996094 884.335938,125.859375 891.210938,138.515625 C898.085938,151.171875 901.523438,165.976562 901.523438,182.929688 L901.523438,354.726562 L833.085938,354.726562 L833.085938,200.15625 C833.085938,190.390625 831.503906,182.167969 828.339844,175.488281 C825.175781,168.808594 820.566406,163.730469 814.511719,160.253906 C808.457031,156.777344 800.976562,155.039062 792.070312,155.039062 C783.476562,155.039062 775.9375,157.011719 769.453125,160.957031 C762.96875,164.902344 757.949219,170.390625 754.394531,177.421875 C750.839844,184.453125 749.0625,192.65625 749.0625,202.03125 L749.0625,354.726562 L683.085938,354.726562 L683.085938,198.046875 C683.085938,188.984375 681.464844,181.25 678.222656,174.84375 C674.980469,168.4375 670.351562,163.535156 664.335938,160.136719 C658.320312,156.738281 651.054688,155.039062 642.539062,155.039062 C633.945312,155.039062 626.386719,157.089844 619.863281,161.191406 C613.339844,165.292969 608.242188,170.9375 604.570312,178.125 C600.898438,185.3125 599.0625,193.632812 599.0625,203.085938 L599.0625,354.726562 L530.625,354.726562 Z" id="Path"></path>
            <path d="M1019.76562,358.710938 C1003.04688,358.710938 988.339844,355.46875 975.644531,348.984375 C962.949219,342.5 953.046875,333.535156 945.9375,322.089844 C938.828125,310.644531 935.273438,297.539062 935.273438,282.773438 L935.273438,282.421875 C935.273438,267.109375 939.101562,254.023438 946.757812,243.164062 C954.414062,232.304688 965.527344,223.730469 980.097656,217.441406 C994.667969,211.152344 1012.34375,207.34375 1033.125,206.015625 L1131.09375,199.921875 L1131.09375,242.460938 L1043.4375,248.203125 C1030.23438,248.984375 1020.19531,252.070312 1013.32031,257.460938 C1006.44531,262.851562 1003.00781,270 1003.00781,278.90625 L1003.00781,279.257812 C1003.00781,288.476562 1006.54297,295.703125 1013.61328,300.9375 C1020.68359,306.171875 1030.11719,308.789062 1041.91406,308.789062 C1052.14844,308.789062 1061.26953,306.796875 1069.27734,302.8125 C1077.28516,298.828125 1083.61328,293.359375 1088.26172,286.40625 C1092.91016,279.453125 1095.23438,271.640625 1095.23438,262.96875 L1095.23438,186.796875 C1095.23438,175.625 1091.69922,166.816406 1084.62891,160.371094 C1077.55859,153.925781 1067.30469,150.703125 1053.86719,150.703125 C1041.13281,150.703125 1030.99609,153.339844 1023.45703,158.613281 C1015.91797,163.886719 1011.28906,170.585938 1009.57031,178.710938 L1009.10156,180.9375 L946.523438,180.9375 L946.757812,178.125 C948.085938,162.578125 953.242188,148.808594 962.226562,136.816406 C971.210938,124.824219 983.691406,115.410156 999.667969,108.574219 C1015.64453,101.738281 1034.6875,98.3203125 1056.79688,98.3203125 C1078.4375,98.3203125 1097.24609,101.816406 1113.22266,108.808594 C1129.19922,115.800781 1141.60156,125.605469 1150.42969,138.222656 C1159.25781,150.839844 1163.67188,165.585938 1163.67188,182.460938 L1163.67188,354.726562 L1095.23438,354.726562 L1095.23438,317.34375 L1093.82812,317.34375 C1089.0625,325.859375 1082.98828,333.222656 1075.60547,339.433594 C1068.22266,345.644531 1059.82422,350.410156 1050.41016,353.730469 C1040.99609,357.050781 1030.78125,358.710938 1019.76562,358.710938 Z" id="Path"></path>
            <path d="M1450.07812,360.585938 C1421.25,360.585938 1396.23047,355.371094 1375.01953,344.941406 C1353.80859,334.511719 1337.40234,319.882812 1325.80078,301.054688 C1314.19922,282.226562 1308.39844,260.273438 1308.39844,235.195312 L1308.39844,16.5234375 L1379.17969,16.5234375 L1379.17969,228.867187 C1379.17969,243.476563 1381.95312,256.132812 1387.5,266.835938 C1393.04688,277.539062 1401.09375,285.839844 1411.64062,291.738281 C1422.1875,297.636719 1435.03906,300.585938 1450.19531,300.585938 C1465.35156,300.585938 1478.20312,297.636719 1488.75,291.738281 C1499.29688,285.839844 1507.30469,277.539062 1512.77344,266.835938 C1518.24219,256.132812 1520.97656,243.476563 1520.97656,228.867187 L1520.97656,16.5234375 L1591.75781,16.5234375 L1591.75781,235.195312 C1591.75781,260.195312 1585.99609,282.109375 1574.47266,300.9375 C1562.94922,319.765625 1546.60156,334.414062 1525.42969,344.882812 C1504.25781,355.351562 1479.14062,360.585938 1450.07812,360.585938 Z" id="Path"></path>
            <polygon id="Path" points="1637.34375 354.726562 1637.34375 315.820312 1763.67188 156.328125 1763.67188 155.039062 1639.33594 155.039062 1639.33594 103.476562 1841.95312 103.476562 1841.95312 146.835938 1723.24219 301.875 1723.24219 303.164062 1844.88281 303.164062 1844.88281 354.726562"></polygon>
            <path d="M2033.4375,359.882812 C2021.40625,359.882812 2010.37109,357.949219 2000.33203,354.082031 C1990.29297,350.214844 1981.54297,344.726562 1974.08203,337.617188 C1966.62109,330.507812 1960.625,321.953125 1956.09375,311.953125 L1954.6875,311.953125 L1954.6875,354.726562 L1886.25,354.726562 L1886.25,16.5234375 L1954.6875,16.5234375 L1954.6875,147.1875 L1956.09375,147.1875 C1960.70312,137.03125 1966.77734,128.300781 1974.31641,120.996094 C1981.85547,113.691406 1990.64453,108.085938 2000.68359,104.179688 C2010.72266,100.273438 2021.67969,98.3203125 2033.55469,98.3203125 C2054.64844,98.3203125 2072.8125,103.515625 2088.04688,113.90625 C2103.28125,124.296875 2115.03906,139.238281 2123.32031,158.730469 C2131.60156,178.222656 2135.74219,201.601562 2135.74219,228.867188 L2135.74219,229.101562 C2135.74219,256.289062 2131.62109,279.648438 2123.37891,299.179688 C2115.13672,318.710938 2103.35938,333.710938 2088.04688,344.179688 C2072.73438,354.648438 2054.53125,359.882812 2033.4375,359.882812 Z M2010.58594,303.164062 C2021.99219,303.164062 2031.85547,300.175781 2040.17578,294.199219 C2048.49609,288.222656 2054.90234,279.6875 2059.39453,268.59375 C2063.88672,257.5 2066.13281,244.335938 2066.13281,229.101562 L2066.13281,228.867188 C2066.13281,213.554688 2063.86719,200.390625 2059.33594,189.375 C2054.80469,178.359375 2048.37891,169.882812 2040.05859,163.945312 C2031.73828,158.007812 2021.91406,155.039062 2010.58594,155.039062 C1999.57031,155.039062 1989.86328,158.046875 1981.46484,164.0625 C1973.06641,170.078125 1966.48438,178.613281 1961.71875,189.667969 C1956.95312,200.722656 1954.57031,213.828125 1954.57031,228.984375 L1954.57031,229.21875 C1954.57031,244.296875 1956.93359,257.382812 1961.66016,268.476562 C1966.38672,279.570312 1972.94922,288.125 1981.34766,294.140625 C1989.74609,300.15625 1999.49219,303.164062 2010.58594,303.164062 Z" id="Shape"></path>
            <path d="M2285.39062,359.882812 C2259.76562,359.882812 2237.71484,354.609375 2219.23828,344.0625 C2200.76172,333.515625 2186.5625,318.476562 2176.64062,298.945312 C2166.71875,279.414062 2161.75781,256.289062 2161.75781,229.570312 L2161.75781,229.335938 C2161.75781,202.695312 2166.71875,179.570312 2176.64062,159.960938 C2186.5625,140.351562 2200.56641,125.175781 2218.65234,114.433594 C2236.73828,103.691406 2258.04688,98.3203125 2282.57812,98.3203125 C2307.10938,98.3203125 2328.32031,103.535156 2346.21094,113.964844 C2364.10156,124.394531 2377.91016,139.0625 2387.63672,157.96875 C2397.36328,176.875 2402.22656,198.984375 2402.22656,224.296875 L2402.22656,245.390625 L2195.39062,245.390625 L2195.39062,202.265625 L2369.88281,202.265625 L2337.42188,242.578125 L2337.42188,216.210938 C2337.42188,201.523438 2335.15625,189.21875 2330.625,179.296875 C2326.09375,169.375 2319.80469,161.914062 2311.75781,156.914062 C2303.71094,151.914062 2294.375,149.414062 2283.75,149.414062 C2273.125,149.414062 2263.71094,151.992188 2255.50781,157.148438 C2247.30469,162.304688 2240.87891,169.863281 2236.23047,179.824219 C2231.58203,189.785156 2229.25781,201.914062 2229.25781,216.210938 L2229.25781,242.8125 C2229.25781,256.640625 2231.58203,268.476562 2236.23047,278.320312 C2240.87891,288.164062 2247.5,295.703125 2256.09375,300.9375 C2264.6875,306.171875 2274.92188,308.789062 2286.79688,308.789062 C2296.17188,308.789062 2304.29688,307.324219 2311.17188,304.394531 C2318.04688,301.464844 2323.65234,297.734375 2327.98828,293.203125 C2332.32422,288.671875 2335.27344,284.023438 2336.83594,279.257812 L2337.30469,277.851562 L2400.11719,277.851562 L2399.53125,280.546875 C2397.57812,289.765625 2393.88672,299.042969 2388.45703,308.378906 C2383.02734,317.714844 2375.66406,326.289062 2366.36719,334.101562 C2357.07031,341.914062 2345.72266,348.164062 2332.32422,352.851562 C2318.92578,357.539062 2303.28125,359.882812 2285.39062,359.882812 Z" id="Path"></path>
            <path d="M2439.60938,354.726562 L2439.60938,16.5234375 L2508.04688,16.5234375 L2508.04688,354.726562 L2439.60938,354.726562 Z M2597.69531,354.726562 L2520.11719,243.75 L2563.35938,191.601562 L2676.5625,354.726562 L2597.69531,354.726562 Z M2499.72656,280.78125 L2499.72656,204.023438 L2509.45312,204.023438 L2594.29688,103.476562 L2671.875,103.476562 L2555.97656,235.546875 L2540.74219,235.546875 L2499.72656,280.78125 Z" id="Shape"></path>
            <path d="M2696.83594,354.726562 L2696.83594,103.476562 L2765.27344,103.476562 L2765.27344,354.726562 L2696.83594,354.726562 Z M2731.05469,71.25 C2720.82031,71.25 2712.16797,67.734375 2705.09766,60.703125 C2698.02734,53.671875 2694.49219,45.3125 2694.49219,35.625 C2694.49219,25.78125 2698.02734,17.3828125 2705.09766,10.4296875 C2712.16797,3.4765625 2720.82031,0 2731.05469,0 C2741.36719,0 2750.03906,3.4765625 2757.07031,10.4296875 C2764.10156,17.3828125 2767.61719,25.78125 2767.61719,35.625 C2767.61719,45.3125 2764.10156,53.671875 2757.07031,60.703125 C2750.03906,67.734375 2741.36719,71.25 2731.05469,71.25 Z" id="Shape"></path>
            <path d="M2914.33594,359.882812 C2891.21094,359.882812 2871.52344,356.542969 2855.27344,349.863281 C2839.02344,343.183594 2826.34766,333.867188 2817.24609,321.914062 C2808.14453,309.960938 2802.65625,296.054688 2800.78125,280.195312 L2800.54688,278.085938 L2867.34375,278.085938 L2867.8125,280.195312 C2870,290.039062 2874.90234,297.714844 2882.51953,303.222656 C2890.13672,308.730469 2900.78125,311.484375 2914.45312,311.484375 C2923.125,311.484375 2930.52734,310.429688 2936.66016,308.320312 C2942.79297,306.210938 2947.51953,303.183594 2950.83984,299.238281 C2954.16016,295.292969 2955.82031,290.625 2955.82031,285.234375 L2955.82031,285 C2955.82031,278.28125 2953.39844,272.871094 2948.55469,268.769531 C2943.71094,264.667969 2935.15625,261.25 2922.89062,258.515625 L2880.11719,249.492188 C2863.94531,246.054688 2850.41016,241.09375 2839.51172,234.609375 C2828.61328,228.125 2820.42969,220.078125 2814.96094,210.46875 C2809.49219,200.859375 2806.75781,189.804688 2806.75781,177.304688 L2806.75781,177.070312 C2806.75781,161.054688 2811.07422,147.167969 2819.70703,135.410156 C2828.33984,123.652344 2840.56641,114.53125 2856.38672,108.046875 C2872.20703,101.5625 2890.74219,98.3203125 2911.99219,98.3203125 C2934.25781,98.3203125 2953.16406,101.894531 2968.71094,109.042969 C2984.25781,116.191406 2996.19141,125.761719 3004.51172,137.753906 C3012.83203,149.746094 3017.22656,163.085938 3017.69531,177.773438 L3017.8125,180.117188 L2954.76562,180.117188 L2954.53125,178.242188 C2953.4375,169.257812 2949.25781,161.757812 2941.99219,155.742188 C2934.72656,149.726562 2924.72656,146.71875 2911.99219,146.71875 C2904.17969,146.71875 2897.38281,147.8125 2891.60156,150 C2885.82031,152.1875 2881.36719,155.273438 2878.24219,159.257812 C2875.11719,163.242188 2873.55469,167.96875 2873.55469,173.4375 L2873.55469,173.671875 C2873.55469,177.890625 2874.62891,181.679688 2876.77734,185.039062 C2878.92578,188.398438 2882.5,191.328125 2887.5,193.828125 C2892.5,196.328125 2899.17969,198.515625 2907.53906,200.390625 L2950.3125,209.414062 C2976.64062,214.960938 2995.54688,223.183594 3007.03125,234.082031 C3018.51562,244.980469 3024.25781,259.648438 3024.25781,278.085938 L3024.25781,278.320312 C3024.25781,294.726562 3019.58984,309.042969 3010.25391,321.269531 C3000.91797,333.496094 2987.98828,342.988281 2971.46484,349.746094 C2954.94141,356.503906 2935.89844,359.882812 2914.33594,359.882812 Z" id="Path"></path>
            <path d="M3157.96875,359.882812 C3130.07812,359.882812 3109.43359,354.042969 3096.03516,342.363281 C3082.63672,330.683594 3075.9375,311.40625 3075.9375,284.53125 L3075.9375,155.039062 L3041.01562,155.039062 L3041.01562,103.476562 L3075.9375,103.476562 L3075.9375,42.1875 L3145.07812,42.1875 L3145.07812,103.476562 L3191.01562,103.476562 L3191.01562,155.039062 L3145.07812,155.039062 L3145.07812,277.03125 C3145.07812,288.75 3147.67578,296.894531 3152.87109,301.464844 C3158.06641,306.035156 3165.85938,308.320312 3176.25,308.320312 C3179.29688,308.320312 3181.99219,308.203125 3184.33594,307.96875 C3186.67969,307.734375 3188.90625,307.5 3191.01562,307.265625 L3191.01562,357.304688 C3187.1875,357.929688 3182.5,358.515625 3176.95312,359.0625 C3171.40625,359.609375 3165.07812,359.882812 3157.96875,359.882812 Z" id="Path"></path>
            <path d="M3303.39844,358.710938 C3286.67969,358.710938 3271.97266,355.46875 3259.27734,348.984375 C3246.58203,342.5 3236.67969,333.535156 3229.57031,322.089844 C3222.46094,310.644531 3218.90625,297.539062 3218.90625,282.773438 L3218.90625,282.421875 C3218.90625,267.109375 3222.73438,254.023438 3230.39062,243.164062 C3238.04688,232.304688 3249.16016,223.730469 3263.73047,217.441406 C3278.30078,211.152344 3295.97656,207.34375 3316.75781,206.015625 L3414.72656,199.921875 L3414.72656,242.460938 L3327.07031,248.203125 C3313.86719,248.984375 3303.82812,252.070312 3296.95312,257.460938 C3290.07812,262.851562 3286.64062,270 3286.64062,278.90625 L3286.64062,279.257812 C3286.64062,288.476562 3290.17578,295.703125 3297.24609,300.9375 C3304.31641,306.171875 3313.75,308.789062 3325.54688,308.789062 C3335.78125,308.789062 3344.90234,306.796875 3352.91016,302.8125 C3360.91797,298.828125 3367.24609,293.359375 3371.89453,286.40625 C3376.54297,279.453125 3378.86719,271.640625 3378.86719,262.96875 L3378.86719,186.796875 C3378.86719,175.625 3375.33203,166.816406 3368.26172,160.371094 C3361.19141,153.925781 3350.9375,150.703125 3337.5,150.703125 C3324.76562,150.703125 3314.62891,153.339844 3307.08984,158.613281 C3299.55078,163.886719 3294.92188,170.585938 3293.20312,178.710938 L3292.73438,180.9375 L3230.15625,180.9375 L3230.39062,178.125 C3231.71875,162.578125 3236.875,148.808594 3245.85938,136.816406 C3254.84375,124.824219 3267.32422,115.410156 3283.30078,108.574219 C3299.27734,101.738281 3318.32031,98.3203125 3340.42969,98.3203125 C3362.07031,98.3203125 3380.87891,101.816406 3396.85547,108.808594 C3412.83203,115.800781 3425.23438,125.605469 3434.0625,138.222656 C3442.89062,150.839844 3447.30469,165.585938 3447.30469,182.460938 L3447.30469,354.726562 L3378.86719,354.726562 L3378.86719,317.34375 L3377.46094,317.34375 C3372.69531,325.859375 3366.62109,333.222656 3359.23828,339.433594 C3351.85547,345.644531 3343.45703,350.410156 3334.04297,353.730469 C3324.62891,357.050781 3314.41406,358.710938 3303.39844,358.710938 Z" id="Path"></path>
            <path d="M3491.25,354.726562 L3491.25,103.476562 L3559.6875,103.476562 L3559.6875,144.84375 L3561.09375,144.84375 C3567.57812,130.390625 3577.22656,119.023438 3590.03906,110.742188 C3602.85156,102.460938 3618.75,98.3203125 3637.73438,98.3203125 C3665.3125,98.3203125 3686.64062,106.660156 3701.71875,123.339844 C3716.79688,140.019531 3724.33594,163.085938 3724.33594,192.539062 L3724.33594,354.726562 L3655.89844,354.726562 L3655.89844,206.71875 C3655.89844,190.3125 3652.05078,177.597656 3644.35547,168.574219 C3636.66016,159.550781 3625.11719,155.039062 3609.72656,155.039062 C3599.57031,155.039062 3590.74219,157.363281 3583.24219,162.011719 C3575.74219,166.660156 3569.94141,173.125 3565.83984,181.40625 C3561.73828,189.6875 3559.6875,199.335938 3559.6875,210.351562 L3559.6875,354.726562 L3491.25,354.726562 Z" id="Path"></path>
        </g>
    </g>
</svg>