<?xml version="1.0" encoding="UTF-8"?>
<svg width="1000px" height="1000px" viewBox="0 0 1000 1000" version="1.1" xmlns="http://www.w3.org/2000/svg" xmlns:xlink="http://www.w3.org/1999/xlink">
    <title>Artboard</title>
    <g id="Artboard" stroke="none" stroke-width="1" fill="none" fill-rule="evenodd">
        <path d="M1001,0 L1001,1000 L0,1000 L0,0 L1001,0 Z M571.318359,688.164062 L512.333984,688.164062 L512.333984,870.390625 C512.333984,891.289062 517.167969,909.583333 526.835938,925.273438 C536.503906,940.963542 550.175781,953.154297 567.851562,961.845703 C585.527344,970.537109 606.376953,974.882812 630.400391,974.882812 C654.619141,974.882812 675.55013,970.520833 693.193359,961.796875 C710.836589,953.072917 724.459635,940.865885 734.0625,925.175781 C743.665365,909.485677 748.466797,891.223958 748.466797,870.390625 L748.466797,688.164062 L689.482422,688.164062 L689.482422,865.117188 C689.482422,877.291667 687.203776,887.838542 682.646484,896.757812 C678.089193,905.677083 671.416016,912.594401 662.626953,917.509766 C653.837891,922.42513 643.128255,924.882812 630.498047,924.882812 C617.867839,924.882812 607.158203,922.42513 598.369141,917.509766 C589.580078,912.594401 582.874349,905.677083 578.251953,896.757812 C573.629557,887.838542 571.318359,877.291667 571.318359,865.117188 L571.318359,688.164062 Z M982.060547,688.164062 L795.341797,688.164062 L795.341797,970 L982.060547,970 L982.060547,921.367188 L854.326172,921.367188 L854.326172,850.566406 L974.833984,850.566406 L974.833984,804.472656 L854.326172,804.472656 L854.326172,736.796875 L982.060547,736.796875 L982.060547,688.164062 Z M685.625,520.808594 C674.306641,520.808594 664.573161,523.607259 656.424561,529.20459 C648.27596,534.801921 642.013753,542.772705 637.637939,553.116943 C633.262126,563.461182 631.074219,575.730469 631.074219,589.924805 L631.074219,590.110352 C631.074219,604.304688 633.262126,616.573975 637.637939,626.918213 C642.013753,637.262451 648.27596,645.248698 656.424561,650.876953 C664.573161,656.505208 674.306641,659.319336 685.625,659.319336 C696.943359,659.319336 706.676839,656.505208 714.825439,650.876953 C722.97404,645.248698 729.236247,637.262451 733.612061,626.918213 C737.987874,616.573975 740.175781,604.304688 740.175781,590.110352 L740.175781,589.924805 C740.175781,575.730469 737.987874,563.461182 733.612061,553.116943 C729.236247,542.772705 722.97404,534.801921 714.825439,529.20459 C706.676839,523.607259 696.943359,520.808594 685.625,520.808594 Z M967.006836,523.12793 L881.608887,523.12793 L875.48584,601.753418 L899.838867,601.753418 C900.611979,600.330892 901.547445,598.993408 902.645264,597.740967 C903.743083,596.488525 904.941406,595.352051 906.240234,594.331543 C908.528646,592.476074 911.134033,591.06901 914.056396,590.110352 C916.97876,589.151693 920.140788,588.672363 923.54248,588.672363 C928.366699,588.672363 932.642008,589.692871 936.368408,591.733887 C940.094808,593.774902 943.024902,596.596761 945.158691,600.199463 C947.29248,603.802165 948.359375,607.953776 948.359375,612.654297 L948.359375,612.839844 C948.359375,617.602214 947.300212,621.815674 945.181885,625.480225 C943.063558,629.144775 940.133464,632.00529 936.391602,634.061768 C932.64974,636.118245 928.335775,637.146484 923.449707,637.146484 C919.182129,637.146484 915.339762,636.35791 911.922607,634.780762 C908.505452,633.203613 905.699056,631.062093 903.503418,628.356201 C901.30778,625.650309 899.869792,622.627441 899.189453,619.287598 L899.050293,618.638184 L873.166504,618.638184 L873.259277,619.983398 C873.815918,627.436198 876.220296,634.131348 880.472412,640.068848 C884.724528,646.006348 890.507406,650.699137 897.821045,654.147217 C905.134684,657.595296 913.646647,659.319336 923.356934,659.319336 C933.562012,659.319336 942.553304,657.3479 950.330811,653.405029 C958.108317,649.462158 964.184977,643.957601 968.560791,636.891357 C972.936605,629.825114 975.124512,621.637858 975.124512,612.32959 L975.124512,612.144043 C975.124512,603.70166 973.238118,596.210205 969.465332,589.669678 C965.692546,583.12915 960.520426,577.980225 953.948975,574.2229 C947.377523,570.465576 939.839681,568.586914 931.335449,568.586914 C926.820475,568.586914 922.622477,569.174479 918.741455,570.349609 C914.860433,571.52474 911.427816,573.18693 908.443604,575.336182 C905.459391,577.485433 903.024089,580.075358 901.137695,583.105957 L900.581055,583.105957 L903.874512,545.393555 L967.006836,545.393555 L967.006836,523.12793 Z M565.900879,520.808594 C556.468913,520.808594 548.034261,522.633138 540.596924,526.282227 C533.159587,529.931315 527.307129,534.987467 523.039551,541.450684 C518.771973,547.9139 516.638184,555.351237 516.638184,563.762695 L516.638184,564.504883 L542.614746,564.504883 L542.661133,563.669922 C542.784831,559.64974 543.836263,556.054769 545.81543,552.88501 C547.794596,549.715251 550.523682,547.210368 554.002686,545.370361 C557.481689,543.530355 561.494141,542.610352 566.040039,542.610352 C570.029297,542.610352 573.546956,543.414388 576.593018,545.022461 C579.639079,546.630534 582.027995,548.841634 583.759766,551.655762 C585.491536,554.469889 586.357422,557.71696 586.357422,561.396973 L586.357422,561.58252 C586.357422,564.674967 585.816243,567.635986 584.733887,570.465576 C583.65153,573.295166 581.625977,576.503581 578.657227,580.09082 C575.688477,583.67806 571.312663,588.177572 565.529785,593.589355 L518.215332,637.842285 L518.215332,657 L615.534668,657 L615.534668,634.734375 L554.814,634.735 L554.814,633.596 L582.878418,608.015625 C590.345274,601.118529 596.29277,595.144681 600.720905,590.09408 L601.131592,589.623291 C605.600179,584.474365 608.800863,579.596029 610.733643,574.988281 C612.666423,570.380534 613.632812,565.370768 613.632812,559.958984 L613.632812,559.773438 C613.632812,552.166016 611.622721,545.43221 607.602539,539.572021 C603.582357,533.711833 597.992757,529.119548 590.83374,525.795166 C583.674723,522.470785 575.36377,520.808594 565.900879,520.808594 Z M805.070801,520.808594 C795.638835,520.808594 787.204183,522.633138 779.766846,526.282227 C772.329508,529.931315 766.477051,534.987467 762.209473,541.450684 C757.941895,547.9139 755.808105,555.351237 755.808105,563.762695 L755.808105,564.504883 L781.784668,564.504883 L781.831055,563.669922 C781.954753,559.64974 783.006185,556.054769 784.985352,552.88501 C786.964518,549.715251 789.693604,547.210368 793.172607,545.370361 C796.651611,543.530355 800.664062,542.610352 805.209961,542.610352 C809.199219,542.610352 812.716878,543.414388 815.762939,545.022461 C818.809001,546.630534 821.197917,548.841634 822.929688,551.655762 C824.661458,554.469889 825.527344,557.71696 825.527344,561.396973 L825.527344,561.58252 C825.527344,564.674967 824.986165,567.635986 823.903809,570.465576 C822.821452,573.295166 820.795898,576.503581 817.827148,580.09082 C814.858398,583.67806 810.482585,588.177572 804.699707,593.589355 L757.385254,637.842285 L757.385254,657 L854.70459,657 L854.70459,634.734375 L793.984,634.735 L793.984,633.596 L822.04834,608.015625 C829.515196,601.118529 835.462692,595.144681 839.890827,590.09408 L840.301514,589.623291 C844.770101,584.474365 847.970785,579.596029 849.903564,574.988281 C851.836344,570.380534 852.802734,565.370768 852.802734,559.958984 L852.802734,559.773438 C852.802734,552.166016 850.792643,545.43221 846.772461,539.572021 C842.752279,533.711833 837.162679,529.119548 830.003662,525.795166 C822.844645,522.470785 814.533691,520.808594 805.070801,520.808594 Z M685.625,543.259766 C691.191406,543.259766 695.930583,545.107503 699.842529,548.802979 C703.754476,552.498454 706.738688,557.825195 708.795166,564.783203 C710.851644,571.741211 711.879883,580.121745 711.879883,589.924805 L711.879883,590.110352 C711.879883,599.913411 710.851644,608.309408 708.795166,615.29834 C706.738688,622.287272 703.754476,627.637207 699.842529,631.348145 C695.930583,635.059082 691.191406,636.914551 685.625,636.914551 C680.058594,636.914551 675.319417,635.059082 671.407471,631.348145 C667.495524,627.637207 664.519043,622.287272 662.478027,615.29834 C660.437012,608.309408 659.416504,599.913411 659.416504,590.110352 L659.416504,589.924805 C659.416504,580.121745 660.437012,571.741211 662.478027,564.783203 C664.519043,557.825195 667.495524,552.498454 671.407471,548.802979 C675.319417,545.107503 680.058594,543.259766 685.625,543.259766 Z" id="Combined-Shape" fill="#FFFFFF"></path>
    </g>
</svg>