<?xml version="1.0" encoding="UTF-8"?>
<svg width="5111px" height="1000px" viewBox="0 0 5111 1000" version="1.1" xmlns="http://www.w3.org/2000/svg" xmlns:xlink="http://www.w3.org/1999/xlink">
    <title>Artboard</title>
    <g id="Artboard" stroke="none" stroke-width="1" fill="none" fill-rule="evenodd">
        <path d="M488.571522,145 C508.746101,145.297419 526.403933,150.564952 541.250588,164.737175 C542.908453,166.28132 544.566319,167.825465 546.274422,169.416402 C550.150455,173.495274 550.150455,173.495274 552.410739,178.015584 C566.558043,176.26714 580.323478,173.220023 594.225986,170.105043 C598.768866,169.08717 603.312955,168.074674 607.858322,167.06796 C609.852713,166.62074 611.847104,166.173521 613.901932,165.71275 C653.655189,157.795886 700.840511,158.366008 740.01428,168.974965 L749.196683,171.226291 C810.101615,186.935531 867.847038,222.091275 902.754702,275.202232 C911.586871,290.309312 918.732547,306.264262 925.498806,322.382959 C928.619217,329.65896 932.499231,335.527878 937.224027,341.876792 C965.63092,381.117695 973.292449,423.580137 973.044225,471.094069 C973.043764,471.43584 973.043347,471.744749 973.042966,472.027179 L973.042249,472.558625 C973.042136,472.641945 973.042027,472.722796 973.041921,472.801415 L973.041205,473.332152 C973.041092,473.415268 973.040984,473.495985 973.040877,473.574712 L973.040268,474.026469 C973.04017,474.098872 973.040074,474.170102 973.039979,474.240569 L973.039136,474.86517 L973.038994,474.969907 L973.038259,475.514702 C973.038156,475.590708 973.038051,475.668402 973.037944,475.748191 L973.037259,476.255348 C973.037138,476.345155 973.037013,476.437875 973.036883,476.533917 L973.036047,477.153293 C973.035598,477.486178 973.035099,477.856311 973.034534,478.274723 C973.02203,485.734103 972.993689,493.193321 972.964762,500.652653 C972.953407,505.755657 972.943097,510.858662 972.93386,515.961669 C972.909136,528.374916 972.871461,540.78807 972.823494,553.201248 C974.944538,554.204214 974.944538,554.204214 977.108432,555.227441 C982.455757,558.03154 985.246499,560.993921 989.069283,565.632098 C990.220174,567.007261 991.371064,568.382424 992.55683,569.799258 C997.389913,576.104213 997.975204,581.309183 997.999191,588.143706 L997.999488,589.025261 C997.995848,590.509974 997.973899,592.073714 997.96915,593.742771 C997.974977,596.560107 997.980804,599.377443 997.986808,602.280152 C997.686614,609.705113 997.686614,609.705113 995.426331,616.485577 C980.867855,612.422978 972.208547,606.693727 964.347431,593.742771 C957.788563,579.375572 957.216912,564.09748 957.092433,548.65214 L957.080361,546.966566 C957.078555,546.685539 957.076832,546.404465 957.075156,546.123349 L957.065061,544.375915 C957.051636,542.045391 957.036766,539.712627 957.001509,537.380166 C956.788357,524.90708 956.53785,512.435101 956.265096,499.963185 C956.156996,494.453626 956.088295,488.94464 956.023671,483.434425 C955.730816,465.433892 954.669711,447.824521 951.827579,430.031651 C951.465,427.681547 951.465,427.681547 951.095097,425.283967 C949.410122,415.707461 946.67292,406.888878 943.295022,397.766751 C942.476795,395.547907 941.658568,393.329063 940.815546,391.042982 C940.388877,389.897017 940.156149,389.271946 939.93927,388.689445 L939.809621,388.341227 C939.591959,387.756621 939.354528,387.118922 938.91924,385.949807 C938.865865,425.506131 938.826305,465.062444 938.80213,504.618796 C938.790594,522.995495 938.774878,541.37217 938.748725,559.748854 C938.666772,586.002923 938.604874,605.832468 938.594904,622.381151 L938.594122,623.923074 L938.593975,624.305618 L938.593926,629.34632 C938.598599,642.254076 938.641638,653.242779 938.740865,664.07025 L938.762994,666.388595 C938.770662,667.160981 938.778622,667.933185 938.786882,668.705848 L938.812569,671.025853 C939.105151,696.575131 939.731141,723.321441 940.923959,774.286208 C941.327024,785.626978 941.545718,796.970272 941.744595,808.316199 C941.793592,810.04403 941.842589,811.77186 941.893071,813.552049 C941.955444,824.149828 939.971208,831.23447 934.398673,840.240883 C919.4901,854.745693 903.367101,854.456675 883.727705,854.322705 C881.254508,854.32167 878.781311,854.320634 876.233169,854.319567 C871.022115,854.312756 865.811065,854.294994 860.600081,854.266974 C852.609276,854.225613 844.619063,854.22062 836.628162,854.221175 C831.561648,854.210069 826.495139,854.196897 821.428637,854.181446 C819.034132,854.178931 816.639626,854.176415 814.17256,854.173824 C811.954216,854.159405 809.735872,854.144985 807.450306,854.130129 C805.498584,854.121514 803.546861,854.112898 801.535996,854.104022 C796.521371,853.80181 796.521371,853.80181 789.74052,851.541656 C785.727765,851.309202 781.707822,851.191661 777.688617,851.144363 C775.324193,851.090464 772.959768,851.036564 770.523695,850.981032 C765.562103,850.88444 760.599941,850.813525 755.637608,850.769142 C741.538742,850.397002 732.630047,849.769681 721.932011,840.240883 C715.536099,831.810389 717.411444,827.175932 717.411444,815.379182 C720.395018,804.937268 723.378593,794.495354 726.452579,783.737018 C641.420708,782.991167 556.388838,782.245316 468.780244,781.476863 L468.780244,806.338564 C467.735553,821.25158 465.09526,832.455305 455.050787,843.772374 C441.856228,853.620895 429.300757,854.756709 413.637478,854.783502 L412.360598,854.783394 C412.146625,854.783022 411.932066,854.782484 411.716912,854.781799 C408.428389,854.79957 408.428389,854.79957 405.073432,854.817701 C400.455408,854.832162 395.837301,854.829253 391.219296,854.809941 C384.189889,854.790707 377.164637,854.855781 370.135639,854.927473 C365.63126,854.931118 361.126874,854.92981 356.622498,854.923059 C354.540618,854.94845 352.458738,854.97384 350.31377,855 C336.920349,854.856864 326.110333,852.754682 315.080957,844.761192 C305.657993,831.006616 308.17817,816.981539 309.712784,800.970697 C309.996864,797.422077 309.996864,797.422077 310.286684,793.801769 C311.340068,781.421608 312.644725,769.100261 314.243284,756.780149 C320.195795,710.555325 323.647531,664.151457 327.269851,617.697872 C328.493108,602.042878 329.73484,586.389336 330.974336,570.735621 C331.630571,562.447389 332.281911,554.158798 332.929045,545.869851 C334.33333,527.950543 335.781818,510.052102 337.683794,492.177074 C335.961828,492.914184 334.239863,493.651295 332.465717,494.410742 C289.605015,512.549255 289.605015,512.549255 272.135568,510.258311 C266.772516,506.965196 263.074456,503.45787 258.573867,498.957537 C238.252235,536.094951 233.545272,587.082406 243.740755,628.210129 C245.357545,633.669411 246.990792,638.523842 249.532732,643.607432 C257.783755,642.717993 257.783755,642.717993 263.94204,637.674526 C267.486125,634.675856 267.610479,634.57064 274.46815,634.566948 L275.243458,634.566814 C284.793445,637.201143 288.484468,640.586659 294.738405,648.127741 C300.016094,658.682517 298.593471,673.967535 295.533036,685.102458 C289.031185,699.439055 278.234779,707.824504 264.930914,715.64986 C244.145538,721.7829 225.58223,719.162611 206.587343,709.151916 C204.467665,708.04188 204.467665,708.04188 202.305165,706.909419 C170.509364,687.244515 159.631965,644.854367 151.328485,610.782218 C149.161549,601.06509 147.495574,591.291353 145.983488,581.453181 C145.703414,579.645366 145.42334,577.837551 145.134778,575.974954 C143.318366,563.060173 143.005897,550.410345 143.299401,537.380166 C140.5023,537.286934 137.705199,537.193703 134.823338,537.097646 C117.188272,535.091877 99.7037564,526.786326 87.4986492,513.789802 C81.7940076,506.161545 79.8294173,499.564614 80.0114597,489.916919 C82.7220342,484.972831 82.7220342,484.972831 86.7923106,480.876301 C99.7187381,478.421771 114.170376,481.026196 127.212539,482.050522 C129.81479,482.253919 132.417041,482.457316 135.098148,482.666877 C137.058668,482.821838 139.019188,482.976799 141.039118,483.136455 C141.003608,481.286213 140.968098,479.435971 140.931512,477.529661 C139.505291,391.461873 146.334114,290.966217 206.587343,223.218676 C207.898484,221.697839 209.209625,220.177002 210.560498,218.610079 C233.44017,193.817205 269.379992,174.892332 303.489278,173.166956 C311.214714,173.11103 318.939257,173.075658 326.664911,173.071495 C329.31633,173.043817 331.967748,173.016139 334.699513,172.987622 C347.398859,172.966458 358.944401,173.455952 371.332001,176.355783 C381.796987,178.493186 387.157757,177.486309 396.089722,171.751049 C397.467694,170.788325 398.845667,169.825602 400.265397,168.833706 C426.983328,152.311927 450.491316,145.468809 482.059411,145.102082 C484.208407,145.068395 486.357404,145.034708 488.571522,145 Z M453.077668,781.512739 L329.021317,781.512739 C326.765747,785.989657 326.765747,785.989657 326.473889,790.125559 C326.471268,791.811223 326.468724,793.447309 326.466179,795.083396 C326.463184,796.920681 326.460276,798.703928 326.457369,800.487175 C326.463436,801.783788 326.466746,802.491031 326.46978,803.139391 L326.471587,803.525585 C326.47461,804.17161 326.477854,804.864849 326.483801,806.135786 C326.474814,808.056314 326.466091,809.920355 326.457369,811.784397 C326.460364,813.621682 326.463272,815.404929 326.466179,817.188177 C326.47495,822.828348 326.460421,825.675896 329.021317,830.758833 C334.801216,832.15787 334.801216,832.15787 340.299167,832.997292 C342.14967,825.039282 343.905896,818.624541 348.616582,811.871837 C356.043429,806.891766 360.851379,807.130864 369.621578,808.374245 C375.483294,812.147595 377.9773,815.137914 380.002376,821.791882 L383.154998,835.235751 C388.243265,835.375126 393.330091,835.485137 398.419744,835.56365 C400.563152,835.594866 402.643519,835.625164 404.723886,835.655462 C419.592821,836.069781 430.891044,835.853006 444.055388,828.520374 C450.370984,819.118847 450.370984,819.118847 453.077668,781.512739 Z M923.381638,781.512739 L799.523213,781.512739 C795.01927,794.971589 795.01927,794.971589 794.500261,803.488518 C794.533161,806.50344 794.565094,809.429689 794.597026,812.355937 C794.63424,819.917914 793.855826,826.300949 797.271242,833.104998 C803.041918,834.506962 803.041918,834.506962 808.531099,835.34814 C810.346832,826.305068 811.64781,819.450106 816.835243,811.795152 C824.27073,806.991044 829.126623,807.195287 837.806726,808.430439 C843.65909,812.211683 846.149117,815.208258 848.170963,821.876146 L851.318554,835.34814 C856.932362,835.441134 862.545596,835.514686 868.159957,835.567197 C870.521272,835.588051 872.813137,835.608292 875.105002,835.628533 C889.604934,835.872853 903.074523,836.502311 916.625724,830.861856 C916.760842,830.682405 916.893258,830.506543 917.023025,830.333875 L917.404437,829.825058 C923.132588,822.158036 923.371261,820.41463 923.381205,786.167276 L923.381638,781.512739 Z M780.933801,781.512739 L744.756572,781.512739 C742.450274,790.738217 740.211808,799.692357 737.973342,808.646497 C740.952311,808.502349 743.843663,808.36244 746.735015,808.222532 C751.590742,807.825747 751.590742,807.825747 756.061956,808.646497 C760.629157,814.802627 760.629157,814.802627 762.014947,820.049388 L765.106263,833.519108 L778.672724,833.519108 C779.44149,815.836943 780.187645,798.674841 780.933801,781.512739 Z M566.291281,524.540713 C563.102897,532.064073 560.133581,534.849841 552.990851,538.814845 C551.379236,539.703798 549.81502,540.566606 548.250805,541.429414 C538.602941,548.006743 533.622213,558.324223 530.63481,569.341701 C530.490486,570.87935 530.350407,572.371774 530.210328,573.864198 L525.682523,573.864198 C524.758638,567.030476 523.239166,562.22153 519.969705,556.092197 C518.544507,553.869814 517.161227,551.712795 515.777947,549.555776 C513.699755,546.252233 512.660659,544.600461 511.634828,543.116517 L511.366846,542.732233 C510.425242,541.393731 509.420333,540.087565 507.571299,537.684221 C505.262118,536.915396 503.020854,536.169184 500.779591,535.422972 L500.779591,530.900475 C484.20508,517.830677 466.477447,511.740043 445.411246,512.050848 C432.493911,513.755285 425.400589,518.885249 417.413135,528.780554 C413.108538,535.865527 413.240108,540.990644 414.75128,548.990464 C418.147134,554.502257 418.147134,554.502257 423.806892,558.035458 C431.877198,559.46273 439.195205,559.65029 446.445921,555.350225 C448.709824,551.251712 448.709824,551.251712 449.275799,545.315935 C448.709824,539.945469 448.709824,539.945469 446.445921,537.684221 C442.673871,537.592327 438.898338,537.587618 435.126406,537.684221 C434.356679,540.759519 433.609591,543.744367 432.862503,546.729215 L428.334697,546.729215 C429.47566,538.295988 430.741142,534.037236 437.390309,528.639226 C453.135299,523.268407 466.098148,528.472109 480.404464,535.422972 C475.027695,536.27094 475.027695,536.27094 469.08495,537.684221 L468.457568,538.311579 C463.98805,542.791758 463.9184,543.232356 462.293241,553.512961 C466.396565,555.067569 466.396565,555.067569 471.348853,555.774209 C474.366401,552.382011 474.366401,552.382011 478.140561,548.990464 C486.064222,547.859839 486.064222,547.859839 493.987882,548.990464 C499.922088,553.078221 502.392417,558.324182 505.307396,564.819204 C503.767942,563.281555 502.273766,561.789131 500.779591,560.296706 C494.364003,559.47516 490.806597,559.489741 485.215258,562.840611 C481.917705,568.33009 481.917705,568.33009 484.93227,580.647944 C486.231184,580.311583 487.491895,579.985115 488.752606,579.658647 C491.39642,579.016311 491.39642,579.016311 493.987882,578.386695 C499.441232,576.128979 499.441232,576.128979 505.307396,576.125447 C515.031801,582.681723 518.027065,590.216407 522.286668,600.999181 C527.6752,614.690188 531.925686,622.451479 545.633167,628.840804 C547.316945,629.369371 548.9512,629.882392 550.585455,630.395412 L550.585455,634.917909 L550.074058,634.918385 C544.717272,634.933769 544.12268,635.446565 524.302957,652.539749 C523.232555,653.467744 522.193636,654.368445 521.154717,655.269147 C521.347148,652.674364 521.53392,650.155898 521.720692,647.637433 C521.937297,645.213863 522.09086,643.49566 522.338356,642.200602 C524.536769,641.004741 527.156516,638.862612 531.627283,635.16417 L532.474231,634.917909 L532.474231,628.134164 C532.388239,628.074517 532.30217,628.015053 532.216023,627.955769 L532.215,628.071 L532.215355,627.841888 C525.656706,623.340161 518.65404,619.869144 511.4673,616.449045 C510.291577,617.272178 509.150434,618.071101 508.009291,618.870024 C503.460304,624.677566 503.460304,624.677566 504.551281,639.234731 C506.856621,641.5133 506.856621,641.5133 511.899551,643.364637 C516.873346,643.692373 519.126692,643.840851 521.983827,642.388628 C521.755257,643.594714 521.575656,645.14765 521.333923,647.2378 C520.274191,654.877168 520.274191,654.877168 523.171048,659.781367 C522.9175,660.427454 522.669324,661.057276 522.423049,661.671923 L520.946633,661.671975 C519.842143,663.215338 518.770138,664.713308 517.698133,666.211278 C516.4976,668.526323 515.332377,670.773279 514.167154,673.020234 C507.103853,686.575334 502.114065,693.124746 487.560807,697.823246 L487.108,697.967 L486.622769,696.514674 C486.052902,694.807078 485.492586,693.128101 484.93227,691.449124 L484.883,691.461 L484.789411,691.177449 C482.33072,691.794794 479.92988,692.397614 477.540611,692.997528 L475.750106,693.447101 C475.653563,697.228611 475.65827,701.013732 475.750106,704.79536 L475.874401,704.920144 L475.876659,705.016615 C478.140561,707.277864 478.140561,707.277864 486.205716,707.419192 C488.759999,707.372805 491.241758,707.327735 493.721005,707.28271 C492.989955,708.749829 492.279423,710.177072 491.56889,711.604316 C481.001332,718.768432 473.725993,718.741736 461.643845,716.879483 C460.293246,716.62929 458.98237,716.386455 457.671494,716.14362 C457.574952,719.92513 457.579659,723.710251 457.671494,727.491879 C457.703105,727.523627 457.734273,727.554931 457.765025,727.585807 L457.765435,727.629101 L457.999752,727.862989 C460.038182,729.894856 460.276953,730.016535 466.962541,733.42355 C469.166984,734.501056 471.308215,735.547663 473.447862,736.593497 C463.300042,742.150356 453.623429,747.187202 442.417666,750.188398 C433.56893,750.188398 428.954041,748.817396 421.922657,743.680025 L421.518,743.382 L421.395923,742.992163 C421.164298,742.258492 420.958706,741.605478 420.776139,741.015112 C420.485143,740.072024 420.252062,739.287548 420.064596,738.590557 C419.330819,735.845838 419.318627,734.442354 419.279086,729.89035 C419.806749,729.714668 420.253234,729.566014 420.64327,729.436155 L421.436029,729.172211 C421.635576,729.105774 421.820318,729.044265 421.996294,728.985675 L422.749384,728.73494 C422.892237,728.687378 423.035311,728.639743 423.182652,728.590686 L423.64152,728.43791 C423.881399,728.358044 424.139979,728.271952 424.430912,728.175088 L425.579188,727.792778 C425.732047,727.741885 425.892551,727.688446 426.061567,727.632173 C426.820529,731.442 427.55714,735.141069 428.293751,738.840139 L428.317323,738.846369 L428.334697,738.935344 C433.711467,740.348624 433.711467,740.348624 439.654212,741.196592 L440.180831,740.67059 L440.299442,740.552119 L440.920453,739.931836 L441.011139,739.841257 L441.649014,739.204129 C441.697646,739.155554 441.745584,739.107672 441.793155,739.060157 L442.442922,738.411153 L442.520145,738.334019 L443.330419,737.524695 C443.43566,737.419578 443.547077,737.308292 443.665775,737.189733 L444.182018,736.674095 C444.944369,729.82098 445.290171,725.178954 443.069648,719.870912 C442.459524,718.370115 441.645981,716.818368 440.581557,715.150647 C433.075512,710.31816 428.007629,710.645271 419.254446,711.604316 C411.704605,716.659427 409.224914,719.161664 405.695487,727.491879 C405.646485,729.047631 405.602304,730.599234 405.595861,732.137551 L405.595094,732.716953 C405.601561,739.601427 406.440398,746.199421 411.116655,751.681366 C412.352427,752.72949 413.551854,753.746787 414.75128,754.764084 C416.387762,756.159443 417.984309,757.520751 419.574056,758.87626 L420.525598,759.692565 C420.530602,759.695215 420.535606,759.697864 420.54061,759.700511 L420.552531,759.710565 C421.200546,760.051845 421.846453,760.372378 422.490622,760.672988 C428.474782,763.47521 434.309115,764.546544 440.291213,764.5541 L440.353801,764.5541 C446.077579,764.56129 451.936391,763.601688 458.189917,762.25447 C482.389075,750.97477 497.209228,730.425629 511.000632,708.665322 L511.908554,707.228907 C512.059655,706.98924 512.210654,706.749449 512.361562,706.509543 L513.266009,705.068825 C513.868363,704.107547 514.469616,703.144784 515.070478,702.181222 C516.313018,700.161587 517.5206,698.198776 518.726664,696.238431 C519.22733,702.73346 519.293857,703.321779 520.649707,710.118355 L520.843431,711.088188 L520.909971,711.417197 C517.770417,720.574514 513.64293,726.70749 507.343511,734.028662 C505.920092,735.530205 504.538539,736.987585 503.156986,738.444964 C502.130739,739.548929 501.574855,740.14691 501.062437,740.698134 L500.784681,740.996924 C500.273957,741.546326 499.729081,742.132466 498.723156,743.21457 C494.439475,747.675035 494.439475,747.675035 491.515973,752.117834 C492.196063,757.196581 492.196063,757.196581 493.77705,761.16242 L494.470437,761.393394 C498.878573,762.859562 499.160566,762.885199 505.082434,763.423567 C507.009378,761.963716 508.30184,760.984548 509.464302,759.900846 L509.720692,759.658065 L509.974032,759.410415 C512.117951,757.280657 514.064699,754.4686 519.214164,747.030255 C521.21239,743.890088 521.21239,743.890088 523.171048,740.812102 C534.638215,753.161739 544.562678,759.798644 561.609353,761.16242 C561.91686,760.547389 562.222557,759.935975 562.526808,759.327455 L566.131507,752.117834 C559.930604,747.889815 553.840842,743.744741 547.194989,740.246815 C545.945744,739.670223 544.733242,739.110589 543.520739,738.550955 L543.520739,734.028662 C541.126237,729.799942 538.663719,726.078902 535.837405,722.801474 C537.662484,723.704974 539.559467,724.547825 541.529843,725.367852 C550.85195,726.743367 560.117854,727.390986 568.696678,723.106604 C574.588814,718.482496 579.29264,714.861225 581.068553,707.348528 C581.433951,699.523591 580.588807,694.557696 576.195856,688.057251 L575.989,687.925 L575.888663,687.772971 C569.836691,683.8303 566.719984,683.245234 559.801123,684.300424 L559.363682,684.368493 C554.279073,689.47521 554.279073,689.47521 552.584203,700.256057 L552.887212,700.254665 C552.874687,700.333885 552.86207,700.413701 552.849357,700.494118 L563.883,700.494 L563.883335,709.334664 C552.706455,710.476238 548.262929,711.169632 539.407497,704.245667 L539.157014,704.048916 C539.100719,703.982336 539.044978,703.914961 538.989588,703.846594 C535.354559,693.993417 533.701387,689.496371 533.484677,684.246371 C533.605545,678.584191 534.894354,672.908859 536.90476,667.114203 C541.827368,656.422034 545.930608,648.536158 557.377163,643.962904 L557.377163,648.485401 C556.92623,653.579975 556.666781,658.59778 556.625477,663.713497 C557.798239,671.706494 557.798239,671.706494 568.696678,680.142881 C570.707208,679.630156 572.109903,679.272441 573.280112,678.944766 L573.805067,678.79521 C576.190576,678.102988 577.765452,677.460935 582.280095,675.620384 C584.26101,670.815231 584.26101,670.815231 584.543998,666.575389 C583.019637,666.194746 582.003396,665.940984 581.159883,665.730353 L580.671819,665.60848 C580.301877,665.516103 579.95523,665.429543 579.597153,665.340128 L578.777248,665.135392 C578.147623,664.978171 577.423546,664.797364 576.462783,664.557455 L575.830202,664.399495 L575.488387,664.314141 C574.732677,656.68387 574.732677,656.68387 575.488387,648.485401 C580.184052,643.968951 584.262997,641.804993 590.380623,639.555236 C592.437237,638.987627 594.433363,638.436713 596.429488,637.885798 C598.510157,637.30017 600.529629,636.731766 602.549101,636.163363 C604.124636,635.739909 605.653832,635.328909 607.183027,634.917909 L607.183027,630.395412 C600.534869,628.28749 600.534869,628.28749 594.855368,625.758086 C592.792741,624.788046 590.790778,623.846536 588.788816,622.905026 C582.721429,620.312069 582.721429,620.312069 577.752289,616.827921 C575.78115,612.141249 575.78115,612.141249 575.488387,607.782927 C579.337021,606.245278 583.072461,604.752853 586.807901,603.260429 C586.746927,603.016818 586.689204,602.786198 586.63439,602.5672 L586.24102,600.995563 C586.137484,600.581905 586.046224,600.217291 585.961872,599.880282 L585.839856,599.39279 C585.761072,599.078024 585.686515,598.780142 585.610816,598.477704 L585.495743,598.017951 C585.386291,597.580655 585.269345,597.113419 585.130179,596.557411 L585.00511,596.05772 C584.873912,595.533544 584.723299,594.931799 584.543998,594.215435 C576.225325,593.726675 570.000353,593.705899 562.187957,596.75934 C557.377163,600.999181 557.377163,600.999181 555.11326,607.782927 L555.113851,608.871677 C555.123687,614.580257 555.297469,614.806663 558.367621,618.806513 C559.570319,619.671441 560.737644,620.510929 561.904969,621.350418 C554.331132,619.501206 549.472062,618.053693 544.076734,612.305424 C538.721339,598.041116 539.949305,582.718868 545.960372,568.794055 C551.481347,559.49995 558.625613,554.561124 568.979666,551.251712 C576.596017,551.251712 579.140273,552.84566 584.543998,558.035458 C583.774271,561.87958 583.027183,565.610641 582.280095,569.341701 C577.661733,568.572876 573.179206,567.826664 568.696678,567.080452 C568.215598,568.858359 567.748668,570.583974 567.281739,572.30959 C566.463095,578.169656 566.433858,578.378944 570.492617,584.468983 L570.960581,585.170441 C575.063905,587.149033 575.063905,587.149033 580.016192,587.431689 C586.804591,584.454911 590.711268,581.400694 595.439031,575.701462 C599.003018,567.270336 599.46231,560.274518 598.127416,551.251712 C594.865465,543.363618 592.948764,540.732318 585.251468,536.977581 C583.471474,536.449014 581.743833,535.935993 580.016192,535.422972 C582.549911,529.441203 585.800905,524.548633 589.496286,519.170248 C597.03133,511.644038 601.260865,510.95856 611.710833,510.549238 C606.259036,518.490453 604.08987,523.498434 604.919124,533.161724 C608.767759,533.930548 612.503199,534.67676 616.238639,535.422972 C617.778093,533.404808 619.272269,531.446001 620.766445,529.487195 C625.69762,521.175593 627.101139,517.712899 625.294251,508.287989 C620.702737,501.255923 617.12888,497.810522 608.898641,495.647963 C588.621865,493.849799 574.176056,506.485457 566.291281,524.540713 Z M697.27396,711.417197 L690.49073,711.417197 C690.106347,712.185987 689.727616,712.943471 689.351712,713.695303 L688.229653,715.93949 C681.039824,725.608869 675.25285,728.163355 663.499126,730.919586 C653.338383,733.112169 645.1805,735.587834 636.224887,740.812102 C636.993653,744.656051 637.739809,748.386943 638.485964,752.117834 C640.281753,752.144862 642.024726,752.171095 643.767698,752.197328 C646.104026,752.218349 648.371639,752.238753 650.639252,752.259156 C662.858181,752.401241 667.571863,750.236135 677.206904,742.931927 C680.185872,740.673607 683.077224,738.481708 685.968576,736.289809 L685.968576,761.16242 C687.198602,761.469936 688.414157,761.773834 689.621029,762.075562 L693.221387,762.975679 L695.012883,763.423567 C700.336547,757.656087 701.758307,755.034321 702.220065,747.030255 C702.075922,744.916083 701.936018,742.864092 701.796114,740.812102 C711.56051,748.449296 719.421649,752.942041 732.038015,753.107086 C739.649502,752.906778 741.502708,753.110653 747.017649,747.595541 C746.169745,741.660032 746.169745,741.660032 744.756572,736.289809 C733.686039,735.631909 722.763237,734.717945 712.112276,731.484873 C705.069736,728.653542 702.551417,725.852149 699.535037,718.907245 C698.766271,716.360629 698.020115,713.888913 697.27396,711.417197 Z M853.17057,684.283439 C850.404149,694.878591 848.421935,702.723387 840.394364,710.427946 C838.628159,711.533081 836.913901,712.605713 835.199643,713.678344 C838.254701,716.753503 841.219904,719.738217 844.185107,722.72293 C844.831754,722.443972 845.425743,722.18773 845.975565,721.950542 C843.566012,728.546044 841.939358,731.857803 836.100541,736.896091 C833.776225,738.495378 831.520271,740.047628 829.264317,741.599877 C826.927989,743.229283 824.660376,744.810765 822.392763,746.392247 C819.725488,748.195055 819.725488,748.195055 817.111029,749.962164 C817.111029,752.318093 817.676787,754.631676 818.287111,756.928792 L818.621302,758.180287 C818.898257,759.222097 819.164841,760.261478 819.372106,761.300858 C821.342069,761.638184 823.254092,761.965589 825.166115,762.292994 C834.64504,761.083031 834.64504,761.083031 845.780776,748.899162 C846.795788,747.71852 847.780946,746.572603 848.766104,745.426687 L848.766774,745.906943 C848.767444,746.058378 848.768784,746.202505 848.771464,746.343357 L848.775365,746.511065 C848.776909,746.566615 848.77871,746.6219 848.780811,746.677176 L848.792436,746.926736 L848.802669,747.092739 C848.910698,748.684863 849.337888,750.773553 851.027181,759.033119 C854.871011,759.80415 858.601788,760.552504 862.332565,761.300858 C863.870097,758.987764 865.362408,756.742703 866.854718,754.497642 C868.055915,755.654188 869.221783,756.776719 870.387651,757.89925 C877.255671,762.138177 877.255671,762.138177 891.726563,761.300858 L891.922092,760.320332 C892.504611,757.399156 892.754039,756.14834 893.101929,754.403763 L893.215566,753.833907 C893.412093,752.848377 893.648478,751.662968 893.98764,749.962164 C888.545877,747.863012 883.363663,745.762782 878.160102,743.158948 C870.971439,737.70285 869.284042,734.631719 866.572084,725.86744 C864.593642,718.213821 864.593642,718.213821 860.071488,713.678344 C860.029927,713.695561 859.988631,713.712668 859.947598,713.729667 C859.962699,713.003542 859.97567,712.285447 859.988641,711.567352 C860.009525,709.642374 860.029795,707.774013 860.050065,705.905653 C860.098182,702.466844 860.070956,699.024487 859.909667,695.589172 C857.291565,693.183557 857.291565,693.183557 855.276538,688.664411 C854.560509,687.174881 853.865539,685.72916 853.17057,684.283439 Z M344.492599,677.5 L344.323827,677.669684 C344.076316,677.918855 343.853681,678.145182 343.648699,678.365595 L343.514581,678.511847 C343.426807,678.609013 343.342203,678.705753 343.260135,678.803556 L343.138856,678.951241 L343.020906,679.101634 C342.962684,679.177694 342.905532,679.255186 342.849182,679.334739 L342.737473,679.496779 C342.55281,679.772043 342.375082,680.074847 342.194383,680.428416 L342.085527,680.646836 C341.174102,682.520861 340.138842,685.780164 337.741399,693.328025 C342.278708,694.946176 342.278708,694.946176 346.743,697.850318 C348.397435,702.649136 348.99501,706.922357 349.292281,711.991317 C349.283402,714.627451 349.283402,714.627451 349.2747,717.211385 C349.301175,725.098908 348.798966,731.083524 344.140974,737.756021 C338.199117,745.427075 334.143634,751.181597 333.240599,761.16242 L334.466669,761.1621 C342.250392,761.155691 342.414244,761.021099 345.855146,758.194666 C349.400529,754.293362 349.400529,754.293362 353.485409,750.660455 C360.239859,746.069838 365.877693,745.864149 373.870869,746.36781 C378.923028,747.303248 378.923028,747.303248 382.468101,753.248408 C383.328879,755.170382 384.16434,757.035828 384.999801,758.901274 L391.751001,758.901274 C393.281273,757.363694 394.766537,755.871338 396.251801,754.378981 C396.681162,747.476404 397.109767,742.536227 394.001401,736.289809 C387.840408,732.004138 384.228188,731.741673 376.560801,731.484873 C374.074109,731.580971 371.660555,731.674244 369.247,731.767516 C370.442525,730.229936 371.602888,728.73758 372.763251,727.245223 C378.158376,721.903553 378.158376,721.903553 386.687601,722.157643 C389.174293,722.349841 391.587847,722.536385 394.001401,722.72293 C394.30551,721.561801 394.543865,720.651726 394.739213,719.878429 L394.878017,719.322316 C395.360003,717.364174 395.559761,716.224349 395.950359,713.526211 L396.121995,712.32947 C396.163035,712.041532 396.206185,711.738036 396.251801,711.417197 C391.751001,706.894904 391.751001,706.894904 385.703051,705.905653 C376.765811,707.09168 372.443982,710.264962 365.467032,715.727508 C364.456813,716.568372 363.476307,717.384504 362.4958,718.200637 C362.575707,715.113995 362.575707,715.113995 362.654031,712.088475 C362.695875,709.361674 362.736487,706.715073 362.7771,704.068471 C362.960264,694.866554 363.535334,687.422373 357.995,679.761146 C351.10315,677.923965 351.10315,677.923965 344.492599,677.5 Z M789.907633,738.550955 C783.143623,738.550955 783.143623,738.550955 779.109877,740.758655 C777.70247,741.764423 776.336457,742.74061 774.970444,743.716797 C768.852915,747.974922 767.570351,749.097883 765.106263,756.421975 C766.756224,756.448677 768.357656,756.474594 769.959088,756.50051 C772.094155,756.521278 774.166425,756.541435 776.238696,756.561593 C779.401003,756.601253 779.401003,756.601253 782.50069,756.640127 C787.652963,756.421975 787.652963,756.421975 789.907633,754.188098 C789.999915,748.976519 790.003269,743.762475 789.907633,738.550955 Z M588.456956,736.289809 C587.922872,738.112018 587.404495,739.880633 586.886119,741.649248 C586.172103,747.877785 586.172103,747.877785 588.813964,751.716302 C593.026663,754.830571 593.026663,754.830571 598.69417,755.509554 C600.797128,755.426447 602.838233,755.345783 604.879339,755.26512 C608.545752,755.153392 612.211827,755.018804 615.875196,754.830571 L615.875196,750.195381 C607.835754,742.651744 599.529139,737.310795 588.456956,736.289809 Z M862.332565,690.610669 C865.407629,698.453679 868.392251,706.066011 871.376872,713.678344 C872.809245,713.313014 874.014769,713.005543 875.048597,712.737855 L873.637949,713.678344 C875.782673,720.502676 878.177738,725.004919 882.823573,730.495621 C883.28747,730.900309 883.751143,731.304595 884.214866,731.707959 L885.142463,732.513303 L886.070683,733.315266 C897.060238,742.781508 908.283382,751.343541 923.381638,752.117834 L923.381638,740.812102 C918.988689,738.61556 914.688028,736.465163 910.413736,734.327951 L905.293024,731.767516 L914.377528,728.739255 C915.874863,728.240127 917.367173,727.742675 918.859484,727.245223 C920.272657,721.875 920.272657,721.875 921.120561,715.93949 L916.598407,711.417197 C914.100624,711.845402 914.100624,711.845402 911.652302,712.265127 C902.065377,714.395621 893.158108,715.193313 883.954111,711.417197 C883.214636,710.943919 882.781654,710.666801 882.403614,710.424848 C883.204459,710.081355 884.09152,709.670148 885.261296,709.127885 C886.882912,708.273119 888.456834,707.443494 890.030755,706.613869 C892.861582,705.132962 895.689426,703.646041 898.509793,702.144506 L898.509793,690.610669 C892.108508,691.946482 886.623987,693.220016 880.138544,692.052399 C878.697108,691.562211 877.298067,691.08644 875.899025,690.610669 C869.853371,688.796604 868.085744,687.675951 862.332565,690.610669 Z M338.097089,706.894904 C337.869733,707.112322 337.664238,707.308835 337.478296,707.491925 L337.264405,707.705669 C335.7284,709.267612 335.701501,709.984787 335.501676,715.312376 C335.529939,717.880013 335.557371,720.372133 335.584803,722.864252 C335.623028,727.339536 335.669061,731.814787 335.732584,736.289809 L340.461593,736.289809 C346.285936,727.935187 346.112562,723.552927 345.190602,713.678344 C341.643845,709.297373 341.643845,709.297373 338.097089,706.894904 Z M604.331032,657.149682 L599.772143,657.149682 C592.205162,664.655301 590.770508,675.882115 590.048887,685.923933 C589.729937,701.469359 588.697601,713.602065 599.914608,725.402418 C608.70693,730.783476 616.861647,731.861375 627.125477,731.761369 C627.285438,731.682037 627.439786,731.605489 627.588817,731.531333 L628.020254,731.315655 C631.695591,729.467006 631.844327,729.024417 633.96381,722.717528 C626.805265,720.805856 619.732303,718.796636 612.736483,716.358577 C606.923162,710.626806 606.824631,710.529657 604.455632,702.776792 L604.333,702.372 L605.255939,703.744997 C606.482827,705.570406 607.686374,707.361086 608.889921,709.151767 C617.152907,709.575697 617.152907,709.575697 624.846032,709.151767 C625.637427,706.511389 625.637427,706.511389 626.41315,703.923296 C627.125477,697.846966 627.125477,697.846966 624.561102,693.748975 C620.287143,691.064085 620.287143,691.064085 614.161136,690.640155 C612.368923,690.784291 610.629422,690.924188 608.889921,691.064085 C607.416761,685.906859 606.498204,681.035862 605.889246,675.696621 C605.69852,673.426475 605.513405,671.223099 605.328289,669.019723 C605.131509,666.725555 604.940516,664.498862 604.749524,662.27217 C604.607236,660.530524 604.469134,658.840103 604.331032,657.149682 Z M783.494774,657.149682 C779.260855,665.35506 775.091005,673.512222 771.511659,682.022293 C770.929622,683.559873 770.364704,685.052229 769.799786,686.544586 L765.23479,686.544586 L765.23479,691.066879 C760.669794,691.066879 760.669794,691.066879 757.103391,693.75199 C753.076345,698.782073 752.397935,702.865271 751.539803,709.156051 C755.67683,710.569268 755.67683,710.569268 760.669794,711.417197 C767.517288,706.894904 767.517288,706.894904 772.510252,699.828822 C773.916842,697.618551 775.282061,695.473288 776.64728,693.328025 C776.200548,698.505897 775.394831,703.459925 774.311286,708.546601 C768.159729,717.415892 768.159729,717.415892 757.656184,721.459868 C756.352664,721.889309 755.087482,722.306119 753.822301,722.72293 L753.822301,727.245223 C756.150448,728.782803 758.410121,730.275159 760.669794,731.767516 C770.443129,731.149522 776.271451,729.22286 783.494774,722.72293 C791.852155,705.824705 791.852155,705.824705 790.342267,661.671975 L785.777271,661.671975 C785.001222,660.134395 784.247998,658.642038 783.494774,657.149682 Z M722.145805,709.156051 C721.377038,713 720.630883,716.730892 719.884728,720.461783 L731.190112,720.461783 C731.958878,717.386624 732.705033,714.401911 733.451188,711.417197 C729.607358,710.648408 725.876581,709.902229 722.145805,709.156051 Z M661.096732,709.156051 L649.791348,709.156051 C650.560114,713 651.306269,716.730892 652.052425,720.461783 C655.896255,719.692994 659.627032,718.946815 663.357808,718.200637 C662.589042,715.125478 661.842887,712.140764 661.096732,709.156051 Z M672.866661,563.312102 C667.624164,564.297847 667.624164,564.297847 663.090113,568.804112 C662.665046,576.690075 662.665046,576.690075 663.090113,584.576038 C663.860902,586.108168 664.60902,587.595235 665.357139,589.082303 C658.13933,582.736448 652.309635,580.693498 642.686883,580.069773 C642.397476,580.357407 642.126541,580.626682 641.872421,580.88016 L641.386109,581.366814 C638.131986,584.636599 637.956879,585.145314 636.310874,589.927227 C635.885807,595.8417 635.885807,595.8417 639.144656,601.052068 C640.349013,602.344803 641.517948,603.599516 642.686883,604.854229 C636.546462,604.657365 630.645336,604.246065 624.550679,604.854229 C619.127417,610.244255 618.484429,613.140341 617.749602,620.626155 C622.283653,627.385552 622.283653,627.385552 626.693726,629.524267 C628.373805,630.089839 630.004469,630.638776 631.635134,631.187713 C633.327256,631.771239 634.96961,632.337602 636.611963,632.903966 C637.906647,633.3259 639.163253,633.735424 640.419858,634.144949 C630.494364,635.272339 624.732599,638.272116 617.749602,645.41061 C616.757779,651.325083 616.757779,651.325083 617.749602,656.676272 C622.283653,661.182536 622.283653,661.182536 627.189638,662.115474 C629.086501,662.277066 630.927574,662.433905 632.768647,662.590744 C634.677553,662.764306 636.530315,662.932763 638.383077,663.101219 C639.846371,663.214932 641.266627,663.325301 642.686883,663.435669 C641.542744,664.411205 640.432256,665.358048 639.321767,666.304892 C635.885807,670.195066 635.885807,670.195066 635.31905,678.36267 C635.856492,685.573665 635.88429,685.946647 637.818856,687.88722 L638.037579,688.105542 L638.152832,688.220124 C648.508313,689.063732 653.729957,690.254842 661.956601,683.71386 C663.112784,682.18173 664.234961,680.694662 665.357139,679.207595 C665.330041,680.688853 665.30374,682.126545 665.277439,683.564237 C665.256363,685.482392 665.235906,687.344131 665.21545,689.20587 C665.188352,691.11804 665.162051,692.973969 665.13575,694.829899 C665.357139,699.485786 665.357139,699.485786 667.624164,701.738918 C675.275376,702.583843 675.275376,702.583843 683.493343,701.738918 C684.986746,699.823756 686.436226,697.964921 687.885705,696.106087 C688.704668,694.190925 689.499544,692.332091 690.29442,690.473256 C693.836647,696.106087 693.836647,696.106087 699.362522,701.738918 C707.170092,702.541648 712.673125,703.010366 719.765752,699.485786 L719.765752,674.70133 C722.078118,677.76559 724.322474,680.739725 726.566829,683.71386 C727.691106,683.950815 728.562421,684.134456 729.387357,684.264782 L729.660901,684.306249 C729.751698,684.319413 729.842207,684.331919 729.93271,684.343767 L730.204483,684.377336 C730.386032,684.398398 730.568691,684.416828 730.754727,684.432625 L731.036597,684.454346 C731.464053,684.483966 731.914343,684.500256 732.413292,684.503218 L732.753417,684.503218 C735.014767,684.490383 738.297568,684.227264 744.703033,683.71386 C744.747485,683.66968 744.791065,683.626368 744.833796,683.583857 L745.196118,683.221215 C746.975288,681.422612 747.036736,680.974758 747.820193,675.264613 C746.970059,667.941933 746.970059,667.941933 741.302495,661.464178 C739.375523,659.83629 737.505227,658.256281 735.634931,656.676272 C737.071127,656.730136 738.465082,656.782416 739.859037,656.834695 C741.746867,656.876589 743.579173,656.917251 745.411479,656.957913 C753.727156,657.19747 755.576141,656.982398 762.839238,652.170007 C764.822885,646.677997 764.822885,646.677997 765.106263,640.904346 C761.905757,636.039451 761.905757,636.039451 751.079043,630.342788 C748.9112,629.337328 746.807116,628.36144 744.703033,627.385552 C747.015399,626.619487 749.259755,625.875953 751.50411,625.13242 C757.718008,621.499586 760.146129,619.582942 762.55586,612.740192 C762.839238,607.107361 762.839238,607.107361 758.305187,600.347964 C750.512286,599.64386 750.512286,599.64386 742.436008,600.347964 C740.123642,601.880094 737.879286,603.367161 735.634931,604.854229 C737.176509,603.178462 738.672745,601.551982 740.168982,599.925502 C745.061044,593.0882 746.032742,590.472523 744.703033,582.322906 C740.168982,577.816641 740.168982,577.816641 733.651284,576.971717 C726.566829,577.816641 726.566829,577.816641 721.182643,582.322906 C719.930112,583.855036 718.714419,585.342103 717.498727,586.82917 C717.924754,579.348815 718.691931,573.289511 715.090012,566.55098 C710.69765,564.297847 710.69765,564.297847 702.621371,564.438668 C694.828471,566.55098 694.828471,566.55098 691.569622,571.198065 C690.925645,573.402614 690.925645,573.402614 690.29442,575.563509 C684.713484,569.224385 681.432696,564.698027 672.866661,563.312102 Z M403.601412,565.573248 C398.355345,566.561224 398.355345,566.561224 393.818206,571.077685 C393.836284,572.739249 393.85383,574.351943 393.871376,575.964637 C394.054448,577.240304 394.154306,577.936123 394.24585,578.574009 L394.300378,578.953964 C394.391592,579.589554 394.489472,580.271594 394.66892,581.522001 C394.928033,583.423501 395.179525,585.269075 395.431017,587.114649 C395.653975,588.572266 395.870375,589.987012 396.086776,591.401759 C393.772835,589.866162 391.526951,588.37573 389.281067,586.885298 C381.495835,585.086249 376.036909,583.151171 368.863941,587.167577 C366.700887,591.20482 366.60028,591.392599 366.5956,596.172878 L366.595372,596.906195 C368.863941,602.692911 368.863941,602.692911 374.677151,607.915068 C376.557228,609.210728 378.382008,610.46828 380.206789,611.725832 C377.266156,612.013756 374.412012,612.293212 371.557868,612.572668 C364.092567,613.303614 361.833474,614.133219 355.252524,618.500523 C354.543596,624.146099 354.543596,624.146099 355.252524,629.791675 C359.789663,634.308136 359.789663,634.308136 368.013228,636.848645 C370.616411,637.520469 373.143031,638.172533 375.66965,638.824597 C372.232767,639.965003 372.232767,639.965003 368.863941,641.082827 C363.821495,644.943955 362.200242,647.422558 360.21502,653.503094 C359.789663,659.14867 359.789663,659.14867 364.326802,665.923362 C364.630618,665.944964 364.922808,665.965739 365.204263,665.985688 C373.114682,666.556051 373.114682,666.556051 381.022622,665.992565 C382.156127,665.427185 383.265036,664.874072 384.367495,664.324177 C380.365899,671.439564 378.65695,678.019704 377.938219,686.247435 C382.475358,690.763896 382.475358,690.763896 388.997496,691.751872 C389.111576,691.735973 389.223821,691.720331 389.334282,691.704916 C389.477317,691.726415 389.6258,691.748956 389.777841,691.772037 C396.838502,690.785937 396.838502,690.785937 402.204604,685.151079 C403.140848,683.714191 404.056439,682.308998 404.966867,680.91173 L405.113167,680.687538 C404.753279,689.560885 404.422393,694.177415 409.698193,702.055048 C412.911198,702.283502 414.390633,702.388695 415.918106,702.370625 C417.463781,702.388652 418.796927,702.283658 421.692028,702.055651 C424.325856,696.800744 426.893285,691.678314 429.451228,686.574809 L430.504,684.474 L430.491203,684.502428 C433.988362,689.277274 437.11131,693.516429 441.458166,697.538587 C444.641423,698.042706 446.200408,698.289596 447.642017,698.279257 C449.255082,698.336987 450.511627,698.093251 453.323787,697.547765 L453.382414,697.489278 L453.665093,697.206753 C456.589021,694.275711 456.632751,693.839471 457.84261,681.770165 C456.61349,679.930948 455.413291,678.135006 454.218876,676.34772 L454.032,676.069 L454.340728,676.339543 C458.950467,680.366199 461.860656,681.682692 468.648058,682.258238 L468.996158,682.286925 L469.032,682.289 L469.277484,682.310704 C469.372004,682.31849 469.467273,682.326137 469.563307,682.333651 C475.917901,681.770165 475.917901,681.770165 478.177313,679.516222 C479.050958,670.277996 479.690209,665.578002 473.65849,658.244637 C472.12209,657.04723 470.630879,655.88504 469.139667,654.722851 L471.399079,654.722851 C478.772006,654.85658 485.048469,655.803474 491.733781,652.468908 C492.357944,650.265679 492.963748,648.127251 493.569553,645.988823 C493.784479,642.415387 493.890367,640.654873 493.596789,639.294308 L493.635265,638.824597 C493.553661,638.743365 493.473526,638.663595 493.394797,638.585245 C493.042645,637.589258 492.406747,636.682125 491.345445,635.168136 C487.336698,632.271392 487.218547,632.186015 482.236973,631.434971 C480.719899,630.878926 479.237589,630.335301 477.755278,629.791675 C485.202473,625.532998 490.417864,623.036682 493.77705,614.972038 C493.635265,609.467602 493.635265,609.467602 491.366695,605.515698 C486.829556,602.692911 486.829556,602.692911 478.464206,601.140377 C475.90923,600.90044 473.429399,600.66756 470.949569,600.43468 C472.492197,598.899083 473.989453,597.408651 475.486708,595.918219 C475.77028,588.861249 475.77028,588.861249 475.486708,582.368837 C465.977877,580.633496 460.167386,578.491211 451.666729,583.356813 C450.509758,584.556498 449.386816,585.720898 448.263874,586.885298 C447.588821,580.837511 447.026593,574.814223 445.995305,568.819455 C443.726735,566.561224 443.726735,566.561224 437.346384,565.714388 C431.463483,566.403339 430.366671,566.531788 427.260942,569.595753 L426.861772,569.99429 C426.245846,570.615789 425.549341,571.345611 424.727466,572.2068 C423.474081,574.126296 422.257561,575.989336 421.04104,577.852376 C415.456303,571.498909 412.173281,566.962309 403.601412,565.573248 Z M442.726504,169.025995 C439.722793,170.340471 439.722793,170.340471 436.778562,171.628918 C412.514919,182.123303 391.836186,195.246066 371.024205,211.510993 C368.764517,213.310981 366.571291,215.058027 364.378065,216.805074 C366.643746,210.019172 367.803999,203.529849 368.903096,196.475804 C355.811503,193.101574 343.930232,191.421714 330.413818,191.450839 C327.285139,191.493169 327.285139,191.493169 324.218414,191.534662 C292.565611,191.556822 268.881922,199.973544 242.078495,216.805074 C194.256427,249.225198 175.266797,308.0637 164.227191,362.048181 C163.814768,364.121166 163.414475,366.133182 163.014182,368.145197 C150.212715,430.737456 151.468778,502.540192 159.938575,565.74566 C160.215026,567.681021 160.483347,569.559461 160.751667,571.4379 C163.088724,588.146725 165.746497,604.742252 169.801729,621.131671 C177.870592,649.267951 188.888651,678.320051 215.034364,693.828224 C229.560097,701.285622 244.706314,703.458814 260.558651,698.77819 C270.321255,694.103159 275.015698,687.368634 279.19789,677.822453 C281.864781,669.209362 282.484806,660.906263 278.402475,652.754981 L273.877444,652.754981 C269.511709,656.778286 266.363116,659.348878 260.373054,660.060812 C249.283021,660.141043 244.626102,659.630451 236.687345,651.907928 C225.765256,638.326183 223.701892,620.795059 223.270975,603.784239 L223.240925,602.476816 C223.191291,600.082031 223.170438,597.699874 223.158098,595.34288 C223.190589,592.49515 223.222124,589.731177 223.253659,586.967203 C223.564827,544.940621 227.605813,513.893808 252.966851,479.536517 C262.496993,466.781799 271.818354,454.243307 279.533733,440.285871 C280.85483,437.679198 280.85483,437.679198 282.149766,435.124143 C288.20653,429.905218 288.20653,429.905218 296.502599,429.133008 C295.579003,440.847351 293.674666,449.686465 288.411455,460.173968 C282.318021,471.786728 277.252203,481.066589 278.402475,494.638434 C288.546425,495.914477 288.546425,495.914477 309.512063,485.744379 C323.577888,478.853899 335.085321,475.293815 350.802972,474.309164 C354.927164,493.735504 354.927164,493.735504 351.93423,514.120652 C350.631403,524.25139 350.640667,534.123771 350.802972,544.332206 L353.065487,544.332206 C354.363606,543.030215 355.623544,541.766518 356.883482,540.502821 C389.728084,506.050349 428.526207,476.061338 470.716295,453.979894 C508.648085,435.366009 556.8395,424.166483 598.221971,437.645449 C609.728062,441.610629 621.256431,445.49685 632.821998,449.285809 C637.613691,450.845849 642.403976,452.410208 647.192507,453.979894 C669.991112,461.805451 690.75928,465.891273 715.004451,466.359219 C719.392579,466.381499 719.392579,466.381499 723.693814,466.403337 C751.176657,466.551699 777.456278,463.319768 803.004484,452.736336 C840.427026,436.733825 875.85227,429.069102 916.643967,434.824145 C918.879615,435.193142 921.049509,435.551287 923.219403,435.909431 C924.240284,400.180529 920.52485,366.108663 909.750365,331.942508 C889.776057,275.137106 851.287056,236.215358 797.655314,209.777182 C721.375522,174.045363 640.647302,171.529428 561.216917,198.734612 C563.546425,213.09163 563.714858,227.146724 563.678286,241.67843 C563.649298,246.22433 563.620532,250.770242 563.603716,255.316203 C563.582394,262.405558 563.554164,269.494787 563.515337,276.58407 C563.503129,278.531056 563.491281,280.420778 563.479432,282.3105 C601.661509,249.751284 641.710717,234.279389 692.230707,234.368187 C696.051177,234.410518 696.051177,234.410518 699.795993,234.45201 C709.419893,234.457545 719.025417,234.509021 728.643066,234.875537 C770.273866,238.282376 815.981812,250.827552 845.153779,282.478146 C859.107374,300.316716 861.995988,316.392575 859.868968,338.780696 C856.411888,360.051038 835.937869,375.836935 819.56791,387.909765 C769.899163,420.640441 701.662684,422.31607 644.929992,411.062545 C613.279773,404.579695 576.586457,392.307203 557.964551,364.192283 C554.251852,357.863377 550.800137,352.801859 545.379308,347.815927 C533.274686,378.699267 513.257594,408.195647 482.674043,423.088932 C461.134427,431.315417 436.505766,433.922455 414.860443,424.756568 C403.649082,418.312684 399.592213,409.61199 396.053283,397.509699 C415.003044,411.225762 430.219152,414.38537 453.61486,413.806644 C475.578358,412.48281 488.721492,405.272328 503.478581,389.100934 C543.966759,341.048729 552.035483,277.649148 547.641824,216.805074 C544.211779,200.274382 536.205125,184.534205 522.559718,174.302429 C500.48237,160.67289 466.903032,160.163543 442.726504,169.025995 Z M905.418362,578.009554 C903.897491,579.547134 902.421351,581.03949 900.945212,582.531847 C900.386068,589.173965 900.386068,589.173965 900.945212,596.098726 C902.466083,598.405096 903.942222,600.643631 905.418362,602.882166 C898.708637,598.359873 898.708637,598.359873 891.719339,597.935908 C885.765493,598.328468 885.324468,598.357546 883.516334,600.154671 L883.292355,600.378949 C883.215215,600.456628 883.135446,600.537273 883.05261,600.621019 C882.187795,609.888771 881.555005,614.603786 887.525761,621.960589 C889.046632,623.161823 890.522771,624.327727 891.998911,625.493631 C885.586098,626.790284 883.362484,627.441499 878.57946,632.27707 C878.020316,639.06051 878.020316,639.06051 878.57946,645.843949 C878.814889,646.081964 879.037927,646.307453 879.250245,646.521114 L879.856711,647.12732 C883.130054,650.369374 883.788326,650.395994 890.041908,650.648885 C892.22816,650.552787 894.350111,650.459514 896.472061,650.366242 C890.172839,657.565333 888.144902,663.37991 887.525761,672.977707 C891.998911,677.5 891.998911,677.5 898.429065,678.34793 C905.418362,677.5 905.418362,677.5 910.730228,672.977707 C911.965936,671.440127 913.165299,669.947771 914.364663,668.455414 L914.364663,688.805732 C917.753074,689.947611 917.753074,689.947611 921.074388,691.066879 C921.232486,688.473999 921.481124,685.76516 921.709196,683.004295 L921.805358,681.818069 L921.897058,680.62659 C922.452564,673.160752 922.632247,665.452372 920.296551,658.73259 L920.961249,659.410828 C922.829324,652.279718 923.371066,650.211696 923.381484,641.067424 L923.381117,640.277553 C923.373935,636.644887 923.293155,631.939443 923.182498,625.493631 L918.74,625.493631 C916.518751,630.015924 916.518751,630.015924 916.301833,634.909186 C916.328383,636.80113 916.354153,638.637428 916.379923,640.473726 C916.400574,642.377682 916.420617,644.225639 916.440661,646.073597 C916.467211,647.533096 916.492981,648.949669 916.518751,650.366242 L914.256,650.366 L914.236643,650.345483 C912.787948,648.845286 911.339699,647.344648 909.891512,645.843949 C909.017552,637.155587 909.404772,631.492185 912.128087,623.232484 C918.434674,617.687186 920.872281,615.590488 922.10531,607.033489 C922.03996,604.372756 921.976532,601.790279 921.913104,599.207803 C921.825738,591.346785 921.825738,591.346785 921.074388,584.792994 C915.757342,579.417534 912.792681,578.755088 905.418362,578.009554 Z M502.548292,676.918077 L502.725132,676.963 C503.857084,677.245656 505.095155,677.457648 507.571299,677.881632 C507.790152,677.735902 508.008395,677.590577 508.224007,677.447754 C506.225236,677.611241 504.484752,677.379108 502.548292,676.918077 Z M509.604588,659.410828 L500.780873,659.410828 C498.574945,661.671975 498.574945,661.671975 498.299204,668.455414 C498.574945,675.238854 498.574945,675.238854 500.780873,677.5 C503.03092,675.96242 505.21479,674.470064 507.398659,672.977707 C508.915235,665.911624 508.915235,665.911624 509.604588,659.410828 Z M920.592585,514.697452 C901.466675,514.697452 885.562135,530.291483 876.242629,545.835132 C875.237363,548.278242 874.261664,550.649496 873.285965,553.02075 C870.189575,560.501097 867.172797,568.003949 864.27518,575.563867 C863.89034,576.659366 863.510451,577.755091 863.132487,578.849863 L862.566606,580.49116 C858.421852,592.519941 854.32691,604.362239 846.25361,614.450743 C840.765593,620.213025 836.421733,622.663365 828.232041,622.904411 C832.737433,618.395788 832.737433,618.395788 834.708542,610.787486 C834.990129,602.615607 834.990129,602.615607 831.329498,597.120722 C825.13267,593.040938 821.990155,592.614643 814.715863,593.59836 C814.636667,593.677613 814.559946,593.75439 814.485493,593.829033 L814.268734,594.046911 C813.497395,594.824857 812.975606,595.386371 812.428862,596.189291 L812.278926,596.414598 C811.80086,597.149203 811.285568,598.09491 810.556225,599.546637 L810.318584,600.022242 C809.705663,601.255025 808.947729,602.822545 807.957775,604.869918 L816.96856,604.869918 C817.72154,610.221087 817.72154,610.221087 816.96856,616.141476 C811.781268,621.230704 807.686218,622.984165 800.67171,625.044246 C797.979035,625.610114 795.365555,626.159338 792.752075,626.708562 C790.035464,627.292394 787.398754,627.859054 784.762043,628.425714 C782.691675,628.847869 780.682199,629.257608 778.672724,629.667346 L778.672724,636.430281 C790.94018,638.749129 801.46589,641.493799 812.463167,647.70184 C812.654646,649.474292 812.840494,651.194614 813.026341,652.914935 C813.120204,659.302152 813.120204,659.302152 807.957775,663.059338 C805.682552,664.41122 805.682552,664.41122 803.452382,665.736333 C804.218299,668.802197 804.961689,671.777888 805.705079,674.753579 C815.512599,675.71579 820.056065,675.758636 828.232041,669.963167 C832.737433,663.482021 832.737433,663.482021 832.315053,656.014614 C831.692745,653.954736 831.088741,651.955444 830.484737,649.956151 C833.548404,650.722617 836.521963,651.46654 839.495522,652.210463 C840.261438,649.144599 841.004828,646.168908 841.748218,643.193216 C845.577801,646.25908 849.29475,649.234771 853.011699,652.210463 C856.947896,644.883648 856.947896,644.883648 864.556767,642.770533 C866.758778,642.147779 868.896023,641.543342 871.033269,640.938905 C871.033269,636.430281 871.033269,636.430281 868.358192,632.767025 C862.963369,628.671466 862.963369,628.671466 853.011699,629.667346 C851.670942,630.114586 850.856912,630.386124 850.159848,630.618645 L849.607312,630.802956 C849.15244,630.954688 848.700018,631.105604 848.11816,631.299696 L847.584649,631.47766 C847.203742,631.60472 846.768265,631.749983 846.25361,631.921658 C862.332417,616.725229 869.812714,600.352266 877.791357,580.07249 C882.315296,568.082917 885.728507,554.667525 895.812927,546.257815 C902.345033,545.024709 907.051345,545.503591 913.834497,546.257815 C916.132247,547.790747 918.362416,549.278593 920.592585,550.766439 L920.592585,534.986257 C914.904527,533.84783 914.904527,533.84783 909.329104,532.731945 C914.960845,530.05495 914.960845,530.05495 920.592585,525.96901 C921.296553,519.910548 921.296553,519.910548 920.592585,514.697452 Z M704.223246,605.092471 C713.718192,609.74792 718.5308,613.57573 722.443998,623.2791 C724.039028,634.497447 723.615831,643.538149 718.742908,653.826952 C709.933372,663.314176 702.099876,666.814569 689.276535,667.324841 C680.32409,666.965015 674.753506,665.616964 667.781741,659.652357 C660.083032,650.721966 657.149179,643.833536 657.790576,632.265852 C659.746271,622.407103 666.083624,616.13753 672.479278,608.78663 C682.822486,603.075571 692.67519,603.402379 704.223246,605.092471 Z M433.341909,602.430808 L434.433243,602.546296 L434.977723,602.604614 C444.560043,606.952305 447.820239,610.205748 452.929908,619.386449 C454.11581,623.200751 454.962241,625.923189 455.529358,628.067497 C454.010849,639.046021 450.987983,644.940294 444.427355,654.018494 C432.278908,660.544017 432.278908,660.544017 418.13522,659.847049 C409.14882,658.836541 404.891648,654.613773 399.203823,647.688084 C395.32899,635.846577 395.32899,635.846577 396.838502,623.167651 C397.481853,620.279579 397.990978,617.946251 398.211308,615.839253 C399.499984,613.782345 401.096886,611.681965 403.062728,609.431123 L407.622013,609.431123 L407.622013,604.880117 C415.598047,600.899342 424.59968,601.51678 433.341909,602.430808 Z M677.628402,616.918251 C672.394453,622.587891 670.221825,627.408745 669.0105,634.962296 C670.289732,642.301134 671.68697,645.259903 676.938262,650.499243 C683.526667,655.651375 686.764713,657.309522 695.200426,657.137756 C703.29937,654.55887 706.327514,653.196079 710.914382,645.979404 C712.603699,635.642988 712.757018,626.737365 707.658337,617.44792 C701.854083,614.34053 701.854083,614.34053 697.111583,613.351816 C689.678004,612.758483 683.94747,612.676388 677.628402,616.918251 Z M409.746442,614.949289 C404.266997,622.323409 404.169868,627.217409 404.642577,636.252906 C405.990943,644.220141 408.247706,647.78401 414.566758,652.726987 C425.803836,654.527299 430.047826,654.520914 439.518983,648.147872 C444.584247,640.479057 445.636427,636.402436 444.995004,627.389814 C443.417234,619.953153 440.690968,616.390524 434.982215,611.514952 C423.914209,608.818428 418.959191,608.385471 409.746442,614.949289 Z M789.930084,498.447837 C780.794582,504.689859 777.141368,507.065148 774.12024,517.879685 C774.12024,518.856987 774.112861,519.769943 774.110812,520.631076 L774.110658,521.356791 C774.123738,526.708845 774.507159,530.067089 778.637338,534.758444 C785.412986,536.74418 785.412986,536.74418 792.188634,537.027857 C797.018651,532.174607 797.669118,529.918346 798.964281,523.411379 C795.892654,522.639779 792.911369,521.890873 789.930084,521.141966 C791.465898,518.055565 792.95654,515.05994 794.447183,512.064314 C799.80964,511.495375 799.80964,511.495375 805.739929,512.064314 C810.800495,515.853069 812.369447,518.373952 814.165376,524.501761 C814.516334,526.590508 814.856969,528.61782 815.197604,530.645133 C815.834382,534.281304 816.454019,537.920718 817.032675,541.566683 L812.515577,541.566683 C801.898312,551.014886 795.657322,563.036727 789.665411,575.740851 C789.156972,576.864343 788.65975,577.963053 788.165331,579.055567 L787.671,580.144 L787.481597,578.57274 C787.292831,577.008487 787.107229,575.47045 786.921626,573.932413 C786.552671,571.174544 786.194568,568.497789 785.836464,565.821034 C785.32035,561.79194 785.062293,559.777392 784.72704,557.880305 L784.637611,557.38683 C784.316937,555.660261 783.907606,553.89409 783.154437,550.644335 C778.085942,543.848857 778.085942,543.848857 762.845139,536.389585 C756.898488,534.250583 752.880622,534.818667 747.017649,537.027857 C747.113637,538.378158 747.206803,539.688744 747.299968,540.99933 C749.276198,546.105509 749.276198,546.105509 756.193005,551.211688 C758.448731,552.561989 760.638113,553.872575 762.827494,555.183161 C758.451555,556.034191 758.451555,556.034191 753.793297,557.452574 C751.534748,561.9914 751.534748,561.9914 751.675907,566.388387 C753.793297,571.069052 753.793297,571.069052 760.004307,574.189494 C762.500004,575.443345 764.922298,576.660318 767.344592,577.877291 C777.764316,587.633281 780.319591,595.678649 782.563332,609.702262 C782.764308,611.227378 782.959372,612.707638 783.154437,614.187898 L787.671535,614.187898 C794.244472,596.277905 801.306849,577.336413 813.583094,562.514429 C821.495557,555.157545 829.002064,553.118886 839.618167,552.913748 C841.153981,554.456949 842.644623,555.954761 844.135266,557.452574 C843.415878,562.236968 843.415878,562.236968 841.876717,566.530226 L828.325421,566.530226 C826.913828,573.054788 826.913828,573.054788 826.066872,580.146704 C827.602686,581.689904 829.093328,583.187717 830.583971,584.685529 L838.065415,584.685529 C846.44378,582.402501 850.551955,580.173241 855.683863,573.063653 C859.528171,564.878604 859.658538,557.122352 857.686561,548.374922 C851.650888,539.553533 848.222353,537.41942 837.783096,535.183959 C835.335393,535.039284 832.959682,534.898864 830.583971,534.758444 C830.85293,526.650844 831.336428,519.325017 829.172377,511.496961 C824.390079,505.381123 819.291227,502.173101 812.515577,498.447837 C803.635106,496.481711 798.575612,495.552132 789.930084,498.447837 Z M640.747041,532.786624 C629.156869,532.786624 621.538537,538.69965 613.244728,546.353503 C600.351819,565.123455 597.499059,582.878193 599.493572,605.143312 L604.077291,605.143312 C604.68274,603.893939 605.280531,602.633743 605.879575,601.370309 L606.479368,600.106076 C610.585321,591.463615 614.888567,582.787989 622.233114,576.499179 C626.144055,574.035778 630.010733,571.504296 633.871462,568.964968 C636.020081,562.605494 636.020081,562.605494 636.163322,557.659236 C632.267161,556.890446 628.485593,556.144268 624.704025,555.398089 C631.059107,548.138184 636.925339,541.698686 640.747041,532.786624 Z M500.56028,587.05414 L500.56028,598.359873 C503.635345,599.128662 506.619966,599.874841 509.604588,600.621019 L509.604588,589.315287 C506.529523,588.546497 503.544902,587.800318 500.56028,587.05414 Z M524.662956,451.246813 C521.781676,452.048881 518.98514,452.827359 516.188604,453.605837 C460.294059,468.592554 410.498087,509.970031 369.721058,549.429034 C367.987483,551.118784 366.304896,552.758836 364.622308,554.398888 C358.175205,560.464239 351.807253,566.358248 346.52484,573.483126 C345.393748,581.461398 345.393748,581.461398 346.52484,587.05414 L351.049207,587.05414 C352.160858,585.8976 353.239814,584.775076 354.318769,583.652551 C360.961748,575.512292 367.643599,568.005185 375.650453,561.184395 C380.549974,557.037837 385.239311,552.869294 389.780263,548.32904 C419.756513,517.502594 454.848031,493.809811 493.716992,475.53504 C536.759527,456.377322 576.813049,459.845626 620.097718,476.047487 C679.962748,498.459165 750.635353,505.381011 811.249464,480.401631 C847.574853,465.252271 879.636448,460.331679 919.051677,464.420239 C920.523864,464.588463 921.952751,464.751739 923.381638,464.915015 L923.381638,453.605837 C890.184847,443.950074 859.021658,448.368026 827.189132,460.261023 C793.102748,473.089148 764.428556,480.767921 727.898274,481.247059 C724.995588,481.269589 722.178275,481.291456 719.360961,481.313324 C694.866145,481.512519 672.211813,479.813278 648.981428,471.688373 C645.700839,470.511956 642.409626,469.364926 639.110885,468.240399 C637.270652,467.620449 635.484543,467.018732 633.698434,466.417015 L630.482857,465.331731 C629.054101,464.849469 627.625817,464.367675 626.197814,463.887765 L624.055997,463.16949 L622.985203,462.811743 L620.843752,462.099694 L618.959334,461.477587 C617.420388,460.971462 615.881396,460.470303 614.342119,459.975884 L612.494836,459.385929 C583.859356,450.295273 555.092652,443.78122 524.662956,451.246813 Z M896.248716,552.678398 C894.835543,558.668423 894.835543,558.668423 893.98764,564.366251 C900.028074,565.258363 905.992084,566.291581 912.076254,566.703822 C912.84502,565.909048 913.591175,565.137649 914.337331,564.366251 C913.690552,560.449816 912.94041,556.549758 912.076254,552.678398 C905.670178,551.109841 902.278198,549.561666 896.248716,552.678398 Z M731.258629,541.83121 C729.767689,543.36879 728.3206,544.861146 726.873511,546.353503 C726.599441,552.289013 726.599441,552.289013 726.873511,557.659236 C730.984559,559.072452 730.984559,559.072452 735.643748,559.920382 C737.134688,558.382803 738.581777,556.890446 740.028866,555.398089 C740.302936,549.46258 740.302936,549.46258 740.028866,544.092357 C735.917818,542.67914 735.917818,542.67914 731.258629,541.83121 Z M688.347281,503.39172 C686.815902,504.929299 685.329563,506.421656 683.843224,507.914013 C683.403375,512.312649 683.403375,512.312649 683.561721,517.241242 C683.657432,520.220303 683.750328,523.111744 683.843224,526.003185 C680.815662,526.234053 680.815662,526.234053 676.506538,522.046178 C675.665609,521.383595 674.829444,520.711873 673.994505,520.037685 L672.992941,519.227901 C666.483657,513.962161 659.962888,508.708677 651.751819,506.633285 L651.044018,506.633939 C646.357892,506.635644 642.320572,506.642999 638.802655,510.175159 C638.3804,515.686704 638.3804,515.686704 638.802655,521.480892 C638.960692,521.639569 639.113184,521.792678 639.260648,521.940464 L639.68847,522.368096 C643.343449,526.008752 643.83021,526.082523 650.766556,527.133758 C658.758667,527.988811 658.758667,527.988811 664.982486,530.101513 C672.748322,534.000152 679.609124,537.779941 683.561721,545.858877 C685.110394,549.811025 686.725628,553.736708 688.347281,557.659236 C690.64435,558.428025 692.873858,559.174204 695.103367,559.920382 C697.400436,552.232484 699.629944,544.770701 701.859452,537.308917 L702.518083,537.308555 C706.375724,537.301856 706.601704,537.171219 711.008317,534.623806 C716.315744,529.638691 716.856402,526.345532 717.623651,519.219745 C715.326582,518.450955 713.097074,517.704777 710.867566,516.958599 C708.809775,518.448129 706.812507,519.89385 704.815239,521.33957 C703.044582,522.925199 701.326003,524.464192 699.607423,526.003185 L699.607423,505.652866 C694.258856,504.23965 694.258856,504.23965 688.347281,503.39172 Z M654.313501,541.83121 C653.544735,545.675159 652.79858,549.406051 652.052425,553.136943 C653.589957,552.880679 655.112415,552.626929 656.624824,552.374853 L661.136929,551.622812 C662.634264,551.373248 664.126574,551.124522 665.618885,550.875796 L665.618885,544.092357 C661.775055,543.323567 658.044278,542.577389 654.313501,541.83121 Z M862.897834,478.045709 C859.839181,483.116503 859.267442,486.419148 858.516998,492.244691 C858.160172,496.618688 858.160172,496.618688 857.810411,500.90607 C854.357544,493.100148 849.672184,487.004416 844.243951,480.459536 C839.631354,481.231961 835.154422,481.981667 830.67749,482.731373 C830.293107,484.758988 829.920029,486.726967 829.546951,488.694946 C830.67749,496.362396 830.67749,496.362396 834.228087,499.024705 C847.468183,506.814356 851.498565,514.674914 856.255921,528.878065 C858.114981,534.822598 860.068899,540.525885 862.332565,546.342813 C864.638863,547.115237 866.877329,547.864943 869.115795,548.61465 C873.637949,541.799138 873.637949,541.799138 875.245433,536.483394 C876.747375,530.580189 878.430072,524.835997 880.421179,519.080767 C888.890762,509.88146 888.890762,509.88146 900.77087,505.307755 C908.662246,502.491534 914.618774,499.428645 921.120561,494.090559 C920.57559,491.352737 920.290719,489.921603 920.020129,488.562213 L919.942993,488.174701 C919.878684,487.851624 919.813857,487.525946 919.745194,487.180999 L919.631558,486.610113 C919.435031,485.622803 919.198646,484.435251 918.859484,482.731373 C910.909047,482.162476 905.892551,482.467144 898.527458,485.71316 C896.311249,487.016626 894.160223,488.281756 892.009197,489.546885 C889.756953,490.850351 887.570951,492.115481 885.384949,493.38061 C883.697267,494.394417 882.059223,495.378407 880.421179,496.362396 C879.652413,490.182999 878.906258,484.185349 878.160102,478.187699 C872.170298,476.398472 868.56282,474.996453 862.897834,478.045709 Z M566.131507,476.257962 C563.828218,477.52481 562.215915,478.411604 560.756605,479.452539 L560.466623,479.662939 C557.19967,482.074359 554.534482,485.460694 546.205768,496.042994 C543.755326,499.31035 541.376956,502.481608 538.998586,505.652866 C538.422011,502.193312 537.851796,498.771915 537.285555,495.374366 L536.157666,488.606825 C535.595665,485.234713 535.036049,481.876911 534.476432,478.519108 C523.171048,476.257962 523.171048,476.257962 518.958026,478.704593 C516.387818,483.041401 516.387818,483.041401 516.714614,489.14473 C517.47733,492.556986 517.47733,492.556986 518.224943,495.901672 C518.720437,498.217051 519.201357,500.46433 519.682277,502.711609 C520.302263,505.338823 520.302263,505.338823 520.909971,507.914013 C516.455545,503.777632 512.318952,500.045964 507.343511,496.60828 C500.094267,494.43344 495.834195,493.791131 488.54831,495.76035 C483.561226,499.824026 483.561226,499.824026 482.471666,510.175159 C488.730561,510.60682 494.452188,511.143957 500.56028,512.436306 C509.915649,517.022412 514.834195,521.973557 520.203385,530.666799 C523.647606,536.833448 527.015725,541.543322 532.215355,546.353503 C538.668442,528.111256 544.515082,514.843689 561.468036,504.380971 C569.856327,499.478365 576.912204,493.958319 584.220121,487.563694 C584.067875,486.954692 583.935929,486.42689 583.818922,485.95885 L583.653948,485.29893 C583.395431,484.264832 583.21354,483.537246 583.024531,482.781185 L582.909601,482.321452 C582.675354,481.384433 582.406738,480.309936 581.959044,478.519108 C581.814901,478.485191 581.67364,478.451952 581.535135,478.419374 L580.73617,478.23168 C574.720829,476.821213 574.234641,476.789331 566.131507,476.257962 Z M748.713457,507.914013 C742.495496,508.054658 742.495496,508.054658 738.406126,510.384099 C728.216548,518.290391 724.420115,524.733928 722.145805,537.308917 L728.929035,537.308917 C734.079968,532.914821 738.318133,528.86642 744.906722,526.945104 C749.403241,526.008446 753.866243,524.915852 758.323033,523.806952 C759.091799,521.511617 759.837954,519.283793 760.58411,517.055969 C756.952584,512.68081 753.893936,510.34872 748.713457,507.914013 Z M102.610768,498.869427 C104.1483,501.944586 105.640611,504.929299 107.132921,507.914013 C117.442369,515.379705 128.558549,518.178836 141.049073,519.219745 L141.049073,501.130573 C127.980049,500.361783 115.295408,499.615605 102.610768,498.869427 Z M786.690097,282.940145 C784.734863,282.999034 782.837137,283.056192 780.93941,283.113349 C774.152598,283.219502 767.372238,283.353994 760.58675,283.539695 C758.743711,292.440299 756.903936,301.341564 755.070154,310.244101 C754.318272,313.896269 753.565938,317.548342 752.813164,321.200324 C751.704912,326.550625 750.59689,331.900944 749.495553,337.252688 C749.136842,338.99748 748.788682,340.690954 748.440522,342.384428 C746.064654,353.809272 744.02647,365.198904 742.495496,376.767516 L765.109563,376.767516 C765.878441,369.036428 766.624706,361.532726 767.37097,354.029023 C770.435068,354.173443 773.564606,354.373233 776.723397,354.543074 L778.183246,354.619024 C789.632937,355.192446 801.392231,355.202828 811.751077,350.618249 C821.078239,344.741341 826.966012,337.131739 830.690359,326.742832 C832.515309,315.148282 832.566046,305.502506 827.298248,294.908942 C814.86566,284.908146 802.143379,282.759467 786.690097,282.940145 Z M626.976188,282.941511 C624.790502,283.019862 622.669101,283.095909 620.547701,283.171955 C612.978691,283.313373 605.414206,283.472624 597.848491,283.739201 C595.092671,301.014623 591.957309,318.185346 588.626937,335.358571 C585.915525,349.139227 583.53425,362.807542 581.959044,376.767516 L602.388333,376.767516 C603.160106,369.052973 603.90918,361.565328 604.658254,354.077683 C617.646628,354.429103 630.275124,354.756976 643.10504,352.517757 C654.648571,347.572573 661.643726,341.716298 667.9323,330.820604 C671.413888,319.220107 673.143069,308.033091 668.216041,296.644043 C655.46879,285.892993 643.504925,282.710436 626.976188,282.941511 Z M706.139513,259.187898 L685.884457,259.187898 C684.786621,262.496893 684.224316,264.191744 683.766912,265.862797 L683.632407,266.364989 C683.213713,267.963075 682.85083,269.683212 682.174546,272.888922 C681.348783,277.15229 681.348783,277.15229 680.539372,281.331235 L678.745956,290.601052 C677.81724,295.443911 676.887281,300.286422 675.94594,305.126821 C672.775279,321.415141 669.586422,337.632699 667.879962,354.156051 L688.135018,354.156051 C691.258892,344.120554 693.387067,334.513858 694.631757,324.07662 C694.821328,322.370269 694.878199,321.858364 694.98631,320.885237 L695.036317,320.435117 C695.072461,320.109776 695.114934,319.727477 695.168024,319.249602 L696.310887,309.50724 C696.591856,307.00567 696.864561,304.577676 697.137266,302.149682 C705.554367,302.918471 713.723906,303.66465 721.893446,304.410828 C724.562121,314.714786 724.562121,314.714786 723.458289,321.21044 C720.914216,332.169892 718.840676,342.999782 717.392322,354.156051 L739.89794,354.156051 C744.085404,335.599479 753.308462,308.74655 744.399064,290.843949 C733.866435,283.201274 733.866435,283.201274 707.563697,283.822029 C705.549092,283.903113 703.593741,283.981811 701.638389,284.06051 C701.891577,283.551752 702.119447,283.093869 702.326499,282.66199 L702.448267,282.405784 C702.507939,282.279043 702.565818,282.154193 702.622025,282.030565 L702.732249,281.784738 L702.838232,281.540973 L702.940192,281.298076 L703.038343,281.054853 C703.07045,280.973592 703.101958,280.892078 703.132903,280.810111 L703.224087,280.562656 C703.921338,278.622652 704.331363,276.327477 704.912818,271.142663 L704.98967,270.449787 C705.210385,268.439028 705.457237,266.018557 705.753376,263.060446 L705.858333,262.010374 C705.947512,261.116939 706.041051,260.17715 706.139513,259.187898 Z M275.781611,310.063694 C283.782211,311.333255 283.782211,311.333255 289.354057,314.859814 C294.32812,322.521291 294.197326,327.214766 292.925753,336.160229 C289.354057,342.79016 289.354057,342.79016 283.782211,347.445217 C275.781611,348.855841 275.781611,348.855841 267.781012,347.445217 C261.076347,341.673992 258.955276,338.04297 257.494527,329.389236 C259.497701,317.522084 263.560267,312.003017 275.781611,310.063694 Z M803.425115,302.392718 C803.646677,302.612406 803.857342,302.82129 804.057798,303.020931 L804.445299,303.40835 C807.938717,306.917864 808.034061,307.569126 809.19726,315.514524 C808.639154,324.62026 805.581177,329.484632 798.920027,335.895202 C793.232905,338.71472 789.207045,338.348843 782.870648,338.268294 C780.820656,338.248141 778.770665,338.227987 776.658553,338.207222 C774.297868,338.168354 774.297868,338.168354 771.889494,338.128701 C772.591082,333.893978 773.295571,329.659729 774.001254,325.425675 C774.39325,323.067676 774.785245,320.709677 775.189119,318.280224 C776.240669,312.214538 777.395222,306.186891 778.647127,300.159219 C787.85117,299.695173 794.670601,299.499219 803.425115,302.392718 Z M642.888664,302.392718 C647.393753,306.859715 647.393753,306.859715 648.660809,315.514524 C648.102703,324.62026 645.044726,329.484632 638.383575,335.895202 C632.696454,338.71472 628.670593,338.348843 622.334197,338.268294 C620.284205,338.248141 618.234214,338.227987 616.122101,338.207222 C613.761417,338.168354 613.761417,338.168354 611.353043,338.128701 C611.610815,333.474222 611.898058,328.821342 612.197747,324.169332 C612.354545,321.578124 612.511343,318.986917 612.672893,316.317188 C613.521078,309.747756 614.680979,305.744105 618.110676,300.159219 C627.314719,299.695173 634.13415,299.499219 642.888664,302.392718 Z" id="Combined-Shape" fill="#000000" fill-rule="nonzero"></path>
        <g id="php-Uzbekistan" transform="translate(1188.796, 284.668)" fill="#000000" fill-rule="nonzero">
            <path d="M91.008,90.534 L218.04,90.534 C236.368,90.85 252.089,93.694 265.203,99.066 C278.317,104.438 288.666,112.338 296.25,122.766 C303.834,133.51 308.574,146.071 310.47,160.449 C312.366,174.827 311.26,191.18 307.152,209.508 C305.572,218.04 303.281,226.335 300.279,234.393 C297.277,242.451 293.722,250.588 289.614,258.804 C285.19,266.704 280.213,274.367 274.683,281.793 C269.153,289.219 262.912,296.092 255.96,302.412 C247.428,310.628 238.738,317.343 229.89,322.557 C221.042,327.771 212.036,331.484 202.872,333.696 C194.024,335.908 184.86,337.567 175.38,338.673 C165.9,339.779 156.42,340.332 146.94,340.332 L90.06,340.332 L65.886,430.392 L0,430.392 L91.008,90.534 L91.008,90.534 Z M142.2,144.57 L104.28,286.77 C104.912,286.77 105.465,286.849 105.939,287.007 C106.413,287.165 106.966,287.244 107.598,287.244 C107.914,287.244 108.388,287.244 109.02,287.244 C109.652,287.244 110.126,287.244 110.442,287.244 C111.39,287.244 112.417,287.244 113.523,287.244 C114.629,287.244 115.814,287.244 117.078,287.244 C131.93,287.56 145.755,286.928 158.553,285.348 C171.351,283.768 182.964,281.398 193.392,278.238 C203.504,274.762 212.352,267.336 219.936,255.96 C227.52,244.584 233.84,228.942 238.896,209.034 C242.688,192.286 243.478,179.172 241.266,169.692 C239.054,160.212 233.84,154.208 225.624,151.68 C217.408,149.152 208.007,147.335 197.421,146.229 C186.835,145.123 175.222,144.57 162.582,144.57 C160.686,144.886 158.869,145.044 157.131,145.044 C155.393,145.044 153.734,145.044 152.154,145.044 C150.574,145.044 148.915,145.044 147.177,145.044 C145.439,145.044 143.78,145.044 142.2,145.044 L142.2,144.57 Z" id="Shape"></path>
            <path d="M404.322,0 L469.734,0 L445.56,90.534 L504.336,90.534 C520.136,90.85 533.882,92.667 545.574,95.985 C557.266,99.303 566.904,104.122 574.488,110.442 C582.072,116.762 586.654,125.926 588.234,137.934 C589.814,149.942 588.392,164.794 583.968,182.49 L541.782,340.332 L475.422,340.332 L515.712,189.6 C517.924,181.7 518.951,174.906 518.793,169.218 C518.635,163.53 517.45,159.106 515.238,155.946 C512.71,152.47 508.76,149.942 503.388,148.362 C498.016,146.782 491.222,145.992 483.006,145.992 L430.866,145.518 L378.726,340.332 L313.314,340.332 L404.322,0 L404.322,0 Z" id="Path"></path>
            <path d="M665.97,90.534 L793.002,90.534 C811.33,90.85 827.051,93.694 840.165,99.066 C853.279,104.438 863.628,112.338 871.212,122.766 C878.796,133.51 883.536,146.071 885.432,160.449 C887.328,174.827 886.222,191.18 882.114,209.508 C880.534,218.04 878.243,226.335 875.241,234.393 C872.239,242.451 868.684,250.588 864.576,258.804 C860.152,266.704 855.175,274.367 849.645,281.793 C844.115,289.219 837.874,296.092 830.922,302.412 C822.39,310.628 813.7,317.343 804.852,322.557 C796.004,327.771 786.998,331.484 777.834,333.696 C768.986,335.908 759.822,337.567 750.342,338.673 C740.862,339.779 731.382,340.332 721.902,340.332 L665.022,340.332 L640.848,430.392 L574.962,430.392 L665.97,90.534 L665.97,90.534 Z M717.162,144.57 L679.242,286.77 C679.874,286.77 680.427,286.849 680.901,287.007 C681.375,287.165 681.928,287.244 682.56,287.244 C682.876,287.244 683.35,287.244 683.982,287.244 C684.614,287.244 685.088,287.244 685.404,287.244 C686.352,287.244 687.379,287.244 688.485,287.244 C689.591,287.244 690.776,287.244 692.04,287.244 C706.892,287.56 720.717,286.928 733.515,285.348 C746.313,283.768 757.926,281.398 768.354,278.238 C778.466,274.762 787.314,267.336 794.898,255.96 C802.482,244.584 808.802,228.942 813.858,209.034 C817.65,192.286 818.44,179.172 816.228,169.692 C814.016,160.212 808.802,154.208 800.586,151.68 C792.37,149.152 782.969,147.335 772.383,146.229 C761.797,145.123 750.184,144.57 737.544,144.57 C735.648,144.886 733.831,145.044 732.093,145.044 C730.355,145.044 728.696,145.044 727.116,145.044 C725.536,145.044 723.877,145.044 722.139,145.044 C720.401,145.044 718.742,145.044 717.162,145.044 L717.162,144.57 Z" id="Shape"></path>
            <path d="M1239.51,0 L1185,203.82 C1180.892,218.356 1178.68,230.917 1178.364,241.503 C1178.048,252.089 1179.47,261.016 1182.63,268.284 C1185.79,275.236 1192.031,280.529 1201.353,284.163 C1210.675,287.797 1223.078,289.614 1238.562,289.614 C1254.046,289.614 1267.318,287.797 1278.378,284.163 C1289.438,280.529 1298.444,275.236 1305.396,268.284 C1312.348,261.016 1318.51,252.089 1323.882,241.503 C1329.254,230.917 1333.836,218.514 1337.628,204.294 L1392.612,0 L1464.186,0 L1409.202,205.716 C1408.57,207.928 1408.017,210.061 1407.543,212.115 C1407.069,214.169 1406.516,216.144 1405.884,218.04 C1405.252,220.252 1404.62,222.306 1403.988,224.202 C1403.356,226.098 1402.724,227.994 1402.092,229.89 C1400.196,235.894 1398.063,241.898 1395.693,247.902 C1393.323,253.906 1390.716,259.752 1387.872,265.44 C1384.712,271.128 1381.236,276.658 1377.444,282.03 C1373.652,287.402 1369.386,292.616 1364.646,297.672 C1357.694,304.624 1350.268,310.628 1342.368,315.684 C1334.468,320.74 1325.936,325.006 1316.772,328.482 C1310.768,330.694 1304.843,332.669 1298.997,334.407 C1293.151,336.145 1287.384,337.488 1281.696,338.436 C1278.852,339.068 1275.929,339.542 1272.927,339.858 C1269.925,340.174 1267.002,340.49 1264.158,340.806 C1260.682,341.438 1257.285,341.833 1253.967,341.991 C1250.649,342.149 1247.252,342.386 1243.776,342.702 C1242.196,342.702 1240.537,342.702 1238.799,342.702 C1237.061,342.702 1235.402,342.86 1233.822,343.176 C1232.242,343.176 1230.662,343.176 1229.082,343.176 C1227.502,343.176 1225.922,343.176 1224.342,343.176 C1222.762,343.176 1221.182,343.176 1219.602,343.176 C1218.022,343.176 1216.442,343.176 1214.862,343.176 C1213.282,342.86 1211.702,342.702 1210.122,342.702 C1208.542,342.702 1206.962,342.702 1205.382,342.702 C1202.222,342.386 1199.062,342.149 1195.902,341.991 C1192.742,341.833 1189.582,341.438 1186.422,340.806 C1177.89,340.49 1169.753,339.226 1162.011,337.014 C1154.269,334.802 1146.764,332.116 1139.496,328.956 C1132.544,325.48 1126.461,321.135 1121.247,315.921 C1116.033,310.707 1111.688,304.624 1108.212,297.672 C1105.684,292.616 1103.946,287.402 1102.998,282.03 C1102.05,276.658 1101.734,271.128 1102.05,265.44 C1102.05,259.752 1102.524,253.906 1103.472,247.902 C1104.42,241.898 1105.684,235.894 1107.264,229.89 C1107.58,227.994 1107.975,226.098 1108.449,224.202 C1108.923,222.306 1109.476,220.252 1110.108,218.04 C1110.424,217.092 1110.661,216.144 1110.819,215.196 C1110.977,214.248 1111.214,213.142 1111.53,211.878 C1111.846,210.93 1112.083,209.982 1112.241,209.034 C1112.399,208.086 1112.636,207.138 1112.952,206.19 L1168.41,0 L1239.51,0 L1239.51,0 Z" id="Path"></path>
            <polygon id="Path" points="1442.856 286.77 1628.664 144.57 1480.776 144.57 1495.47 90.534 1729.626 90.534 1714.932 144.57 1529.124 286.77 1677.012 286.77 1662.792 340.332 1428.636 340.332"></polygon>
            <path d="M1871.352,144.57 L1831.062,144.57 L1793.142,286.77 C1794.722,287.086 1796.223,287.323 1797.645,287.481 C1799.067,287.639 1800.568,287.718 1802.148,287.718 C1803.728,287.718 1805.387,287.718 1807.125,287.718 C1808.863,287.718 1810.522,287.718 1812.102,287.718 C1823.162,288.034 1833.906,287.797 1844.334,287.007 C1854.762,286.217 1864.874,284.716 1874.67,282.504 C1884.782,280.608 1893.63,275.552 1901.214,267.336 C1908.798,259.12 1915.118,247.902 1920.174,233.682 C1920.49,232.734 1920.806,231.786 1921.122,230.838 C1921.438,229.89 1921.754,228.942 1922.07,227.994 C1922.07,227.046 1922.228,226.098 1922.544,225.15 C1922.86,224.202 1923.176,223.254 1923.492,222.306 C1923.808,221.358 1924.124,220.41 1924.44,219.462 C1924.756,218.514 1925.072,217.408 1925.388,216.144 C1925.704,215.196 1926.02,214.248 1926.336,213.3 C1926.652,212.352 1926.968,211.404 1927.284,210.456 C1927.6,208.876 1927.916,207.217 1928.232,205.479 C1928.548,203.741 1928.864,201.924 1929.18,200.028 C1929.18,198.448 1929.259,196.789 1929.417,195.051 C1929.575,193.313 1929.654,191.654 1929.654,190.074 C1929.654,186.598 1929.496,183.359 1929.18,180.357 C1928.864,177.355 1928.232,174.432 1927.284,171.588 C1925.388,165.268 1922.702,160.212 1919.226,156.42 C1915.75,152.628 1911.484,150.1 1906.428,148.836 C1901.372,147.572 1895.921,146.624 1890.075,145.992 C1884.229,145.36 1877.988,145.044 1871.352,145.044 L1871.352,144.57 Z M1869.93,0 L1845.756,90.534 L1902.636,90.534 C1911.8,90.85 1920.806,91.561 1929.654,92.667 C1938.502,93.773 1946.876,95.59 1954.776,98.118 C1962.992,100.33 1970.102,104.043 1976.106,109.257 C1982.11,114.471 1987.166,121.186 1991.274,129.402 C1994.75,136.038 1997.278,142.99 1998.858,150.258 C2000.438,157.526 2001.228,165.268 2001.228,173.484 C2000.912,181.384 2000.122,189.442 1998.858,197.658 C1997.594,205.874 1995.54,214.09 1992.696,222.306 C1986.692,240.634 1978.95,257.066 1969.47,271.602 C1959.99,286.138 1948.614,298.62 1935.342,309.048 C1922.07,319.476 1907.534,327.297 1891.734,332.511 C1875.934,337.725 1858.712,340.332 1840.068,340.332 L1713.036,340.332 L1804.044,0 L1869.93,0 L1869.93,0 Z" id="Shape"></path>
            <path d="M2113.566,340.332 C2104.718,340.332 2096.107,339.858 2087.733,338.91 C2079.359,337.962 2071.222,336.382 2063.322,334.17 C2055.422,331.958 2048.47,328.64 2042.466,324.216 C2036.462,319.792 2031.248,314.104 2026.824,307.152 C2023.032,301.78 2020.267,295.855 2018.529,289.377 C2016.791,282.899 2015.606,276.184 2014.974,269.232 C2014.658,261.964 2014.816,254.775 2015.448,247.665 C2016.08,240.555 2017.028,233.208 2018.292,225.624 C2018.608,224.992 2018.845,224.281 2019.003,223.491 C2019.161,222.701 2019.398,221.832 2019.714,220.884 C2020.03,220.252 2020.267,219.541 2020.425,218.751 C2020.583,217.961 2020.82,217.092 2021.136,216.144 C2021.136,215.512 2021.215,214.959 2021.373,214.485 C2021.531,214.011 2021.768,213.458 2022.084,212.826 C2022.084,212.51 2022.163,212.036 2022.321,211.404 C2022.479,210.772 2022.558,210.298 2022.558,209.982 C2022.874,209.034 2023.269,208.007 2023.743,206.901 C2024.217,205.795 2024.612,204.61 2024.928,203.346 C2027.456,196.078 2030.3,189.047 2033.46,182.253 C2036.62,175.459 2040.254,168.586 2044.362,161.634 C2048.47,154.682 2053.131,148.125 2058.345,141.963 C2063.559,135.801 2069.326,130.034 2075.646,124.662 C2083.862,117.71 2092.236,112.022 2100.768,107.598 C2109.3,103.174 2117.99,99.856 2126.838,97.644 C2135.686,95.432 2144.534,93.773 2153.382,92.667 C2162.23,91.561 2171.078,91.008 2179.926,91.008 L2276.622,90.534 L2262.402,142.674 L2175.186,142.674 C2166.022,142.99 2157.569,143.859 2149.827,145.281 C2142.085,146.703 2135.054,148.678 2128.734,151.206 C2122.414,153.734 2116.963,158.237 2112.381,164.715 C2107.799,171.193 2103.928,179.646 2100.768,190.074 L2250.078,189.6 L2235.858,241.74 L2087.022,241.74 C2084.494,252.484 2083.704,261.174 2084.652,267.81 C2085.6,274.446 2088.444,279.028 2093.184,281.556 C2097.608,283.768 2103.375,285.506 2110.485,286.77 C2117.595,288.034 2126.048,288.666 2135.844,288.666 L2223.534,288.192 L2209.788,340.332 L2113.566,340.332 L2113.566,340.332 Z" id="Path"></path>
            <polygon id="Path" points="2344.878 0 2410.764 0 2354.358 210.456 2492.766 90.534 2576.19 90.534 2427.828 212.826 2509.356 340.332 2420.718 340.332 2351.988 218.988 2319.756 340.332 2253.87 340.332"></polygon>
            <path d="M2606.526,340.332 L2537.322,340.332 L2604.156,90.534 L2673.36,90.534 L2606.526,340.332 L2606.526,340.332 Z M2680.944,62.094 L2611.74,62.094 L2628.33,0 L2697.534,0 L2680.944,62.094 L2680.944,62.094 Z" id="Shape"></path>
            <path d="M2673.36,288.192 L2812.242,288.192 C2812.558,288.508 2812.874,288.666 2813.19,288.666 C2813.506,288.666 2813.822,288.666 2814.138,288.666 C2814.454,288.666 2814.77,288.666 2815.086,288.666 C2815.402,288.666 2815.718,288.666 2816.034,288.666 C2817.93,288.666 2819.826,288.587 2821.722,288.429 C2823.618,288.271 2825.672,287.876 2827.884,287.244 C2829.78,286.928 2831.676,286.454 2833.572,285.822 C2835.468,285.19 2837.364,284.4 2839.26,283.452 C2842.736,281.872 2845.817,279.502 2848.503,276.342 C2851.189,273.182 2853.164,269.074 2854.428,264.018 C2855.692,259.594 2855.85,255.802 2854.902,252.642 C2853.954,249.482 2852.216,247.112 2849.688,245.532 C2846.844,243.952 2843.842,242.688 2840.682,241.74 C2837.522,240.792 2834.204,240.16 2830.728,239.844 C2830.412,239.844 2830.017,239.844 2829.543,239.844 C2829.069,239.844 2828.516,239.844 2827.884,239.844 C2827.568,239.844 2827.173,239.844 2826.699,239.844 C2826.225,239.844 2825.672,239.844 2825.04,239.844 L2768.634,239.37 C2755.046,239.686 2743.196,238.896 2733.084,237 C2722.972,235.104 2714.756,232.26 2708.436,228.468 C2701.8,224.676 2697.771,217.961 2696.349,208.323 C2694.927,198.685 2696.27,186.124 2700.378,170.64 C2704.17,156.104 2709.384,143.701 2716.02,133.431 C2722.656,123.161 2730.872,115.024 2740.668,109.02 C2750.464,103.016 2761.05,98.513 2772.426,95.511 C2783.802,92.509 2796.284,91.008 2809.872,91.008 L2952.072,90.534 L2937.852,142.674 L2821.248,142.674 C2820.932,142.99 2820.537,143.148 2820.063,143.148 C2819.589,143.148 2819.036,143.148 2818.404,143.148 C2818.088,143.148 2817.851,143.148 2817.693,143.148 C2817.535,143.148 2817.456,143.148 2817.456,143.148 C2817.14,143.148 2816.903,143.148 2816.745,143.148 C2816.587,143.148 2816.35,143.148 2816.034,143.148 C2814.77,143.148 2813.585,143.148 2812.479,143.148 C2811.373,143.148 2810.346,143.148 2809.398,143.148 C2808.45,143.148 2807.423,143.148 2806.317,143.148 C2805.211,143.148 2804.026,143.148 2802.762,143.148 C2801.498,143.148 2800.076,143.306 2798.496,143.622 C2796.916,143.938 2795.494,144.254 2794.23,144.57 C2792.65,144.886 2791.149,145.202 2789.727,145.518 C2788.305,145.834 2786.804,146.308 2785.224,146.94 C2782.064,148.204 2779.457,149.863 2777.403,151.917 C2775.349,153.971 2773.532,156.42 2771.952,159.264 C2768.792,164.952 2767.291,169.692 2767.449,173.484 C2767.607,177.276 2769.266,180.12 2772.426,182.016 C2775.27,184.228 2778.588,185.808 2782.38,186.756 C2786.172,187.704 2790.438,188.178 2795.178,188.178 L2854.902,187.704 C2866.594,188.02 2876.864,189.521 2885.712,192.207 C2894.56,194.893 2902.302,198.922 2908.938,204.294 C2915.574,209.35 2919.761,216.46 2921.499,225.624 C2923.237,234.788 2922.684,245.848 2919.84,258.804 C2919.524,259.12 2919.366,259.357 2919.366,259.515 C2919.366,259.673 2919.366,259.752 2919.366,259.752 C2919.366,259.752 2919.366,259.752 2919.366,259.752 C2919.366,259.752 2919.366,259.752 2919.366,259.752 C2919.366,260.068 2919.366,260.226 2919.366,260.226 C2919.366,260.226 2919.366,260.226 2919.366,260.226 C2916.522,270.338 2912.414,280.055 2907.042,289.377 C2901.67,298.699 2894.876,307.468 2886.66,315.684 C2878.76,323.9 2870.07,330.062 2860.59,334.17 C2851.11,338.278 2840.84,340.332 2829.78,340.332 L2659.614,340.332 L2673.36,288.192 L2673.36,288.192 Z" id="Path"></path>
            <path d="M2987.148,90.534 L3033.6,90.534 L3057.774,0 L3123.66,0 L3099.486,90.534 L3169.164,90.534 L3155.892,140.304 L3086.214,140.304 L3059.196,241.266 C3055.404,253.906 3053.982,263.86 3054.93,271.128 C3055.878,278.396 3059.038,282.978 3064.41,284.874 C3069.466,287.086 3075.865,288.666 3083.607,289.614 C3091.349,290.562 3100.434,291.036 3110.862,291.036 C3111.178,291.036 3111.494,291.036 3111.81,291.036 C3112.126,291.036 3112.442,291.036 3112.758,291.036 C3113.074,291.036 3113.311,291.036 3113.469,291.036 C3113.627,291.036 3113.864,291.036 3114.18,291.036 C3114.18,291.036 3114.259,291.036 3114.417,291.036 C3114.575,291.036 3114.812,291.036 3115.128,291.036 L3102.33,340.332 L3042.132,340.332 C3029.492,340.332 3018.906,338.594 3010.374,335.118 C3001.842,331.642 2995.364,326.428 2990.94,319.476 C2986.516,312.524 2983.988,304.308 2983.356,294.828 C2982.724,285.348 2983.988,274.604 2987.148,262.596 L3020.328,140.304 L2973.876,140.304 L2987.148,90.534 L2987.148,90.534 Z" id="Path"></path>
            <path d="M3213.246,90.534 L3348.336,90.534 C3355.288,90.85 3362.161,91.403 3368.955,92.193 C3375.749,92.983 3382.306,94.168 3388.626,95.748 C3394.946,97.012 3400.634,99.382 3405.69,102.858 C3410.746,106.334 3415.328,110.758 3419.436,116.13 C3422.912,120.554 3425.519,125.373 3427.257,130.587 C3428.995,135.801 3430.022,141.41 3430.338,147.414 C3430.654,153.418 3430.417,159.501 3429.627,165.663 C3428.837,171.825 3427.652,178.066 3426.072,184.386 L3384.36,340.332 L3207.084,340.332 C3194.444,340.332 3183.542,338.594 3174.378,335.118 C3165.214,331.642 3158.262,326.428 3153.522,319.476 C3148.466,312.208 3145.78,303.755 3145.464,294.117 C3145.148,284.479 3147.044,273.34 3151.152,260.7 C3155.892,245.848 3162.212,233.524 3170.112,223.728 C3178.012,213.932 3187.334,206.822 3198.078,202.398 C3208.822,197.974 3220.119,194.656 3231.969,192.444 C3243.819,190.232 3256.38,189.126 3269.652,189.126 L3356.394,188.652 C3359.87,178.54 3361.055,170.245 3359.949,163.767 C3358.843,157.289 3355.762,152.786 3350.706,150.258 C3345.65,147.73 3339.646,145.834 3332.694,144.57 C3325.742,143.306 3317.842,142.674 3308.994,142.674 L3199.5,142.2 L3213.246,90.534 L3213.246,90.534 Z M3247.374,290.088 L3329.85,290.088 L3343.596,238.422 L3265.86,238.422 C3265.544,238.738 3265.228,238.896 3264.912,238.896 C3264.596,238.896 3264.28,238.896 3263.964,238.896 C3263.648,238.896 3263.332,238.896 3263.016,238.896 C3262.7,238.896 3262.384,238.896 3262.068,238.896 C3257.644,239.212 3253.299,239.765 3249.033,240.555 C3244.767,241.345 3240.422,242.53 3235.998,244.11 C3231.89,245.374 3228.335,247.823 3225.333,251.457 C3222.331,255.091 3220.04,259.594 3218.46,264.966 C3216.248,270.97 3215.537,275.868 3216.327,279.66 C3217.117,283.452 3219.25,285.822 3222.726,286.77 C3226.202,288.034 3229.994,288.982 3234.102,289.614 C3238.21,290.246 3242.634,290.562 3247.374,290.562 L3247.374,290.088 Z" id="Shape"></path>
            <path d="M3509.022,90.534 L3633.21,90.534 C3649.326,90.85 3663.388,92.588 3675.396,95.748 C3687.404,98.908 3697.2,103.648 3704.784,109.968 C3712.052,116.288 3716.397,125.531 3717.819,137.697 C3719.241,149.863 3717.582,164.794 3712.842,182.49 L3670.656,340.332 L3604.77,340.332 L3644.586,190.074 C3647.114,181.542 3648.457,174.353 3648.615,168.507 C3648.773,162.661 3647.746,158.158 3645.534,154.998 C3643.322,152.154 3639.53,149.942 3634.158,148.362 C3628.786,146.782 3621.676,145.992 3612.828,145.992 L3560.214,145.518 L3508.074,340.332 L3442.188,340.332 L3509.022,90.534 L3509.022,90.534 Z" id="Path"></path>
        </g>
    </g>
</svg>