<?xml version="1.0" encoding="UTF-8"?>
<svg width="1000px" height="1000px" viewBox="0 0 1000 1000" version="1.1" xmlns="http://www.w3.org/2000/svg" xmlns:xlink="http://www.w3.org/1999/xlink">
    <title>Artboard</title>
    <g id="Artboard" stroke="none" stroke-width="1" fill="none" fill-rule="evenodd">
        <path d="M449.571522,145 C469.746101,145.297419 487.403933,150.564952 502.250588,164.737175 C503.908453,166.28132 505.566319,167.825465 507.274422,169.416402 C511.150455,173.495274 511.150455,173.495274 513.410739,178.015584 C527.558043,176.26714 541.323478,173.220023 555.225986,170.105043 C559.768866,169.08717 564.312955,168.074674 568.858322,167.06796 C570.852713,166.62074 572.847104,166.173521 574.901932,165.71275 C614.655189,157.795886 661.840511,158.366008 701.01428,168.974965 L710.196683,171.226291 C771.101615,186.935531 828.847038,222.091275 863.754702,275.202232 C872.586871,290.309312 879.732547,306.264262 886.498806,322.382959 C889.619217,329.65896 893.499231,335.527878 898.224027,341.876792 C926.63092,381.117695 934.292449,423.580137 934.044225,471.094069 C934.043764,471.43584 934.043347,471.744749 934.042966,472.027179 L934.042249,472.558625 C934.042136,472.641945 934.042027,472.722796 934.041921,472.801415 L934.041205,473.332152 C934.041092,473.415268 934.040984,473.495985 934.040877,473.574712 L934.040268,474.026469 C934.04017,474.098872 934.040074,474.170102 934.039979,474.240569 L934.039136,474.86517 L934.038994,474.969907 L934.038259,475.514702 C934.038156,475.590708 934.038051,475.668402 934.037944,475.748191 L934.037259,476.255348 C934.037138,476.345155 934.037013,476.437875 934.036883,476.533917 L934.036047,477.153293 C934.035598,477.486178 934.035099,477.856311 934.034534,478.274723 C934.02203,485.734103 933.993689,493.193321 933.964762,500.652653 C933.953407,505.755657 933.943097,510.858662 933.93386,515.961669 C933.909136,528.374916 933.871461,540.78807 933.823494,553.201248 C935.944538,554.204214 935.944538,554.204214 938.108432,555.227441 C943.455757,558.03154 946.246499,560.993921 950.069283,565.632098 C951.220174,567.007261 952.371064,568.382424 953.55683,569.799258 C958.389913,576.104213 958.975204,581.309183 958.999191,588.143706 L958.999488,589.025261 C958.995848,590.509974 958.973899,592.073714 958.96915,593.742771 C958.974977,596.560107 958.980804,599.377443 958.986808,602.280152 C958.686614,609.705113 958.686614,609.705113 956.426331,616.485577 C941.867855,612.422978 933.208547,606.693727 925.347431,593.742771 C918.788563,579.375572 918.216912,564.09748 918.092433,548.65214 L918.080361,546.966566 C918.078555,546.685539 918.076832,546.404465 918.075156,546.123349 L918.065061,544.375915 C918.051636,542.045391 918.036766,539.712627 918.001509,537.380166 C917.788357,524.90708 917.53785,512.435101 917.265096,499.963185 C917.156996,494.453626 917.088295,488.94464 917.023671,483.434425 C916.730816,465.433892 915.669711,447.824521 912.827579,430.031651 C912.465,427.681547 912.465,427.681547 912.095097,425.283967 C910.410122,415.707461 907.67292,406.888878 904.295022,397.766751 C903.476795,395.547907 902.658568,393.329063 901.815546,391.042982 C901.388877,389.897017 901.156149,389.271946 900.93927,388.689445 L900.809621,388.341227 C900.591959,387.756621 900.354528,387.118922 899.91924,385.949807 C899.865865,425.506131 899.826305,465.062444 899.80213,504.618796 C899.790594,522.995495 899.774878,541.37217 899.748725,559.748854 C899.666772,586.002923 899.604874,605.832468 899.594904,622.381151 L899.594122,623.923074 L899.593975,624.305618 L899.593926,629.34632 C899.598599,642.254076 899.641638,653.242779 899.740865,664.07025 L899.762994,666.388595 C899.770662,667.160981 899.778622,667.933185 899.786882,668.705848 L899.812569,671.025853 C900.105151,696.575131 900.731141,723.321441 901.923959,774.286208 C902.327024,785.626978 902.545718,796.970272 902.744595,808.316199 C902.793592,810.04403 902.842589,811.77186 902.893071,813.552049 C902.955444,824.149828 900.971208,831.23447 895.398673,840.240883 C880.4901,854.745693 864.367101,854.456675 844.727705,854.322705 C842.254508,854.32167 839.781311,854.320634 837.233169,854.319567 C832.022115,854.312756 826.811065,854.294994 821.600081,854.266974 C813.609276,854.225613 805.619063,854.22062 797.628162,854.221175 C792.561648,854.210069 787.495139,854.196897 782.428637,854.181446 C780.034132,854.178931 777.639626,854.176415 775.17256,854.173824 C772.954216,854.159405 770.735872,854.144985 768.450306,854.130129 C766.498584,854.121514 764.546861,854.112898 762.535996,854.104022 C757.521371,853.80181 757.521371,853.80181 750.74052,851.541656 C746.727765,851.309202 742.707822,851.191661 738.688617,851.144363 C736.324193,851.090464 733.959768,851.036564 731.523695,850.981032 C726.562103,850.88444 721.599941,850.813525 716.637608,850.769142 C702.538742,850.397002 693.630047,849.769681 682.932011,840.240883 C676.536099,831.810389 678.411444,827.175932 678.411444,815.379182 C681.395018,804.937268 684.378593,794.495354 687.452579,783.737018 C602.420708,782.991167 517.388838,782.245316 429.780244,781.476863 L429.780244,806.338564 C428.735553,821.25158 426.09526,832.455305 416.050787,843.772374 C402.856228,853.620895 390.300757,854.756709 374.637478,854.783502 L373.360598,854.783394 C373.146625,854.783022 372.932066,854.782484 372.716912,854.781799 C369.428389,854.79957 369.428389,854.79957 366.073432,854.817701 C361.455408,854.832162 356.837301,854.829253 352.219296,854.809941 C345.189889,854.790707 338.164637,854.855781 331.135639,854.927473 C326.63126,854.931118 322.126874,854.92981 317.622498,854.923059 C315.540618,854.94845 313.458738,854.97384 311.31377,855 C297.920349,854.856864 287.110333,852.754682 276.080957,844.761192 C266.657993,831.006616 269.17817,816.981539 270.712784,800.970697 C270.996864,797.422077 270.996864,797.422077 271.286684,793.801769 C272.340068,781.421608 273.644725,769.100261 275.243284,756.780149 C281.195795,710.555325 284.647531,664.151457 288.269851,617.697872 C289.493108,602.042878 290.73484,586.389336 291.974336,570.735621 C292.630571,562.447389 293.281911,554.158798 293.929045,545.869851 C295.33333,527.950543 296.781818,510.052102 298.683794,492.177074 C296.961828,492.914184 295.239863,493.651295 293.465717,494.410742 C250.605015,512.549255 250.605015,512.549255 233.135568,510.258311 C227.772516,506.965196 224.074456,503.45787 219.573867,498.957537 C199.252235,536.094951 194.545272,587.082406 204.740755,628.210129 C206.357545,633.669411 207.990792,638.523842 210.532732,643.607432 C218.783755,642.717993 218.783755,642.717993 224.94204,637.674526 C228.486125,634.675856 228.610479,634.57064 235.46815,634.566948 L236.243458,634.566814 C245.793445,637.201143 249.484468,640.586659 255.738405,648.127741 C261.016094,658.682517 259.593471,673.967535 256.533036,685.102458 C250.031185,699.439055 239.234779,707.824504 225.930914,715.64986 C205.145538,721.7829 186.58223,719.162611 167.587343,709.151916 C165.467665,708.04188 165.467665,708.04188 163.305165,706.909419 C131.509364,687.244515 120.631965,644.854367 112.328485,610.782218 C110.161549,601.06509 108.495574,591.291353 106.983488,581.453181 C106.703414,579.645366 106.42334,577.837551 106.134778,575.974954 C104.318366,563.060173 104.005897,550.410345 104.299401,537.380166 C101.5023,537.286934 98.7051994,537.193703 95.8233378,537.097646 C78.1882722,535.091877 60.7037564,526.786326 48.4986492,513.789802 C42.7940076,506.161545 40.8294173,499.564614 41.0114597,489.916919 C43.7220342,484.972831 43.7220342,484.972831 47.7923106,480.876301 C60.7187381,478.421771 75.1703758,481.026196 88.212539,482.050522 C90.8147899,482.253919 93.4170407,482.457316 96.0981477,482.666877 C98.0586678,482.821838 100.019188,482.976799 102.039118,483.136455 C102.003608,481.286213 101.968098,479.435971 101.931512,477.529661 C100.505291,391.461873 107.334114,290.966217 167.587343,223.218676 C168.898484,221.697839 170.209625,220.177002 171.560498,218.610079 C194.44017,193.817205 230.379992,174.892332 264.489278,173.166956 C272.214714,173.11103 279.939257,173.075658 287.664911,173.071495 C290.31633,173.043817 292.967748,173.016139 295.699513,172.987622 C308.398859,172.966458 319.944401,173.455952 332.332001,176.355783 C342.796987,178.493186 348.157757,177.486309 357.089722,171.751049 C358.467694,170.788325 359.845667,169.825602 361.265397,168.833706 C387.983328,152.311927 411.491316,145.468809 443.059411,145.102082 C445.208407,145.068395 447.357404,145.034708 449.571522,145 Z M414.077668,781.512739 L290.021317,781.512739 C287.765747,785.989657 287.765747,785.989657 287.473889,790.125559 C287.471268,791.811223 287.468724,793.447309 287.466179,795.083396 C287.463184,796.920681 287.460276,798.703928 287.457369,800.487175 C287.463436,801.783788 287.466746,802.491031 287.46978,803.139391 L287.471587,803.525585 C287.47461,804.17161 287.477854,804.864849 287.483801,806.135786 C287.474814,808.056314 287.466091,809.920355 287.457369,811.784397 C287.460364,813.621682 287.463272,815.404929 287.466179,817.188177 C287.47495,822.828348 287.460421,825.675896 290.021317,830.758833 C295.801216,832.15787 295.801216,832.15787 301.299167,832.997292 C303.14967,825.039282 304.905896,818.624541 309.616582,811.871837 C317.043429,806.891766 321.851379,807.130864 330.621578,808.374245 C336.483294,812.147595 338.9773,815.137914 341.002376,821.791882 L344.154998,835.235751 C349.243265,835.375126 354.330091,835.485137 359.419744,835.56365 C361.563152,835.594866 363.643519,835.625164 365.723886,835.655462 C380.592821,836.069781 391.891044,835.853006 405.055388,828.520374 C411.370984,819.118847 411.370984,819.118847 414.077668,781.512739 Z M884.381638,781.512739 L760.523213,781.512739 C756.01927,794.971589 756.01927,794.971589 755.500261,803.488518 C755.533161,806.50344 755.565094,809.429689 755.597026,812.355937 C755.63424,819.917914 754.855826,826.300949 758.271242,833.104998 C764.041918,834.506962 764.041918,834.506962 769.531099,835.34814 C771.346832,826.305068 772.64781,819.450106 777.835243,811.795152 C785.27073,806.991044 790.126623,807.195287 798.806726,808.430439 C804.65909,812.211683 807.149117,815.208258 809.170963,821.876146 L812.318554,835.34814 C817.932362,835.441134 823.545596,835.514686 829.159957,835.567197 C831.521272,835.588051 833.813137,835.608292 836.105002,835.628533 C850.604934,835.872853 864.074523,836.502311 877.625724,830.861856 C877.760842,830.682405 877.893258,830.506543 878.023025,830.333875 L878.404437,829.825058 C884.132588,822.158036 884.371261,820.41463 884.381205,786.167276 L884.381638,781.512739 Z M741.933801,781.512739 L705.756572,781.512739 C703.450274,790.738217 701.211808,799.692357 698.973342,808.646497 C701.952311,808.502349 704.843663,808.36244 707.735015,808.222532 C712.590742,807.825747 712.590742,807.825747 717.061956,808.646497 C721.629157,814.802627 721.629157,814.802627 723.014947,820.049388 L726.106263,833.519108 L739.672724,833.519108 C740.44149,815.836943 741.187645,798.674841 741.933801,781.512739 Z M527.291281,524.540713 C524.102897,532.064073 521.133581,534.849841 513.990851,538.814845 C512.379236,539.703798 510.81502,540.566606 509.250805,541.429414 C499.602941,548.006743 494.622213,558.324223 491.63481,569.341701 C491.490486,570.87935 491.350407,572.371774 491.210328,573.864198 L486.682523,573.864198 C485.758638,567.030476 484.239166,562.22153 480.969705,556.092197 C479.544507,553.869814 478.161227,551.712795 476.777947,549.555776 C474.699755,546.252233 473.660659,544.600461 472.634828,543.116517 L472.366846,542.732233 C471.425242,541.393731 470.420333,540.087565 468.571299,537.684221 C466.262118,536.915396 464.020854,536.169184 461.779591,535.422972 L461.779591,530.900475 C445.20508,517.830677 427.477447,511.740043 406.411246,512.050848 C393.493911,513.755285 386.400589,518.885249 378.413135,528.780554 C374.108538,535.865527 374.240108,540.990644 375.75128,548.990464 C379.147134,554.502257 379.147134,554.502257 384.806892,558.035458 C392.877198,559.46273 400.195205,559.65029 407.445921,555.350225 C409.709824,551.251712 409.709824,551.251712 410.275799,545.315935 C409.709824,539.945469 409.709824,539.945469 407.445921,537.684221 C403.673871,537.592327 399.898338,537.587618 396.126406,537.684221 C395.356679,540.759519 394.609591,543.744367 393.862503,546.729215 L389.334697,546.729215 C390.47566,538.295988 391.741142,534.037236 398.390309,528.639226 C414.135299,523.268407 427.098148,528.472109 441.404464,535.422972 C436.027695,536.27094 436.027695,536.27094 430.08495,537.684221 L429.457568,538.311579 C424.98805,542.791758 424.9184,543.232356 423.293241,553.512961 C427.396565,555.067569 427.396565,555.067569 432.348853,555.774209 C435.366401,552.382011 435.366401,552.382011 439.140561,548.990464 C447.064222,547.859839 447.064222,547.859839 454.987882,548.990464 C460.922088,553.078221 463.392417,558.324182 466.307396,564.819204 C464.767942,563.281555 463.273766,561.789131 461.779591,560.296706 C455.364003,559.47516 451.806597,559.489741 446.215258,562.840611 C442.917705,568.33009 442.917705,568.33009 445.93227,580.647944 C447.231184,580.311583 448.491895,579.985115 449.752606,579.658647 C452.39642,579.016311 452.39642,579.016311 454.987882,578.386695 C460.441232,576.128979 460.441232,576.128979 466.307396,576.125447 C476.031801,582.681723 479.027065,590.216407 483.286668,600.999181 C488.6752,614.690188 492.925686,622.451479 506.633167,628.840804 C508.316945,629.369371 509.9512,629.882392 511.585455,630.395412 L511.585455,634.917909 L511.074058,634.918385 C505.717272,634.933769 505.12268,635.446565 485.302957,652.539749 C484.232555,653.467744 483.193636,654.368445 482.154717,655.269147 C482.347148,652.674364 482.53392,650.155898 482.720692,647.637433 C482.937297,645.213863 483.09086,643.49566 483.338356,642.200602 C485.536769,641.004741 488.156516,638.862612 492.627283,635.16417 L493.474231,634.917909 L493.474231,628.134164 C493.388239,628.074517 493.30217,628.015053 493.216023,627.955769 L493.215,628.071 L493.215355,627.841888 C486.656706,623.340161 479.65404,619.869144 472.4673,616.449045 C471.291577,617.272178 470.150434,618.071101 469.009291,618.870024 C464.460304,624.677566 464.460304,624.677566 465.551281,639.234731 C467.856621,641.5133 467.856621,641.5133 472.899551,643.364637 C477.873346,643.692373 480.126692,643.840851 482.983827,642.388628 C482.755257,643.594714 482.575656,645.14765 482.333923,647.2378 C481.274191,654.877168 481.274191,654.877168 484.171048,659.781367 C483.9175,660.427454 483.669324,661.057276 483.423049,661.671923 L481.946633,661.671975 C480.842143,663.215338 479.770138,664.713308 478.698133,666.211278 C477.4976,668.526323 476.332377,670.773279 475.167154,673.020234 C468.103853,686.575334 463.114065,693.124746 448.560807,697.823246 L448.108,697.967 L447.622769,696.514674 C447.052902,694.807078 446.492586,693.128101 445.93227,691.449124 L445.883,691.461 L445.789411,691.177449 C443.33072,691.794794 440.92988,692.397614 438.540611,692.997528 L436.750106,693.447101 C436.653563,697.228611 436.65827,701.013732 436.750106,704.79536 L436.874401,704.920144 L436.876659,705.016615 C439.140561,707.277864 439.140561,707.277864 447.205716,707.419192 C449.759999,707.372805 452.241758,707.327735 454.721005,707.28271 C453.989955,708.749829 453.279423,710.177072 452.56889,711.604316 C442.001332,718.768432 434.725993,718.741736 422.643845,716.879483 C421.293246,716.62929 419.98237,716.386455 418.671494,716.14362 C418.574952,719.92513 418.579659,723.710251 418.671494,727.491879 C418.703105,727.523627 418.734273,727.554931 418.765025,727.585807 L418.765435,727.629101 L418.999752,727.862989 C421.038182,729.894856 421.276953,730.016535 427.962541,733.42355 C430.166984,734.501056 432.308215,735.547663 434.447862,736.593497 C424.300042,742.150356 414.623429,747.187202 403.417666,750.188398 C394.56893,750.188398 389.954041,748.817396 382.922657,743.680025 L382.518,743.382 L382.395923,742.992163 C382.164298,742.258492 381.958706,741.605478 381.776139,741.015112 C381.485143,740.072024 381.252062,739.287548 381.064596,738.590557 C380.330819,735.845838 380.318627,734.442354 380.279086,729.89035 C380.806749,729.714668 381.253234,729.566014 381.64327,729.436155 L382.436029,729.172211 C382.635576,729.105774 382.820318,729.044265 382.996294,728.985675 L383.749384,728.73494 C383.892237,728.687378 384.035311,728.639743 384.182652,728.590686 L384.64152,728.43791 C384.881399,728.358044 385.139979,728.271952 385.430912,728.175088 L386.579188,727.792778 C386.732047,727.741885 386.892551,727.688446 387.061567,727.632173 C387.820529,731.442 388.55714,735.141069 389.293751,738.840139 L389.317323,738.846369 L389.334697,738.935344 C394.711467,740.348624 394.711467,740.348624 400.654212,741.196592 L401.180831,740.67059 L401.299442,740.552119 L401.920453,739.931836 L402.011139,739.841257 L402.649014,739.204129 C402.697646,739.155554 402.745584,739.107672 402.793155,739.060157 L403.442922,738.411153 L403.520145,738.334019 L404.330419,737.524695 C404.43566,737.419578 404.547077,737.308292 404.665775,737.189733 L405.182018,736.674095 C405.944369,729.82098 406.290171,725.178954 404.069648,719.870912 C403.459524,718.370115 402.645981,716.818368 401.581557,715.150647 C394.075512,710.31816 389.007629,710.645271 380.254446,711.604316 C372.704605,716.659427 370.224914,719.161664 366.695487,727.491879 C366.646485,729.047631 366.602304,730.599234 366.595861,732.137551 L366.595094,732.716953 C366.601561,739.601427 367.440398,746.199421 372.116655,751.681366 C373.352427,752.72949 374.551854,753.746787 375.75128,754.764084 C377.387762,756.159443 378.984309,757.520751 380.574056,758.87626 L381.525598,759.692565 C381.530602,759.695215 381.535606,759.697864 381.54061,759.700511 L381.552531,759.710565 C382.200546,760.051845 382.846453,760.372378 383.490622,760.672988 C389.474782,763.47521 395.309115,764.546544 401.291213,764.5541 L401.353801,764.5541 C407.077579,764.56129 412.936391,763.601688 419.189917,762.25447 C443.389075,750.97477 458.209228,730.425629 472.000632,708.665322 L472.908554,707.228907 C473.059655,706.98924 473.210654,706.749449 473.361562,706.509543 L474.266009,705.068825 C474.868363,704.107547 475.469616,703.144784 476.070478,702.181222 C477.313018,700.161587 478.5206,698.198776 479.726664,696.238431 C480.22733,702.73346 480.293857,703.321779 481.649707,710.118355 L481.843431,711.088188 L481.909971,711.417197 C478.770417,720.574514 474.64293,726.70749 468.343511,734.028662 C466.920092,735.530205 465.538539,736.987585 464.156986,738.444964 C463.130739,739.548929 462.574855,740.14691 462.062437,740.698134 L461.784681,740.996924 C461.273957,741.546326 460.729081,742.132466 459.723156,743.21457 C455.439475,747.675035 455.439475,747.675035 452.515973,752.117834 C453.196063,757.196581 453.196063,757.196581 454.77705,761.16242 L455.470437,761.393394 C459.878573,762.859562 460.160566,762.885199 466.082434,763.423567 C468.009378,761.963716 469.30184,760.984548 470.464302,759.900846 L470.720692,759.658065 L470.974032,759.410415 C473.117951,757.280657 475.064699,754.4686 480.214164,747.030255 C482.21239,743.890088 482.21239,743.890088 484.171048,740.812102 C495.638215,753.161739 505.562678,759.798644 522.609353,761.16242 C522.91686,760.547389 523.222557,759.935975 523.526808,759.327455 L527.131507,752.117834 C520.930604,747.889815 514.840842,743.744741 508.194989,740.246815 C506.945744,739.670223 505.733242,739.110589 504.520739,738.550955 L504.520739,734.028662 C502.126237,729.799942 499.663719,726.078902 496.837405,722.801474 C498.662484,723.704974 500.559467,724.547825 502.529843,725.367852 C511.85195,726.743367 521.117854,727.390986 529.696678,723.106604 C535.588814,718.482496 540.29264,714.861225 542.068553,707.348528 C542.433951,699.523591 541.588807,694.557696 537.195856,688.057251 L536.989,687.925 L536.888663,687.772971 C530.836691,683.8303 527.719984,683.245234 520.801123,684.300424 L520.363682,684.368493 C515.279073,689.47521 515.279073,689.47521 513.584203,700.256057 L513.887212,700.254665 C513.874687,700.333885 513.86207,700.413701 513.849357,700.494118 L524.883,700.494 L524.883335,709.334664 C513.706455,710.476238 509.262929,711.169632 500.407497,704.245667 L500.157014,704.048916 C500.100719,703.982336 500.044978,703.914961 499.989588,703.846594 C496.354559,693.993417 494.701387,689.496371 494.484677,684.246371 C494.605545,678.584191 495.894354,672.908859 497.90476,667.114203 C502.827368,656.422034 506.930608,648.536158 518.377163,643.962904 L518.377163,648.485401 C517.92623,653.579975 517.666781,658.59778 517.625477,663.713497 C518.798239,671.706494 518.798239,671.706494 529.696678,680.142881 C531.707208,679.630156 533.109903,679.272441 534.280112,678.944766 L534.805067,678.79521 C537.190576,678.102988 538.765452,677.460935 543.280095,675.620384 C545.26101,670.815231 545.26101,670.815231 545.543998,666.575389 C544.019637,666.194746 543.003396,665.940984 542.159883,665.730353 L541.671819,665.60848 C541.301877,665.516103 540.95523,665.429543 540.597153,665.340128 L539.777248,665.135392 C539.147623,664.978171 538.423546,664.797364 537.462783,664.557455 L536.830202,664.399495 L536.488387,664.314141 C535.732677,656.68387 535.732677,656.68387 536.488387,648.485401 C541.184052,643.968951 545.262997,641.804993 551.380623,639.555236 C553.437237,638.987627 555.433363,638.436713 557.429488,637.885798 C559.510157,637.30017 561.529629,636.731766 563.549101,636.163363 C565.124636,635.739909 566.653832,635.328909 568.183027,634.917909 L568.183027,630.395412 C561.534869,628.28749 561.534869,628.28749 555.855368,625.758086 C553.792741,624.788046 551.790778,623.846536 549.788816,622.905026 C543.721429,620.312069 543.721429,620.312069 538.752289,616.827921 C536.78115,612.141249 536.78115,612.141249 536.488387,607.782927 C540.337021,606.245278 544.072461,604.752853 547.807901,603.260429 C547.746927,603.016818 547.689204,602.786198 547.63439,602.5672 L547.24102,600.995563 C547.137484,600.581905 547.046224,600.217291 546.961872,599.880282 L546.839856,599.39279 C546.761072,599.078024 546.686515,598.780142 546.610816,598.477704 L546.495743,598.017951 C546.386291,597.580655 546.269345,597.113419 546.130179,596.557411 L546.00511,596.05772 C545.873912,595.533544 545.723299,594.931799 545.543998,594.215435 C537.225325,593.726675 531.000353,593.705899 523.187957,596.75934 C518.377163,600.999181 518.377163,600.999181 516.11326,607.782927 L516.113851,608.871677 C516.123687,614.580257 516.297469,614.806663 519.367621,618.806513 C520.570319,619.671441 521.737644,620.510929 522.904969,621.350418 C515.331132,619.501206 510.472062,618.053693 505.076734,612.305424 C499.721339,598.041116 500.949305,582.718868 506.960372,568.794055 C512.481347,559.49995 519.625613,554.561124 529.979666,551.251712 C537.596017,551.251712 540.140273,552.84566 545.543998,558.035458 C544.774271,561.87958 544.027183,565.610641 543.280095,569.341701 C538.661733,568.572876 534.179206,567.826664 529.696678,567.080452 C529.215598,568.858359 528.748668,570.583974 528.281739,572.30959 C527.463095,578.169656 527.433858,578.378944 531.492617,584.468983 L531.960581,585.170441 C536.063905,587.149033 536.063905,587.149033 541.016192,587.431689 C547.804591,584.454911 551.711268,581.400694 556.439031,575.701462 C560.003018,567.270336 560.46231,560.274518 559.127416,551.251712 C555.865465,543.363618 553.948764,540.732318 546.251468,536.977581 C544.471474,536.449014 542.743833,535.935993 541.016192,535.422972 C543.549911,529.441203 546.800905,524.548633 550.496286,519.170248 C558.03133,511.644038 562.260865,510.95856 572.710833,510.549238 C567.259036,518.490453 565.08987,523.498434 565.919124,533.161724 C569.767759,533.930548 573.503199,534.67676 577.238639,535.422972 C578.778093,533.404808 580.272269,531.446001 581.766445,529.487195 C586.69762,521.175593 588.101139,517.712899 586.294251,508.287989 C581.702737,501.255923 578.12888,497.810522 569.898641,495.647963 C549.621865,493.849799 535.176056,506.485457 527.291281,524.540713 Z M658.27396,711.417197 L651.49073,711.417197 C651.106347,712.185987 650.727616,712.943471 650.351712,713.695303 L649.229653,715.93949 C642.039824,725.608869 636.25285,728.163355 624.499126,730.919586 C614.338383,733.112169 606.1805,735.587834 597.224887,740.812102 C597.993653,744.656051 598.739809,748.386943 599.485964,752.117834 C601.281753,752.144862 603.024726,752.171095 604.767698,752.197328 C607.104026,752.218349 609.371639,752.238753 611.639252,752.259156 C623.858181,752.401241 628.571863,750.236135 638.206904,742.931927 C641.185872,740.673607 644.077224,738.481708 646.968576,736.289809 L646.968576,761.16242 C648.198602,761.469936 649.414157,761.773834 650.621029,762.075562 L654.221387,762.975679 L656.012883,763.423567 C661.336547,757.656087 662.758307,755.034321 663.220065,747.030255 C663.075922,744.916083 662.936018,742.864092 662.796114,740.812102 C672.56051,748.449296 680.421649,752.942041 693.038015,753.107086 C700.649502,752.906778 702.502708,753.110653 708.017649,747.595541 C707.169745,741.660032 707.169745,741.660032 705.756572,736.289809 C694.686039,735.631909 683.763237,734.717945 673.112276,731.484873 C666.069736,728.653542 663.551417,725.852149 660.535037,718.907245 C659.766271,716.360629 659.020115,713.888913 658.27396,711.417197 Z M814.17057,684.283439 C811.404149,694.878591 809.421935,702.723387 801.394364,710.427946 C799.628159,711.533081 797.913901,712.605713 796.199643,713.678344 C799.254701,716.753503 802.219904,719.738217 805.185107,722.72293 C805.831754,722.443972 806.425743,722.18773 806.975565,721.950542 C804.566012,728.546044 802.939358,731.857803 797.100541,736.896091 C794.776225,738.495378 792.520271,740.047628 790.264317,741.599877 C787.927989,743.229283 785.660376,744.810765 783.392763,746.392247 C780.725488,748.195055 780.725488,748.195055 778.111029,749.962164 C778.111029,752.318093 778.676787,754.631676 779.287111,756.928792 L779.621302,758.180287 C779.898257,759.222097 780.164841,760.261478 780.372106,761.300858 C782.342069,761.638184 784.254092,761.965589 786.166115,762.292994 C795.64504,761.083031 795.64504,761.083031 806.780776,748.899162 C807.795788,747.71852 808.780946,746.572603 809.766104,745.426687 L809.766774,745.906943 C809.767444,746.058378 809.768784,746.202505 809.771464,746.343357 L809.775365,746.511065 C809.776909,746.566615 809.77871,746.6219 809.780811,746.677176 L809.792436,746.926736 L809.802669,747.092739 C809.910698,748.684863 810.337888,750.773553 812.027181,759.033119 C815.871011,759.80415 819.601788,760.552504 823.332565,761.300858 C824.870097,758.987764 826.362408,756.742703 827.854718,754.497642 C829.055915,755.654188 830.221783,756.776719 831.387651,757.89925 C838.255671,762.138177 838.255671,762.138177 852.726563,761.300858 L852.922092,760.320332 C853.504611,757.399156 853.754039,756.14834 854.101929,754.403763 L854.215566,753.833907 C854.412093,752.848377 854.648478,751.662968 854.98764,749.962164 C849.545877,747.863012 844.363663,745.762782 839.160102,743.158948 C831.971439,737.70285 830.284042,734.631719 827.572084,725.86744 C825.593642,718.213821 825.593642,718.213821 821.071488,713.678344 C821.029927,713.695561 820.988631,713.712668 820.947598,713.729667 C820.962699,713.003542 820.97567,712.285447 820.988641,711.567352 C821.009525,709.642374 821.029795,707.774013 821.050065,705.905653 C821.098182,702.466844 821.070956,699.024487 820.909667,695.589172 C818.291565,693.183557 818.291565,693.183557 816.276538,688.664411 C815.560509,687.174881 814.865539,685.72916 814.17057,684.283439 Z M305.492599,677.5 L305.323827,677.669684 C305.076316,677.918855 304.853681,678.145182 304.648699,678.365595 L304.514581,678.511847 C304.426807,678.609013 304.342203,678.705753 304.260135,678.803556 L304.138856,678.951241 L304.020906,679.101634 C303.962684,679.177694 303.905532,679.255186 303.849182,679.334739 L303.737473,679.496779 C303.55281,679.772043 303.375082,680.074847 303.194383,680.428416 L303.085527,680.646836 C302.174102,682.520861 301.138842,685.780164 298.741399,693.328025 C303.278708,694.946176 303.278708,694.946176 307.743,697.850318 C309.397435,702.649136 309.99501,706.922357 310.292281,711.991317 C310.283402,714.627451 310.283402,714.627451 310.2747,717.211385 C310.301175,725.098908 309.798966,731.083524 305.140974,737.756021 C299.199117,745.427075 295.143634,751.181597 294.240599,761.16242 L295.466669,761.1621 C303.250392,761.155691 303.414244,761.021099 306.855146,758.194666 C310.400529,754.293362 310.400529,754.293362 314.485409,750.660455 C321.239859,746.069838 326.877693,745.864149 334.870869,746.36781 C339.923028,747.303248 339.923028,747.303248 343.468101,753.248408 C344.328879,755.170382 345.16434,757.035828 345.999801,758.901274 L352.751001,758.901274 C354.281273,757.363694 355.766537,755.871338 357.251801,754.378981 C357.681162,747.476404 358.109767,742.536227 355.001401,736.289809 C348.840408,732.004138 345.228188,731.741673 337.560801,731.484873 C335.074109,731.580971 332.660555,731.674244 330.247,731.767516 C331.442525,730.229936 332.602888,728.73758 333.763251,727.245223 C339.158376,721.903553 339.158376,721.903553 347.687601,722.157643 C350.174293,722.349841 352.587847,722.536385 355.001401,722.72293 C355.30551,721.561801 355.543865,720.651726 355.739213,719.878429 L355.878017,719.322316 C356.360003,717.364174 356.559761,716.224349 356.950359,713.526211 L357.121995,712.32947 C357.163035,712.041532 357.206185,711.738036 357.251801,711.417197 C352.751001,706.894904 352.751001,706.894904 346.703051,705.905653 C337.765811,707.09168 333.443982,710.264962 326.467032,715.727508 C325.456813,716.568372 324.476307,717.384504 323.4958,718.200637 C323.575707,715.113995 323.575707,715.113995 323.654031,712.088475 C323.695875,709.361674 323.736487,706.715073 323.7771,704.068471 C323.960264,694.866554 324.535334,687.422373 318.995,679.761146 C312.10315,677.923965 312.10315,677.923965 305.492599,677.5 Z M750.907633,738.550955 C744.143623,738.550955 744.143623,738.550955 740.109877,740.758655 C738.70247,741.764423 737.336457,742.74061 735.970444,743.716797 C729.852915,747.974922 728.570351,749.097883 726.106263,756.421975 C727.756224,756.448677 729.357656,756.474594 730.959088,756.50051 C733.094155,756.521278 735.166425,756.541435 737.238696,756.561593 C740.401003,756.601253 740.401003,756.601253 743.50069,756.640127 C748.652963,756.421975 748.652963,756.421975 750.907633,754.188098 C750.999915,748.976519 751.003269,743.762475 750.907633,738.550955 Z M549.456956,736.289809 C548.922872,738.112018 548.404495,739.880633 547.886119,741.649248 C547.172103,747.877785 547.172103,747.877785 549.813964,751.716302 C554.026663,754.830571 554.026663,754.830571 559.69417,755.509554 C561.797128,755.426447 563.838233,755.345783 565.879339,755.26512 C569.545752,755.153392 573.211827,755.018804 576.875196,754.830571 L576.875196,750.195381 C568.835754,742.651744 560.529139,737.310795 549.456956,736.289809 Z M823.332565,690.610669 C826.407629,698.453679 829.392251,706.066011 832.376872,713.678344 C833.809245,713.313014 835.014769,713.005543 836.048597,712.737855 L834.637949,713.678344 C836.782673,720.502676 839.177738,725.004919 843.823573,730.495621 C844.28747,730.900309 844.751143,731.304595 845.214866,731.707959 L846.142463,732.513303 L847.070683,733.315266 C858.060238,742.781508 869.283382,751.343541 884.381638,752.117834 L884.381638,740.812102 C879.988689,738.61556 875.688028,736.465163 871.413736,734.327951 L866.293024,731.767516 L875.377528,728.739255 C876.874863,728.240127 878.367173,727.742675 879.859484,727.245223 C881.272657,721.875 881.272657,721.875 882.120561,715.93949 L877.598407,711.417197 C875.100624,711.845402 875.100624,711.845402 872.652302,712.265127 C863.065377,714.395621 854.158108,715.193313 844.954111,711.417197 C844.214636,710.943919 843.781654,710.666801 843.403614,710.424848 C844.204459,710.081355 845.09152,709.670148 846.261296,709.127885 C847.882912,708.273119 849.456834,707.443494 851.030755,706.613869 C853.861582,705.132962 856.689426,703.646041 859.509793,702.144506 L859.509793,690.610669 C853.108508,691.946482 847.623987,693.220016 841.138544,692.052399 C839.697108,691.562211 838.298067,691.08644 836.899025,690.610669 C830.853371,688.796604 829.085744,687.675951 823.332565,690.610669 Z M299.097089,706.894904 C298.869733,707.112322 298.664238,707.308835 298.478296,707.491925 L298.264405,707.705669 C296.7284,709.267612 296.701501,709.984787 296.501676,715.312376 C296.529939,717.880013 296.557371,720.372133 296.584803,722.864252 C296.623028,727.339536 296.669061,731.814787 296.732584,736.289809 L301.461593,736.289809 C307.285936,727.935187 307.112562,723.552927 306.190602,713.678344 C302.643845,709.297373 302.643845,709.297373 299.097089,706.894904 Z M565.331032,657.149682 L560.772143,657.149682 C553.205162,664.655301 551.770508,675.882115 551.048887,685.923933 C550.729937,701.469359 549.697601,713.602065 560.914608,725.402418 C569.70693,730.783476 577.861647,731.861375 588.125477,731.761369 C588.285438,731.682037 588.439786,731.605489 588.588817,731.531333 L589.020254,731.315655 C592.695591,729.467006 592.844327,729.024417 594.96381,722.717528 C587.805265,720.805856 580.732303,718.796636 573.736483,716.358577 C567.923162,710.626806 567.824631,710.529657 565.455632,702.776792 L565.333,702.372 L566.255939,703.744997 C567.482827,705.570406 568.686374,707.361086 569.889921,709.151767 C578.152907,709.575697 578.152907,709.575697 585.846032,709.151767 C586.637427,706.511389 586.637427,706.511389 587.41315,703.923296 C588.125477,697.846966 588.125477,697.846966 585.561102,693.748975 C581.287143,691.064085 581.287143,691.064085 575.161136,690.640155 C573.368923,690.784291 571.629422,690.924188 569.889921,691.064085 C568.416761,685.906859 567.498204,681.035862 566.889246,675.696621 C566.69852,673.426475 566.513405,671.223099 566.328289,669.019723 C566.131509,666.725555 565.940516,664.498862 565.749524,662.27217 C565.607236,660.530524 565.469134,658.840103 565.331032,657.149682 Z M744.494774,657.149682 C740.260855,665.35506 736.091005,673.512222 732.511659,682.022293 C731.929622,683.559873 731.364704,685.052229 730.799786,686.544586 L726.23479,686.544586 L726.23479,691.066879 C721.669794,691.066879 721.669794,691.066879 718.103391,693.75199 C714.076345,698.782073 713.397935,702.865271 712.539803,709.156051 C716.67683,710.569268 716.67683,710.569268 721.669794,711.417197 C728.517288,706.894904 728.517288,706.894904 733.510252,699.828822 C734.916842,697.618551 736.282061,695.473288 737.64728,693.328025 C737.200548,698.505897 736.394831,703.459925 735.311286,708.546601 C729.159729,717.415892 729.159729,717.415892 718.656184,721.459868 C717.352664,721.889309 716.087482,722.306119 714.822301,722.72293 L714.822301,727.245223 C717.150448,728.782803 719.410121,730.275159 721.669794,731.767516 C731.443129,731.149522 737.271451,729.22286 744.494774,722.72293 C752.852155,705.824705 752.852155,705.824705 751.342267,661.671975 L746.777271,661.671975 C746.001222,660.134395 745.247998,658.642038 744.494774,657.149682 Z M683.145805,709.156051 C682.377038,713 681.630883,716.730892 680.884728,720.461783 L692.190112,720.461783 C692.958878,717.386624 693.705033,714.401911 694.451188,711.417197 C690.607358,710.648408 686.876581,709.902229 683.145805,709.156051 Z M622.096732,709.156051 L610.791348,709.156051 C611.560114,713 612.306269,716.730892 613.052425,720.461783 C616.896255,719.692994 620.627032,718.946815 624.357808,718.200637 C623.589042,715.125478 622.842887,712.140764 622.096732,709.156051 Z M633.866661,563.312102 C628.624164,564.297847 628.624164,564.297847 624.090113,568.804112 C623.665046,576.690075 623.665046,576.690075 624.090113,584.576038 C624.860902,586.108168 625.60902,587.595235 626.357139,589.082303 C619.13933,582.736448 613.309635,580.693498 603.686883,580.069773 C603.397476,580.357407 603.126541,580.626682 602.872421,580.88016 L602.386109,581.366814 C599.131986,584.636599 598.956879,585.145314 597.310874,589.927227 C596.885807,595.8417 596.885807,595.8417 600.144656,601.052068 C601.349013,602.344803 602.517948,603.599516 603.686883,604.854229 C597.546462,604.657365 591.645336,604.246065 585.550679,604.854229 C580.127417,610.244255 579.484429,613.140341 578.749602,620.626155 C583.283653,627.385552 583.283653,627.385552 587.693726,629.524267 C589.373805,630.089839 591.004469,630.638776 592.635134,631.187713 C594.327256,631.771239 595.96961,632.337602 597.611963,632.903966 C598.906647,633.3259 600.163253,633.735424 601.419858,634.144949 C591.494364,635.272339 585.732599,638.272116 578.749602,645.41061 C577.757779,651.325083 577.757779,651.325083 578.749602,656.676272 C583.283653,661.182536 583.283653,661.182536 588.189638,662.115474 C590.086501,662.277066 591.927574,662.433905 593.768647,662.590744 C595.677553,662.764306 597.530315,662.932763 599.383077,663.101219 C600.846371,663.214932 602.266627,663.325301 603.686883,663.435669 C602.542744,664.411205 601.432256,665.358048 600.321767,666.304892 C596.885807,670.195066 596.885807,670.195066 596.31905,678.36267 C596.856492,685.573665 596.88429,685.946647 598.818856,687.88722 L599.037579,688.105542 L599.152832,688.220124 C609.508313,689.063732 614.729957,690.254842 622.956601,683.71386 C624.112784,682.18173 625.234961,680.694662 626.357139,679.207595 C626.330041,680.688853 626.30374,682.126545 626.277439,683.564237 C626.256363,685.482392 626.235906,687.344131 626.21545,689.20587 C626.188352,691.11804 626.162051,692.973969 626.13575,694.829899 C626.357139,699.485786 626.357139,699.485786 628.624164,701.738918 C636.275376,702.583843 636.275376,702.583843 644.493343,701.738918 C645.986746,699.823756 647.436226,697.964921 648.885705,696.106087 C649.704668,694.190925 650.499544,692.332091 651.29442,690.473256 C654.836647,696.106087 654.836647,696.106087 660.362522,701.738918 C668.170092,702.541648 673.673125,703.010366 680.765752,699.485786 L680.765752,674.70133 C683.078118,677.76559 685.322474,680.739725 687.566829,683.71386 C688.691106,683.950815 689.562421,684.134456 690.387357,684.264782 L690.660901,684.306249 C690.751698,684.319413 690.842207,684.331919 690.93271,684.343767 L691.204483,684.377336 C691.386032,684.398398 691.568691,684.416828 691.754727,684.432625 L692.036597,684.454346 C692.464053,684.483966 692.914343,684.500256 693.413292,684.503218 L693.753417,684.503218 C696.014767,684.490383 699.297568,684.227264 705.703033,683.71386 C705.747485,683.66968 705.791065,683.626368 705.833796,683.583857 L706.196118,683.221215 C707.975288,681.422612 708.036736,680.974758 708.820193,675.264613 C707.970059,667.941933 707.970059,667.941933 702.302495,661.464178 C700.375523,659.83629 698.505227,658.256281 696.634931,656.676272 C698.071127,656.730136 699.465082,656.782416 700.859037,656.834695 C702.746867,656.876589 704.579173,656.917251 706.411479,656.957913 C714.727156,657.19747 716.576141,656.982398 723.839238,652.170007 C725.822885,646.677997 725.822885,646.677997 726.106263,640.904346 C722.905757,636.039451 722.905757,636.039451 712.079043,630.342788 C709.9112,629.337328 707.807116,628.36144 705.703033,627.385552 C708.015399,626.619487 710.259755,625.875953 712.50411,625.13242 C718.718008,621.499586 721.146129,619.582942 723.55586,612.740192 C723.839238,607.107361 723.839238,607.107361 719.305187,600.347964 C711.512286,599.64386 711.512286,599.64386 703.436008,600.347964 C701.123642,601.880094 698.879286,603.367161 696.634931,604.854229 C698.176509,603.178462 699.672745,601.551982 701.168982,599.925502 C706.061044,593.0882 707.032742,590.472523 705.703033,582.322906 C701.168982,577.816641 701.168982,577.816641 694.651284,576.971717 C687.566829,577.816641 687.566829,577.816641 682.182643,582.322906 C680.930112,583.855036 679.714419,585.342103 678.498727,586.82917 C678.924754,579.348815 679.691931,573.289511 676.090012,566.55098 C671.69765,564.297847 671.69765,564.297847 663.621371,564.438668 C655.828471,566.55098 655.828471,566.55098 652.569622,571.198065 C651.925645,573.402614 651.925645,573.402614 651.29442,575.563509 C645.713484,569.224385 642.432696,564.698027 633.866661,563.312102 Z M364.601412,565.573248 C359.355345,566.561224 359.355345,566.561224 354.818206,571.077685 C354.836284,572.739249 354.85383,574.351943 354.871376,575.964637 C355.054448,577.240304 355.154306,577.936123 355.24585,578.574009 L355.300378,578.953964 C355.391592,579.589554 355.489472,580.271594 355.66892,581.522001 C355.928033,583.423501 356.179525,585.269075 356.431017,587.114649 C356.653975,588.572266 356.870375,589.987012 357.086776,591.401759 C354.772835,589.866162 352.526951,588.37573 350.281067,586.885298 C342.495835,585.086249 337.036909,583.151171 329.863941,587.167577 C327.700887,591.20482 327.60028,591.392599 327.5956,596.172878 L327.595372,596.906195 C329.863941,602.692911 329.863941,602.692911 335.677151,607.915068 C337.557228,609.210728 339.382008,610.46828 341.206789,611.725832 C338.266156,612.013756 335.412012,612.293212 332.557868,612.572668 C325.092567,613.303614 322.833474,614.133219 316.252524,618.500523 C315.543596,624.146099 315.543596,624.146099 316.252524,629.791675 C320.789663,634.308136 320.789663,634.308136 329.013228,636.848645 C331.616411,637.520469 334.143031,638.172533 336.66965,638.824597 C333.232767,639.965003 333.232767,639.965003 329.863941,641.082827 C324.821495,644.943955 323.200242,647.422558 321.21502,653.503094 C320.789663,659.14867 320.789663,659.14867 325.326802,665.923362 C325.630618,665.944964 325.922808,665.965739 326.204263,665.985688 C334.114682,666.556051 334.114682,666.556051 342.022622,665.992565 C343.156127,665.427185 344.265036,664.874072 345.367495,664.324177 C341.365899,671.439564 339.65695,678.019704 338.938219,686.247435 C343.475358,690.763896 343.475358,690.763896 349.997496,691.751872 C350.111576,691.735973 350.223821,691.720331 350.334282,691.704916 C350.477317,691.726415 350.6258,691.748956 350.777841,691.772037 C357.838502,690.785937 357.838502,690.785937 363.204604,685.151079 C364.140848,683.714191 365.056439,682.308998 365.966867,680.91173 L366.113167,680.687538 C365.753279,689.560885 365.422393,694.177415 370.698193,702.055048 C373.911198,702.283502 375.390633,702.388695 376.918106,702.370625 C378.463781,702.388652 379.796927,702.283658 382.692028,702.055651 C385.325856,696.800744 387.893285,691.678314 390.451228,686.574809 L391.504,684.474 L391.491203,684.502428 C394.988362,689.277274 398.11131,693.516429 402.458166,697.538587 C405.641423,698.042706 407.200408,698.289596 408.642017,698.279257 C410.255082,698.336987 411.511627,698.093251 414.323787,697.547765 L414.382414,697.489278 L414.665093,697.206753 C417.589021,694.275711 417.632751,693.839471 418.84261,681.770165 C417.61349,679.930948 416.413291,678.135006 415.218876,676.34772 L415.032,676.069 L415.340728,676.339543 C419.950467,680.366199 422.860656,681.682692 429.648058,682.258238 L429.996158,682.286925 L430.032,682.289 L430.277484,682.310704 C430.372004,682.31849 430.467273,682.326137 430.563307,682.333651 C436.917901,681.770165 436.917901,681.770165 439.177313,679.516222 C440.050958,670.277996 440.690209,665.578002 434.65849,658.244637 C433.12209,657.04723 431.630879,655.88504 430.139667,654.722851 L432.399079,654.722851 C439.772006,654.85658 446.048469,655.803474 452.733781,652.468908 C453.357944,650.265679 453.963748,648.127251 454.569553,645.988823 C454.784479,642.415387 454.890367,640.654873 454.596789,639.294308 L454.635265,638.824597 C454.553661,638.743365 454.473526,638.663595 454.394797,638.585245 C454.042645,637.589258 453.406747,636.682125 452.345445,635.168136 C448.336698,632.271392 448.218547,632.186015 443.236973,631.434971 C441.719899,630.878926 440.237589,630.335301 438.755278,629.791675 C446.202473,625.532998 451.417864,623.036682 454.77705,614.972038 C454.635265,609.467602 454.635265,609.467602 452.366695,605.515698 C447.829556,602.692911 447.829556,602.692911 439.464206,601.140377 C436.90923,600.90044 434.429399,600.66756 431.949569,600.43468 C433.492197,598.899083 434.989453,597.408651 436.486708,595.918219 C436.77028,588.861249 436.77028,588.861249 436.486708,582.368837 C426.977877,580.633496 421.167386,578.491211 412.666729,583.356813 C411.509758,584.556498 410.386816,585.720898 409.263874,586.885298 C408.588821,580.837511 408.026593,574.814223 406.995305,568.819455 C404.726735,566.561224 404.726735,566.561224 398.346384,565.714388 C392.463483,566.403339 391.366671,566.531788 388.260942,569.595753 L387.861772,569.99429 C387.245846,570.615789 386.549341,571.345611 385.727466,572.2068 C384.474081,574.126296 383.257561,575.989336 382.04104,577.852376 C376.456303,571.498909 373.173281,566.962309 364.601412,565.573248 Z M403.726504,169.025995 C400.722793,170.340471 400.722793,170.340471 397.778562,171.628918 C373.514919,182.123303 352.836186,195.246066 332.024205,211.510993 C329.764517,213.310981 327.571291,215.058027 325.378065,216.805074 C327.643746,210.019172 328.803999,203.529849 329.903096,196.475804 C316.811503,193.101574 304.930232,191.421714 291.413818,191.450839 C288.285139,191.493169 288.285139,191.493169 285.218414,191.534662 C253.565611,191.556822 229.881922,199.973544 203.078495,216.805074 C155.256427,249.225198 136.266797,308.0637 125.227191,362.048181 C124.814768,364.121166 124.414475,366.133182 124.014182,368.145197 C111.212715,430.737456 112.468778,502.540192 120.938575,565.74566 C121.215026,567.681021 121.483347,569.559461 121.751667,571.4379 C124.088724,588.146725 126.746497,604.742252 130.801729,621.131671 C138.870592,649.267951 149.888651,678.320051 176.034364,693.828224 C190.560097,701.285622 205.706314,703.458814 221.558651,698.77819 C231.321255,694.103159 236.015698,687.368634 240.19789,677.822453 C242.864781,669.209362 243.484806,660.906263 239.402475,652.754981 L234.877444,652.754981 C230.511709,656.778286 227.363116,659.348878 221.373054,660.060812 C210.283021,660.141043 205.626102,659.630451 197.687345,651.907928 C186.765256,638.326183 184.701892,620.795059 184.270975,603.784239 L184.240925,602.476816 C184.191291,600.082031 184.170438,597.699874 184.158098,595.34288 C184.190589,592.49515 184.222124,589.731177 184.253659,586.967203 C184.564827,544.940621 188.605813,513.893808 213.966851,479.536517 C223.496993,466.781799 232.818354,454.243307 240.533733,440.285871 C241.85483,437.679198 241.85483,437.679198 243.149766,435.124143 C249.20653,429.905218 249.20653,429.905218 257.502599,429.133008 C256.579003,440.847351 254.674666,449.686465 249.411455,460.173968 C243.318021,471.786728 238.252203,481.066589 239.402475,494.638434 C249.546425,495.914477 249.546425,495.914477 270.512063,485.744379 C284.577888,478.853899 296.085321,475.293815 311.802972,474.309164 C315.927164,493.735504 315.927164,493.735504 312.93423,514.120652 C311.631403,524.25139 311.640667,534.123771 311.802972,544.332206 L314.065487,544.332206 C315.363606,543.030215 316.623544,541.766518 317.883482,540.502821 C350.728084,506.050349 389.526207,476.061338 431.716295,453.979894 C469.648085,435.366009 517.8395,424.166483 559.221971,437.645449 C570.728062,441.610629 582.256431,445.49685 593.821998,449.285809 C598.613691,450.845849 603.403976,452.410208 608.192507,453.979894 C630.991112,461.805451 651.75928,465.891273 676.004451,466.359219 C680.392579,466.381499 680.392579,466.381499 684.693814,466.403337 C712.176657,466.551699 738.456278,463.319768 764.004484,452.736336 C801.427026,436.733825 836.85227,429.069102 877.643967,434.824145 C879.879615,435.193142 882.049509,435.551287 884.219403,435.909431 C885.240284,400.180529 881.52485,366.108663 870.750365,331.942508 C850.776057,275.137106 812.287056,236.215358 758.655314,209.777182 C682.375522,174.045363 601.647302,171.529428 522.216917,198.734612 C524.546425,213.09163 524.714858,227.146724 524.678286,241.67843 C524.649298,246.22433 524.620532,250.770242 524.603716,255.316203 C524.582394,262.405558 524.554164,269.494787 524.515337,276.58407 C524.503129,278.531056 524.491281,280.420778 524.479432,282.3105 C562.661509,249.751284 602.710717,234.279389 653.230707,234.368187 C657.051177,234.410518 657.051177,234.410518 660.795993,234.45201 C670.419893,234.457545 680.025417,234.509021 689.643066,234.875537 C731.273866,238.282376 776.981812,250.827552 806.153779,282.478146 C820.107374,300.316716 822.995988,316.392575 820.868968,338.780696 C817.411888,360.051038 796.937869,375.836935 780.56791,387.909765 C730.899163,420.640441 662.662684,422.31607 605.929992,411.062545 C574.279773,404.579695 537.586457,392.307203 518.964551,364.192283 C515.251852,357.863377 511.800137,352.801859 506.379308,347.815927 C494.274686,378.699267 474.257594,408.195647 443.674043,423.088932 C422.134427,431.315417 397.505766,433.922455 375.860443,424.756568 C364.649082,418.312684 360.592213,409.61199 357.053283,397.509699 C376.003044,411.225762 391.219152,414.38537 414.61486,413.806644 C436.578358,412.48281 449.721492,405.272328 464.478581,389.100934 C504.966759,341.048729 513.035483,277.649148 508.641824,216.805074 C505.211779,200.274382 497.205125,184.534205 483.559718,174.302429 C461.48237,160.67289 427.903032,160.163543 403.726504,169.025995 Z M866.418362,578.009554 C864.897491,579.547134 863.421351,581.03949 861.945212,582.531847 C861.386068,589.173965 861.386068,589.173965 861.945212,596.098726 C863.466083,598.405096 864.942222,600.643631 866.418362,602.882166 C859.708637,598.359873 859.708637,598.359873 852.719339,597.935908 C846.765493,598.328468 846.324468,598.357546 844.516334,600.154671 L844.292355,600.378949 C844.215215,600.456628 844.135446,600.537273 844.05261,600.621019 C843.187795,609.888771 842.555005,614.603786 848.525761,621.960589 C850.046632,623.161823 851.522771,624.327727 852.998911,625.493631 C846.586098,626.790284 844.362484,627.441499 839.57946,632.27707 C839.020316,639.06051 839.020316,639.06051 839.57946,645.843949 C839.814889,646.081964 840.037927,646.307453 840.250245,646.521114 L840.856711,647.12732 C844.130054,650.369374 844.788326,650.395994 851.041908,650.648885 C853.22816,650.552787 855.350111,650.459514 857.472061,650.366242 C851.172839,657.565333 849.144902,663.37991 848.525761,672.977707 C852.998911,677.5 852.998911,677.5 859.429065,678.34793 C866.418362,677.5 866.418362,677.5 871.730228,672.977707 C872.965936,671.440127 874.165299,669.947771 875.364663,668.455414 L875.364663,688.805732 C878.753074,689.947611 878.753074,689.947611 882.074388,691.066879 C882.232486,688.473999 882.481124,685.76516 882.709196,683.004295 L882.805358,681.818069 L882.897058,680.62659 C883.452564,673.160752 883.632247,665.452372 881.296551,658.73259 L881.961249,659.410828 C883.829324,652.279718 884.371066,650.211696 884.381484,641.067424 L884.381117,640.277553 C884.373935,636.644887 884.293155,631.939443 884.182498,625.493631 L879.74,625.493631 C877.518751,630.015924 877.518751,630.015924 877.301833,634.909186 C877.328383,636.80113 877.354153,638.637428 877.379923,640.473726 C877.400574,642.377682 877.420617,644.225639 877.440661,646.073597 C877.467211,647.533096 877.492981,648.949669 877.518751,650.366242 L875.256,650.366 L875.236643,650.345483 C873.787948,648.845286 872.339699,647.344648 870.891512,645.843949 C870.017552,637.155587 870.404772,631.492185 873.128087,623.232484 C879.434674,617.687186 881.872281,615.590488 883.10531,607.033489 C883.03996,604.372756 882.976532,601.790279 882.913104,599.207803 C882.825738,591.346785 882.825738,591.346785 882.074388,584.792994 C876.757342,579.417534 873.792681,578.755088 866.418362,578.009554 Z M463.548292,676.918077 L463.725132,676.963 C464.857084,677.245656 466.095155,677.457648 468.571299,677.881632 C468.790152,677.735902 469.008395,677.590577 469.224007,677.447754 C467.225236,677.611241 465.484752,677.379108 463.548292,676.918077 Z M470.604588,659.410828 L461.780873,659.410828 C459.574945,661.671975 459.574945,661.671975 459.299204,668.455414 C459.574945,675.238854 459.574945,675.238854 461.780873,677.5 C464.03092,675.96242 466.21479,674.470064 468.398659,672.977707 C469.915235,665.911624 469.915235,665.911624 470.604588,659.410828 Z M881.592585,514.697452 C862.466675,514.697452 846.562135,530.291483 837.242629,545.835132 C836.237363,548.278242 835.261664,550.649496 834.285965,553.02075 C831.189575,560.501097 828.172797,568.003949 825.27518,575.563867 C824.89034,576.659366 824.510451,577.755091 824.132487,578.849863 L823.566606,580.49116 C819.421852,592.519941 815.32691,604.362239 807.25361,614.450743 C801.765593,620.213025 797.421733,622.663365 789.232041,622.904411 C793.737433,618.395788 793.737433,618.395788 795.708542,610.787486 C795.990129,602.615607 795.990129,602.615607 792.329498,597.120722 C786.13267,593.040938 782.990155,592.614643 775.715863,593.59836 C775.636667,593.677613 775.559946,593.75439 775.485493,593.829033 L775.268734,594.046911 C774.497395,594.824857 773.975606,595.386371 773.428862,596.189291 L773.278926,596.414598 C772.80086,597.149203 772.285568,598.09491 771.556225,599.546637 L771.318584,600.022242 C770.705663,601.255025 769.947729,602.822545 768.957775,604.869918 L777.96856,604.869918 C778.72154,610.221087 778.72154,610.221087 777.96856,616.141476 C772.781268,621.230704 768.686218,622.984165 761.67171,625.044246 C758.979035,625.610114 756.365555,626.159338 753.752075,626.708562 C751.035464,627.292394 748.398754,627.859054 745.762043,628.425714 C743.691675,628.847869 741.682199,629.257608 739.672724,629.667346 L739.672724,636.430281 C751.94018,638.749129 762.46589,641.493799 773.463167,647.70184 C773.654646,649.474292 773.840494,651.194614 774.026341,652.914935 C774.120204,659.302152 774.120204,659.302152 768.957775,663.059338 C766.682552,664.41122 766.682552,664.41122 764.452382,665.736333 C765.218299,668.802197 765.961689,671.777888 766.705079,674.753579 C776.512599,675.71579 781.056065,675.758636 789.232041,669.963167 C793.737433,663.482021 793.737433,663.482021 793.315053,656.014614 C792.692745,653.954736 792.088741,651.955444 791.484737,649.956151 C794.548404,650.722617 797.521963,651.46654 800.495522,652.210463 C801.261438,649.144599 802.004828,646.168908 802.748218,643.193216 C806.577801,646.25908 810.29475,649.234771 814.011699,652.210463 C817.947896,644.883648 817.947896,644.883648 825.556767,642.770533 C827.758778,642.147779 829.896023,641.543342 832.033269,640.938905 C832.033269,636.430281 832.033269,636.430281 829.358192,632.767025 C823.963369,628.671466 823.963369,628.671466 814.011699,629.667346 C812.670942,630.114586 811.856912,630.386124 811.159848,630.618645 L810.607312,630.802956 C810.15244,630.954688 809.700018,631.105604 809.11816,631.299696 L808.584649,631.47766 C808.203742,631.60472 807.768265,631.749983 807.25361,631.921658 C823.332417,616.725229 830.812714,600.352266 838.791357,580.07249 C843.315296,568.082917 846.728507,554.667525 856.812927,546.257815 C863.345033,545.024709 868.051345,545.503591 874.834497,546.257815 C877.132247,547.790747 879.362416,549.278593 881.592585,550.766439 L881.592585,534.986257 C875.904527,533.84783 875.904527,533.84783 870.329104,532.731945 C875.960845,530.05495 875.960845,530.05495 881.592585,525.96901 C882.296553,519.910548 882.296553,519.910548 881.592585,514.697452 Z M665.223246,605.092471 C674.718192,609.74792 679.5308,613.57573 683.443998,623.2791 C685.039028,634.497447 684.615831,643.538149 679.742908,653.826952 C670.933372,663.314176 663.099876,666.814569 650.276535,667.324841 C641.32409,666.965015 635.753506,665.616964 628.781741,659.652357 C621.083032,650.721966 618.149179,643.833536 618.790576,632.265852 C620.746271,622.407103 627.083624,616.13753 633.479278,608.78663 C643.822486,603.075571 653.67519,603.402379 665.223246,605.092471 Z M394.341909,602.430808 L395.433243,602.546296 L395.977723,602.604614 C405.560043,606.952305 408.820239,610.205748 413.929908,619.386449 C415.11581,623.200751 415.962241,625.923189 416.529358,628.067497 C415.010849,639.046021 411.987983,644.940294 405.427355,654.018494 C393.278908,660.544017 393.278908,660.544017 379.13522,659.847049 C370.14882,658.836541 365.891648,654.613773 360.203823,647.688084 C356.32899,635.846577 356.32899,635.846577 357.838502,623.167651 C358.481853,620.279579 358.990978,617.946251 359.211308,615.839253 C360.499984,613.782345 362.096886,611.681965 364.062728,609.431123 L368.622013,609.431123 L368.622013,604.880117 C376.598047,600.899342 385.59968,601.51678 394.341909,602.430808 Z M638.628402,616.918251 C633.394453,622.587891 631.221825,627.408745 630.0105,634.962296 C631.289732,642.301134 632.68697,645.259903 637.938262,650.499243 C644.526667,655.651375 647.764713,657.309522 656.200426,657.137756 C664.29937,654.55887 667.327514,653.196079 671.914382,645.979404 C673.603699,635.642988 673.757018,626.737365 668.658337,617.44792 C662.854083,614.34053 662.854083,614.34053 658.111583,613.351816 C650.678004,612.758483 644.94747,612.676388 638.628402,616.918251 Z M370.746442,614.949289 C365.266997,622.323409 365.169868,627.217409 365.642577,636.252906 C366.990943,644.220141 369.247706,647.78401 375.566758,652.726987 C386.803836,654.527299 391.047826,654.520914 400.518983,648.147872 C405.584247,640.479057 406.636427,636.402436 405.995004,627.389814 C404.417234,619.953153 401.690968,616.390524 395.982215,611.514952 C384.914209,608.818428 379.959191,608.385471 370.746442,614.949289 Z M750.930084,498.447837 C741.794582,504.689859 738.141368,507.065148 735.12024,517.879685 C735.12024,518.856987 735.112861,519.769943 735.110812,520.631076 L735.110658,521.356791 C735.123738,526.708845 735.507159,530.067089 739.637338,534.758444 C746.412986,536.74418 746.412986,536.74418 753.188634,537.027857 C758.018651,532.174607 758.669118,529.918346 759.964281,523.411379 C756.892654,522.639779 753.911369,521.890873 750.930084,521.141966 C752.465898,518.055565 753.95654,515.05994 755.447183,512.064314 C760.80964,511.495375 760.80964,511.495375 766.739929,512.064314 C771.800495,515.853069 773.369447,518.373952 775.165376,524.501761 C775.516334,526.590508 775.856969,528.61782 776.197604,530.645133 C776.834382,534.281304 777.454019,537.920718 778.032675,541.566683 L773.515577,541.566683 C762.898312,551.014886 756.657322,563.036727 750.665411,575.740851 C750.156972,576.864343 749.65975,577.963053 749.165331,579.055567 L748.671,580.144 L748.481597,578.57274 C748.292831,577.008487 748.107229,575.47045 747.921626,573.932413 C747.552671,571.174544 747.194568,568.497789 746.836464,565.821034 C746.32035,561.79194 746.062293,559.777392 745.72704,557.880305 L745.637611,557.38683 C745.316937,555.660261 744.907606,553.89409 744.154437,550.644335 C739.085942,543.848857 739.085942,543.848857 723.845139,536.389585 C717.898488,534.250583 713.880622,534.818667 708.017649,537.027857 C708.113637,538.378158 708.206803,539.688744 708.299968,540.99933 C710.276198,546.105509 710.276198,546.105509 717.193005,551.211688 C719.448731,552.561989 721.638113,553.872575 723.827494,555.183161 C719.451555,556.034191 719.451555,556.034191 714.793297,557.452574 C712.534748,561.9914 712.534748,561.9914 712.675907,566.388387 C714.793297,571.069052 714.793297,571.069052 721.004307,574.189494 C723.500004,575.443345 725.922298,576.660318 728.344592,577.877291 C738.764316,587.633281 741.319591,595.678649 743.563332,609.702262 C743.764308,611.227378 743.959372,612.707638 744.154437,614.187898 L748.671535,614.187898 C755.244472,596.277905 762.306849,577.336413 774.583094,562.514429 C782.495557,555.157545 790.002064,553.118886 800.618167,552.913748 C802.153981,554.456949 803.644623,555.954761 805.135266,557.452574 C804.415878,562.236968 804.415878,562.236968 802.876717,566.530226 L789.325421,566.530226 C787.913828,573.054788 787.913828,573.054788 787.066872,580.146704 C788.602686,581.689904 790.093328,583.187717 791.583971,584.685529 L799.065415,584.685529 C807.44378,582.402501 811.551955,580.173241 816.683863,573.063653 C820.528171,564.878604 820.658538,557.122352 818.686561,548.374922 C812.650888,539.553533 809.222353,537.41942 798.783096,535.183959 C796.335393,535.039284 793.959682,534.898864 791.583971,534.758444 C791.85293,526.650844 792.336428,519.325017 790.172377,511.496961 C785.390079,505.381123 780.291227,502.173101 773.515577,498.447837 C764.635106,496.481711 759.575612,495.552132 750.930084,498.447837 Z M601.747041,532.786624 C590.156869,532.786624 582.538537,538.69965 574.244728,546.353503 C561.351819,565.123455 558.499059,582.878193 560.493572,605.143312 L565.077291,605.143312 C565.68274,603.893939 566.280531,602.633743 566.879575,601.370309 L567.479368,600.106076 C571.585321,591.463615 575.888567,582.787989 583.233114,576.499179 C587.144055,574.035778 591.010733,571.504296 594.871462,568.964968 C597.020081,562.605494 597.020081,562.605494 597.163322,557.659236 C593.267161,556.890446 589.485593,556.144268 585.704025,555.398089 C592.059107,548.138184 597.925339,541.698686 601.747041,532.786624 Z M461.56028,587.05414 L461.56028,598.359873 C464.635345,599.128662 467.619966,599.874841 470.604588,600.621019 L470.604588,589.315287 C467.529523,588.546497 464.544902,587.800318 461.56028,587.05414 Z M485.662956,451.246813 C482.781676,452.048881 479.98514,452.827359 477.188604,453.605837 C421.294059,468.592554 371.498087,509.970031 330.721058,549.429034 C328.987483,551.118784 327.304896,552.758836 325.622308,554.398888 C319.175205,560.464239 312.807253,566.358248 307.52484,573.483126 C306.393748,581.461398 306.393748,581.461398 307.52484,587.05414 L312.049207,587.05414 C313.160858,585.8976 314.239814,584.775076 315.318769,583.652551 C321.961748,575.512292 328.643599,568.005185 336.650453,561.184395 C341.549974,557.037837 346.239311,552.869294 350.780263,548.32904 C380.756513,517.502594 415.848031,493.809811 454.716992,475.53504 C497.759527,456.377322 537.813049,459.845626 581.097718,476.047487 C640.962748,498.459165 711.635353,505.381011 772.249464,480.401631 C808.574853,465.252271 840.636448,460.331679 880.051677,464.420239 C881.523864,464.588463 882.952751,464.751739 884.381638,464.915015 L884.381638,453.605837 C851.184847,443.950074 820.021658,448.368026 788.189132,460.261023 C754.102748,473.089148 725.428556,480.767921 688.898274,481.247059 C685.995588,481.269589 683.178275,481.291456 680.360961,481.313324 C655.866145,481.512519 633.211813,479.813278 609.981428,471.688373 C606.700839,470.511956 603.409626,469.364926 600.110885,468.240399 C598.270652,467.620449 596.484543,467.018732 594.698434,466.417015 L591.482857,465.331731 C590.054101,464.849469 588.625817,464.367675 587.197814,463.887765 L585.055997,463.16949 L583.985203,462.811743 L581.843752,462.099694 L579.959334,461.477587 C578.420388,460.971462 576.881396,460.470303 575.342119,459.975884 L573.494836,459.385929 C544.859356,450.295273 516.092652,443.78122 485.662956,451.246813 Z M857.248716,552.678398 C855.835543,558.668423 855.835543,558.668423 854.98764,564.366251 C861.028074,565.258363 866.992084,566.291581 873.076254,566.703822 C873.84502,565.909048 874.591175,565.137649 875.337331,564.366251 C874.690552,560.449816 873.94041,556.549758 873.076254,552.678398 C866.670178,551.109841 863.278198,549.561666 857.248716,552.678398 Z M692.258629,541.83121 C690.767689,543.36879 689.3206,544.861146 687.873511,546.353503 C687.599441,552.289013 687.599441,552.289013 687.873511,557.659236 C691.984559,559.072452 691.984559,559.072452 696.643748,559.920382 C698.134688,558.382803 699.581777,556.890446 701.028866,555.398089 C701.302936,549.46258 701.302936,549.46258 701.028866,544.092357 C696.917818,542.67914 696.917818,542.67914 692.258629,541.83121 Z M649.347281,503.39172 C647.815902,504.929299 646.329563,506.421656 644.843224,507.914013 C644.403375,512.312649 644.403375,512.312649 644.561721,517.241242 C644.657432,520.220303 644.750328,523.111744 644.843224,526.003185 C641.815662,526.234053 641.815662,526.234053 637.506538,522.046178 C636.665609,521.383595 635.829444,520.711873 634.994505,520.037685 L633.992941,519.227901 C627.483657,513.962161 620.962888,508.708677 612.751819,506.633285 L612.044018,506.633939 C607.357892,506.635644 603.320572,506.642999 599.802655,510.175159 C599.3804,515.686704 599.3804,515.686704 599.802655,521.480892 C599.960692,521.639569 600.113184,521.792678 600.260648,521.940464 L600.68847,522.368096 C604.343449,526.008752 604.83021,526.082523 611.766556,527.133758 C619.758667,527.988811 619.758667,527.988811 625.982486,530.101513 C633.748322,534.000152 640.609124,537.779941 644.561721,545.858877 C646.110394,549.811025 647.725628,553.736708 649.347281,557.659236 C651.64435,558.428025 653.873858,559.174204 656.103367,559.920382 C658.400436,552.232484 660.629944,544.770701 662.859452,537.308917 L663.518083,537.308555 C667.375724,537.301856 667.601704,537.171219 672.008317,534.623806 C677.315744,529.638691 677.856402,526.345532 678.623651,519.219745 C676.326582,518.450955 674.097074,517.704777 671.867566,516.958599 C669.809775,518.448129 667.812507,519.89385 665.815239,521.33957 C664.044582,522.925199 662.326003,524.464192 660.607423,526.003185 L660.607423,505.652866 C655.258856,504.23965 655.258856,504.23965 649.347281,503.39172 Z M615.313501,541.83121 C614.544735,545.675159 613.79858,549.406051 613.052425,553.136943 C614.589957,552.880679 616.112415,552.626929 617.624824,552.374853 L622.136929,551.622812 C623.634264,551.373248 625.126574,551.124522 626.618885,550.875796 L626.618885,544.092357 C622.775055,543.323567 619.044278,542.577389 615.313501,541.83121 Z M823.897834,478.045709 C820.839181,483.116503 820.267442,486.419148 819.516998,492.244691 C819.160172,496.618688 819.160172,496.618688 818.810411,500.90607 C815.357544,493.100148 810.672184,487.004416 805.243951,480.459536 C800.631354,481.231961 796.154422,481.981667 791.67749,482.731373 C791.293107,484.758988 790.920029,486.726967 790.546951,488.694946 C791.67749,496.362396 791.67749,496.362396 795.228087,499.024705 C808.468183,506.814356 812.498565,514.674914 817.255921,528.878065 C819.114981,534.822598 821.068899,540.525885 823.332565,546.342813 C825.638863,547.115237 827.877329,547.864943 830.115795,548.61465 C834.637949,541.799138 834.637949,541.799138 836.245433,536.483394 C837.747375,530.580189 839.430072,524.835997 841.421179,519.080767 C849.890762,509.88146 849.890762,509.88146 861.77087,505.307755 C869.662246,502.491534 875.618774,499.428645 882.120561,494.090559 C881.57559,491.352737 881.290719,489.921603 881.020129,488.562213 L880.942993,488.174701 C880.878684,487.851624 880.813857,487.525946 880.745194,487.180999 L880.631558,486.610113 C880.435031,485.622803 880.198646,484.435251 879.859484,482.731373 C871.909047,482.162476 866.892551,482.467144 859.527458,485.71316 C857.311249,487.016626 855.160223,488.281756 853.009197,489.546885 C850.756953,490.850351 848.570951,492.115481 846.384949,493.38061 C844.697267,494.394417 843.059223,495.378407 841.421179,496.362396 C840.652413,490.182999 839.906258,484.185349 839.160102,478.187699 C833.170298,476.398472 829.56282,474.996453 823.897834,478.045709 Z M527.131507,476.257962 C524.828218,477.52481 523.215915,478.411604 521.756605,479.452539 L521.466623,479.662939 C518.19967,482.074359 515.534482,485.460694 507.205768,496.042994 C504.755326,499.31035 502.376956,502.481608 499.998586,505.652866 C499.422011,502.193312 498.851796,498.771915 498.285555,495.374366 L497.157666,488.606825 C496.595665,485.234713 496.036049,481.876911 495.476432,478.519108 C484.171048,476.257962 484.171048,476.257962 479.958026,478.704593 C477.387818,483.041401 477.387818,483.041401 477.714614,489.14473 C478.47733,492.556986 478.47733,492.556986 479.224943,495.901672 C479.720437,498.217051 480.201357,500.46433 480.682277,502.711609 C481.302263,505.338823 481.302263,505.338823 481.909971,507.914013 C477.455545,503.777632 473.318952,500.045964 468.343511,496.60828 C461.094267,494.43344 456.834195,493.791131 449.54831,495.76035 C444.561226,499.824026 444.561226,499.824026 443.471666,510.175159 C449.730561,510.60682 455.452188,511.143957 461.56028,512.436306 C470.915649,517.022412 475.834195,521.973557 481.203385,530.666799 C484.647606,536.833448 488.015725,541.543322 493.215355,546.353503 C499.668442,528.111256 505.515082,514.843689 522.468036,504.380971 C530.856327,499.478365 537.912204,493.958319 545.220121,487.563694 C545.067875,486.954692 544.935929,486.42689 544.818922,485.95885 L544.653948,485.29893 C544.395431,484.264832 544.21354,483.537246 544.024531,482.781185 L543.909601,482.321452 C543.675354,481.384433 543.406738,480.309936 542.959044,478.519108 C542.814901,478.485191 542.67364,478.451952 542.535135,478.419374 L541.73617,478.23168 C535.720829,476.821213 535.234641,476.789331 527.131507,476.257962 Z M709.713457,507.914013 C703.495496,508.054658 703.495496,508.054658 699.406126,510.384099 C689.216548,518.290391 685.420115,524.733928 683.145805,537.308917 L689.929035,537.308917 C695.079968,532.914821 699.318133,528.86642 705.906722,526.945104 C710.403241,526.008446 714.866243,524.915852 719.323033,523.806952 C720.091799,521.511617 720.837954,519.283793 721.58411,517.055969 C717.952584,512.68081 714.893936,510.34872 709.713457,507.914013 Z M63.6107678,498.869427 C65.1483,501.944586 66.6406106,504.929299 68.1329213,507.914013 C78.4423685,515.379705 89.5585488,518.178836 102.049073,519.219745 L102.049073,501.130573 C88.9800492,500.361783 76.2954085,499.615605 63.6107678,498.869427 Z M747.690097,282.940145 C745.734863,282.999034 743.837137,283.056192 741.93941,283.113349 C735.152598,283.219502 728.372238,283.353994 721.58675,283.539695 C719.743711,292.440299 717.903936,301.341564 716.070154,310.244101 C715.318272,313.896269 714.565938,317.548342 713.813164,321.200324 C712.704912,326.550625 711.59689,331.900944 710.495553,337.252688 C710.136842,338.99748 709.788682,340.690954 709.440522,342.384428 C707.064654,353.809272 705.02647,365.198904 703.495496,376.767516 L726.109563,376.767516 C726.878441,369.036428 727.624706,361.532726 728.37097,354.029023 C731.435068,354.173443 734.564606,354.373233 737.723397,354.543074 L739.183246,354.619024 C750.632937,355.192446 762.392231,355.202828 772.751077,350.618249 C782.078239,344.741341 787.966012,337.131739 791.690359,326.742832 C793.515309,315.148282 793.566046,305.502506 788.298248,294.908942 C775.86566,284.908146 763.143379,282.759467 747.690097,282.940145 Z M587.976188,282.941511 C585.790502,283.019862 583.669101,283.095909 581.547701,283.171955 C573.978691,283.313373 566.414206,283.472624 558.848491,283.739201 C556.092671,301.014623 552.957309,318.185346 549.626937,335.358571 C546.915525,349.139227 544.53425,362.807542 542.959044,376.767516 L563.388333,376.767516 C564.160106,369.052973 564.90918,361.565328 565.658254,354.077683 C578.646628,354.429103 591.275124,354.756976 604.10504,352.517757 C615.648571,347.572573 622.643726,341.716298 628.9323,330.820604 C632.413888,319.220107 634.143069,308.033091 629.216041,296.644043 C616.46879,285.892993 604.504925,282.710436 587.976188,282.941511 Z M667.139513,259.187898 L646.884457,259.187898 C645.786621,262.496893 645.224316,264.191744 644.766912,265.862797 L644.632407,266.364989 C644.213713,267.963075 643.85083,269.683212 643.174546,272.888922 C642.348783,277.15229 642.348783,277.15229 641.539372,281.331235 L639.745956,290.601052 C638.81724,295.443911 637.887281,300.286422 636.94594,305.126821 C633.775279,321.415141 630.586422,337.632699 628.879962,354.156051 L649.135018,354.156051 C652.258892,344.120554 654.387067,334.513858 655.631757,324.07662 C655.821328,322.370269 655.878199,321.858364 655.98631,320.885237 L656.036317,320.435117 C656.072461,320.109776 656.114934,319.727477 656.168024,319.249602 L657.310887,309.50724 C657.591856,307.00567 657.864561,304.577676 658.137266,302.149682 C666.554367,302.918471 674.723906,303.66465 682.893446,304.410828 C685.562121,314.714786 685.562121,314.714786 684.458289,321.21044 C681.914216,332.169892 679.840676,342.999782 678.392322,354.156051 L700.89794,354.156051 C705.085404,335.599479 714.308462,308.74655 705.399064,290.843949 C694.866435,283.201274 694.866435,283.201274 668.563697,283.822029 C666.549092,283.903113 664.593741,283.981811 662.638389,284.06051 C662.891577,283.551752 663.119447,283.093869 663.326499,282.66199 L663.448267,282.405784 C663.507939,282.279043 663.565818,282.154193 663.622025,282.030565 L663.732249,281.784738 L663.838232,281.540973 L663.940192,281.298076 L664.038343,281.054853 C664.07045,280.973592 664.101958,280.892078 664.132903,280.810111 L664.224087,280.562656 C664.921338,278.622652 665.331363,276.327477 665.912818,271.142663 L665.98967,270.449787 C666.210385,268.439028 666.457237,266.018557 666.753376,263.060446 L666.858333,262.010374 C666.947512,261.116939 667.041051,260.17715 667.139513,259.187898 Z M236.781611,310.063694 C244.782211,311.333255 244.782211,311.333255 250.354057,314.859814 C255.32812,322.521291 255.197326,327.214766 253.925753,336.160229 C250.354057,342.79016 250.354057,342.79016 244.782211,347.445217 C236.781611,348.855841 236.781611,348.855841 228.781012,347.445217 C222.076347,341.673992 219.955276,338.04297 218.494527,329.389236 C220.497701,317.522084 224.560267,312.003017 236.781611,310.063694 Z M764.425115,302.392718 C764.646677,302.612406 764.857342,302.82129 765.057798,303.020931 L765.445299,303.40835 C768.938717,306.917864 769.034061,307.569126 770.19726,315.514524 C769.639154,324.62026 766.581177,329.484632 759.920027,335.895202 C754.232905,338.71472 750.207045,338.348843 743.870648,338.268294 C741.820656,338.248141 739.770665,338.227987 737.658553,338.207222 C735.297868,338.168354 735.297868,338.168354 732.889494,338.128701 C733.591082,333.893978 734.295571,329.659729 735.001254,325.425675 C735.39325,323.067676 735.785245,320.709677 736.189119,318.280224 C737.240669,312.214538 738.395222,306.186891 739.647127,300.159219 C748.85117,299.695173 755.670601,299.499219 764.425115,302.392718 Z M603.888664,302.392718 C608.393753,306.859715 608.393753,306.859715 609.660809,315.514524 C609.102703,324.62026 606.044726,329.484632 599.383575,335.895202 C593.696454,338.71472 589.670593,338.348843 583.334197,338.268294 C581.284205,338.248141 579.234214,338.227987 577.122101,338.207222 C574.761417,338.168354 574.761417,338.168354 572.353043,338.128701 C572.610815,333.474222 572.898058,328.821342 573.197747,324.169332 C573.354545,321.578124 573.511343,318.986917 573.672893,316.317188 C574.521078,309.747756 575.680979,305.744105 579.110676,300.159219 C588.314719,299.695173 595.13415,299.499219 603.888664,302.392718 Z" id="Combined-Shape" fill="#FFFFFF" fill-rule="nonzero"></path>
    </g>
</svg>