<?xml version="1.0" encoding="UTF-8"?>
<svg width="5111px" height="1000px" viewBox="0 0 5111 1000" version="1.1" xmlns="http://www.w3.org/2000/svg" xmlns:xlink="http://www.w3.org/1999/xlink">
    <title>Artboard</title>
    <g id="Artboard" stroke="none" stroke-width="1" fill="none" fill-rule="evenodd">
        <path d="M534.571522,145 C554.746101,145.297419 572.403933,150.564952 587.250588,164.737175 C588.908453,166.28132 590.566319,167.825465 592.274422,169.416402 C596.150455,173.495274 596.150455,173.495274 598.410739,178.015584 C612.558043,176.26714 626.323478,173.220023 640.225986,170.105043 C644.768866,169.08717 649.312955,168.074674 653.858322,167.06796 C655.852713,166.62074 657.847104,166.173521 659.901932,165.71275 C699.655189,157.795886 746.840511,158.366008 786.01428,168.974965 L795.196683,171.226291 C856.101615,186.935531 913.847038,222.091275 948.754702,275.202232 C957.586871,290.309312 964.732547,306.264262 971.498806,322.382959 C974.619217,329.65896 978.499231,335.527878 983.224027,341.876792 C1011.63092,381.117695 1019.29245,423.580137 1019.04423,471.094069 C1019.04376,471.43584 1019.04335,471.744749 1019.04297,472.027179 L1019.04225,472.558625 C1019.04214,472.641945 1019.04203,472.722796 1019.04192,472.801415 L1019.0412,473.332152 C1019.04109,473.415268 1019.04098,473.495985 1019.04088,473.574712 L1019.04027,474.026469 C1019.04017,474.098872 1019.04007,474.170102 1019.03998,474.240569 L1019.03914,474.86517 L1019.03899,474.969907 L1019.03826,475.514702 C1019.03816,475.590708 1019.03805,475.668402 1019.03794,475.748191 L1019.03726,476.255348 C1019.03714,476.345155 1019.03701,476.437875 1019.03688,476.533917 L1019.03605,477.153293 C1019.0356,477.486178 1019.0351,477.856311 1019.03453,478.274723 C1019.02203,485.734103 1018.99369,493.193321 1018.96476,500.652653 C1018.95341,505.755657 1018.9431,510.858662 1018.93386,515.961669 C1018.90914,528.374916 1018.87146,540.78807 1018.82349,553.201248 C1020.94454,554.204214 1020.94454,554.204214 1023.10843,555.227441 C1028.45576,558.03154 1031.2465,560.993921 1035.06928,565.632098 C1036.22017,567.007261 1037.37106,568.382424 1038.55683,569.799258 C1043.38991,576.104213 1043.9752,581.309183 1043.99919,588.143706 L1043.99949,589.025261 C1043.99585,590.509974 1043.9739,592.073714 1043.96915,593.742771 C1043.97498,596.560107 1043.9808,599.377443 1043.98681,602.280152 C1043.68661,609.705113 1043.68661,609.705113 1041.42633,616.485577 C1026.86786,612.422978 1018.20855,606.693727 1010.34743,593.742771 C1003.78856,579.375572 1003.21691,564.09748 1003.09243,548.65214 L1003.08036,546.966566 C1003.07856,546.685539 1003.07683,546.404465 1003.07516,546.123349 L1003.06506,544.375915 C1003.05164,542.045391 1003.03677,539.712627 1003.00151,537.380166 C1002.78836,524.90708 1002.53785,512.435101 1002.2651,499.963185 C1002.157,494.453626 1002.0883,488.94464 1002.02367,483.434425 C1001.73082,465.433892 1000.66971,447.824521 997.827579,430.031651 C997.465,427.681547 997.465,427.681547 997.095097,425.283967 C995.410122,415.707461 992.67292,406.888878 989.295022,397.766751 C988.476795,395.547907 987.658568,393.329063 986.815546,391.042982 C986.388877,389.897017 986.156149,389.271946 985.93927,388.689445 L985.809621,388.341227 C985.591959,387.756621 985.354528,387.118922 984.91924,385.949807 C984.865865,425.506131 984.826305,465.062444 984.80213,504.618796 C984.790594,522.995495 984.774878,541.37217 984.748725,559.748854 C984.666772,586.002923 984.604874,605.832468 984.594904,622.381151 L984.594122,623.923074 L984.593975,624.305618 L984.593926,629.34632 C984.598599,642.254076 984.641638,653.242779 984.740865,664.07025 L984.762994,666.388595 C984.770662,667.160981 984.778622,667.933185 984.786882,668.705848 L984.812569,671.025853 C985.105151,696.575131 985.731141,723.321441 986.923959,774.286208 C987.327024,785.626978 987.545718,796.970272 987.744595,808.316199 C987.793592,810.04403 987.842589,811.77186 987.893071,813.552049 C987.955444,824.149828 985.971208,831.23447 980.398673,840.240883 C965.4901,854.745693 949.367101,854.456675 929.727705,854.322705 C927.254508,854.32167 924.781311,854.320634 922.233169,854.319567 C917.022115,854.312756 911.811065,854.294994 906.600081,854.266974 C898.609276,854.225613 890.619063,854.22062 882.628162,854.221175 C877.561648,854.210069 872.495139,854.196897 867.428637,854.181446 C865.034132,854.178931 862.639626,854.176415 860.17256,854.173824 C857.954216,854.159405 855.735872,854.144985 853.450306,854.130129 C851.498584,854.121514 849.546861,854.112898 847.535996,854.104022 C842.521371,853.80181 842.521371,853.80181 835.74052,851.541656 C831.727765,851.309202 827.707822,851.191661 823.688617,851.144363 C821.324193,851.090464 818.959768,851.036564 816.523695,850.981032 C811.562103,850.88444 806.599941,850.813525 801.637608,850.769142 C787.538742,850.397002 778.630047,849.769681 767.932011,840.240883 C761.536099,831.810389 763.411444,827.175932 763.411444,815.379182 C766.395018,804.937268 769.378593,794.495354 772.452579,783.737018 C687.420708,782.991167 602.388838,782.245316 514.780244,781.476863 L514.780244,806.338564 C513.735553,821.25158 511.09526,832.455305 501.050787,843.772374 C487.856228,853.620895 475.300757,854.756709 459.637478,854.783502 L458.360598,854.783394 C458.146625,854.783022 457.932066,854.782484 457.716912,854.781799 C454.428389,854.79957 454.428389,854.79957 451.073432,854.817701 C446.455408,854.832162 441.837301,854.829253 437.219296,854.809941 C430.189889,854.790707 423.164637,854.855781 416.135639,854.927473 C411.63126,854.931118 407.126874,854.92981 402.622498,854.923059 C400.540618,854.94845 398.458738,854.97384 396.31377,855 C382.920349,854.856864 372.110333,852.754682 361.080957,844.761192 C351.657993,831.006616 354.17817,816.981539 355.712784,800.970697 C355.996864,797.422077 355.996864,797.422077 356.286684,793.801769 C357.340068,781.421608 358.644725,769.100261 360.243284,756.780149 C366.195795,710.555325 369.647531,664.151457 373.269851,617.697872 C374.493108,602.042878 375.73484,586.389336 376.974336,570.735621 C377.630571,562.447389 378.281911,554.158798 378.929045,545.869851 C380.33333,527.950543 381.781818,510.052102 383.683794,492.177074 C381.961828,492.914184 380.239863,493.651295 378.465717,494.410742 C335.605015,512.549255 335.605015,512.549255 318.135568,510.258311 C312.772516,506.965196 309.074456,503.45787 304.573867,498.957537 C284.252235,536.094951 279.545272,587.082406 289.740755,628.210129 C291.357545,633.669411 292.990792,638.523842 295.532732,643.607432 C303.783755,642.717993 303.783755,642.717993 309.94204,637.674526 C313.486125,634.675856 313.610479,634.57064 320.46815,634.566948 L321.243458,634.566814 C330.793445,637.201143 334.484468,640.586659 340.738405,648.127741 C346.016094,658.682517 344.593471,673.967535 341.533036,685.102458 C335.031185,699.439055 324.234779,707.824504 310.930914,715.64986 C290.145538,721.7829 271.58223,719.162611 252.587343,709.151916 C250.467665,708.04188 250.467665,708.04188 248.305165,706.909419 C216.509364,687.244515 205.631965,644.854367 197.328485,610.782218 C195.161549,601.06509 193.495574,591.291353 191.983488,581.453181 C191.703414,579.645366 191.42334,577.837551 191.134778,575.974954 C189.318366,563.060173 189.005897,550.410345 189.299401,537.380166 C186.5023,537.286934 183.705199,537.193703 180.823338,537.097646 C163.188272,535.091877 145.703756,526.786326 133.498649,513.789802 C127.794008,506.161545 125.829417,499.564614 126.01146,489.916919 C128.722034,484.972831 128.722034,484.972831 132.792311,480.876301 C145.718738,478.421771 160.170376,481.026196 173.212539,482.050522 C175.81479,482.253919 178.417041,482.457316 181.098148,482.666877 C183.058668,482.821838 185.019188,482.976799 187.039118,483.136455 C187.003608,481.286213 186.968098,479.435971 186.931512,477.529661 C185.505291,391.461873 192.334114,290.966217 252.587343,223.218676 C253.898484,221.697839 255.209625,220.177002 256.560498,218.610079 C279.44017,193.817205 315.379992,174.892332 349.489278,173.166956 C357.214714,173.11103 364.939257,173.075658 372.664911,173.071495 C375.31633,173.043817 377.967748,173.016139 380.699513,172.987622 C393.398859,172.966458 404.944401,173.455952 417.332001,176.355783 C427.796987,178.493186 433.157757,177.486309 442.089722,171.751049 C443.467694,170.788325 444.845667,169.825602 446.265397,168.833706 C472.983328,152.311927 496.491316,145.468809 528.059411,145.102082 C530.208407,145.068395 532.357404,145.034708 534.571522,145 Z M499.077668,781.512739 L375.021317,781.512739 C372.765747,785.989657 372.765747,785.989657 372.473889,790.125559 C372.471268,791.811223 372.468724,793.447309 372.466179,795.083396 C372.463184,796.920681 372.460276,798.703928 372.457369,800.487175 C372.463436,801.783788 372.466746,802.491031 372.46978,803.139391 L372.471587,803.525585 C372.47461,804.17161 372.477854,804.864849 372.483801,806.135786 C372.474814,808.056314 372.466091,809.920355 372.457369,811.784397 C372.460364,813.621682 372.463272,815.404929 372.466179,817.188177 C372.47495,822.828348 372.460421,825.675896 375.021317,830.758833 C380.801216,832.15787 380.801216,832.15787 386.299167,832.997292 C388.14967,825.039282 389.905896,818.624541 394.616582,811.871837 C402.043429,806.891766 406.851379,807.130864 415.621578,808.374245 C421.483294,812.147595 423.9773,815.137914 426.002376,821.791882 L429.154998,835.235751 C434.243265,835.375126 439.330091,835.485137 444.419744,835.56365 C446.563152,835.594866 448.643519,835.625164 450.723886,835.655462 C465.592821,836.069781 476.891044,835.853006 490.055388,828.520374 C496.370984,819.118847 496.370984,819.118847 499.077668,781.512739 Z M969.381638,781.512739 L845.523213,781.512739 C841.01927,794.971589 841.01927,794.971589 840.500261,803.488518 C840.533161,806.50344 840.565094,809.429689 840.597026,812.355937 C840.63424,819.917914 839.855826,826.300949 843.271242,833.104998 C849.041918,834.506962 849.041918,834.506962 854.531099,835.34814 C856.346832,826.305068 857.64781,819.450106 862.835243,811.795152 C870.27073,806.991044 875.126623,807.195287 883.806726,808.430439 C889.65909,812.211683 892.149117,815.208258 894.170963,821.876146 L897.318554,835.34814 C902.932362,835.441134 908.545596,835.514686 914.159957,835.567197 C916.521272,835.588051 918.813137,835.608292 921.105002,835.628533 C935.604934,835.872853 949.074523,836.502311 962.625724,830.861856 C962.760842,830.682405 962.893258,830.506543 963.023025,830.333875 L963.404437,829.825058 C969.132588,822.158036 969.371261,820.41463 969.381205,786.167276 L969.381638,781.512739 Z M826.933801,781.512739 L790.756572,781.512739 C788.450274,790.738217 786.211808,799.692357 783.973342,808.646497 C786.952311,808.502349 789.843663,808.36244 792.735015,808.222532 C797.590742,807.825747 797.590742,807.825747 802.061956,808.646497 C806.629157,814.802627 806.629157,814.802627 808.014947,820.049388 L811.106263,833.519108 L824.672724,833.519108 C825.44149,815.836943 826.187645,798.674841 826.933801,781.512739 Z M612.291281,524.540713 C609.102897,532.064073 606.133581,534.849841 598.990851,538.814845 C597.379236,539.703798 595.81502,540.566606 594.250805,541.429414 C584.602941,548.006743 579.622213,558.324223 576.63481,569.341701 C576.490486,570.87935 576.350407,572.371774 576.210328,573.864198 L571.682523,573.864198 C570.758638,567.030476 569.239166,562.22153 565.969705,556.092197 C564.544507,553.869814 563.161227,551.712795 561.777947,549.555776 C559.699755,546.252233 558.660659,544.600461 557.634828,543.116517 L557.366846,542.732233 C556.425242,541.393731 555.420333,540.087565 553.571299,537.684221 C551.262118,536.915396 549.020854,536.169184 546.779591,535.422972 L546.779591,530.900475 C530.20508,517.830677 512.477447,511.740043 491.411246,512.050848 C478.493911,513.755285 471.400589,518.885249 463.413135,528.780554 C459.108538,535.865527 459.240108,540.990644 460.75128,548.990464 C464.147134,554.502257 464.147134,554.502257 469.806892,558.035458 C477.877198,559.46273 485.195205,559.65029 492.445921,555.350225 C494.709824,551.251712 494.709824,551.251712 495.275799,545.315935 C494.709824,539.945469 494.709824,539.945469 492.445921,537.684221 C488.673871,537.592327 484.898338,537.587618 481.126406,537.684221 C480.356679,540.759519 479.609591,543.744367 478.862503,546.729215 L474.334697,546.729215 C475.47566,538.295988 476.741142,534.037236 483.390309,528.639226 C499.135299,523.268407 512.098148,528.472109 526.404464,535.422972 C521.027695,536.27094 521.027695,536.27094 515.08495,537.684221 L514.457568,538.311579 C509.98805,542.791758 509.9184,543.232356 508.293241,553.512961 C512.396565,555.067569 512.396565,555.067569 517.348853,555.774209 C520.366401,552.382011 520.366401,552.382011 524.140561,548.990464 C532.064222,547.859839 532.064222,547.859839 539.987882,548.990464 C545.922088,553.078221 548.392417,558.324182 551.307396,564.819204 C549.767942,563.281555 548.273766,561.789131 546.779591,560.296706 C540.364003,559.47516 536.806597,559.489741 531.215258,562.840611 C527.917705,568.33009 527.917705,568.33009 530.93227,580.647944 C532.231184,580.311583 533.491895,579.985115 534.752606,579.658647 C537.39642,579.016311 537.39642,579.016311 539.987882,578.386695 C545.441232,576.128979 545.441232,576.128979 551.307396,576.125447 C561.031801,582.681723 564.027065,590.216407 568.286668,600.999181 C573.6752,614.690188 577.925686,622.451479 591.633167,628.840804 C593.316945,629.369371 594.9512,629.882392 596.585455,630.395412 L596.585455,634.917909 L596.074058,634.918385 C590.717272,634.933769 590.12268,635.446565 570.302957,652.539749 C569.232555,653.467744 568.193636,654.368445 567.154717,655.269147 C567.347148,652.674364 567.53392,650.155898 567.720692,647.637433 C567.937297,645.213863 568.09086,643.49566 568.338356,642.200602 C570.536769,641.004741 573.156516,638.862612 577.627283,635.16417 L578.474231,634.917909 L578.474231,628.134164 C578.388239,628.074517 578.30217,628.015053 578.216023,627.955769 L578.215,628.071 L578.215355,627.841888 C571.656706,623.340161 564.65404,619.869144 557.4673,616.449045 C556.291577,617.272178 555.150434,618.071101 554.009291,618.870024 C549.460304,624.677566 549.460304,624.677566 550.551281,639.234731 C552.856621,641.5133 552.856621,641.5133 557.899551,643.364637 C562.873346,643.692373 565.126692,643.840851 567.983827,642.388628 C567.755257,643.594714 567.575656,645.14765 567.333923,647.2378 C566.274191,654.877168 566.274191,654.877168 569.171048,659.781367 C568.9175,660.427454 568.669324,661.057276 568.423049,661.671923 L566.946633,661.671975 C565.842143,663.215338 564.770138,664.713308 563.698133,666.211278 C562.4976,668.526323 561.332377,670.773279 560.167154,673.020234 C553.103853,686.575334 548.114065,693.124746 533.560807,697.823246 L533.108,697.967 L532.622769,696.514674 C532.052902,694.807078 531.492586,693.128101 530.93227,691.449124 L530.883,691.461 L530.789411,691.177449 C528.33072,691.794794 525.92988,692.397614 523.540611,692.997528 L521.750106,693.447101 C521.653563,697.228611 521.65827,701.013732 521.750106,704.79536 L521.874401,704.920144 L521.876659,705.016615 C524.140561,707.277864 524.140561,707.277864 532.205716,707.419192 C534.759999,707.372805 537.241758,707.327735 539.721005,707.28271 C538.989955,708.749829 538.279423,710.177072 537.56889,711.604316 C527.001332,718.768432 519.725993,718.741736 507.643845,716.879483 C506.293246,716.62929 504.98237,716.386455 503.671494,716.14362 C503.574952,719.92513 503.579659,723.710251 503.671494,727.491879 C503.703105,727.523627 503.734273,727.554931 503.765025,727.585807 L503.765435,727.629101 L503.999752,727.862989 C506.038182,729.894856 506.276953,730.016535 512.962541,733.42355 C515.166984,734.501056 517.308215,735.547663 519.447862,736.593497 C509.300042,742.150356 499.623429,747.187202 488.417666,750.188398 C479.56893,750.188398 474.954041,748.817396 467.922657,743.680025 L467.518,743.382 L467.395923,742.992163 C467.164298,742.258492 466.958706,741.605478 466.776139,741.015112 C466.485143,740.072024 466.252062,739.287548 466.064596,738.590557 C465.330819,735.845838 465.318627,734.442354 465.279086,729.89035 C465.806749,729.714668 466.253234,729.566014 466.64327,729.436155 L467.436029,729.172211 C467.635576,729.105774 467.820318,729.044265 467.996294,728.985675 L468.749384,728.73494 C468.892237,728.687378 469.035311,728.639743 469.182652,728.590686 L469.64152,728.43791 C469.881399,728.358044 470.139979,728.271952 470.430912,728.175088 L471.579188,727.792778 C471.732047,727.741885 471.892551,727.688446 472.061567,727.632173 C472.820529,731.442 473.55714,735.141069 474.293751,738.840139 L474.317323,738.846369 L474.334697,738.935344 C479.711467,740.348624 479.711467,740.348624 485.654212,741.196592 L486.180831,740.67059 L486.299442,740.552119 L486.920453,739.931836 L487.011139,739.841257 L487.649014,739.204129 C487.697646,739.155554 487.745584,739.107672 487.793155,739.060157 L488.442922,738.411153 L488.520145,738.334019 L489.330419,737.524695 C489.43566,737.419578 489.547077,737.308292 489.665775,737.189733 L490.182018,736.674095 C490.944369,729.82098 491.290171,725.178954 489.069648,719.870912 C488.459524,718.370115 487.645981,716.818368 486.581557,715.150647 C479.075512,710.31816 474.007629,710.645271 465.254446,711.604316 C457.704605,716.659427 455.224914,719.161664 451.695487,727.491879 C451.646485,729.047631 451.602304,730.599234 451.595861,732.137551 L451.595094,732.716953 C451.601561,739.601427 452.440398,746.199421 457.116655,751.681366 C458.352427,752.72949 459.551854,753.746787 460.75128,754.764084 C462.387762,756.159443 463.984309,757.520751 465.574056,758.87626 L466.525598,759.692565 C466.530602,759.695215 466.535606,759.697864 466.54061,759.700511 L466.552531,759.710565 C467.200546,760.051845 467.846453,760.372378 468.490622,760.672988 C474.474782,763.47521 480.309115,764.546544 486.291213,764.5541 L486.353801,764.5541 C492.077579,764.56129 497.936391,763.601688 504.189917,762.25447 C528.389075,750.97477 543.209228,730.425629 557.000632,708.665322 L557.908554,707.228907 C558.059655,706.98924 558.210654,706.749449 558.361562,706.509543 L559.266009,705.068825 C559.868363,704.107547 560.469616,703.144784 561.070478,702.181222 C562.313018,700.161587 563.5206,698.198776 564.726664,696.238431 C565.22733,702.73346 565.293857,703.321779 566.649707,710.118355 L566.843431,711.088188 L566.909971,711.417197 C563.770417,720.574514 559.64293,726.70749 553.343511,734.028662 C551.920092,735.530205 550.538539,736.987585 549.156986,738.444964 C548.130739,739.548929 547.574855,740.14691 547.062437,740.698134 L546.784681,740.996924 C546.273957,741.546326 545.729081,742.132466 544.723156,743.21457 C540.439475,747.675035 540.439475,747.675035 537.515973,752.117834 C538.196063,757.196581 538.196063,757.196581 539.77705,761.16242 L540.470437,761.393394 C544.878573,762.859562 545.160566,762.885199 551.082434,763.423567 C553.009378,761.963716 554.30184,760.984548 555.464302,759.900846 L555.720692,759.658065 L555.974032,759.410415 C558.117951,757.280657 560.064699,754.4686 565.214164,747.030255 C567.21239,743.890088 567.21239,743.890088 569.171048,740.812102 C580.638215,753.161739 590.562678,759.798644 607.609353,761.16242 C607.91686,760.547389 608.222557,759.935975 608.526808,759.327455 L612.131507,752.117834 C605.930604,747.889815 599.840842,743.744741 593.194989,740.246815 C591.945744,739.670223 590.733242,739.110589 589.520739,738.550955 L589.520739,734.028662 C587.126237,729.799942 584.663719,726.078902 581.837405,722.801474 C583.662484,723.704974 585.559467,724.547825 587.529843,725.367852 C596.85195,726.743367 606.117854,727.390986 614.696678,723.106604 C620.588814,718.482496 625.29264,714.861225 627.068553,707.348528 C627.433951,699.523591 626.588807,694.557696 622.195856,688.057251 L621.989,687.925 L621.888663,687.772971 C615.836691,683.8303 612.719984,683.245234 605.801123,684.300424 L605.363682,684.368493 C600.279073,689.47521 600.279073,689.47521 598.584203,700.256057 L598.887212,700.254665 C598.874687,700.333885 598.86207,700.413701 598.849357,700.494118 L609.883,700.494 L609.883335,709.334664 C598.706455,710.476238 594.262929,711.169632 585.407497,704.245667 L585.157014,704.048916 C585.100719,703.982336 585.044978,703.914961 584.989588,703.846594 C581.354559,693.993417 579.701387,689.496371 579.484677,684.246371 C579.605545,678.584191 580.894354,672.908859 582.90476,667.114203 C587.827368,656.422034 591.930608,648.536158 603.377163,643.962904 L603.377163,648.485401 C602.92623,653.579975 602.666781,658.59778 602.625477,663.713497 C603.798239,671.706494 603.798239,671.706494 614.696678,680.142881 C616.707208,679.630156 618.109903,679.272441 619.280112,678.944766 L619.805067,678.79521 C622.190576,678.102988 623.765452,677.460935 628.280095,675.620384 C630.26101,670.815231 630.26101,670.815231 630.543998,666.575389 C629.019637,666.194746 628.003396,665.940984 627.159883,665.730353 L626.671819,665.60848 C626.301877,665.516103 625.95523,665.429543 625.597153,665.340128 L624.777248,665.135392 C624.147623,664.978171 623.423546,664.797364 622.462783,664.557455 L621.830202,664.399495 L621.488387,664.314141 C620.732677,656.68387 620.732677,656.68387 621.488387,648.485401 C626.184052,643.968951 630.262997,641.804993 636.380623,639.555236 C638.437237,638.987627 640.433363,638.436713 642.429488,637.885798 C644.510157,637.30017 646.529629,636.731766 648.549101,636.163363 C650.124636,635.739909 651.653832,635.328909 653.183027,634.917909 L653.183027,630.395412 C646.534869,628.28749 646.534869,628.28749 640.855368,625.758086 C638.792741,624.788046 636.790778,623.846536 634.788816,622.905026 C628.721429,620.312069 628.721429,620.312069 623.752289,616.827921 C621.78115,612.141249 621.78115,612.141249 621.488387,607.782927 C625.337021,606.245278 629.072461,604.752853 632.807901,603.260429 C632.746927,603.016818 632.689204,602.786198 632.63439,602.5672 L632.24102,600.995563 C632.137484,600.581905 632.046224,600.217291 631.961872,599.880282 L631.839856,599.39279 C631.761072,599.078024 631.686515,598.780142 631.610816,598.477704 L631.495743,598.017951 C631.386291,597.580655 631.269345,597.113419 631.130179,596.557411 L631.00511,596.05772 C630.873912,595.533544 630.723299,594.931799 630.543998,594.215435 C622.225325,593.726675 616.000353,593.705899 608.187957,596.75934 C603.377163,600.999181 603.377163,600.999181 601.11326,607.782927 L601.113851,608.871677 C601.123687,614.580257 601.297469,614.806663 604.367621,618.806513 C605.570319,619.671441 606.737644,620.510929 607.904969,621.350418 C600.331132,619.501206 595.472062,618.053693 590.076734,612.305424 C584.721339,598.041116 585.949305,582.718868 591.960372,568.794055 C597.481347,559.49995 604.625613,554.561124 614.979666,551.251712 C622.596017,551.251712 625.140273,552.84566 630.543998,558.035458 C629.774271,561.87958 629.027183,565.610641 628.280095,569.341701 C623.661733,568.572876 619.179206,567.826664 614.696678,567.080452 C614.215598,568.858359 613.748668,570.583974 613.281739,572.30959 C612.463095,578.169656 612.433858,578.378944 616.492617,584.468983 L616.960581,585.170441 C621.063905,587.149033 621.063905,587.149033 626.016192,587.431689 C632.804591,584.454911 636.711268,581.400694 641.439031,575.701462 C645.003018,567.270336 645.46231,560.274518 644.127416,551.251712 C640.865465,543.363618 638.948764,540.732318 631.251468,536.977581 C629.471474,536.449014 627.743833,535.935993 626.016192,535.422972 C628.549911,529.441203 631.800905,524.548633 635.496286,519.170248 C643.03133,511.644038 647.260865,510.95856 657.710833,510.549238 C652.259036,518.490453 650.08987,523.498434 650.919124,533.161724 C654.767759,533.930548 658.503199,534.67676 662.238639,535.422972 C663.778093,533.404808 665.272269,531.446001 666.766445,529.487195 C671.69762,521.175593 673.101139,517.712899 671.294251,508.287989 C666.702737,501.255923 663.12888,497.810522 654.898641,495.647963 C634.621865,493.849799 620.176056,506.485457 612.291281,524.540713 Z M743.27396,711.417197 L736.49073,711.417197 C736.106347,712.185987 735.727616,712.943471 735.351712,713.695303 L734.229653,715.93949 C727.039824,725.608869 721.25285,728.163355 709.499126,730.919586 C699.338383,733.112169 691.1805,735.587834 682.224887,740.812102 C682.993653,744.656051 683.739809,748.386943 684.485964,752.117834 C686.281753,752.144862 688.024726,752.171095 689.767698,752.197328 C692.104026,752.218349 694.371639,752.238753 696.639252,752.259156 C708.858181,752.401241 713.571863,750.236135 723.206904,742.931927 C726.185872,740.673607 729.077224,738.481708 731.968576,736.289809 L731.968576,761.16242 C733.198602,761.469936 734.414157,761.773834 735.621029,762.075562 L739.221387,762.975679 L741.012883,763.423567 C746.336547,757.656087 747.758307,755.034321 748.220065,747.030255 C748.075922,744.916083 747.936018,742.864092 747.796114,740.812102 C757.56051,748.449296 765.421649,752.942041 778.038015,753.107086 C785.649502,752.906778 787.502708,753.110653 793.017649,747.595541 C792.169745,741.660032 792.169745,741.660032 790.756572,736.289809 C779.686039,735.631909 768.763237,734.717945 758.112276,731.484873 C751.069736,728.653542 748.551417,725.852149 745.535037,718.907245 C744.766271,716.360629 744.020115,713.888913 743.27396,711.417197 Z M899.17057,684.283439 C896.404149,694.878591 894.421935,702.723387 886.394364,710.427946 C884.628159,711.533081 882.913901,712.605713 881.199643,713.678344 C884.254701,716.753503 887.219904,719.738217 890.185107,722.72293 C890.831754,722.443972 891.425743,722.18773 891.975565,721.950542 C889.566012,728.546044 887.939358,731.857803 882.100541,736.896091 C879.776225,738.495378 877.520271,740.047628 875.264317,741.599877 C872.927989,743.229283 870.660376,744.810765 868.392763,746.392247 C865.725488,748.195055 865.725488,748.195055 863.111029,749.962164 C863.111029,752.318093 863.676787,754.631676 864.287111,756.928792 L864.621302,758.180287 C864.898257,759.222097 865.164841,760.261478 865.372106,761.300858 C867.342069,761.638184 869.254092,761.965589 871.166115,762.292994 C880.64504,761.083031 880.64504,761.083031 891.780776,748.899162 C892.795788,747.71852 893.780946,746.572603 894.766104,745.426687 L894.766774,745.906943 C894.767444,746.058378 894.768784,746.202505 894.771464,746.343357 L894.775365,746.511065 C894.776909,746.566615 894.77871,746.6219 894.780811,746.677176 L894.792436,746.926736 L894.802669,747.092739 C894.910698,748.684863 895.337888,750.773553 897.027181,759.033119 C900.871011,759.80415 904.601788,760.552504 908.332565,761.300858 C909.870097,758.987764 911.362408,756.742703 912.854718,754.497642 C914.055915,755.654188 915.221783,756.776719 916.387651,757.89925 C923.255671,762.138177 923.255671,762.138177 937.726563,761.300858 L937.922092,760.320332 C938.504611,757.399156 938.754039,756.14834 939.101929,754.403763 L939.215566,753.833907 C939.412093,752.848377 939.648478,751.662968 939.98764,749.962164 C934.545877,747.863012 929.363663,745.762782 924.160102,743.158948 C916.971439,737.70285 915.284042,734.631719 912.572084,725.86744 C910.593642,718.213821 910.593642,718.213821 906.071488,713.678344 C906.029927,713.695561 905.988631,713.712668 905.947598,713.729667 C905.962699,713.003542 905.97567,712.285447 905.988641,711.567352 C906.009525,709.642374 906.029795,707.774013 906.050065,705.905653 C906.098182,702.466844 906.070956,699.024487 905.909667,695.589172 C903.291565,693.183557 903.291565,693.183557 901.276538,688.664411 C900.560509,687.174881 899.865539,685.72916 899.17057,684.283439 Z M390.492599,677.5 L390.323827,677.669684 C390.076316,677.918855 389.853681,678.145182 389.648699,678.365595 L389.514581,678.511847 C389.426807,678.609013 389.342203,678.705753 389.260135,678.803556 L389.138856,678.951241 L389.020906,679.101634 C388.962684,679.177694 388.905532,679.255186 388.849182,679.334739 L388.737473,679.496779 C388.55281,679.772043 388.375082,680.074847 388.194383,680.428416 L388.085527,680.646836 C387.174102,682.520861 386.138842,685.780164 383.741399,693.328025 C388.278708,694.946176 388.278708,694.946176 392.743,697.850318 C394.397435,702.649136 394.99501,706.922357 395.292281,711.991317 C395.283402,714.627451 395.283402,714.627451 395.2747,717.211385 C395.301175,725.098908 394.798966,731.083524 390.140974,737.756021 C384.199117,745.427075 380.143634,751.181597 379.240599,761.16242 L380.466669,761.1621 C388.250392,761.155691 388.414244,761.021099 391.855146,758.194666 C395.400529,754.293362 395.400529,754.293362 399.485409,750.660455 C406.239859,746.069838 411.877693,745.864149 419.870869,746.36781 C424.923028,747.303248 424.923028,747.303248 428.468101,753.248408 C429.328879,755.170382 430.16434,757.035828 430.999801,758.901274 L437.751001,758.901274 C439.281273,757.363694 440.766537,755.871338 442.251801,754.378981 C442.681162,747.476404 443.109767,742.536227 440.001401,736.289809 C433.840408,732.004138 430.228188,731.741673 422.560801,731.484873 C420.074109,731.580971 417.660555,731.674244 415.247,731.767516 C416.442525,730.229936 417.602888,728.73758 418.763251,727.245223 C424.158376,721.903553 424.158376,721.903553 432.687601,722.157643 C435.174293,722.349841 437.587847,722.536385 440.001401,722.72293 C440.30551,721.561801 440.543865,720.651726 440.739213,719.878429 L440.878017,719.322316 C441.360003,717.364174 441.559761,716.224349 441.950359,713.526211 L442.121995,712.32947 C442.163035,712.041532 442.206185,711.738036 442.251801,711.417197 C437.751001,706.894904 437.751001,706.894904 431.703051,705.905653 C422.765811,707.09168 418.443982,710.264962 411.467032,715.727508 C410.456813,716.568372 409.476307,717.384504 408.4958,718.200637 C408.575707,715.113995 408.575707,715.113995 408.654031,712.088475 C408.695875,709.361674 408.736487,706.715073 408.7771,704.068471 C408.960264,694.866554 409.535334,687.422373 403.995,679.761146 C397.10315,677.923965 397.10315,677.923965 390.492599,677.5 Z M835.907633,738.550955 C829.143623,738.550955 829.143623,738.550955 825.109877,740.758655 C823.70247,741.764423 822.336457,742.74061 820.970444,743.716797 C814.852915,747.974922 813.570351,749.097883 811.106263,756.421975 C812.756224,756.448677 814.357656,756.474594 815.959088,756.50051 C818.094155,756.521278 820.166425,756.541435 822.238696,756.561593 C825.401003,756.601253 825.401003,756.601253 828.50069,756.640127 C833.652963,756.421975 833.652963,756.421975 835.907633,754.188098 C835.999915,748.976519 836.003269,743.762475 835.907633,738.550955 Z M634.456956,736.289809 C633.922872,738.112018 633.404495,739.880633 632.886119,741.649248 C632.172103,747.877785 632.172103,747.877785 634.813964,751.716302 C639.026663,754.830571 639.026663,754.830571 644.69417,755.509554 C646.797128,755.426447 648.838233,755.345783 650.879339,755.26512 C654.545752,755.153392 658.211827,755.018804 661.875196,754.830571 L661.875196,750.195381 C653.835754,742.651744 645.529139,737.310795 634.456956,736.289809 Z M908.332565,690.610669 C911.407629,698.453679 914.392251,706.066011 917.376872,713.678344 C918.809245,713.313014 920.014769,713.005543 921.048597,712.737855 L919.637949,713.678344 C921.782673,720.502676 924.177738,725.004919 928.823573,730.495621 C929.28747,730.900309 929.751143,731.304595 930.214866,731.707959 L931.142463,732.513303 L932.070683,733.315266 C943.060238,742.781508 954.283382,751.343541 969.381638,752.117834 L969.381638,740.812102 C964.988689,738.61556 960.688028,736.465163 956.413736,734.327951 L951.293024,731.767516 L960.377528,728.739255 C961.874863,728.240127 963.367173,727.742675 964.859484,727.245223 C966.272657,721.875 966.272657,721.875 967.120561,715.93949 L962.598407,711.417197 C960.100624,711.845402 960.100624,711.845402 957.652302,712.265127 C948.065377,714.395621 939.158108,715.193313 929.954111,711.417197 C929.214636,710.943919 928.781654,710.666801 928.403614,710.424848 C929.204459,710.081355 930.09152,709.670148 931.261296,709.127885 C932.882912,708.273119 934.456834,707.443494 936.030755,706.613869 C938.861582,705.132962 941.689426,703.646041 944.509793,702.144506 L944.509793,690.610669 C938.108508,691.946482 932.623987,693.220016 926.138544,692.052399 C924.697108,691.562211 923.298067,691.08644 921.899025,690.610669 C915.853371,688.796604 914.085744,687.675951 908.332565,690.610669 Z M384.097089,706.894904 C383.869733,707.112322 383.664238,707.308835 383.478296,707.491925 L383.264405,707.705669 C381.7284,709.267612 381.701501,709.984787 381.501676,715.312376 C381.529939,717.880013 381.557371,720.372133 381.584803,722.864252 C381.623028,727.339536 381.669061,731.814787 381.732584,736.289809 L386.461593,736.289809 C392.285936,727.935187 392.112562,723.552927 391.190602,713.678344 C387.643845,709.297373 387.643845,709.297373 384.097089,706.894904 Z M650.331032,657.149682 L645.772143,657.149682 C638.205162,664.655301 636.770508,675.882115 636.048887,685.923933 C635.729937,701.469359 634.697601,713.602065 645.914608,725.402418 C654.70693,730.783476 662.861647,731.861375 673.125477,731.761369 C673.285438,731.682037 673.439786,731.605489 673.588817,731.531333 L674.020254,731.315655 C677.695591,729.467006 677.844327,729.024417 679.96381,722.717528 C672.805265,720.805856 665.732303,718.796636 658.736483,716.358577 C652.923162,710.626806 652.824631,710.529657 650.455632,702.776792 L650.333,702.372 L651.255939,703.744997 C652.482827,705.570406 653.686374,707.361086 654.889921,709.151767 C663.152907,709.575697 663.152907,709.575697 670.846032,709.151767 C671.637427,706.511389 671.637427,706.511389 672.41315,703.923296 C673.125477,697.846966 673.125477,697.846966 670.561102,693.748975 C666.287143,691.064085 666.287143,691.064085 660.161136,690.640155 C658.368923,690.784291 656.629422,690.924188 654.889921,691.064085 C653.416761,685.906859 652.498204,681.035862 651.889246,675.696621 C651.69852,673.426475 651.513405,671.223099 651.328289,669.019723 C651.131509,666.725555 650.940516,664.498862 650.749524,662.27217 C650.607236,660.530524 650.469134,658.840103 650.331032,657.149682 Z M829.494774,657.149682 C825.260855,665.35506 821.091005,673.512222 817.511659,682.022293 C816.929622,683.559873 816.364704,685.052229 815.799786,686.544586 L811.23479,686.544586 L811.23479,691.066879 C806.669794,691.066879 806.669794,691.066879 803.103391,693.75199 C799.076345,698.782073 798.397935,702.865271 797.539803,709.156051 C801.67683,710.569268 801.67683,710.569268 806.669794,711.417197 C813.517288,706.894904 813.517288,706.894904 818.510252,699.828822 C819.916842,697.618551 821.282061,695.473288 822.64728,693.328025 C822.200548,698.505897 821.394831,703.459925 820.311286,708.546601 C814.159729,717.415892 814.159729,717.415892 803.656184,721.459868 C802.352664,721.889309 801.087482,722.306119 799.822301,722.72293 L799.822301,727.245223 C802.150448,728.782803 804.410121,730.275159 806.669794,731.767516 C816.443129,731.149522 822.271451,729.22286 829.494774,722.72293 C837.852155,705.824705 837.852155,705.824705 836.342267,661.671975 L831.777271,661.671975 C831.001222,660.134395 830.247998,658.642038 829.494774,657.149682 Z M768.145805,709.156051 C767.377038,713 766.630883,716.730892 765.884728,720.461783 L777.190112,720.461783 C777.958878,717.386624 778.705033,714.401911 779.451188,711.417197 C775.607358,710.648408 771.876581,709.902229 768.145805,709.156051 Z M707.096732,709.156051 L695.791348,709.156051 C696.560114,713 697.306269,716.730892 698.052425,720.461783 C701.896255,719.692994 705.627032,718.946815 709.357808,718.200637 C708.589042,715.125478 707.842887,712.140764 707.096732,709.156051 Z M718.866661,563.312102 C713.624164,564.297847 713.624164,564.297847 709.090113,568.804112 C708.665046,576.690075 708.665046,576.690075 709.090113,584.576038 C709.860902,586.108168 710.60902,587.595235 711.357139,589.082303 C704.13933,582.736448 698.309635,580.693498 688.686883,580.069773 C688.397476,580.357407 688.126541,580.626682 687.872421,580.88016 L687.386109,581.366814 C684.131986,584.636599 683.956879,585.145314 682.310874,589.927227 C681.885807,595.8417 681.885807,595.8417 685.144656,601.052068 C686.349013,602.344803 687.517948,603.599516 688.686883,604.854229 C682.546462,604.657365 676.645336,604.246065 670.550679,604.854229 C665.127417,610.244255 664.484429,613.140341 663.749602,620.626155 C668.283653,627.385552 668.283653,627.385552 672.693726,629.524267 C674.373805,630.089839 676.004469,630.638776 677.635134,631.187713 C679.327256,631.771239 680.96961,632.337602 682.611963,632.903966 C683.906647,633.3259 685.163253,633.735424 686.419858,634.144949 C676.494364,635.272339 670.732599,638.272116 663.749602,645.41061 C662.757779,651.325083 662.757779,651.325083 663.749602,656.676272 C668.283653,661.182536 668.283653,661.182536 673.189638,662.115474 C675.086501,662.277066 676.927574,662.433905 678.768647,662.590744 C680.677553,662.764306 682.530315,662.932763 684.383077,663.101219 C685.846371,663.214932 687.266627,663.325301 688.686883,663.435669 C687.542744,664.411205 686.432256,665.358048 685.321767,666.304892 C681.885807,670.195066 681.885807,670.195066 681.31905,678.36267 C681.856492,685.573665 681.88429,685.946647 683.818856,687.88722 L684.037579,688.105542 L684.152832,688.220124 C694.508313,689.063732 699.729957,690.254842 707.956601,683.71386 C709.112784,682.18173 710.234961,680.694662 711.357139,679.207595 C711.330041,680.688853 711.30374,682.126545 711.277439,683.564237 C711.256363,685.482392 711.235906,687.344131 711.21545,689.20587 C711.188352,691.11804 711.162051,692.973969 711.13575,694.829899 C711.357139,699.485786 711.357139,699.485786 713.624164,701.738918 C721.275376,702.583843 721.275376,702.583843 729.493343,701.738918 C730.986746,699.823756 732.436226,697.964921 733.885705,696.106087 C734.704668,694.190925 735.499544,692.332091 736.29442,690.473256 C739.836647,696.106087 739.836647,696.106087 745.362522,701.738918 C753.170092,702.541648 758.673125,703.010366 765.765752,699.485786 L765.765752,674.70133 C768.078118,677.76559 770.322474,680.739725 772.566829,683.71386 C773.691106,683.950815 774.562421,684.134456 775.387357,684.264782 L775.660901,684.306249 C775.751698,684.319413 775.842207,684.331919 775.93271,684.343767 L776.204483,684.377336 C776.386032,684.398398 776.568691,684.416828 776.754727,684.432625 L777.036597,684.454346 C777.464053,684.483966 777.914343,684.500256 778.413292,684.503218 L778.753417,684.503218 C781.014767,684.490383 784.297568,684.227264 790.703033,683.71386 C790.747485,683.66968 790.791065,683.626368 790.833796,683.583857 L791.196118,683.221215 C792.975288,681.422612 793.036736,680.974758 793.820193,675.264613 C792.970059,667.941933 792.970059,667.941933 787.302495,661.464178 C785.375523,659.83629 783.505227,658.256281 781.634931,656.676272 C783.071127,656.730136 784.465082,656.782416 785.859037,656.834695 C787.746867,656.876589 789.579173,656.917251 791.411479,656.957913 C799.727156,657.19747 801.576141,656.982398 808.839238,652.170007 C810.822885,646.677997 810.822885,646.677997 811.106263,640.904346 C807.905757,636.039451 807.905757,636.039451 797.079043,630.342788 C794.9112,629.337328 792.807116,628.36144 790.703033,627.385552 C793.015399,626.619487 795.259755,625.875953 797.50411,625.13242 C803.718008,621.499586 806.146129,619.582942 808.55586,612.740192 C808.839238,607.107361 808.839238,607.107361 804.305187,600.347964 C796.512286,599.64386 796.512286,599.64386 788.436008,600.347964 C786.123642,601.880094 783.879286,603.367161 781.634931,604.854229 C783.176509,603.178462 784.672745,601.551982 786.168982,599.925502 C791.061044,593.0882 792.032742,590.472523 790.703033,582.322906 C786.168982,577.816641 786.168982,577.816641 779.651284,576.971717 C772.566829,577.816641 772.566829,577.816641 767.182643,582.322906 C765.930112,583.855036 764.714419,585.342103 763.498727,586.82917 C763.924754,579.348815 764.691931,573.289511 761.090012,566.55098 C756.69765,564.297847 756.69765,564.297847 748.621371,564.438668 C740.828471,566.55098 740.828471,566.55098 737.569622,571.198065 C736.925645,573.402614 736.925645,573.402614 736.29442,575.563509 C730.713484,569.224385 727.432696,564.698027 718.866661,563.312102 Z M449.601412,565.573248 C444.355345,566.561224 444.355345,566.561224 439.818206,571.077685 C439.836284,572.739249 439.85383,574.351943 439.871376,575.964637 C440.054448,577.240304 440.154306,577.936123 440.24585,578.574009 L440.300378,578.953964 C440.391592,579.589554 440.489472,580.271594 440.66892,581.522001 C440.928033,583.423501 441.179525,585.269075 441.431017,587.114649 C441.653975,588.572266 441.870375,589.987012 442.086776,591.401759 C439.772835,589.866162 437.526951,588.37573 435.281067,586.885298 C427.495835,585.086249 422.036909,583.151171 414.863941,587.167577 C412.700887,591.20482 412.60028,591.392599 412.5956,596.172878 L412.595372,596.906195 C414.863941,602.692911 414.863941,602.692911 420.677151,607.915068 C422.557228,609.210728 424.382008,610.46828 426.206789,611.725832 C423.266156,612.013756 420.412012,612.293212 417.557868,612.572668 C410.092567,613.303614 407.833474,614.133219 401.252524,618.500523 C400.543596,624.146099 400.543596,624.146099 401.252524,629.791675 C405.789663,634.308136 405.789663,634.308136 414.013228,636.848645 C416.616411,637.520469 419.143031,638.172533 421.66965,638.824597 C418.232767,639.965003 418.232767,639.965003 414.863941,641.082827 C409.821495,644.943955 408.200242,647.422558 406.21502,653.503094 C405.789663,659.14867 405.789663,659.14867 410.326802,665.923362 C410.630618,665.944964 410.922808,665.965739 411.204263,665.985688 C419.114682,666.556051 419.114682,666.556051 427.022622,665.992565 C428.156127,665.427185 429.265036,664.874072 430.367495,664.324177 C426.365899,671.439564 424.65695,678.019704 423.938219,686.247435 C428.475358,690.763896 428.475358,690.763896 434.997496,691.751872 C435.111576,691.735973 435.223821,691.720331 435.334282,691.704916 C435.477317,691.726415 435.6258,691.748956 435.777841,691.772037 C442.838502,690.785937 442.838502,690.785937 448.204604,685.151079 C449.140848,683.714191 450.056439,682.308998 450.966867,680.91173 L451.113167,680.687538 C450.753279,689.560885 450.422393,694.177415 455.698193,702.055048 C458.911198,702.283502 460.390633,702.388695 461.918106,702.370625 C463.463781,702.388652 464.796927,702.283658 467.692028,702.055651 C470.325856,696.800744 472.893285,691.678314 475.451228,686.574809 L476.504,684.474 L476.491203,684.502428 C479.988362,689.277274 483.11131,693.516429 487.458166,697.538587 C490.641423,698.042706 492.200408,698.289596 493.642017,698.279257 C495.255082,698.336987 496.511627,698.093251 499.323787,697.547765 L499.382414,697.489278 L499.665093,697.206753 C502.589021,694.275711 502.632751,693.839471 503.84261,681.770165 C502.61349,679.930948 501.413291,678.135006 500.218876,676.34772 L500.032,676.069 L500.340728,676.339543 C504.950467,680.366199 507.860656,681.682692 514.648058,682.258238 L514.996158,682.286925 L515.032,682.289 L515.277484,682.310704 C515.372004,682.31849 515.467273,682.326137 515.563307,682.333651 C521.917901,681.770165 521.917901,681.770165 524.177313,679.516222 C525.050958,670.277996 525.690209,665.578002 519.65849,658.244637 C518.12209,657.04723 516.630879,655.88504 515.139667,654.722851 L517.399079,654.722851 C524.772006,654.85658 531.048469,655.803474 537.733781,652.468908 C538.357944,650.265679 538.963748,648.127251 539.569553,645.988823 C539.784479,642.415387 539.890367,640.654873 539.596789,639.294308 L539.635265,638.824597 C539.553661,638.743365 539.473526,638.663595 539.394797,638.585245 C539.042645,637.589258 538.406747,636.682125 537.345445,635.168136 C533.336698,632.271392 533.218547,632.186015 528.236973,631.434971 C526.719899,630.878926 525.237589,630.335301 523.755278,629.791675 C531.202473,625.532998 536.417864,623.036682 539.77705,614.972038 C539.635265,609.467602 539.635265,609.467602 537.366695,605.515698 C532.829556,602.692911 532.829556,602.692911 524.464206,601.140377 C521.90923,600.90044 519.429399,600.66756 516.949569,600.43468 C518.492197,598.899083 519.989453,597.408651 521.486708,595.918219 C521.77028,588.861249 521.77028,588.861249 521.486708,582.368837 C511.977877,580.633496 506.167386,578.491211 497.666729,583.356813 C496.509758,584.556498 495.386816,585.720898 494.263874,586.885298 C493.588821,580.837511 493.026593,574.814223 491.995305,568.819455 C489.726735,566.561224 489.726735,566.561224 483.346384,565.714388 C477.463483,566.403339 476.366671,566.531788 473.260942,569.595753 L472.861772,569.99429 C472.245846,570.615789 471.549341,571.345611 470.727466,572.2068 C469.474081,574.126296 468.257561,575.989336 467.04104,577.852376 C461.456303,571.498909 458.173281,566.962309 449.601412,565.573248 Z M488.726504,169.025995 C485.722793,170.340471 485.722793,170.340471 482.778562,171.628918 C458.514919,182.123303 437.836186,195.246066 417.024205,211.510993 C414.764517,213.310981 412.571291,215.058027 410.378065,216.805074 C412.643746,210.019172 413.803999,203.529849 414.903096,196.475804 C401.811503,193.101574 389.930232,191.421714 376.413818,191.450839 C373.285139,191.493169 373.285139,191.493169 370.218414,191.534662 C338.565611,191.556822 314.881922,199.973544 288.078495,216.805074 C240.256427,249.225198 221.266797,308.0637 210.227191,362.048181 C209.814768,364.121166 209.414475,366.133182 209.014182,368.145197 C196.212715,430.737456 197.468778,502.540192 205.938575,565.74566 C206.215026,567.681021 206.483347,569.559461 206.751667,571.4379 C209.088724,588.146725 211.746497,604.742252 215.801729,621.131671 C223.870592,649.267951 234.888651,678.320051 261.034364,693.828224 C275.560097,701.285622 290.706314,703.458814 306.558651,698.77819 C316.321255,694.103159 321.015698,687.368634 325.19789,677.822453 C327.864781,669.209362 328.484806,660.906263 324.402475,652.754981 L319.877444,652.754981 C315.511709,656.778286 312.363116,659.348878 306.373054,660.060812 C295.283021,660.141043 290.626102,659.630451 282.687345,651.907928 C271.765256,638.326183 269.701892,620.795059 269.270975,603.784239 L269.240925,602.476816 C269.191291,600.082031 269.170438,597.699874 269.158098,595.34288 C269.190589,592.49515 269.222124,589.731177 269.253659,586.967203 C269.564827,544.940621 273.605813,513.893808 298.966851,479.536517 C308.496993,466.781799 317.818354,454.243307 325.533733,440.285871 C326.85483,437.679198 326.85483,437.679198 328.149766,435.124143 C334.20653,429.905218 334.20653,429.905218 342.502599,429.133008 C341.579003,440.847351 339.674666,449.686465 334.411455,460.173968 C328.318021,471.786728 323.252203,481.066589 324.402475,494.638434 C334.546425,495.914477 334.546425,495.914477 355.512063,485.744379 C369.577888,478.853899 381.085321,475.293815 396.802972,474.309164 C400.927164,493.735504 400.927164,493.735504 397.93423,514.120652 C396.631403,524.25139 396.640667,534.123771 396.802972,544.332206 L399.065487,544.332206 C400.363606,543.030215 401.623544,541.766518 402.883482,540.502821 C435.728084,506.050349 474.526207,476.061338 516.716295,453.979894 C554.648085,435.366009 602.8395,424.166483 644.221971,437.645449 C655.728062,441.610629 667.256431,445.49685 678.821998,449.285809 C683.613691,450.845849 688.403976,452.410208 693.192507,453.979894 C715.991112,461.805451 736.75928,465.891273 761.004451,466.359219 C765.392579,466.381499 765.392579,466.381499 769.693814,466.403337 C797.176657,466.551699 823.456278,463.319768 849.004484,452.736336 C886.427026,436.733825 921.85227,429.069102 962.643967,434.824145 C964.879615,435.193142 967.049509,435.551287 969.219403,435.909431 C970.240284,400.180529 966.52485,366.108663 955.750365,331.942508 C935.776057,275.137106 897.287056,236.215358 843.655314,209.777182 C767.375522,174.045363 686.647302,171.529428 607.216917,198.734612 C609.546425,213.09163 609.714858,227.146724 609.678286,241.67843 C609.649298,246.22433 609.620532,250.770242 609.603716,255.316203 C609.582394,262.405558 609.554164,269.494787 609.515337,276.58407 C609.503129,278.531056 609.491281,280.420778 609.479432,282.3105 C647.661509,249.751284 687.710717,234.279389 738.230707,234.368187 C742.051177,234.410518 742.051177,234.410518 745.795993,234.45201 C755.419893,234.457545 765.025417,234.509021 774.643066,234.875537 C816.273866,238.282376 861.981812,250.827552 891.153779,282.478146 C905.107374,300.316716 907.995988,316.392575 905.868968,338.780696 C902.411888,360.051038 881.937869,375.836935 865.56791,387.909765 C815.899163,420.640441 747.662684,422.31607 690.929992,411.062545 C659.279773,404.579695 622.586457,392.307203 603.964551,364.192283 C600.251852,357.863377 596.800137,352.801859 591.379308,347.815927 C579.274686,378.699267 559.257594,408.195647 528.674043,423.088932 C507.134427,431.315417 482.505766,433.922455 460.860443,424.756568 C449.649082,418.312684 445.592213,409.61199 442.053283,397.509699 C461.003044,411.225762 476.219152,414.38537 499.61486,413.806644 C521.578358,412.48281 534.721492,405.272328 549.478581,389.100934 C589.966759,341.048729 598.035483,277.649148 593.641824,216.805074 C590.211779,200.274382 582.205125,184.534205 568.559718,174.302429 C546.48237,160.67289 512.903032,160.163543 488.726504,169.025995 Z M951.418362,578.009554 C949.897491,579.547134 948.421351,581.03949 946.945212,582.531847 C946.386068,589.173965 946.386068,589.173965 946.945212,596.098726 C948.466083,598.405096 949.942222,600.643631 951.418362,602.882166 C944.708637,598.359873 944.708637,598.359873 937.719339,597.935908 C931.765493,598.328468 931.324468,598.357546 929.516334,600.154671 L929.292355,600.378949 C929.215215,600.456628 929.135446,600.537273 929.05261,600.621019 C928.187795,609.888771 927.555005,614.603786 933.525761,621.960589 C935.046632,623.161823 936.522771,624.327727 937.998911,625.493631 C931.586098,626.790284 929.362484,627.441499 924.57946,632.27707 C924.020316,639.06051 924.020316,639.06051 924.57946,645.843949 C924.814889,646.081964 925.037927,646.307453 925.250245,646.521114 L925.856711,647.12732 C929.130054,650.369374 929.788326,650.395994 936.041908,650.648885 C938.22816,650.552787 940.350111,650.459514 942.472061,650.366242 C936.172839,657.565333 934.144902,663.37991 933.525761,672.977707 C937.998911,677.5 937.998911,677.5 944.429065,678.34793 C951.418362,677.5 951.418362,677.5 956.730228,672.977707 C957.965936,671.440127 959.165299,669.947771 960.364663,668.455414 L960.364663,688.805732 C963.753074,689.947611 963.753074,689.947611 967.074388,691.066879 C967.232486,688.473999 967.481124,685.76516 967.709196,683.004295 L967.805358,681.818069 L967.897058,680.62659 C968.452564,673.160752 968.632247,665.452372 966.296551,658.73259 L966.961249,659.410828 C968.829324,652.279718 969.371066,650.211696 969.381484,641.067424 L969.381117,640.277553 C969.373935,636.644887 969.293155,631.939443 969.182498,625.493631 L964.74,625.493631 C962.518751,630.015924 962.518751,630.015924 962.301833,634.909186 C962.328383,636.80113 962.354153,638.637428 962.379923,640.473726 C962.400574,642.377682 962.420617,644.225639 962.440661,646.073597 C962.467211,647.533096 962.492981,648.949669 962.518751,650.366242 L960.256,650.366 L960.236643,650.345483 C958.787948,648.845286 957.339699,647.344648 955.891512,645.843949 C955.017552,637.155587 955.404772,631.492185 958.128087,623.232484 C964.434674,617.687186 966.872281,615.590488 968.10531,607.033489 C968.03996,604.372756 967.976532,601.790279 967.913104,599.207803 C967.825738,591.346785 967.825738,591.346785 967.074388,584.792994 C961.757342,579.417534 958.792681,578.755088 951.418362,578.009554 Z M548.548292,676.918077 L548.725132,676.963 C549.857084,677.245656 551.095155,677.457648 553.571299,677.881632 C553.790152,677.735902 554.008395,677.590577 554.224007,677.447754 C552.225236,677.611241 550.484752,677.379108 548.548292,676.918077 Z M555.604588,659.410828 L546.780873,659.410828 C544.574945,661.671975 544.574945,661.671975 544.299204,668.455414 C544.574945,675.238854 544.574945,675.238854 546.780873,677.5 C549.03092,675.96242 551.21479,674.470064 553.398659,672.977707 C554.915235,665.911624 554.915235,665.911624 555.604588,659.410828 Z M966.592585,514.697452 C947.466675,514.697452 931.562135,530.291483 922.242629,545.835132 C921.237363,548.278242 920.261664,550.649496 919.285965,553.02075 C916.189575,560.501097 913.172797,568.003949 910.27518,575.563867 C909.89034,576.659366 909.510451,577.755091 909.132487,578.849863 L908.566606,580.49116 C904.421852,592.519941 900.32691,604.362239 892.25361,614.450743 C886.765593,620.213025 882.421733,622.663365 874.232041,622.904411 C878.737433,618.395788 878.737433,618.395788 880.708542,610.787486 C880.990129,602.615607 880.990129,602.615607 877.329498,597.120722 C871.13267,593.040938 867.990155,592.614643 860.715863,593.59836 C860.636667,593.677613 860.559946,593.75439 860.485493,593.829033 L860.268734,594.046911 C859.497395,594.824857 858.975606,595.386371 858.428862,596.189291 L858.278926,596.414598 C857.80086,597.149203 857.285568,598.09491 856.556225,599.546637 L856.318584,600.022242 C855.705663,601.255025 854.947729,602.822545 853.957775,604.869918 L862.96856,604.869918 C863.72154,610.221087 863.72154,610.221087 862.96856,616.141476 C857.781268,621.230704 853.686218,622.984165 846.67171,625.044246 C843.979035,625.610114 841.365555,626.159338 838.752075,626.708562 C836.035464,627.292394 833.398754,627.859054 830.762043,628.425714 C828.691675,628.847869 826.682199,629.257608 824.672724,629.667346 L824.672724,636.430281 C836.94018,638.749129 847.46589,641.493799 858.463167,647.70184 C858.654646,649.474292 858.840494,651.194614 859.026341,652.914935 C859.120204,659.302152 859.120204,659.302152 853.957775,663.059338 C851.682552,664.41122 851.682552,664.41122 849.452382,665.736333 C850.218299,668.802197 850.961689,671.777888 851.705079,674.753579 C861.512599,675.71579 866.056065,675.758636 874.232041,669.963167 C878.737433,663.482021 878.737433,663.482021 878.315053,656.014614 C877.692745,653.954736 877.088741,651.955444 876.484737,649.956151 C879.548404,650.722617 882.521963,651.46654 885.495522,652.210463 C886.261438,649.144599 887.004828,646.168908 887.748218,643.193216 C891.577801,646.25908 895.29475,649.234771 899.011699,652.210463 C902.947896,644.883648 902.947896,644.883648 910.556767,642.770533 C912.758778,642.147779 914.896023,641.543342 917.033269,640.938905 C917.033269,636.430281 917.033269,636.430281 914.358192,632.767025 C908.963369,628.671466 908.963369,628.671466 899.011699,629.667346 C897.670942,630.114586 896.856912,630.386124 896.159848,630.618645 L895.607312,630.802956 C895.15244,630.954688 894.700018,631.105604 894.11816,631.299696 L893.584649,631.47766 C893.203742,631.60472 892.768265,631.749983 892.25361,631.921658 C908.332417,616.725229 915.812714,600.352266 923.791357,580.07249 C928.315296,568.082917 931.728507,554.667525 941.812927,546.257815 C948.345033,545.024709 953.051345,545.503591 959.834497,546.257815 C962.132247,547.790747 964.362416,549.278593 966.592585,550.766439 L966.592585,534.986257 C960.904527,533.84783 960.904527,533.84783 955.329104,532.731945 C960.960845,530.05495 960.960845,530.05495 966.592585,525.96901 C967.296553,519.910548 967.296553,519.910548 966.592585,514.697452 Z M750.223246,605.092471 C759.718192,609.74792 764.5308,613.57573 768.443998,623.2791 C770.039028,634.497447 769.615831,643.538149 764.742908,653.826952 C755.933372,663.314176 748.099876,666.814569 735.276535,667.324841 C726.32409,666.965015 720.753506,665.616964 713.781741,659.652357 C706.083032,650.721966 703.149179,643.833536 703.790576,632.265852 C705.746271,622.407103 712.083624,616.13753 718.479278,608.78663 C728.822486,603.075571 738.67519,603.402379 750.223246,605.092471 Z M479.341909,602.430808 L480.433243,602.546296 L480.977723,602.604614 C490.560043,606.952305 493.820239,610.205748 498.929908,619.386449 C500.11581,623.200751 500.962241,625.923189 501.529358,628.067497 C500.010849,639.046021 496.987983,644.940294 490.427355,654.018494 C478.278908,660.544017 478.278908,660.544017 464.13522,659.847049 C455.14882,658.836541 450.891648,654.613773 445.203823,647.688084 C441.32899,635.846577 441.32899,635.846577 442.838502,623.167651 C443.481853,620.279579 443.990978,617.946251 444.211308,615.839253 C445.499984,613.782345 447.096886,611.681965 449.062728,609.431123 L453.622013,609.431123 L453.622013,604.880117 C461.598047,600.899342 470.59968,601.51678 479.341909,602.430808 Z M723.628402,616.918251 C718.394453,622.587891 716.221825,627.408745 715.0105,634.962296 C716.289732,642.301134 717.68697,645.259903 722.938262,650.499243 C729.526667,655.651375 732.764713,657.309522 741.200426,657.137756 C749.29937,654.55887 752.327514,653.196079 756.914382,645.979404 C758.603699,635.642988 758.757018,626.737365 753.658337,617.44792 C747.854083,614.34053 747.854083,614.34053 743.111583,613.351816 C735.678004,612.758483 729.94747,612.676388 723.628402,616.918251 Z M455.746442,614.949289 C450.266997,622.323409 450.169868,627.217409 450.642577,636.252906 C451.990943,644.220141 454.247706,647.78401 460.566758,652.726987 C471.803836,654.527299 476.047826,654.520914 485.518983,648.147872 C490.584247,640.479057 491.636427,636.402436 490.995004,627.389814 C489.417234,619.953153 486.690968,616.390524 480.982215,611.514952 C469.914209,608.818428 464.959191,608.385471 455.746442,614.949289 Z M835.930084,498.447837 C826.794582,504.689859 823.141368,507.065148 820.12024,517.879685 C820.12024,518.856987 820.112861,519.769943 820.110812,520.631076 L820.110658,521.356791 C820.123738,526.708845 820.507159,530.067089 824.637338,534.758444 C831.412986,536.74418 831.412986,536.74418 838.188634,537.027857 C843.018651,532.174607 843.669118,529.918346 844.964281,523.411379 C841.892654,522.639779 838.911369,521.890873 835.930084,521.141966 C837.465898,518.055565 838.95654,515.05994 840.447183,512.064314 C845.80964,511.495375 845.80964,511.495375 851.739929,512.064314 C856.800495,515.853069 858.369447,518.373952 860.165376,524.501761 C860.516334,526.590508 860.856969,528.61782 861.197604,530.645133 C861.834382,534.281304 862.454019,537.920718 863.032675,541.566683 L858.515577,541.566683 C847.898312,551.014886 841.657322,563.036727 835.665411,575.740851 C835.156972,576.864343 834.65975,577.963053 834.165331,579.055567 L833.671,580.144 L833.481597,578.57274 C833.292831,577.008487 833.107229,575.47045 832.921626,573.932413 C832.552671,571.174544 832.194568,568.497789 831.836464,565.821034 C831.32035,561.79194 831.062293,559.777392 830.72704,557.880305 L830.637611,557.38683 C830.316937,555.660261 829.907606,553.89409 829.154437,550.644335 C824.085942,543.848857 824.085942,543.848857 808.845139,536.389585 C802.898488,534.250583 798.880622,534.818667 793.017649,537.027857 C793.113637,538.378158 793.206803,539.688744 793.299968,540.99933 C795.276198,546.105509 795.276198,546.105509 802.193005,551.211688 C804.448731,552.561989 806.638113,553.872575 808.827494,555.183161 C804.451555,556.034191 804.451555,556.034191 799.793297,557.452574 C797.534748,561.9914 797.534748,561.9914 797.675907,566.388387 C799.793297,571.069052 799.793297,571.069052 806.004307,574.189494 C808.500004,575.443345 810.922298,576.660318 813.344592,577.877291 C823.764316,587.633281 826.319591,595.678649 828.563332,609.702262 C828.764308,611.227378 828.959372,612.707638 829.154437,614.187898 L833.671535,614.187898 C840.244472,596.277905 847.306849,577.336413 859.583094,562.514429 C867.495557,555.157545 875.002064,553.118886 885.618167,552.913748 C887.153981,554.456949 888.644623,555.954761 890.135266,557.452574 C889.415878,562.236968 889.415878,562.236968 887.876717,566.530226 L874.325421,566.530226 C872.913828,573.054788 872.913828,573.054788 872.066872,580.146704 C873.602686,581.689904 875.093328,583.187717 876.583971,584.685529 L884.065415,584.685529 C892.44378,582.402501 896.551955,580.173241 901.683863,573.063653 C905.528171,564.878604 905.658538,557.122352 903.686561,548.374922 C897.650888,539.553533 894.222353,537.41942 883.783096,535.183959 C881.335393,535.039284 878.959682,534.898864 876.583971,534.758444 C876.85293,526.650844 877.336428,519.325017 875.172377,511.496961 C870.390079,505.381123 865.291227,502.173101 858.515577,498.447837 C849.635106,496.481711 844.575612,495.552132 835.930084,498.447837 Z M686.747041,532.786624 C675.156869,532.786624 667.538537,538.69965 659.244728,546.353503 C646.351819,565.123455 643.499059,582.878193 645.493572,605.143312 L650.077291,605.143312 C650.68274,603.893939 651.280531,602.633743 651.879575,601.370309 L652.479368,600.106076 C656.585321,591.463615 660.888567,582.787989 668.233114,576.499179 C672.144055,574.035778 676.010733,571.504296 679.871462,568.964968 C682.020081,562.605494 682.020081,562.605494 682.163322,557.659236 C678.267161,556.890446 674.485593,556.144268 670.704025,555.398089 C677.059107,548.138184 682.925339,541.698686 686.747041,532.786624 Z M546.56028,587.05414 L546.56028,598.359873 C549.635345,599.128662 552.619966,599.874841 555.604588,600.621019 L555.604588,589.315287 C552.529523,588.546497 549.544902,587.800318 546.56028,587.05414 Z M570.662956,451.246813 C567.781676,452.048881 564.98514,452.827359 562.188604,453.605837 C506.294059,468.592554 456.498087,509.970031 415.721058,549.429034 C413.987483,551.118784 412.304896,552.758836 410.622308,554.398888 C404.175205,560.464239 397.807253,566.358248 392.52484,573.483126 C391.393748,581.461398 391.393748,581.461398 392.52484,587.05414 L397.049207,587.05414 C398.160858,585.8976 399.239814,584.775076 400.318769,583.652551 C406.961748,575.512292 413.643599,568.005185 421.650453,561.184395 C426.549974,557.037837 431.239311,552.869294 435.780263,548.32904 C465.756513,517.502594 500.848031,493.809811 539.716992,475.53504 C582.759527,456.377322 622.813049,459.845626 666.097718,476.047487 C725.962748,498.459165 796.635353,505.381011 857.249464,480.401631 C893.574853,465.252271 925.636448,460.331679 965.051677,464.420239 C966.523864,464.588463 967.952751,464.751739 969.381638,464.915015 L969.381638,453.605837 C936.184847,443.950074 905.021658,448.368026 873.189132,460.261023 C839.102748,473.089148 810.428556,480.767921 773.898274,481.247059 C770.995588,481.269589 768.178275,481.291456 765.360961,481.313324 C740.866145,481.512519 718.211813,479.813278 694.981428,471.688373 C691.700839,470.511956 688.409626,469.364926 685.110885,468.240399 C683.270652,467.620449 681.484543,467.018732 679.698434,466.417015 L676.482857,465.331731 C675.054101,464.849469 673.625817,464.367675 672.197814,463.887765 L670.055997,463.16949 L668.985203,462.811743 L666.843752,462.099694 L664.959334,461.477587 C663.420388,460.971462 661.881396,460.470303 660.342119,459.975884 L658.494836,459.385929 C629.859356,450.295273 601.092652,443.78122 570.662956,451.246813 Z M942.248716,552.678398 C940.835543,558.668423 940.835543,558.668423 939.98764,564.366251 C946.028074,565.258363 951.992084,566.291581 958.076254,566.703822 C958.84502,565.909048 959.591175,565.137649 960.337331,564.366251 C959.690552,560.449816 958.94041,556.549758 958.076254,552.678398 C951.670178,551.109841 948.278198,549.561666 942.248716,552.678398 Z M777.258629,541.83121 C775.767689,543.36879 774.3206,544.861146 772.873511,546.353503 C772.599441,552.289013 772.599441,552.289013 772.873511,557.659236 C776.984559,559.072452 776.984559,559.072452 781.643748,559.920382 C783.134688,558.382803 784.581777,556.890446 786.028866,555.398089 C786.302936,549.46258 786.302936,549.46258 786.028866,544.092357 C781.917818,542.67914 781.917818,542.67914 777.258629,541.83121 Z M734.347281,503.39172 C732.815902,504.929299 731.329563,506.421656 729.843224,507.914013 C729.403375,512.312649 729.403375,512.312649 729.561721,517.241242 C729.657432,520.220303 729.750328,523.111744 729.843224,526.003185 C726.815662,526.234053 726.815662,526.234053 722.506538,522.046178 C721.665609,521.383595 720.829444,520.711873 719.994505,520.037685 L718.992941,519.227901 C712.483657,513.962161 705.962888,508.708677 697.751819,506.633285 L697.044018,506.633939 C692.357892,506.635644 688.320572,506.642999 684.802655,510.175159 C684.3804,515.686704 684.3804,515.686704 684.802655,521.480892 C684.960692,521.639569 685.113184,521.792678 685.260648,521.940464 L685.68847,522.368096 C689.343449,526.008752 689.83021,526.082523 696.766556,527.133758 C704.758667,527.988811 704.758667,527.988811 710.982486,530.101513 C718.748322,534.000152 725.609124,537.779941 729.561721,545.858877 C731.110394,549.811025 732.725628,553.736708 734.347281,557.659236 C736.64435,558.428025 738.873858,559.174204 741.103367,559.920382 C743.400436,552.232484 745.629944,544.770701 747.859452,537.308917 L748.518083,537.308555 C752.375724,537.301856 752.601704,537.171219 757.008317,534.623806 C762.315744,529.638691 762.856402,526.345532 763.623651,519.219745 C761.326582,518.450955 759.097074,517.704777 756.867566,516.958599 C754.809775,518.448129 752.812507,519.89385 750.815239,521.33957 C749.044582,522.925199 747.326003,524.464192 745.607423,526.003185 L745.607423,505.652866 C740.258856,504.23965 740.258856,504.23965 734.347281,503.39172 Z M700.313501,541.83121 C699.544735,545.675159 698.79858,549.406051 698.052425,553.136943 C699.589957,552.880679 701.112415,552.626929 702.624824,552.374853 L707.136929,551.622812 C708.634264,551.373248 710.126574,551.124522 711.618885,550.875796 L711.618885,544.092357 C707.775055,543.323567 704.044278,542.577389 700.313501,541.83121 Z M908.897834,478.045709 C905.839181,483.116503 905.267442,486.419148 904.516998,492.244691 C904.160172,496.618688 904.160172,496.618688 903.810411,500.90607 C900.357544,493.100148 895.672184,487.004416 890.243951,480.459536 C885.631354,481.231961 881.154422,481.981667 876.67749,482.731373 C876.293107,484.758988 875.920029,486.726967 875.546951,488.694946 C876.67749,496.362396 876.67749,496.362396 880.228087,499.024705 C893.468183,506.814356 897.498565,514.674914 902.255921,528.878065 C904.114981,534.822598 906.068899,540.525885 908.332565,546.342813 C910.638863,547.115237 912.877329,547.864943 915.115795,548.61465 C919.637949,541.799138 919.637949,541.799138 921.245433,536.483394 C922.747375,530.580189 924.430072,524.835997 926.421179,519.080767 C934.890762,509.88146 934.890762,509.88146 946.77087,505.307755 C954.662246,502.491534 960.618774,499.428645 967.120561,494.090559 C966.57559,491.352737 966.290719,489.921603 966.020129,488.562213 L965.942993,488.174701 C965.878684,487.851624 965.813857,487.525946 965.745194,487.180999 L965.631558,486.610113 C965.435031,485.622803 965.198646,484.435251 964.859484,482.731373 C956.909047,482.162476 951.892551,482.467144 944.527458,485.71316 C942.311249,487.016626 940.160223,488.281756 938.009197,489.546885 C935.756953,490.850351 933.570951,492.115481 931.384949,493.38061 C929.697267,494.394417 928.059223,495.378407 926.421179,496.362396 C925.652413,490.182999 924.906258,484.185349 924.160102,478.187699 C918.170298,476.398472 914.56282,474.996453 908.897834,478.045709 Z M612.131507,476.257962 C609.828218,477.52481 608.215915,478.411604 606.756605,479.452539 L606.466623,479.662939 C603.19967,482.074359 600.534482,485.460694 592.205768,496.042994 C589.755326,499.31035 587.376956,502.481608 584.998586,505.652866 C584.422011,502.193312 583.851796,498.771915 583.285555,495.374366 L582.157666,488.606825 C581.595665,485.234713 581.036049,481.876911 580.476432,478.519108 C569.171048,476.257962 569.171048,476.257962 564.958026,478.704593 C562.387818,483.041401 562.387818,483.041401 562.714614,489.14473 C563.47733,492.556986 563.47733,492.556986 564.224943,495.901672 C564.720437,498.217051 565.201357,500.46433 565.682277,502.711609 C566.302263,505.338823 566.302263,505.338823 566.909971,507.914013 C562.455545,503.777632 558.318952,500.045964 553.343511,496.60828 C546.094267,494.43344 541.834195,493.791131 534.54831,495.76035 C529.561226,499.824026 529.561226,499.824026 528.471666,510.175159 C534.730561,510.60682 540.452188,511.143957 546.56028,512.436306 C555.915649,517.022412 560.834195,521.973557 566.203385,530.666799 C569.647606,536.833448 573.015725,541.543322 578.215355,546.353503 C584.668442,528.111256 590.515082,514.843689 607.468036,504.380971 C615.856327,499.478365 622.912204,493.958319 630.220121,487.563694 C630.067875,486.954692 629.935929,486.42689 629.818922,485.95885 L629.653948,485.29893 C629.395431,484.264832 629.21354,483.537246 629.024531,482.781185 L628.909601,482.321452 C628.675354,481.384433 628.406738,480.309936 627.959044,478.519108 C627.814901,478.485191 627.67364,478.451952 627.535135,478.419374 L626.73617,478.23168 C620.720829,476.821213 620.234641,476.789331 612.131507,476.257962 Z M794.713457,507.914013 C788.495496,508.054658 788.495496,508.054658 784.406126,510.384099 C774.216548,518.290391 770.420115,524.733928 768.145805,537.308917 L774.929035,537.308917 C780.079968,532.914821 784.318133,528.86642 790.906722,526.945104 C795.403241,526.008446 799.866243,524.915852 804.323033,523.806952 C805.091799,521.511617 805.837954,519.283793 806.58411,517.055969 C802.952584,512.68081 799.893936,510.34872 794.713457,507.914013 Z M148.610768,498.869427 C150.1483,501.944586 151.640611,504.929299 153.132921,507.914013 C163.442369,515.379705 174.558549,518.178836 187.049073,519.219745 L187.049073,501.130573 C173.980049,500.361783 161.295408,499.615605 148.610768,498.869427 Z M832.690097,282.940145 C830.734863,282.999034 828.837137,283.056192 826.93941,283.113349 C820.152598,283.219502 813.372238,283.353994 806.58675,283.539695 C804.743711,292.440299 802.903936,301.341564 801.070154,310.244101 C800.318272,313.896269 799.565938,317.548342 798.813164,321.200324 C797.704912,326.550625 796.59689,331.900944 795.495553,337.252688 C795.136842,338.99748 794.788682,340.690954 794.440522,342.384428 C792.064654,353.809272 790.02647,365.198904 788.495496,376.767516 L811.109563,376.767516 C811.878441,369.036428 812.624706,361.532726 813.37097,354.029023 C816.435068,354.173443 819.564606,354.373233 822.723397,354.543074 L824.183246,354.619024 C835.632937,355.192446 847.392231,355.202828 857.751077,350.618249 C867.078239,344.741341 872.966012,337.131739 876.690359,326.742832 C878.515309,315.148282 878.566046,305.502506 873.298248,294.908942 C860.86566,284.908146 848.143379,282.759467 832.690097,282.940145 Z M672.976188,282.941511 C670.790502,283.019862 668.669101,283.095909 666.547701,283.171955 C658.978691,283.313373 651.414206,283.472624 643.848491,283.739201 C641.092671,301.014623 637.957309,318.185346 634.626937,335.358571 C631.915525,349.139227 629.53425,362.807542 627.959044,376.767516 L648.388333,376.767516 C649.160106,369.052973 649.90918,361.565328 650.658254,354.077683 C663.646628,354.429103 676.275124,354.756976 689.10504,352.517757 C700.648571,347.572573 707.643726,341.716298 713.9323,330.820604 C717.413888,319.220107 719.143069,308.033091 714.216041,296.644043 C701.46879,285.892993 689.504925,282.710436 672.976188,282.941511 Z M752.139513,259.187898 L731.884457,259.187898 C730.786621,262.496893 730.224316,264.191744 729.766912,265.862797 L729.632407,266.364989 C729.213713,267.963075 728.85083,269.683212 728.174546,272.888922 C727.348783,277.15229 727.348783,277.15229 726.539372,281.331235 L724.745956,290.601052 C723.81724,295.443911 722.887281,300.286422 721.94594,305.126821 C718.775279,321.415141 715.586422,337.632699 713.879962,354.156051 L734.135018,354.156051 C737.258892,344.120554 739.387067,334.513858 740.631757,324.07662 C740.821328,322.370269 740.878199,321.858364 740.98631,320.885237 L741.036317,320.435117 C741.072461,320.109776 741.114934,319.727477 741.168024,319.249602 L742.310887,309.50724 C742.591856,307.00567 742.864561,304.577676 743.137266,302.149682 C751.554367,302.918471 759.723906,303.66465 767.893446,304.410828 C770.562121,314.714786 770.562121,314.714786 769.458289,321.21044 C766.914216,332.169892 764.840676,342.999782 763.392322,354.156051 L785.89794,354.156051 C790.085404,335.599479 799.308462,308.74655 790.399064,290.843949 C779.866435,283.201274 779.866435,283.201274 753.563697,283.822029 C751.549092,283.903113 749.593741,283.981811 747.638389,284.06051 C747.891577,283.551752 748.119447,283.093869 748.326499,282.66199 L748.448267,282.405784 C748.507939,282.279043 748.565818,282.154193 748.622025,282.030565 L748.732249,281.784738 L748.838232,281.540973 L748.940192,281.298076 L749.038343,281.054853 C749.07045,280.973592 749.101958,280.892078 749.132903,280.810111 L749.224087,280.562656 C749.921338,278.622652 750.331363,276.327477 750.912818,271.142663 L750.98967,270.449787 C751.210385,268.439028 751.457237,266.018557 751.753376,263.060446 L751.858333,262.010374 C751.947512,261.116939 752.041051,260.17715 752.139513,259.187898 Z M321.781611,310.063694 C329.782211,311.333255 329.782211,311.333255 335.354057,314.859814 C340.32812,322.521291 340.197326,327.214766 338.925753,336.160229 C335.354057,342.79016 335.354057,342.79016 329.782211,347.445217 C321.781611,348.855841 321.781611,348.855841 313.781012,347.445217 C307.076347,341.673992 304.955276,338.04297 303.494527,329.389236 C305.497701,317.522084 309.560267,312.003017 321.781611,310.063694 Z M849.425115,302.392718 C849.646677,302.612406 849.857342,302.82129 850.057798,303.020931 L850.445299,303.40835 C853.938717,306.917864 854.034061,307.569126 855.19726,315.514524 C854.639154,324.62026 851.581177,329.484632 844.920027,335.895202 C839.232905,338.71472 835.207045,338.348843 828.870648,338.268294 C826.820656,338.248141 824.770665,338.227987 822.658553,338.207222 C820.297868,338.168354 820.297868,338.168354 817.889494,338.128701 C818.591082,333.893978 819.295571,329.659729 820.001254,325.425675 C820.39325,323.067676 820.785245,320.709677 821.189119,318.280224 C822.240669,312.214538 823.395222,306.186891 824.647127,300.159219 C833.85117,299.695173 840.670601,299.499219 849.425115,302.392718 Z M688.888664,302.392718 C693.393753,306.859715 693.393753,306.859715 694.660809,315.514524 C694.102703,324.62026 691.044726,329.484632 684.383575,335.895202 C678.696454,338.71472 674.670593,338.348843 668.334197,338.268294 C666.284205,338.248141 664.234214,338.227987 662.122101,338.207222 C659.761417,338.168354 659.761417,338.168354 657.353043,338.128701 C657.610815,333.474222 657.898058,328.821342 658.197747,324.169332 C658.354545,321.578124 658.511343,318.986917 658.672893,316.317188 C659.521078,309.747756 660.680979,305.744105 664.110676,300.159219 C673.314719,299.695173 680.13415,299.499219 688.888664,302.392718 Z" id="Combined-Shape" fill="#FFFFFF" fill-rule="nonzero"></path>
        <g id="php-Uzbekistan" transform="translate(1195.796, 284.668)" fill="#FFFFFF" fill-rule="nonzero">
            <path d="M91.008,90.534 L218.04,90.534 C236.368,90.85 252.089,93.694 265.203,99.066 C278.317,104.438 288.666,112.338 296.25,122.766 C303.834,133.51 308.574,146.071 310.47,160.449 C312.366,174.827 311.26,191.18 307.152,209.508 C305.572,218.04 303.281,226.335 300.279,234.393 C297.277,242.451 293.722,250.588 289.614,258.804 C285.19,266.704 280.213,274.367 274.683,281.793 C269.153,289.219 262.912,296.092 255.96,302.412 C247.428,310.628 238.738,317.343 229.89,322.557 C221.042,327.771 212.036,331.484 202.872,333.696 C194.024,335.908 184.86,337.567 175.38,338.673 C165.9,339.779 156.42,340.332 146.94,340.332 L90.06,340.332 L65.886,430.392 L0,430.392 L91.008,90.534 L91.008,90.534 Z M142.2,144.57 L104.28,286.77 C104.912,286.77 105.465,286.849 105.939,287.007 C106.413,287.165 106.966,287.244 107.598,287.244 C107.914,287.244 108.388,287.244 109.02,287.244 C109.652,287.244 110.126,287.244 110.442,287.244 C111.39,287.244 112.417,287.244 113.523,287.244 C114.629,287.244 115.814,287.244 117.078,287.244 C131.93,287.56 145.755,286.928 158.553,285.348 C171.351,283.768 182.964,281.398 193.392,278.238 C203.504,274.762 212.352,267.336 219.936,255.96 C227.52,244.584 233.84,228.942 238.896,209.034 C242.688,192.286 243.478,179.172 241.266,169.692 C239.054,160.212 233.84,154.208 225.624,151.68 C217.408,149.152 208.007,147.335 197.421,146.229 C186.835,145.123 175.222,144.57 162.582,144.57 C160.686,144.886 158.869,145.044 157.131,145.044 C155.393,145.044 153.734,145.044 152.154,145.044 C150.574,145.044 148.915,145.044 147.177,145.044 C145.439,145.044 143.78,145.044 142.2,145.044 L142.2,144.57 Z" id="Shape"></path>
            <path d="M404.322,0 L469.734,0 L445.56,90.534 L504.336,90.534 C520.136,90.85 533.882,92.667 545.574,95.985 C557.266,99.303 566.904,104.122 574.488,110.442 C582.072,116.762 586.654,125.926 588.234,137.934 C589.814,149.942 588.392,164.794 583.968,182.49 L541.782,340.332 L475.422,340.332 L515.712,189.6 C517.924,181.7 518.951,174.906 518.793,169.218 C518.635,163.53 517.45,159.106 515.238,155.946 C512.71,152.47 508.76,149.942 503.388,148.362 C498.016,146.782 491.222,145.992 483.006,145.992 L430.866,145.518 L378.726,340.332 L313.314,340.332 L404.322,0 L404.322,0 Z" id="Path"></path>
            <path d="M665.97,90.534 L793.002,90.534 C811.33,90.85 827.051,93.694 840.165,99.066 C853.279,104.438 863.628,112.338 871.212,122.766 C878.796,133.51 883.536,146.071 885.432,160.449 C887.328,174.827 886.222,191.18 882.114,209.508 C880.534,218.04 878.243,226.335 875.241,234.393 C872.239,242.451 868.684,250.588 864.576,258.804 C860.152,266.704 855.175,274.367 849.645,281.793 C844.115,289.219 837.874,296.092 830.922,302.412 C822.39,310.628 813.7,317.343 804.852,322.557 C796.004,327.771 786.998,331.484 777.834,333.696 C768.986,335.908 759.822,337.567 750.342,338.673 C740.862,339.779 731.382,340.332 721.902,340.332 L665.022,340.332 L640.848,430.392 L574.962,430.392 L665.97,90.534 L665.97,90.534 Z M717.162,144.57 L679.242,286.77 C679.874,286.77 680.427,286.849 680.901,287.007 C681.375,287.165 681.928,287.244 682.56,287.244 C682.876,287.244 683.35,287.244 683.982,287.244 C684.614,287.244 685.088,287.244 685.404,287.244 C686.352,287.244 687.379,287.244 688.485,287.244 C689.591,287.244 690.776,287.244 692.04,287.244 C706.892,287.56 720.717,286.928 733.515,285.348 C746.313,283.768 757.926,281.398 768.354,278.238 C778.466,274.762 787.314,267.336 794.898,255.96 C802.482,244.584 808.802,228.942 813.858,209.034 C817.65,192.286 818.44,179.172 816.228,169.692 C814.016,160.212 808.802,154.208 800.586,151.68 C792.37,149.152 782.969,147.335 772.383,146.229 C761.797,145.123 750.184,144.57 737.544,144.57 C735.648,144.886 733.831,145.044 732.093,145.044 C730.355,145.044 728.696,145.044 727.116,145.044 C725.536,145.044 723.877,145.044 722.139,145.044 C720.401,145.044 718.742,145.044 717.162,145.044 L717.162,144.57 Z" id="Shape"></path>
            <path d="M1239.51,0 L1185,203.82 C1180.892,218.356 1178.68,230.917 1178.364,241.503 C1178.048,252.089 1179.47,261.016 1182.63,268.284 C1185.79,275.236 1192.031,280.529 1201.353,284.163 C1210.675,287.797 1223.078,289.614 1238.562,289.614 C1254.046,289.614 1267.318,287.797 1278.378,284.163 C1289.438,280.529 1298.444,275.236 1305.396,268.284 C1312.348,261.016 1318.51,252.089 1323.882,241.503 C1329.254,230.917 1333.836,218.514 1337.628,204.294 L1392.612,0 L1464.186,0 L1409.202,205.716 C1408.57,207.928 1408.017,210.061 1407.543,212.115 C1407.069,214.169 1406.516,216.144 1405.884,218.04 C1405.252,220.252 1404.62,222.306 1403.988,224.202 C1403.356,226.098 1402.724,227.994 1402.092,229.89 C1400.196,235.894 1398.063,241.898 1395.693,247.902 C1393.323,253.906 1390.716,259.752 1387.872,265.44 C1384.712,271.128 1381.236,276.658 1377.444,282.03 C1373.652,287.402 1369.386,292.616 1364.646,297.672 C1357.694,304.624 1350.268,310.628 1342.368,315.684 C1334.468,320.74 1325.936,325.006 1316.772,328.482 C1310.768,330.694 1304.843,332.669 1298.997,334.407 C1293.151,336.145 1287.384,337.488 1281.696,338.436 C1278.852,339.068 1275.929,339.542 1272.927,339.858 C1269.925,340.174 1267.002,340.49 1264.158,340.806 C1260.682,341.438 1257.285,341.833 1253.967,341.991 C1250.649,342.149 1247.252,342.386 1243.776,342.702 C1242.196,342.702 1240.537,342.702 1238.799,342.702 C1237.061,342.702 1235.402,342.86 1233.822,343.176 C1232.242,343.176 1230.662,343.176 1229.082,343.176 C1227.502,343.176 1225.922,343.176 1224.342,343.176 C1222.762,343.176 1221.182,343.176 1219.602,343.176 C1218.022,343.176 1216.442,343.176 1214.862,343.176 C1213.282,342.86 1211.702,342.702 1210.122,342.702 C1208.542,342.702 1206.962,342.702 1205.382,342.702 C1202.222,342.386 1199.062,342.149 1195.902,341.991 C1192.742,341.833 1189.582,341.438 1186.422,340.806 C1177.89,340.49 1169.753,339.226 1162.011,337.014 C1154.269,334.802 1146.764,332.116 1139.496,328.956 C1132.544,325.48 1126.461,321.135 1121.247,315.921 C1116.033,310.707 1111.688,304.624 1108.212,297.672 C1105.684,292.616 1103.946,287.402 1102.998,282.03 C1102.05,276.658 1101.734,271.128 1102.05,265.44 C1102.05,259.752 1102.524,253.906 1103.472,247.902 C1104.42,241.898 1105.684,235.894 1107.264,229.89 C1107.58,227.994 1107.975,226.098 1108.449,224.202 C1108.923,222.306 1109.476,220.252 1110.108,218.04 C1110.424,217.092 1110.661,216.144 1110.819,215.196 C1110.977,214.248 1111.214,213.142 1111.53,211.878 C1111.846,210.93 1112.083,209.982 1112.241,209.034 C1112.399,208.086 1112.636,207.138 1112.952,206.19 L1168.41,0 L1239.51,0 L1239.51,0 Z" id="Path"></path>
            <polygon id="Path" points="1442.856 286.77 1628.664 144.57 1480.776 144.57 1495.47 90.534 1729.626 90.534 1714.932 144.57 1529.124 286.77 1677.012 286.77 1662.792 340.332 1428.636 340.332"></polygon>
            <path d="M1871.352,144.57 L1831.062,144.57 L1793.142,286.77 C1794.722,287.086 1796.223,287.323 1797.645,287.481 C1799.067,287.639 1800.568,287.718 1802.148,287.718 C1803.728,287.718 1805.387,287.718 1807.125,287.718 C1808.863,287.718 1810.522,287.718 1812.102,287.718 C1823.162,288.034 1833.906,287.797 1844.334,287.007 C1854.762,286.217 1864.874,284.716 1874.67,282.504 C1884.782,280.608 1893.63,275.552 1901.214,267.336 C1908.798,259.12 1915.118,247.902 1920.174,233.682 C1920.49,232.734 1920.806,231.786 1921.122,230.838 C1921.438,229.89 1921.754,228.942 1922.07,227.994 C1922.07,227.046 1922.228,226.098 1922.544,225.15 C1922.86,224.202 1923.176,223.254 1923.492,222.306 C1923.808,221.358 1924.124,220.41 1924.44,219.462 C1924.756,218.514 1925.072,217.408 1925.388,216.144 C1925.704,215.196 1926.02,214.248 1926.336,213.3 C1926.652,212.352 1926.968,211.404 1927.284,210.456 C1927.6,208.876 1927.916,207.217 1928.232,205.479 C1928.548,203.741 1928.864,201.924 1929.18,200.028 C1929.18,198.448 1929.259,196.789 1929.417,195.051 C1929.575,193.313 1929.654,191.654 1929.654,190.074 C1929.654,186.598 1929.496,183.359 1929.18,180.357 C1928.864,177.355 1928.232,174.432 1927.284,171.588 C1925.388,165.268 1922.702,160.212 1919.226,156.42 C1915.75,152.628 1911.484,150.1 1906.428,148.836 C1901.372,147.572 1895.921,146.624 1890.075,145.992 C1884.229,145.36 1877.988,145.044 1871.352,145.044 L1871.352,144.57 Z M1869.93,0 L1845.756,90.534 L1902.636,90.534 C1911.8,90.85 1920.806,91.561 1929.654,92.667 C1938.502,93.773 1946.876,95.59 1954.776,98.118 C1962.992,100.33 1970.102,104.043 1976.106,109.257 C1982.11,114.471 1987.166,121.186 1991.274,129.402 C1994.75,136.038 1997.278,142.99 1998.858,150.258 C2000.438,157.526 2001.228,165.268 2001.228,173.484 C2000.912,181.384 2000.122,189.442 1998.858,197.658 C1997.594,205.874 1995.54,214.09 1992.696,222.306 C1986.692,240.634 1978.95,257.066 1969.47,271.602 C1959.99,286.138 1948.614,298.62 1935.342,309.048 C1922.07,319.476 1907.534,327.297 1891.734,332.511 C1875.934,337.725 1858.712,340.332 1840.068,340.332 L1713.036,340.332 L1804.044,0 L1869.93,0 L1869.93,0 Z" id="Shape"></path>
            <path d="M2113.566,340.332 C2104.718,340.332 2096.107,339.858 2087.733,338.91 C2079.359,337.962 2071.222,336.382 2063.322,334.17 C2055.422,331.958 2048.47,328.64 2042.466,324.216 C2036.462,319.792 2031.248,314.104 2026.824,307.152 C2023.032,301.78 2020.267,295.855 2018.529,289.377 C2016.791,282.899 2015.606,276.184 2014.974,269.232 C2014.658,261.964 2014.816,254.775 2015.448,247.665 C2016.08,240.555 2017.028,233.208 2018.292,225.624 C2018.608,224.992 2018.845,224.281 2019.003,223.491 C2019.161,222.701 2019.398,221.832 2019.714,220.884 C2020.03,220.252 2020.267,219.541 2020.425,218.751 C2020.583,217.961 2020.82,217.092 2021.136,216.144 C2021.136,215.512 2021.215,214.959 2021.373,214.485 C2021.531,214.011 2021.768,213.458 2022.084,212.826 C2022.084,212.51 2022.163,212.036 2022.321,211.404 C2022.479,210.772 2022.558,210.298 2022.558,209.982 C2022.874,209.034 2023.269,208.007 2023.743,206.901 C2024.217,205.795 2024.612,204.61 2024.928,203.346 C2027.456,196.078 2030.3,189.047 2033.46,182.253 C2036.62,175.459 2040.254,168.586 2044.362,161.634 C2048.47,154.682 2053.131,148.125 2058.345,141.963 C2063.559,135.801 2069.326,130.034 2075.646,124.662 C2083.862,117.71 2092.236,112.022 2100.768,107.598 C2109.3,103.174 2117.99,99.856 2126.838,97.644 C2135.686,95.432 2144.534,93.773 2153.382,92.667 C2162.23,91.561 2171.078,91.008 2179.926,91.008 L2276.622,90.534 L2262.402,142.674 L2175.186,142.674 C2166.022,142.99 2157.569,143.859 2149.827,145.281 C2142.085,146.703 2135.054,148.678 2128.734,151.206 C2122.414,153.734 2116.963,158.237 2112.381,164.715 C2107.799,171.193 2103.928,179.646 2100.768,190.074 L2250.078,189.6 L2235.858,241.74 L2087.022,241.74 C2084.494,252.484 2083.704,261.174 2084.652,267.81 C2085.6,274.446 2088.444,279.028 2093.184,281.556 C2097.608,283.768 2103.375,285.506 2110.485,286.77 C2117.595,288.034 2126.048,288.666 2135.844,288.666 L2223.534,288.192 L2209.788,340.332 L2113.566,340.332 L2113.566,340.332 Z" id="Path"></path>
            <polygon id="Path" points="2344.878 0 2410.764 0 2354.358 210.456 2492.766 90.534 2576.19 90.534 2427.828 212.826 2509.356 340.332 2420.718 340.332 2351.988 218.988 2319.756 340.332 2253.87 340.332"></polygon>
            <path d="M2606.526,340.332 L2537.322,340.332 L2604.156,90.534 L2673.36,90.534 L2606.526,340.332 L2606.526,340.332 Z M2680.944,62.094 L2611.74,62.094 L2628.33,0 L2697.534,0 L2680.944,62.094 L2680.944,62.094 Z" id="Shape"></path>
            <path d="M2673.36,288.192 L2812.242,288.192 C2812.558,288.508 2812.874,288.666 2813.19,288.666 C2813.506,288.666 2813.822,288.666 2814.138,288.666 C2814.454,288.666 2814.77,288.666 2815.086,288.666 C2815.402,288.666 2815.718,288.666 2816.034,288.666 C2817.93,288.666 2819.826,288.587 2821.722,288.429 C2823.618,288.271 2825.672,287.876 2827.884,287.244 C2829.78,286.928 2831.676,286.454 2833.572,285.822 C2835.468,285.19 2837.364,284.4 2839.26,283.452 C2842.736,281.872 2845.817,279.502 2848.503,276.342 C2851.189,273.182 2853.164,269.074 2854.428,264.018 C2855.692,259.594 2855.85,255.802 2854.902,252.642 C2853.954,249.482 2852.216,247.112 2849.688,245.532 C2846.844,243.952 2843.842,242.688 2840.682,241.74 C2837.522,240.792 2834.204,240.16 2830.728,239.844 C2830.412,239.844 2830.017,239.844 2829.543,239.844 C2829.069,239.844 2828.516,239.844 2827.884,239.844 C2827.568,239.844 2827.173,239.844 2826.699,239.844 C2826.225,239.844 2825.672,239.844 2825.04,239.844 L2768.634,239.37 C2755.046,239.686 2743.196,238.896 2733.084,237 C2722.972,235.104 2714.756,232.26 2708.436,228.468 C2701.8,224.676 2697.771,217.961 2696.349,208.323 C2694.927,198.685 2696.27,186.124 2700.378,170.64 C2704.17,156.104 2709.384,143.701 2716.02,133.431 C2722.656,123.161 2730.872,115.024 2740.668,109.02 C2750.464,103.016 2761.05,98.513 2772.426,95.511 C2783.802,92.509 2796.284,91.008 2809.872,91.008 L2952.072,90.534 L2937.852,142.674 L2821.248,142.674 C2820.932,142.99 2820.537,143.148 2820.063,143.148 C2819.589,143.148 2819.036,143.148 2818.404,143.148 C2818.088,143.148 2817.851,143.148 2817.693,143.148 C2817.535,143.148 2817.456,143.148 2817.456,143.148 C2817.14,143.148 2816.903,143.148 2816.745,143.148 C2816.587,143.148 2816.35,143.148 2816.034,143.148 C2814.77,143.148 2813.585,143.148 2812.479,143.148 C2811.373,143.148 2810.346,143.148 2809.398,143.148 C2808.45,143.148 2807.423,143.148 2806.317,143.148 C2805.211,143.148 2804.026,143.148 2802.762,143.148 C2801.498,143.148 2800.076,143.306 2798.496,143.622 C2796.916,143.938 2795.494,144.254 2794.23,144.57 C2792.65,144.886 2791.149,145.202 2789.727,145.518 C2788.305,145.834 2786.804,146.308 2785.224,146.94 C2782.064,148.204 2779.457,149.863 2777.403,151.917 C2775.349,153.971 2773.532,156.42 2771.952,159.264 C2768.792,164.952 2767.291,169.692 2767.449,173.484 C2767.607,177.276 2769.266,180.12 2772.426,182.016 C2775.27,184.228 2778.588,185.808 2782.38,186.756 C2786.172,187.704 2790.438,188.178 2795.178,188.178 L2854.902,187.704 C2866.594,188.02 2876.864,189.521 2885.712,192.207 C2894.56,194.893 2902.302,198.922 2908.938,204.294 C2915.574,209.35 2919.761,216.46 2921.499,225.624 C2923.237,234.788 2922.684,245.848 2919.84,258.804 C2919.524,259.12 2919.366,259.357 2919.366,259.515 C2919.366,259.673 2919.366,259.752 2919.366,259.752 C2919.366,259.752 2919.366,259.752 2919.366,259.752 C2919.366,259.752 2919.366,259.752 2919.366,259.752 C2919.366,260.068 2919.366,260.226 2919.366,260.226 C2919.366,260.226 2919.366,260.226 2919.366,260.226 C2916.522,270.338 2912.414,280.055 2907.042,289.377 C2901.67,298.699 2894.876,307.468 2886.66,315.684 C2878.76,323.9 2870.07,330.062 2860.59,334.17 C2851.11,338.278 2840.84,340.332 2829.78,340.332 L2659.614,340.332 L2673.36,288.192 L2673.36,288.192 Z" id="Path"></path>
            <path d="M2987.148,90.534 L3033.6,90.534 L3057.774,0 L3123.66,0 L3099.486,90.534 L3169.164,90.534 L3155.892,140.304 L3086.214,140.304 L3059.196,241.266 C3055.404,253.906 3053.982,263.86 3054.93,271.128 C3055.878,278.396 3059.038,282.978 3064.41,284.874 C3069.466,287.086 3075.865,288.666 3083.607,289.614 C3091.349,290.562 3100.434,291.036 3110.862,291.036 C3111.178,291.036 3111.494,291.036 3111.81,291.036 C3112.126,291.036 3112.442,291.036 3112.758,291.036 C3113.074,291.036 3113.311,291.036 3113.469,291.036 C3113.627,291.036 3113.864,291.036 3114.18,291.036 C3114.18,291.036 3114.259,291.036 3114.417,291.036 C3114.575,291.036 3114.812,291.036 3115.128,291.036 L3102.33,340.332 L3042.132,340.332 C3029.492,340.332 3018.906,338.594 3010.374,335.118 C3001.842,331.642 2995.364,326.428 2990.94,319.476 C2986.516,312.524 2983.988,304.308 2983.356,294.828 C2982.724,285.348 2983.988,274.604 2987.148,262.596 L3020.328,140.304 L2973.876,140.304 L2987.148,90.534 L2987.148,90.534 Z" id="Path"></path>
            <path d="M3213.246,90.534 L3348.336,90.534 C3355.288,90.85 3362.161,91.403 3368.955,92.193 C3375.749,92.983 3382.306,94.168 3388.626,95.748 C3394.946,97.012 3400.634,99.382 3405.69,102.858 C3410.746,106.334 3415.328,110.758 3419.436,116.13 C3422.912,120.554 3425.519,125.373 3427.257,130.587 C3428.995,135.801 3430.022,141.41 3430.338,147.414 C3430.654,153.418 3430.417,159.501 3429.627,165.663 C3428.837,171.825 3427.652,178.066 3426.072,184.386 L3384.36,340.332 L3207.084,340.332 C3194.444,340.332 3183.542,338.594 3174.378,335.118 C3165.214,331.642 3158.262,326.428 3153.522,319.476 C3148.466,312.208 3145.78,303.755 3145.464,294.117 C3145.148,284.479 3147.044,273.34 3151.152,260.7 C3155.892,245.848 3162.212,233.524 3170.112,223.728 C3178.012,213.932 3187.334,206.822 3198.078,202.398 C3208.822,197.974 3220.119,194.656 3231.969,192.444 C3243.819,190.232 3256.38,189.126 3269.652,189.126 L3356.394,188.652 C3359.87,178.54 3361.055,170.245 3359.949,163.767 C3358.843,157.289 3355.762,152.786 3350.706,150.258 C3345.65,147.73 3339.646,145.834 3332.694,144.57 C3325.742,143.306 3317.842,142.674 3308.994,142.674 L3199.5,142.2 L3213.246,90.534 L3213.246,90.534 Z M3247.374,290.088 L3329.85,290.088 L3343.596,238.422 L3265.86,238.422 C3265.544,238.738 3265.228,238.896 3264.912,238.896 C3264.596,238.896 3264.28,238.896 3263.964,238.896 C3263.648,238.896 3263.332,238.896 3263.016,238.896 C3262.7,238.896 3262.384,238.896 3262.068,238.896 C3257.644,239.212 3253.299,239.765 3249.033,240.555 C3244.767,241.345 3240.422,242.53 3235.998,244.11 C3231.89,245.374 3228.335,247.823 3225.333,251.457 C3222.331,255.091 3220.04,259.594 3218.46,264.966 C3216.248,270.97 3215.537,275.868 3216.327,279.66 C3217.117,283.452 3219.25,285.822 3222.726,286.77 C3226.202,288.034 3229.994,288.982 3234.102,289.614 C3238.21,290.246 3242.634,290.562 3247.374,290.562 L3247.374,290.088 Z" id="Shape"></path>
            <path d="M3509.022,90.534 L3633.21,90.534 C3649.326,90.85 3663.388,92.588 3675.396,95.748 C3687.404,98.908 3697.2,103.648 3704.784,109.968 C3712.052,116.288 3716.397,125.531 3717.819,137.697 C3719.241,149.863 3717.582,164.794 3712.842,182.49 L3670.656,340.332 L3604.77,340.332 L3644.586,190.074 C3647.114,181.542 3648.457,174.353 3648.615,168.507 C3648.773,162.661 3647.746,158.158 3645.534,154.998 C3643.322,152.154 3639.53,149.942 3634.158,148.362 C3628.786,146.782 3621.676,145.992 3612.828,145.992 L3560.214,145.518 L3508.074,340.332 L3442.188,340.332 L3509.022,90.534 L3509.022,90.534 Z" id="Path"></path>
        </g>
    </g>
</svg>