<?xml version="1.0" encoding="UTF-8"?>
<svg width="5111px" height="1000px" viewBox="0 0 5111 1000" version="1.1" xmlns="http://www.w3.org/2000/svg" xmlns:xlink="http://www.w3.org/1999/xlink">
    <title>Artboard</title>
    <g id="Artboard" stroke="none" stroke-width="1" fill="none" fill-rule="evenodd">
        <g id="Logo" transform="translate(54, 36)" fill="#FFFFFF">
            <path d="M568.087634,206.272358 C569.595178,200.239837 574.11781,194.207317 580.147987,194.207317 C574.11781,194.207317 568.087634,188.174797 568.087634,182.142276 C566.58009,188.174797 562.057457,194.207317 556.027281,194.207317 C562.057457,194.207317 568.087634,198.731707 568.087634,206.272358 Z M720.34959,572.747967 C721.857134,563.699187 729.394855,554.650407 739.947663,553.142276 C729.394855,551.634146 721.857134,544.093496 720.34959,533.536585 C718.842046,544.093496 711.304325,551.634146 700.751516,553.142276 C711.304325,554.650407 718.842046,562.191057 720.34959,572.747967 Z M423.363398,731.101626 C424.870942,725.069106 429.393574,720.544715 435.423751,719.036585 C429.393574,719.036585 423.363398,713.004065 423.363398,706.971545 C421.855854,713.004065 417.333222,719.036585 411.303045,719.036585 C417.333222,720.544715 423.363398,725.069106 423.363398,731.101626 Z M501.755692,670.776423 C501.755692,667.760163 504.770781,664.743902 507.785869,664.743902 C504.770781,664.743902 501.755692,661.727642 501.755692,658.711382 C501.755692,661.727642 498.740604,664.743902 495.725516,664.743902 C498.740604,664.743902 501.755692,667.760163 501.755692,670.776423 Z M549.997104,614.97561 L546.982016,614.97561 C545.474472,614.97561 545.474472,614.97561 545.474472,616.48374 C545.474472,616.48374 545.474472,616.48374 545.474472,616.48374 L545.474472,621.00813 C545.474472,622.51626 545.474472,622.51626 546.982016,622.51626 L546.982016,622.51626 L553.012192,622.51626 L559.042369,622.51626 L559.042369,622.51626 C559.042369,622.51626 559.042369,622.51626 559.042369,622.51626 L559.042369,622.51626 L559.042369,622.51626 L559.042369,622.51626 L559.042369,622.51626 L559.042369,622.51626 L559.042369,622.51626 L559.042369,622.51626 L559.042369,622.51626 L559.042369,622.51626 L559.042369,622.51626 L559.042369,622.51626 L559.042369,622.51626 L559.042369,622.51626 L559.042369,622.51626 L559.042369,622.51626 L559.042369,622.51626 L559.042369,622.51626 L559.042369,622.51626 L559.042369,622.51626 L559.042369,622.51626 L559.042369,622.51626 L559.042369,622.51626 L559.042369,622.51626 L559.042369,622.51626 L559.042369,622.51626 L559.042369,622.51626 L559.042369,622.51626 L559.042369,622.51626 L559.042369,622.51626 L559.042369,622.51626 L559.042369,622.51626 L559.042369,622.51626 L559.042369,622.51626 L559.042369,622.51626 L559.042369,622.51626 L559.042369,622.51626 L559.042369,617.99187 C559.042369,616.48374 559.042369,616.48374 557.534825,616.48374 C557.534825,616.48374 557.534825,616.48374 557.534825,616.48374 L557.534825,616.48374 C557.534825,616.48374 556.027281,616.48374 556.027281,617.99187 C556.027281,619.5 554.519737,619.5 553.012192,619.5 L553.012192,619.5 L553.012192,619.5 L553.012192,619.5 C551.504648,619.5 551.504648,617.99187 549.997104,616.48374 C549.997104,617.99187 549.997104,616.48374 549.997104,614.97561 L549.997104,614.97561 Z M546.982016,630.056911 L546.982016,630.056911 L546.982016,630.056911 C546.982016,630.056911 546.982016,630.056911 546.982016,630.056911 L557.534825,631.565041 L557.534825,631.565041 C557.534825,631.565041 559.042369,631.565041 559.042369,630.056911 L559.042369,628.54878 L559.042369,628.54878 L559.042369,628.54878 L559.042369,627.04065 C559.042369,625.53252 559.042369,625.53252 557.534825,625.53252 L557.534825,625.53252 L557.534825,625.53252 L554.519737,625.53252 L553.012192,625.53252 L553.012192,625.53252 L548.48956,625.53252 C546.982016,625.53252 545.474472,627.04065 545.474472,627.04065 C545.474472,627.04065 545.474472,627.04065 545.474472,627.04065 L546.982016,630.056911 C546.982016,628.54878 546.982016,630.056911 546.982016,630.056911 L546.982016,630.056911 Z M548.48956,631.565041 C546.982016,645.138211 537.936751,648.154472 537.936751,648.154472 C545.474472,655.695122 549.997104,666.252033 549.997104,676.808943 L551.504648,654.186992 C549.997104,654.186992 548.48956,651.170732 548.48956,649.662602 C548.48956,648.154472 549.997104,646.646341 551.504648,646.646341 L551.504648,646.646341 C553.012192,646.646341 554.519737,648.154472 554.519737,649.662602 C554.519737,651.170732 553.012192,652.678862 551.504648,652.678862 L549.997104,675.300813 C551.504648,664.743902 557.534825,655.695122 565.072545,648.154472 C559.042369,643.630081 556.027281,637.597561 556.027281,630.056911 L551.504648,630.056911 L551.504648,630.056911 L548.48956,631.565041 Z M510.800957,631.565041 C476.127442,648.154472 455.021825,670.776423 459.544457,687.365854 C465.574633,711.495935 518.338678,717.528455 575.625354,702.447154 C632.912031,687.365854 673.615722,654.186992 667.585546,631.565041 C661.555369,611.95935 625.37431,604.418699 580.147987,610.45122 L580.147987,610.45122 C616.329046,605.926829 644.972384,611.95935 649.495016,627.04065 C655.525193,646.646341 617.83659,669.268293 569.595178,682.841463 C521.353766,696.414634 477.634986,694.906504 473.112354,675.300813 C468.589722,661.727642 485.172707,645.138211 510.800957,631.565041 C510.800957,631.565041 510.800957,631.565041 510.800957,631.565041 L510.800957,631.565041 Z M506.278325,714.512195 C489.695339,713.004065 477.634986,717.528455 476.127442,725.069106 C473.112354,735.626016 491.202883,747.691057 515.323589,753.723577 C539.444295,759.756098 562.057457,756.739837 563.565001,746.182927 C565.072545,737.134146 554.519737,728.085366 536.429207,720.544715 C536.429207,720.544715 536.429207,720.544715 536.429207,720.544715 C551.504648,726.577236 560.549913,734.117886 559.042369,741.658537 C557.534825,749.199187 539.444295,750.707317 518.338678,746.182927 C497.23306,741.658537 480.650075,732.609756 482.157619,723.560976 C483.665163,717.528455 492.710428,714.512195 506.278325,714.512195 C506.278325,716.020325 506.278325,714.512195 506.278325,714.512195 L506.278325,714.512195 Z M500.248148,63 C647.987472,63 782.158899,150.471545 840.95312,286.203252 C846.983296,278.662602 854.521017,271.121951 859.043649,263.581301 C871.104002,248.5 893.717164,248.5 907.285061,260.565041 C922.360502,272.630081 922.360502,295.252033 910.300149,308.825203 C828.892767,399.313008 724.872222,468.686992 616.329046,527.504065 L619.344134,524.487805 C623.866766,488.292683 619.344134,452.097561 604.268693,418.918699 C607.283781,456.621951 598.238516,464.162602 595.223428,468.686992 C596.730972,461.146341 596.730972,452.097561 596.730972,443.04878 L596.730972,443.04878 C590.700795,424.95122 581.655531,406.853659 571.102722,391.772358 C569.595178,405.345528 565.072545,417.410569 557.534825,427.96748 L563.565001,400.821138 C569.595178,373.674797 537.936751,331.447154 537.936751,331.447154 C539.444295,335.971545 536.429207,340.495935 531.906575,343.512195 C539.444295,320.890244 507.785869,296.760163 507.785869,296.760163 C507.785869,305.808943 504.770781,314.857724 498.740604,320.890244 C503.263236,278.662602 450.499192,243.97561 450.499192,243.97561 C452.006736,248.5 450.499192,253.02439 447.484104,256.04065 C445.97656,230.402439 409.795501,213.813008 409.795501,213.813008 C412.810589,216.829268 412.810589,222.861789 408.287957,225.878049 C394.72006,188.174797 307.282501,151.979675 307.282501,151.979675 C308.790045,164.044715 314.820221,174.601626 322.357942,182.142276 C332.910751,197.223577 343.46356,213.813008 352.508824,231.910569 C361.554089,246.99187 369.09181,263.581301 375.121986,280.170732 C379.644618,283.186992 384.167251,286.203252 388.689883,287.711382 C393.212516,290.727642 399.242692,292.235772 403.765324,295.252033 C397.735148,295.252033 391.704971,295.252033 387.182339,293.743902 C384.167251,292.235772 381.152163,290.727642 378.137074,287.711382 C385.674795,299.776423 391.704971,311.841463 397.735148,325.414634 C400.750236,332.955285 403.765324,338.987805 405.272869,346.528455 C415.825677,352.560976 426.378486,357.085366 438.438839,361.609756 C442.961472,363.117886 447.484104,364.626016 452.006736,366.134146 C444.469016,364.626016 436.931295,363.117886 429.393574,361.609756 C420.34831,358.593496 409.795501,355.577236 402.25778,349.544715 C403.765324,366.134146 412.810589,382.723577 427.88603,391.772358 C435.423751,396.296748 442.961472,400.821138 452.006736,403.837398 C447.484104,405.345528 441.453927,406.853659 435.423751,405.345528 C429.393574,405.345528 423.363398,402.329268 418.840766,399.313008 C423.363398,415.902439 430.901119,429.47561 444.469016,440.03252 C452.006736,447.573171 461.052001,452.097561 470.097266,456.621951 C459.544457,459.638211 448.991648,456.621951 439.946383,450.589431 C444.469016,468.686992 464.067089,498.849593 509.293413,519.963415 C488.187795,518.455285 468.589722,510.914634 452.006736,498.849593 C452.006736,516.947154 458.036913,535.044715 470.097266,548.617886 C482.157619,562.191057 495.725516,572.747967 512.308501,580.288618 L509.293413,581.796748 C507.785869,581.796748 506.278325,580.288618 503.263236,580.288618 C492.710428,577.272358 483.665163,571.239837 476.127442,563.699187 C483.665163,571.239837 492.710428,578.780488 501.755692,584.813008 C494.217972,587.829268 488.187795,590.845528 480.650075,593.861789 C405.272869,628.54878 326.880574,658.711382 248.48828,682.841463 C242.458103,684.349593 234.920383,687.365854 228.890206,688.873984 L228.890206,688.873984 C173.111074,703.955285 121.854574,713.004065 87.1810589,705.463415 C75.1207059,703.955285 63.060353,697.922764 55.5226324,687.365854 C49.4924559,675.300813 49.4924559,660.219512 55.5226324,648.154472 C66.0754412,619.5 96.2263236,584.813008 139.945103,550.126016 C141.452647,548.617886 144.467736,547.109756 145.97528,548.617886 C84.1659707,352.560976 191.201603,144.439024 387.182339,81.097561 C424.870942,69.0325203 462.559545,63 500.248148,63 L500.248148,63 Z M554.519737,557.666667 L545.474472,562.191057 C542.459384,525.995935 534.921663,488.292683 524.368854,453.605691 L524.368854,453.605691 C515.323589,420.426829 504.770781,388.756098 489.695339,357.085366 C468.589722,302.792683 433.916207,256.04065 387.182339,221.353659 C369.09181,207.780488 351.00128,197.223577 331.403207,186.666667 L331.403207,186.666667 C351.00128,195.715447 370.599354,206.272358 387.182339,218.337398 C411.303045,234.926829 464.067089,275.646341 506.278325,375.182927 C516.831134,400.821138 525.876398,426.45935 533.414119,452.097561 L533.414119,452.097561 C546.982016,488.292683 553.012192,522.979675 554.519737,557.666667 L554.519737,557.666667 Z M360.046545,280.170732 L360.046545,280.170732 C354.016368,274.138211 349.493736,266.597561 344.971104,259.056911 C337.433383,243.97561 340.448471,236.434959 331.403207,227.386179 C325.37303,221.353659 317.835309,218.337398 310.297589,215.321138 L310.297589,215.321138 L310.297589,215.321138 C310.297589,216.829268 311.805133,216.829268 313.312677,218.337398 L313.312677,218.337398 C313.312677,219.845528 314.820221,219.845528 314.820221,221.353659 C323.865486,234.926829 319.342854,243.97561 322.357942,253.02439 C325.37303,259.056911 332.910751,269.613821 360.046545,280.170732 L360.046545,280.170732 Z M335.925839,332.955285 C335.925839,328.430894 340.448471,325.414634 344.971104,323.906504 C340.448471,323.906504 335.925839,319.382114 335.925839,314.857724 C335.925839,319.382114 331.403207,323.906504 326.880574,323.906504 C331.403207,325.414634 334.418295,328.430894 335.925839,332.955285 Z M210.799677,666.252033 C192.709147,643.630081 177.633706,617.99187 164.065809,592.353659 C162.558265,589.337398 152.005456,565.207317 152.005456,562.191057 C152.005456,559.174797 150.497912,557.666667 148.990368,554.650407 C147.482824,560.682927 144.467736,566.715447 139.945103,569.731707 C103.764044,596.878049 79.6433383,624.02439 72.1056177,643.630081 C69.0905295,649.662602 69.0905295,658.711382 72.1056177,664.743902 C78.1357942,673.792683 88.688603,679.825203 99.2414119,679.825203 C136.930015,684.349593 176.126162,679.825203 210.799677,666.252033 L210.799677,666.252033 Z M871.104002,414.394309 C871.104002,420.426829 871.104002,427.96748 871.104002,434 C871.104002,639.105691 705.274149,805 500.248148,805 C408.287957,805 319.342854,770.313008 251.503368,709.987805 C332.910751,687.365854 412.810589,660.219512 491.202883,627.04065 C506.278325,621.00813 522.86131,613.46748 539.444295,605.926829 C542.459384,607.434959 546.982016,608.943089 549.997104,610.45122 C549.997104,607.434959 549.997104,604.418699 549.997104,601.402439 L557.534825,598.386179 C557.534825,602.910569 557.534825,607.434959 557.534825,610.45122 C571.102722,601.402439 583.163075,592.353659 593.715884,580.288618 C690.198707,533.536585 783.666443,477.735772 871.104002,414.394309 L871.104002,414.394309 Z" id="Rounder" fill-rule="nonzero"></path>
            <polygon id="Flying-Star" points="946.5 168 960 179.932203 978 179.932203 978 197.830508 990 211.254237 978 224.677966 978 242.576271 960 242.576271 946.5 256 933 244.067797 915 244.067797 915 226.169492 903 211.254237 915 197.830508 915 179.932203 933 179.932203"></polygon>
            <path d="M802.758621,133 C796.689655,98.2386364 770.896552,72.5454545 736,66.5 C752.689655,64.9886364 767.862069,57.4318182 780,46.8522727 C792.137931,34.7613636 799.724138,18.1363636 802.758621,0 C804.275862,18.1363636 813.37931,34.7613636 825.517241,46.8522727 C837.655172,57.4318182 852.827586,64.9886364 868,66.5 C834.62069,72.5454545 808.827586,98.2386364 802.758621,133 Z" id="Starlet" fill-rule="nonzero"></path>
            <path d="M25.5,532 C24,526 21,520 16.5,515.5 C12,511 6,508 0,506.5 C6,506.5 12,503.5 16.5,499 C21,494.5 24,488.5 25.5,481 C27,494.5 37.5,505 51,506.5 C37.5,508 27,518.5 25.5,532 Z" id="Starlet" fill-rule="nonzero"></path>
            <path d="M252.5,924 C246.461538,883.240385 214.759615,851.538462 174,845.5 C216.269231,840.971154 247.971154,807.759615 252.5,767 C257.028846,807.759615 290.240385,840.971154 331,845.5 C291.75,851.538462 260.048077,883.240385 252.5,924 Z" id="Starlet" fill-rule="nonzero"></path>
        </g>
        <g id="Uzbek-Localization" transform="translate(1089.908, 286.73)" fill="#FFFFFF" fill-rule="nonzero">
            <path d="M445.108,14.97 L315.368,216.566 C304.057333,234.53 294.41,250.082167 286.426,263.2225 C278.442,276.362833 272.121333,287.756667 267.464,297.404 C262.806667,307.051333 259.396833,315.451167 257.2345,322.6035 C255.072167,329.755833 253.991,336.326 253.991,342.314 C253.991,347.969333 255.072167,352.377167 257.2345,355.5375 C259.396833,358.697833 262.973,360.278 267.963,360.278 C277.943,360.278 289.42,356.202833 302.394,348.0525 C315.368,339.902167 328.841,329.506333 342.813,316.865 C356.785,304.223667 370.757,290.334833 384.729,275.1985 C398.701,260.062167 411.675,245.508 423.651,231.536 L428.142,235.029 C425.148,238.688333 421.072833,243.512 415.9165,249.5 C410.760167,255.488 405.104833,261.891833 398.9505,268.7115 C392.796167,275.531167 386.392333,282.434 379.739,289.42 C373.085667,296.406 366.765,302.893 360.777,308.881 C340.817,328.508333 322.853,343.478333 306.885,353.791 C290.917,364.103667 274.782667,369.26 258.482,369.26 C241.848667,369.26 230.2885,365.5175 223.8015,358.0325 C217.3145,350.5475 214.071,341.149667 214.071,329.839 C214.071,318.528333 216.732333,307.1345 222.055,295.6575 C227.377667,284.1805 233.033,273.784667 239.021,264.47 L238.023,263.472 C227.710333,275.780667 216.233333,288.255667 203.592,300.897 C190.950667,313.538333 177.727167,324.932167 163.9215,335.0785 C150.115833,345.224833 135.894333,353.458333 121.257,359.779 C106.619667,366.099667 91.9823333,369.26 77.345,369.26 C65.369,369.26 56.4701667,365.933333 50.6485,359.28 C44.8268333,352.626667 41.916,343.478333 41.916,331.835 C41.916,321.189667 45.7416667,307.799833 53.393,291.6655 C61.0443333,275.531167 70.6916667,258.149333 82.335,239.52 C93.9783333,220.890667 106.453333,201.679167 119.76,181.8855 C133.066667,162.091833 145.541667,142.880333 157.185,124.251 C168.828333,105.621667 178.475667,88.4061667 186.127,72.6045 C193.778333,56.8028333 197.604,43.7456667 197.604,33.433 C197.604,25.7816667 194.693167,19.7936667 188.8715,15.469 C183.049833,11.1443333 175.149,8.982 165.169,8.982 C149.201,8.982 132.734,12.7245 115.768,20.2095 C98.802,27.6945 83.4993333,37.5081667 69.86,49.6505 C56.2206667,61.7928333 44.9931667,75.848 36.1775,91.816 C27.3618333,107.784 22.954,124.251 22.954,141.217 C22.954,150.199 25.6153333,158.4325 30.938,165.9175 C36.2606667,173.4025 43.7456667,177.145 53.393,177.145 C66.6996667,177.145 78.6756667,173.069833 89.321,164.9195 C99.9663333,156.769167 109.613667,147.205 118.263,136.227 L122.255,139.221 C112.607667,151.862333 101.463333,162.840333 88.822,172.155 C76.1806667,181.469667 61.7096667,186.127 45.409,186.127 C31.437,186.127 20.3758333,182.051833 12.2255,173.9015 C4.07516667,165.751167 0,154.69 0,140.718 C0,121.423333 5.7385,103.293 17.2155,86.327 C28.6925,69.361 43.413,54.4741667 61.377,41.6665 C79.341,28.8588333 99.3841667,18.7125 121.5065,11.2275 C143.628833,3.7425 165.169,0 186.127,0 C201.097,0 213.738333,3.992 224.051,11.976 C234.363667,19.96 239.52,31.936 239.52,47.904 C239.52,57.884 235.694333,70.5253333 228.043,85.828 C220.391667,101.130667 210.744333,117.847167 199.101,135.9775 C187.457667,154.107833 174.982667,172.820333 161.676,192.115 C148.369333,211.409667 135.894333,230.039 124.251,248.003 C112.607667,265.967 102.960333,282.600333 95.309,297.903 C87.6576667,313.205667 83.832,325.680667 83.832,335.328 C83.832,341.981333 85.6616667,346.971333 89.321,350.298 C92.9803333,353.624667 97.9703333,355.288 104.291,355.288 C115.269,355.288 128.409333,350.630667 143.712,341.316 C159.014667,332.001333 174.65,320.025333 190.618,305.388 C206.586,290.750667 221.971833,274.533167 236.7755,256.7355 C251.579167,238.937833 264.137333,221.722333 274.45,205.089 L390.218,16.966 L445.108,14.97 Z" id="Path"></path>
            <path d="M436.625,319.36 C438.288333,318.694667 439.951667,318.362 441.615,318.362 C443.611,318.362 445.939667,318.362 448.601,318.362 C456.252333,318.362 463.654167,319.692667 470.8065,322.354 C477.958833,325.015333 484.944833,327.843 491.7645,330.837 C498.584167,333.831 505.2375,336.658667 511.7245,339.32 C518.2115,341.981333 524.449,343.312 530.437,343.312 C542.080333,343.312 554.056333,339.236833 566.365,331.0865 C578.673667,322.936167 590.649667,313.039333 602.293,301.396 C613.936333,289.752667 624.831167,277.6935 634.9775,265.2185 C645.123833,252.7435 654.022667,242.015 661.674,233.033 L665.666,236.027 C659.345333,244.011 652.193,252.909833 644.209,262.7235 C636.225,272.537167 627.575667,282.434 618.261,292.414 C608.946333,302.394 599.132667,312.207667 588.82,321.855 C578.507333,331.502333 567.945167,340.0685 557.1335,347.5535 C546.321833,355.0385 535.510167,361.0265 524.6985,365.5175 C513.886833,370.0085 503.158333,372.254 492.513,372.254 C485.527,372.254 478.374667,370.757 471.056,367.763 C463.737333,364.769 456.501833,361.442333 449.3495,357.783 C442.197167,354.123667 435.128,350.797 428.142,347.803 C421.156,344.809 414.502667,343.312 408.182,343.312 C403.192,343.312 398.617833,344.642667 394.4595,347.304 C390.301167,349.965333 386.309167,352.959333 382.4835,356.286 C378.657833,359.612667 375.248,362.606667 372.254,365.268 C369.26,367.929333 366.598667,369.26 364.27,369.26 C362.606667,369.26 361.192833,368.677833 360.0285,367.5135 C358.864167,366.349167 358.282,364.935333 358.282,363.272 C358.282,359.612667 361.775,356.119667 368.761,352.793 C375.747,349.466333 385.560667,344.143667 398.202,336.825 C405.520667,332.833 414.9185,326.678667 426.3955,318.362 C437.8725,310.045333 450.597,300.730667 464.569,290.418 C478.541,280.105333 493.427833,269.376833 509.2295,258.2325 C525.031167,247.088167 540.916,236.858667 556.884,227.544 L555.886,226.546 C552.226667,227.876667 548.401,228.708333 544.409,229.041 C540.417,229.373667 536.591333,229.54 532.932,229.54 C525.613333,229.54 518.7105,228.7915 512.2235,227.2945 C505.7365,225.7975 499.415833,224.051 493.2615,222.055 C487.107167,220.059 481.119167,218.3125 475.2975,216.8155 C469.475833,215.3185 463.737333,214.57 458.082,214.57 C451.761333,214.57 446.022833,216.566 440.8665,220.558 C435.710167,224.55 430.470667,230.205333 425.148,237.524 L420.657,234.53 C424.981667,228.542 429.805333,222.3045 435.128,215.8175 C440.450667,209.3305 446.272333,203.508833 452.593,198.3525 C458.913667,193.196167 465.8165,188.954667 473.3015,185.628 C480.7865,182.301333 488.853667,180.638 497.503,180.638 C505.154333,180.638 512.473,181.636 519.459,183.632 C526.445,185.628 533.431,187.8735 540.417,190.3685 C547.403,192.8635 554.305833,195.192167 561.1255,197.3545 C567.945167,199.516833 574.848,200.598 581.834,200.598 C588.82,200.598 593.976333,199.433667 597.303,197.105 C600.629667,194.776333 603.291,192.115 605.287,189.121 C607.283,186.127 609.112667,183.465667 610.776,181.137 C612.439333,178.808333 614.934333,177.644 618.261,177.644 C620.257,177.644 621.920333,178.3925 623.251,179.8895 C624.581667,181.3865 625.247,182.966667 625.247,184.63 C625.247,186.626 624.249,188.622 622.253,190.618 C620.257,192.614 617.762,194.61 614.768,196.606 C611.774,198.602 608.447333,200.598 604.788,202.594 C601.128667,204.59 597.635667,206.752333 594.309,209.081 C568.028333,228.043 541.997167,246.838667 516.2155,265.468 C490.433833,284.097333 463.571,301.728667 435.627,318.362 L436.625,319.36 Z" id="Path"></path>
            <path d="M836.324,16.966 C812.372,53.5593333 790.831833,86.0775 771.7035,114.5205 C752.575167,142.9635 735.692333,167.9135 721.055,189.3705 C706.417667,210.8275 693.942667,229.456833 683.63,245.2585 C673.317333,261.060167 664.9175,274.865833 658.4305,286.6755 C651.9435,298.485167 647.203,308.714667 644.209,317.364 C641.215,326.013333 639.718,333.997333 639.718,341.316 C639.718,347.969333 641.547667,353.791 645.207,358.781 C648.866333,363.771 654.189,366.266 661.175,366.266 C670.157,366.266 679.055833,363.604667 687.8715,358.282 C696.687167,352.959333 705.087,346.0565 713.071,337.5735 C721.055,329.0905 728.456833,319.692667 735.2765,309.38 C742.096167,299.067333 748.001,288.837833 752.991,278.6915 C757.981,268.545167 761.889833,259.064167 764.7175,250.2485 C767.545167,241.432833 768.959,234.53 768.959,229.54 C768.959,227.876667 768.7095,226.462833 768.2105,225.2985 C767.7115,224.134167 767.129333,222.8035 766.464,221.3065 C765.798667,219.8095 765.2165,217.896667 764.7175,215.568 C764.2185,213.239333 763.969,210.079 763.969,206.087 C763.969,199.766333 766.048167,193.944667 770.2065,188.622 C774.364833,183.299333 779.770667,180.638 786.424,180.638 C792.079333,180.638 796.736667,181.8855 800.396,184.3805 C804.055333,186.8755 806.966167,190.119 809.1285,194.111 C811.290833,198.103 812.787833,202.510833 813.6195,207.3345 C814.451167,212.158167 814.867,216.898667 814.867,221.556 C814.867,228.874667 813.869,236.858667 811.873,245.508 C815.865,249.5 821.354,253.2425 828.34,256.7355 C835.326,260.2285 842.644667,261.975 850.296,261.975 C861.606667,261.975 871.669833,259.313667 880.4855,253.991 C889.301167,248.668333 897.035667,241.682333 903.689,233.033 L907.182,236.027 C900.528667,245.674333 892.128833,253.408833 881.9825,259.2305 C871.836167,265.052167 861.274,267.963 850.296,267.963 C842.312,267.963 835.0765,266.466 828.5895,263.472 C822.1025,260.478 816.031333,256.652333 810.376,251.995 C805.386,269.293667 797.901,285.261667 787.921,299.899 C777.941,314.536333 766.2145,327.177667 752.7415,337.823 C739.2685,348.468333 724.381667,356.868167 708.081,363.0225 C691.780333,369.176833 674.814333,372.254 657.183,372.254 C638.553667,372.254 624.664833,367.430333 615.5165,357.783 C606.368167,348.135667 601.794,335.161667 601.794,318.861 C601.794,313.538333 602.708833,307.716667 604.5385,301.396 C606.368167,295.075333 609.694833,287.257667 614.5185,277.943 C619.342167,268.628333 625.912333,257.068167 634.229,243.2625 C642.545667,229.456833 653.274167,212.407667 666.4145,192.115 C679.554833,171.822333 695.439667,147.537667 714.069,119.261 C732.698333,90.9843333 754.654333,57.7176667 779.937,19.461 L836.324,16.966 Z" id="Path"></path>
            <path d="M1111.772,233.532 C1101.45933,247.504 1090.39817,261.309667 1078.5885,274.949 C1066.77883,288.588333 1052.72367,302.893 1036.423,317.863 C1013.469,338.488333 991.429833,352.709833 970.3055,360.5275 C949.181167,368.345167 929.304333,372.254 910.675,372.254 C891.713,372.254 876.743,366.598667 865.765,355.288 C854.787,343.977333 849.298,329.34 849.298,311.376 C849.298,295.408 854.121667,279.606333 863.769,263.971 C873.416333,248.335667 885.558667,234.363667 900.196,222.055 C914.833333,209.746333 930.8845,199.766333 948.3495,192.115 C965.8145,184.463667 982.364667,180.638 998,180.638 C1012.30467,180.638 1023.449,183.3825 1031.433,188.8715 C1039.417,194.3605 1043.409,202.095 1043.409,212.075 C1043.409,220.059 1040.6645,227.377667 1035.1755,234.031 C1029.6865,240.684333 1022.61733,246.672333 1013.968,251.995 C1005.31867,257.317667 995.588167,261.975 984.7765,265.967 C973.964833,269.959 963.236333,273.452 952.591,276.446 C941.945667,279.44 931.965667,281.935 922.651,283.931 C913.336333,285.927 905.685,287.590333 899.697,288.921 C898.033667,295.574333 897.202,301.562333 897.202,306.885 C897.202,321.189667 901.194,332.833 909.178,341.815 C917.162,350.797 928.306333,355.288 942.611,355.288 C956.583,355.288 971.968833,351.129667 988.7685,342.813 C1005.56817,334.496333 1022.451,322.354 1039.417,306.386 C1052.391,294.077333 1064.866,281.1865 1076.842,267.7135 C1088.818,254.2405 1099.297,241.682333 1108.279,230.039 L1111.772,233.532 Z M1003.489,199.6 C1003.489,194.942667 1002.2415,191.616 999.7465,189.62 C997.2515,187.624 994.008,186.626 990.016,186.626 C981.699333,186.626 972.717333,190.119 963.07,197.105 C953.422667,204.091 944.3575,212.657167 935.8745,222.8035 C927.3915,232.949833 919.9065,243.595167 913.4195,254.7395 C906.9325,265.883833 902.691,275.614333 900.695,283.931 C914.334333,281.269667 927.308333,276.861833 939.617,270.7075 C951.925667,264.553167 962.8205,257.567167 972.3015,249.7495 C981.7825,241.931833 989.350667,233.615167 995.006,224.7995 C1000.66133,215.983833 1003.489,207.584 1003.489,199.6 Z" id="Shape"></path>
            <path d="M1222.051,16.966 L1276.941,13.972 C1248.66433,58.882 1220.72033,103.376167 1193.109,147.4545 C1165.49767,191.532833 1136.88833,235.361667 1107.281,278.941 L1108.279,279.939 C1115.93033,270.957 1124.746,260.810667 1134.726,249.5 C1144.706,238.189333 1155.4345,227.377667 1166.9115,217.065 C1178.3885,206.752333 1190.3645,198.103 1202.8395,191.117 C1215.3145,184.131 1228.039,180.638 1241.013,180.638 C1251.32567,180.638 1259.2265,183.465667 1264.7155,189.121 C1270.2045,194.776333 1272.949,201.928667 1272.949,210.578 C1272.949,219.227333 1271.03617,226.462833 1267.2105,232.2845 C1263.38483,238.106167 1257.81267,243.179333 1250.494,247.504 C1243.17533,251.828667 1234.2765,255.7375 1223.7975,259.2305 C1213.3185,262.7235 1201.592,266.299667 1188.618,269.959 L1188.618,270.957 C1194.27333,271.955 1199.18017,275.364833 1203.3385,281.1865 C1207.49683,287.008167 1209.576,292.913 1209.576,298.901 C1209.576,308.548333 1207.91267,317.779833 1204.586,326.5955 C1201.25933,335.411167 1199.596,343.644667 1199.596,351.296 C1199.596,357.284 1202.25733,360.278 1207.58,360.278 C1216.22933,360.278 1226.542,355.870167 1238.518,347.0545 C1250.494,338.238833 1262.88583,327.427167 1275.6935,314.6195 C1288.50117,301.811833 1300.97617,288.1725 1313.1185,273.7015 C1325.26083,259.2305 1335.65667,246.339667 1344.306,235.029 L1348.797,237.524 C1338.48433,250.498 1327.00733,264.802667 1314.366,280.438 C1301.72467,296.073333 1288.418,310.710667 1274.446,324.35 C1260.474,337.989333 1246.003,349.383167 1231.033,358.5315 C1216.063,367.679833 1201.093,372.254 1186.123,372.254 C1175.47767,372.254 1167.57683,369.343167 1162.4205,363.5215 C1157.26417,357.699833 1154.686,350.298 1154.686,341.316 C1154.686,333.332 1157.09783,323.767833 1161.9215,312.6235 C1166.74517,301.479167 1172.98267,287.923 1180.634,271.955 C1174.97867,273.618333 1168.99067,275.364833 1162.67,277.1945 C1156.34933,279.024167 1151.193,279.939 1147.201,279.939 C1141.213,279.939 1138.219,277.444 1138.219,272.454 C1138.219,269.792667 1139.38333,267.630333 1141.712,265.967 C1144.04067,264.303667 1148.53167,263.472 1155.185,263.472 C1159.84233,263.472 1165.165,263.971 1171.153,264.969 C1177.141,265.967 1181.29933,266.466 1183.628,266.466 C1185.95667,266.466 1189.616,265.468 1194.606,263.472 C1199.596,261.476 1204.586,258.482 1209.576,254.49 C1214.566,250.498 1218.89067,245.591167 1222.55,239.7695 C1226.20933,233.947833 1228.039,227.045 1228.039,219.061 C1228.039,213.073 1226.62517,208.166167 1223.7975,204.3405 C1220.96983,200.514833 1217.22733,198.602 1212.57,198.602 C1205.25133,198.602 1197.01783,201.679167 1187.8695,207.8335 C1178.72117,213.987833 1169.07383,221.971833 1158.9275,231.7855 C1148.78117,241.599167 1138.63483,252.660333 1128.4885,264.969 C1118.34217,277.277667 1108.86117,289.503167 1100.0455,301.6455 C1091.22983,313.787833 1083.329,325.264833 1076.343,336.0765 C1069.357,346.888167 1064.03433,355.787 1060.375,362.773 L1011.972,364.27 L1222.051,16.966 Z" id="Path"></path>
            <path d="M1768.456,238.522 C1755.482,250.165333 1740.7615,263.472 1724.2945,278.442 C1707.8275,293.412 1691.27733,308.797833 1674.644,324.5995 C1658.01067,340.401167 1641.9595,356.119667 1626.4905,371.755 C1611.0215,387.390333 1597.63167,401.528667 1586.321,414.17 C1584.99033,420.158 1582.99433,425.8965 1580.333,431.3855 C1577.67167,436.8745 1574.345,441.615 1570.353,445.607 C1566.361,449.599 1561.95317,452.8425 1557.1295,455.3375 C1552.30583,457.8325 1547.23267,459.08 1541.91,459.08 C1540.24667,459.08 1538.00117,458.913667 1535.1735,458.581 C1532.34583,458.248333 1530.932,456.751333 1530.932,454.09 C1530.932,452.094 1531.59733,450.513833 1532.928,449.3495 C1534.25867,448.185167 1535.83883,446.605 1537.6685,444.609 C1539.49817,442.613 1541.07833,439.785333 1542.409,436.126 C1543.73967,432.466667 1544.405,427.144 1544.405,420.158 C1544.405,406.851333 1541.6605,396.122833 1536.1715,387.9725 C1530.6825,379.822167 1523.86283,373.5015 1515.7125,369.0105 C1507.56217,364.5195 1498.7465,361.608667 1489.2655,360.278 C1479.7845,358.947333 1470.88567,358.282 1462.569,358.282 C1458.24433,358.282 1452.42267,359.28 1445.104,361.276 C1437.78533,363.272 1429.8845,365.434333 1421.4015,367.763 C1412.9185,370.091667 1404.26917,372.254 1395.4535,374.25 C1386.63783,376.246 1378.40433,377.244 1370.753,377.244 C1364.765,377.244 1359.10967,376.828167 1353.787,375.9965 C1348.46433,375.164833 1345.803,372.254 1345.803,367.264 C1345.803,363.937333 1346.96733,361.276 1349.296,359.28 C1351.62467,357.284 1356.5315,355.703833 1364.0165,354.5395 C1371.5015,353.375167 1382.14683,352.5435 1395.9525,352.0445 C1409.75817,351.5455 1428.30433,351.296 1451.591,351.296 C1467.22633,351.296 1482.03,345.723833 1496.002,334.5795 C1509.974,323.435167 1523.6965,308.382 1537.1695,289.42 C1550.6425,270.458 1564.1155,248.585167 1577.5885,223.8015 C1591.0615,199.017833 1605.11667,172.986667 1619.754,145.708 C1610.772,143.379333 1601.62367,140.385333 1592.309,136.726 C1582.99433,133.066667 1574.42817,128.243 1566.6105,122.255 C1558.79283,116.267 1552.389,108.865167 1547.399,100.0495 C1542.409,91.2338333 1539.914,80.838 1539.914,68.862 C1539.914,51.896 1544.98717,38.1735 1555.1335,27.6945 C1565.27983,17.2155 1579.834,11.976 1598.796,11.976 C1603.786,11.976 1608.60967,12.3918333 1613.267,13.2235 C1617.92433,14.0551667 1621.91633,15.469 1625.243,17.465 L1623.247,21.956 C1619.58767,20.6253333 1615.84517,19.6273333 1612.0195,18.962 C1608.19383,18.2966667 1603.95233,17.964 1599.295,17.964 C1589.98033,17.964 1581.91317,19.3778333 1575.0935,22.2055 C1568.27383,25.0331667 1562.70167,28.8588333 1558.377,33.6825 C1554.05233,38.5061667 1550.892,43.9951667 1548.896,50.1495 C1546.9,56.3038333 1545.902,62.7076667 1545.902,69.361 C1545.902,78.6756667 1547.98117,87.2418333 1552.1395,95.0595 C1556.29783,102.877167 1561.95317,109.78 1569.1055,115.768 C1576.25783,121.756 1584.49133,126.829167 1593.806,130.9875 C1603.12067,135.145833 1612.93433,138.223 1623.247,140.219 C1632.229,122.255 1643.78917,105.122667 1657.9275,88.822 C1672.06583,72.5213333 1687.95067,58.0503333 1705.582,45.409 C1723.21333,32.7676667 1742.17533,22.7045 1762.468,15.2195 C1782.76067,7.7345 1803.55233,3.992 1824.843,3.992 C1831.829,3.992 1838.89817,4.65733333 1846.0505,5.988 C1853.20283,7.31866667 1859.68983,9.56416667 1865.5115,12.7245 C1871.33317,15.8848333 1876.15683,20.2095 1879.9825,25.6985 C1883.80817,31.1875 1885.721,38.0903333 1885.721,46.407 C1885.721,59.7136667 1881.729,71.5233333 1873.745,81.836 C1865.761,92.1486667 1855.282,101.213833 1842.308,109.0315 C1829.334,116.849167 1814.77983,123.419333 1798.6455,128.742 C1782.51117,134.064667 1766.29367,138.4725 1749.993,141.9655 C1733.69233,145.4585 1718.22333,147.9535 1703.586,149.4505 C1688.94867,150.9475 1676.47367,151.696 1666.161,151.696 C1654.85033,173.984667 1643.207,195.441667 1631.231,216.067 C1619.255,236.692333 1605.61567,255.820667 1590.313,273.452 C1575.01033,291.083333 1557.71167,306.6355 1538.417,320.1085 C1519.12233,333.5815 1496.66733,344.31 1471.052,352.294 L1471.052,353.292 C1481.032,353.292 1492.509,353.5415 1505.483,354.0405 C1518.457,354.5395 1530.76567,356.5355 1542.409,360.0285 C1554.05233,363.5215 1564.03233,368.927333 1572.349,376.246 C1580.66567,383.564667 1585.323,393.877333 1586.321,407.184 C1599.295,393.212 1613.35017,378.574667 1628.4865,363.272 C1643.62283,347.969333 1659.09183,332.749833 1674.8935,317.6135 C1690.69517,302.477167 1706.3305,287.839833 1721.7995,273.7015 C1737.2685,259.563167 1751.82267,246.672333 1765.462,235.029 L1768.456,238.522 Z M1847.797,34.93 C1847.797,28.2766667 1845.5515,22.455 1841.0605,17.465 C1836.5695,12.475 1828.835,9.98 1817.857,9.98 C1802.887,9.98 1788.00017,14.7205 1773.1965,24.2015 C1758.39283,33.6825 1744.33767,45.3258333 1731.031,59.1315 C1717.72433,72.9371667 1705.74833,87.6576667 1695.103,103.293 C1684.45767,118.928333 1675.642,133.066667 1668.656,145.708 C1678.30333,145.708 1689.44767,145.042667 1702.089,143.712 C1714.73033,142.381333 1727.70433,140.135833 1741.011,136.9755 C1754.31767,133.815167 1767.37483,129.4905 1780.1825,124.0015 C1792.99017,118.5125 1804.384,111.692833 1814.364,103.5425 C1824.344,95.3921667 1832.41117,85.6616667 1838.5655,74.351 C1844.71983,63.0403333 1847.797,49.9 1847.797,34.93 Z" id="Shape"></path>
            <path d="M2010.97,235.029 C2004.31667,243.678333 1996.41583,251.496 1987.2675,258.482 C1978.11917,265.468 1968.056,268.961 1957.078,268.961 C1949.42667,268.961 1942.77333,267.297667 1937.118,263.971 C1931.46267,260.644333 1926.30633,255.987 1921.649,249.999 C1917.657,266.632333 1911.08683,282.350833 1901.9385,297.1545 C1892.79017,311.958167 1881.729,324.932167 1868.755,336.0765 C1855.781,347.220833 1841.31,356.0365 1825.342,362.5235 C1809.374,369.0105 1792.74067,372.254 1775.442,372.254 C1757.14533,372.254 1742.508,367.0145 1731.53,356.5355 C1720.552,346.0565 1715.063,331.668667 1715.063,313.372 C1715.063,295.740667 1719.554,278.857833 1728.536,262.7235 C1737.518,246.589167 1749.16133,232.450833 1763.466,220.3085 C1777.77067,208.166167 1793.57233,198.518833 1810.871,191.3665 C1828.16967,184.214167 1845.13567,180.638 1861.769,180.638 C1879.733,180.638 1893.87133,185.461667 1904.184,195.109 C1914.49667,204.756333 1920.81733,216.399667 1923.146,230.039 C1924.80933,240.019 1928.55183,248.003 1934.3735,253.991 C1940.19517,259.979 1947.76333,262.973 1957.078,262.973 C1966.06,262.973 1974.543,260.311667 1982.527,254.989 C1990.511,249.666333 1998.994,241.682333 2007.976,231.037 L2010.97,235.029 Z M1778.935,366.266 C1787.25167,366.266 1795.56833,363.438333 1803.885,357.783 C1812.20167,352.127667 1820.18567,344.809 1827.837,335.827 C1835.48833,326.845 1842.5575,316.698667 1849.0445,305.388 C1855.5315,294.077333 1861.18683,282.766667 1866.0105,271.456 C1870.83417,260.145333 1874.57667,249.333667 1877.238,239.021 C1879.89933,228.708333 1881.23,220.059 1881.23,213.073 C1881.23,204.756333 1879.4835,198.269333 1875.9905,193.612 C1872.4975,188.954667 1866.92533,186.626 1859.274,186.626 C1850.95733,186.626 1842.64067,189.453667 1834.324,195.109 C1826.00733,200.764333 1818.02333,208.083 1810.372,217.065 C1802.72067,226.047 1795.6515,236.193333 1789.1645,247.504 C1782.6775,258.814667 1777.02217,270.125333 1772.1985,281.436 C1767.37483,292.746667 1763.63233,303.558333 1760.971,313.871 C1758.30967,324.183667 1756.979,332.833 1756.979,339.819 C1756.979,348.135667 1758.7255,354.622667 1762.2185,359.28 C1765.7115,363.937333 1771.28367,366.266 1778.935,366.266 Z" id="Shape"></path>
            <path d="M2215.061,235.528 C2202.75233,250.498 2189.44567,266.050167 2175.141,282.1845 C2160.83633,298.318833 2145.4505,313.039333 2128.9835,326.346 C2112.5165,339.652667 2094.88517,350.630667 2076.0895,359.28 C2057.29383,367.929333 2037.417,372.254 2016.459,372.254 C1996.499,372.254 1981.19633,366.848167 1970.551,356.0365 C1959.90567,345.224833 1954.583,329.34 1954.583,308.382 C1954.583,292.414 1959.24033,276.778667 1968.555,261.476 C1977.86967,246.173333 1989.84567,232.534 2004.483,220.558 C2019.12033,208.582 2035.25467,198.934667 2052.886,191.616 C2070.51733,184.297333 2087.64967,180.638 2104.283,180.638 C2119.58567,180.638 2131.728,183.715167 2140.71,189.8695 C2149.692,196.023833 2154.183,203.592 2154.183,212.574 C2154.183,218.894667 2152.9355,224.633167 2150.4405,229.7895 C2147.9455,234.945833 2144.702,239.2705 2140.71,242.7635 C2136.718,246.2565 2132.227,248.917833 2127.237,250.7475 C2122.247,252.577167 2117.257,253.492 2112.267,253.492 C2107.94233,253.492 2104.11667,253.159333 2100.79,252.494 C2103.11867,244.842667 2105.61367,237.025 2108.275,229.041 C2110.93633,221.057 2112.267,213.073 2112.267,205.089 C2112.267,199.433667 2110.93633,194.942667 2108.275,191.616 C2105.61367,188.289333 2101.95433,186.626 2097.297,186.626 C2088.64767,186.626 2078.834,190.035833 2067.856,196.8555 C2056.878,203.675167 2046.56533,212.8235 2036.918,224.3005 C2027.27067,235.7775 2019.12033,248.917833 2012.467,263.7215 C2005.81367,278.525167 2002.487,293.911 2002.487,309.879 C2002.487,322.520333 2006.31267,333.248833 2013.964,342.0645 C2021.61533,350.880167 2032.26067,355.288 2045.9,355.288 C2062.20067,355.288 2078.41817,350.797 2094.5525,341.815 C2110.68683,332.833 2125.9895,321.938167 2140.4605,309.1305 C2154.9315,296.322833 2168.155,283.016167 2180.131,269.2105 C2192.107,255.404833 2202.25333,243.512 2210.57,233.532 L2215.061,235.528 Z" id="Path"></path>
            <path d="M2352.785,191.616 L2404.681,188.622 C2401.687,194.61 2397.36233,201.8455 2391.707,210.3285 C2386.05167,218.8115 2379.89733,227.959833 2373.244,237.7735 C2366.59067,247.587167 2359.85417,257.7335 2353.0345,268.2125 C2346.21483,278.6915 2339.97733,288.837833 2334.322,298.6515 C2328.66667,308.465167 2324.0925,317.6135 2320.5995,326.0965 C2317.1065,334.5795 2315.36,341.815 2315.36,347.803 C2315.36,356.119667 2319.51833,360.278 2327.835,360.278 C2335.819,360.278 2346.63067,355.620667 2360.27,346.306 C2373.90933,336.991333 2388.214,324.682667 2403.184,309.38 C2409.50467,303.059333 2415.9085,296.239667 2422.3955,288.921 C2428.8825,281.602333 2435.12,274.366833 2441.108,267.2145 C2447.096,260.062167 2452.585,253.408833 2457.575,247.2545 C2462.565,241.100167 2466.557,236.027 2469.551,232.035 L2473.044,234.031 C2464.39467,245.674333 2454.41467,258.565167 2443.104,272.7035 C2431.79333,286.841833 2418.154,301.895 2402.186,317.863 C2386.218,333.831 2370.4995,346.888167 2355.0305,357.0345 C2339.5615,367.180833 2324.17567,372.254 2308.873,372.254 C2298.22767,372.254 2289.99417,369.5095 2284.1725,364.0205 C2278.35083,358.5315 2275.44,351.795 2275.44,343.811 C2275.44,341.149667 2275.60633,338.654667 2275.939,336.326 C2276.27167,333.997333 2276.77067,332.167667 2277.436,330.837 L2276.438,330.837 C2266.12533,342.480333 2254.482,352.294 2241.508,360.278 C2228.534,368.262 2214.562,372.254 2199.592,372.254 C2191.608,372.254 2184.78833,370.757 2179.133,367.763 C2173.47767,364.769 2168.9035,360.693833 2165.4105,355.5375 C2161.9175,350.381167 2159.33933,344.5595 2157.676,338.0725 C2156.01267,331.5855 2155.181,324.849 2155.181,317.863 C2155.181,301.562333 2159.672,285.261667 2168.654,268.961 C2177.636,252.660333 2188.94667,237.939833 2202.586,224.7995 C2216.22533,211.659167 2231.44483,201.013833 2248.2445,192.8635 C2265.04417,184.713167 2281.09533,180.638 2296.398,180.638 C2308.04133,180.638 2317.18967,183.133 2323.843,188.123 C2330.49633,193.113 2335.98533,200.930667 2340.31,211.576 L2352.785,191.616 Z M2203.085,319.36 C2203.085,329.007333 2204.66517,337.407167 2207.8255,344.5595 C2210.98583,351.711833 2217.72233,355.288 2228.035,355.288 C2235.021,354.955333 2242.33967,352.0445 2249.991,346.5555 C2257.64233,341.0665 2265.04417,334.163667 2272.1965,325.847 C2279.34883,317.530333 2286.1685,308.298833 2292.6555,298.1525 C2299.1425,288.006167 2304.79783,277.776667 2309.6215,267.464 C2314.44517,257.151333 2318.27083,247.420833 2321.0985,238.2725 C2323.92617,229.124167 2325.34,221.389667 2325.34,215.069 C2325.34,206.087 2323.67667,199.101 2320.35,194.111 C2317.02333,189.121 2310.53633,186.626 2300.889,186.626 C2293.23767,186.626 2285.50317,188.954667 2277.6855,193.612 C2269.86783,198.269333 2262.38283,204.423667 2255.2305,212.075 C2248.07817,219.726333 2241.2585,228.2925 2234.7715,237.7735 C2228.2845,247.2545 2222.71233,256.985 2218.055,266.965 C2213.39767,276.945 2209.73833,286.509167 2207.077,295.6575 C2204.41567,304.805833 2203.085,312.706667 2203.085,319.36 Z" id="Shape"></path>
            <path d="M2642.704,15.469 L2488.513,260.977 C2475.539,281.935 2465.22633,299.316833 2457.575,313.1225 C2449.92367,326.928167 2446.098,338.155667 2446.098,346.805 C2446.098,355.787 2449.75733,360.278 2457.076,360.278 C2464.062,360.278 2473.543,356.452333 2485.519,348.801 C2497.495,341.149667 2510.30267,330.504333 2523.942,316.865 C2536.58333,304.223667 2549.05833,290.750667 2561.367,276.446 C2573.67567,262.141333 2585.65167,247.337667 2597.295,232.035 L2601.786,233.532 C2597.794,238.854667 2593.21983,244.842667 2588.0635,251.496 C2582.90717,258.149333 2577.50133,264.885833 2571.846,271.7055 C2566.19067,278.525167 2560.45217,285.344833 2554.6305,292.1645 C2548.80883,298.984167 2543.07033,305.221667 2537.415,310.877 C2518.12033,330.504333 2501.07117,345.141667 2486.2675,354.789 C2471.46383,364.436333 2456.078,369.26 2440.11,369.26 C2417.48867,369.26 2406.178,359.28 2406.178,339.32 C2406.178,330.005333 2409.58783,318.278833 2416.4075,304.1405 C2423.22717,290.002167 2433.78933,270.957 2448.094,247.005 L2587.315,18.463 L2642.704,15.469 Z" id="Path"></path>
            <path d="M2665.658,188.622 C2650.02267,213.239333 2636.54967,234.2805 2625.239,251.7455 C2613.92833,269.2105 2604.69683,284.097333 2597.5445,296.406 C2590.39217,308.714667 2585.0695,318.777833 2581.5765,326.5955 C2578.0835,334.413167 2576.337,340.817 2576.337,345.807 C2576.337,349.799 2577.0855,353.0425 2578.5825,355.5375 C2580.0795,358.0325 2582.325,359.28 2585.319,359.28 C2591.97233,359.28 2601.37017,355.454333 2613.5125,347.803 C2625.65483,340.151667 2640.87433,327.011333 2659.171,308.382 C2666.48967,300.730667 2673.642,293.1625 2680.628,285.6775 C2687.614,278.1925 2694.18417,270.957 2700.3385,263.971 C2706.49283,256.985 2711.98183,250.664333 2716.8055,245.009 C2721.62917,239.353667 2725.538,234.862667 2728.532,231.536 L2733.023,234.53 C2729.031,239.852667 2724.12417,245.923833 2718.3025,252.7435 C2712.48083,259.563167 2706.24333,266.7155 2699.59,274.2005 C2692.93667,281.6855 2686.117,289.087333 2679.131,296.406 C2672.145,303.724667 2665.32533,310.710667 2658.672,317.364 C2639.37733,336.658667 2622.82717,350.131667 2609.0215,357.783 C2595.21583,365.434333 2582.49133,369.26 2570.848,369.26 C2559.87,369.26 2551.387,366.266 2545.399,360.278 C2539.411,354.29 2536.417,346.472333 2536.417,336.825 C2536.417,330.171667 2537.6645,323.268833 2540.1595,316.1165 C2542.6545,308.964167 2546.896,300.065333 2552.884,289.42 C2558.872,278.774667 2566.856,265.551167 2576.836,249.7495 C2586.816,233.947833 2599.291,214.403667 2614.261,191.117 L2665.658,188.622 Z M2694.6,77.844 C2700.92067,77.844 2706.49283,80.1726667 2711.3165,84.83 C2716.14017,89.4873333 2718.552,94.9763333 2718.552,101.297 C2718.552,107.950333 2715.89067,114.0215 2710.568,119.5105 C2705.24533,124.9995 2699.25733,127.744 2692.604,127.744 C2685.28533,127.744 2678.96467,125.831167 2673.642,122.0055 C2668.31933,118.179833 2665.658,112.441333 2665.658,104.79 C2665.658,97.1386667 2668.56883,90.7348333 2674.3905,85.5785 C2680.21217,80.4221667 2686.94867,77.844 2694.6,77.844 Z" id="Shape"></path>
            <path d="M2740.508,319.36 C2742.17133,318.694667 2743.83467,318.362 2745.498,318.362 C2747.494,318.362 2749.82267,318.362 2752.484,318.362 C2760.13533,318.362 2767.53717,319.692667 2774.6895,322.354 C2781.84183,325.015333 2788.82783,327.843 2795.6475,330.837 C2802.46717,333.831 2809.1205,336.658667 2815.6075,339.32 C2822.0945,341.981333 2828.332,343.312 2834.32,343.312 C2845.96333,343.312 2857.93933,339.236833 2870.248,331.0865 C2882.55667,322.936167 2894.53267,313.039333 2906.176,301.396 C2917.81933,289.752667 2928.71417,277.6935 2938.8605,265.2185 C2949.00683,252.7435 2957.90567,242.015 2965.557,233.033 L2969.549,236.027 C2963.22833,244.011 2956.076,252.909833 2948.092,262.7235 C2940.108,272.537167 2931.45867,282.434 2922.144,292.414 C2912.82933,302.394 2903.01567,312.207667 2892.703,321.855 C2882.39033,331.502333 2871.82817,340.0685 2861.0165,347.5535 C2850.20483,355.0385 2839.39317,361.0265 2828.5815,365.5175 C2817.76983,370.0085 2807.04133,372.254 2796.396,372.254 C2789.41,372.254 2782.25767,370.757 2774.939,367.763 C2767.62033,364.769 2760.38483,361.442333 2753.2325,357.783 C2746.08017,354.123667 2739.011,350.797 2732.025,347.803 C2725.039,344.809 2718.38567,343.312 2712.065,343.312 C2707.075,343.312 2702.50083,344.642667 2698.3425,347.304 C2694.18417,349.965333 2690.19217,352.959333 2686.3665,356.286 C2682.54083,359.612667 2679.131,362.606667 2676.137,365.268 C2673.143,367.929333 2670.48167,369.26 2668.153,369.26 C2666.48967,369.26 2665.07583,368.677833 2663.9115,367.5135 C2662.74717,366.349167 2662.165,364.935333 2662.165,363.272 C2662.165,359.612667 2665.658,356.119667 2672.644,352.793 C2679.63,349.466333 2689.44367,344.143667 2702.085,336.825 C2709.40367,332.833 2718.8015,326.678667 2730.2785,318.362 C2741.7555,310.045333 2754.48,300.730667 2768.452,290.418 C2782.424,280.105333 2797.31083,269.376833 2813.1125,258.2325 C2828.91417,247.088167 2844.799,236.858667 2860.767,227.544 L2859.769,226.546 C2856.10967,227.876667 2852.284,228.708333 2848.292,229.041 C2844.3,229.373667 2840.47433,229.54 2836.815,229.54 C2829.49633,229.54 2822.5935,228.7915 2816.1065,227.2945 C2809.6195,225.7975 2803.29883,224.051 2797.1445,222.055 C2790.99017,220.059 2785.00217,218.3125 2779.1805,216.8155 C2773.35883,215.3185 2767.62033,214.57 2761.965,214.57 C2755.64433,214.57 2749.90583,216.566 2744.7495,220.558 C2739.59317,224.55 2734.35367,230.205333 2729.031,237.524 L2724.54,234.53 C2728.86467,228.542 2733.68833,222.3045 2739.011,215.8175 C2744.33367,209.3305 2750.15533,203.508833 2756.476,198.3525 C2762.79667,193.196167 2769.6995,188.954667 2777.1845,185.628 C2784.6695,182.301333 2792.73667,180.638 2801.386,180.638 C2809.03733,180.638 2816.356,181.636 2823.342,183.632 C2830.328,185.628 2837.314,187.8735 2844.3,190.3685 C2851.286,192.8635 2858.18883,195.192167 2865.0085,197.3545 C2871.82817,199.516833 2878.731,200.598 2885.717,200.598 C2892.703,200.598 2897.85933,199.433667 2901.186,197.105 C2904.51267,194.776333 2907.174,192.115 2909.17,189.121 C2911.166,186.127 2912.99567,183.465667 2914.659,181.137 C2916.32233,178.808333 2918.81733,177.644 2922.144,177.644 C2924.14,177.644 2925.80333,178.3925 2927.134,179.8895 C2928.46467,181.3865 2929.13,182.966667 2929.13,184.63 C2929.13,186.626 2928.132,188.622 2926.136,190.618 C2924.14,192.614 2921.645,194.61 2918.651,196.606 C2915.657,198.602 2912.33033,200.598 2908.671,202.594 C2905.01167,204.59 2901.51867,206.752333 2898.192,209.081 C2871.91133,228.043 2845.88017,246.838667 2820.0985,265.468 C2794.31683,284.097333 2767.454,301.728667 2739.51,318.362 L2740.508,319.36 Z" id="Path"></path>
            <path d="M3110.267,191.616 L3162.163,188.622 C3159.169,194.61 3154.84433,201.8455 3149.189,210.3285 C3143.53367,218.8115 3137.37933,227.959833 3130.726,237.7735 C3124.07267,247.587167 3117.33617,257.7335 3110.5165,268.2125 C3103.69683,278.6915 3097.45933,288.837833 3091.804,298.6515 C3086.14867,308.465167 3081.5745,317.6135 3078.0815,326.0965 C3074.5885,334.5795 3072.842,341.815 3072.842,347.803 C3072.842,356.119667 3077.00033,360.278 3085.317,360.278 C3093.301,360.278 3104.11267,355.620667 3117.752,346.306 C3131.39133,336.991333 3145.696,324.682667 3160.666,309.38 C3166.98667,303.059333 3173.3905,296.239667 3179.8775,288.921 C3186.3645,281.602333 3192.602,274.366833 3198.59,267.2145 C3204.578,260.062167 3210.067,253.408833 3215.057,247.2545 C3220.047,241.100167 3224.039,236.027 3227.033,232.035 L3230.526,234.031 C3221.87667,245.674333 3211.89667,258.565167 3200.586,272.7035 C3189.27533,286.841833 3175.636,301.895 3159.668,317.863 C3143.7,333.831 3127.9815,346.888167 3112.5125,357.0345 C3097.0435,367.180833 3081.65767,372.254 3066.355,372.254 C3055.70967,372.254 3047.47617,369.5095 3041.6545,364.0205 C3035.83283,358.5315 3032.922,351.795 3032.922,343.811 C3032.922,341.149667 3033.08833,338.654667 3033.421,336.326 C3033.75367,333.997333 3034.25267,332.167667 3034.918,330.837 L3033.92,330.837 C3023.60733,342.480333 3011.964,352.294 2998.99,360.278 C2986.016,368.262 2972.044,372.254 2957.074,372.254 C2949.09,372.254 2942.27033,370.757 2936.615,367.763 C2930.95967,364.769 2926.3855,360.693833 2922.8925,355.5375 C2919.3995,350.381167 2916.82133,344.5595 2915.158,338.0725 C2913.49467,331.5855 2912.663,324.849 2912.663,317.863 C2912.663,301.562333 2917.154,285.261667 2926.136,268.961 C2935.118,252.660333 2946.42867,237.939833 2960.068,224.7995 C2973.70733,211.659167 2988.92683,201.013833 3005.7265,192.8635 C3022.52617,184.713167 3038.57733,180.638 3053.88,180.638 C3065.52333,180.638 3074.67167,183.133 3081.325,188.123 C3087.97833,193.113 3093.46733,200.930667 3097.792,211.576 L3110.267,191.616 Z M2960.567,319.36 C2960.567,329.007333 2962.14717,337.407167 2965.3075,344.5595 C2968.46783,351.711833 2975.20433,355.288 2985.517,355.288 C2992.503,354.955333 2999.82167,352.0445 3007.473,346.5555 C3015.12433,341.0665 3022.52617,334.163667 3029.6785,325.847 C3036.83083,317.530333 3043.6505,308.298833 3050.1375,298.1525 C3056.6245,288.006167 3062.27983,277.776667 3067.1035,267.464 C3071.92717,257.151333 3075.75283,247.420833 3078.5805,238.2725 C3081.40817,229.124167 3082.822,221.389667 3082.822,215.069 C3082.822,206.087 3081.15867,199.101 3077.832,194.111 C3074.50533,189.121 3068.01833,186.626 3058.371,186.626 C3050.71967,186.626 3042.98517,188.954667 3035.1675,193.612 C3027.34983,198.269333 3019.86483,204.423667 3012.7125,212.075 C3005.56017,219.726333 2998.7405,228.2925 2992.2535,237.7735 C2985.7665,247.2545 2980.19433,256.985 2975.537,266.965 C2970.87967,276.945 2967.22033,286.509167 2964.559,295.6575 C2961.89767,304.805833 2960.567,312.706667 2960.567,319.36 Z" id="Shape"></path>
            <path d="M3197.093,197.604 L3200.586,188.622 L3239.009,188.622 L3276.434,125.748 L3330.326,123.752 L3288.909,188.622 L3352.282,188.622 L3347.791,197.604 L3283.42,197.604 C3268.45,222.221333 3255.80867,242.929833 3245.496,259.7295 C3235.18333,276.529167 3226.94983,290.501167 3220.7955,301.6455 C3214.64117,312.789833 3210.15017,321.688667 3207.3225,328.342 C3204.49483,334.995333 3203.081,340.817 3203.081,345.807 C3203.081,350.131667 3204.24533,353.624667 3206.574,356.286 C3208.90267,358.947333 3212.22933,360.278 3216.554,360.278 C3224.87067,360.278 3235.84867,356.0365 3249.488,347.5535 C3263.12733,339.0705 3277.76467,327.344 3293.4,312.374 C3304.04533,301.728667 3315.68867,289.253667 3328.33,274.949 C3340.97133,260.644333 3352.781,246.173333 3363.759,231.536 L3366.753,234.031 C3359.10167,244.011 3349.45433,256.153333 3337.811,270.458 C3326.16767,284.762667 3313.36,298.901 3299.388,312.873 C3291.73667,320.524333 3283.83583,327.759833 3275.6855,334.5795 C3267.53517,341.399167 3259.30167,347.387167 3250.985,352.5435 C3242.66833,357.699833 3234.518,361.775 3226.534,364.769 C3218.55,367.763 3210.73233,369.26 3203.081,369.26 C3192.43567,369.26 3183.121,366.848167 3175.137,362.0245 C3167.153,357.200833 3163.161,348.801 3163.161,336.825 C3163.161,328.175667 3164.99067,319.276833 3168.65,310.1285 C3172.30933,300.980167 3177.3825,290.917 3183.8695,279.939 C3190.3565,268.961 3197.92467,256.818667 3206.574,243.512 C3215.22333,230.205333 3224.538,214.902667 3234.518,197.604 L3197.093,197.604 Z" id="Path"></path>
            <path d="M3432.621,188.622 C3416.98567,213.239333 3403.51267,234.2805 3392.202,251.7455 C3380.89133,269.2105 3371.65983,284.097333 3364.5075,296.406 C3357.35517,308.714667 3352.0325,318.777833 3348.5395,326.5955 C3345.0465,334.413167 3343.3,340.817 3343.3,345.807 C3343.3,349.799 3344.0485,353.0425 3345.5455,355.5375 C3347.0425,358.0325 3349.288,359.28 3352.282,359.28 C3358.93533,359.28 3368.33317,355.454333 3380.4755,347.803 C3392.61783,340.151667 3407.83733,327.011333 3426.134,308.382 C3433.45267,300.730667 3440.605,293.1625 3447.591,285.6775 C3454.577,278.1925 3461.14717,270.957 3467.3015,263.971 C3473.45583,256.985 3478.94483,250.664333 3483.7685,245.009 C3488.59217,239.353667 3492.501,234.862667 3495.495,231.536 L3499.986,234.53 C3495.994,239.852667 3491.08717,245.923833 3485.2655,252.7435 C3479.44383,259.563167 3473.20633,266.7155 3466.553,274.2005 C3459.89967,281.6855 3453.08,289.087333 3446.094,296.406 C3439.108,303.724667 3432.28833,310.710667 3425.635,317.364 C3406.34033,336.658667 3389.79017,350.131667 3375.9845,357.783 C3362.17883,365.434333 3349.45433,369.26 3337.811,369.26 C3326.833,369.26 3318.35,366.266 3312.362,360.278 C3306.374,354.29 3303.38,346.472333 3303.38,336.825 C3303.38,330.171667 3304.6275,323.268833 3307.1225,316.1165 C3309.6175,308.964167 3313.859,300.065333 3319.847,289.42 C3325.835,278.774667 3333.819,265.551167 3343.799,249.7495 C3353.779,233.947833 3366.254,214.403667 3381.224,191.117 L3432.621,188.622 Z M3461.563,77.844 C3467.88367,77.844 3473.45583,80.1726667 3478.2795,84.83 C3483.10317,89.4873333 3485.515,94.9763333 3485.515,101.297 C3485.515,107.950333 3482.85367,114.0215 3477.531,119.5105 C3472.20833,124.9995 3466.22033,127.744 3459.567,127.744 C3452.24833,127.744 3445.92767,125.831167 3440.605,122.0055 C3435.28233,118.179833 3432.621,112.441333 3432.621,104.79 C3432.621,97.1386667 3435.53183,90.7348333 3441.3535,85.5785 C3447.17517,80.4221667 3453.91167,77.844 3461.563,77.844 Z" id="Shape"></path>
            <path d="M3738.508,235.029 C3731.85467,243.678333 3723.95383,251.496 3714.8055,258.482 C3705.65717,265.468 3695.594,268.961 3684.616,268.961 C3676.96467,268.961 3670.31133,267.297667 3664.656,263.971 C3659.00067,260.644333 3653.84433,255.987 3649.187,249.999 C3645.195,266.632333 3638.62483,282.350833 3629.4765,297.1545 C3620.32817,311.958167 3609.267,324.932167 3596.293,336.0765 C3583.319,347.220833 3568.848,356.0365 3552.88,362.5235 C3536.912,369.0105 3520.27867,372.254 3502.98,372.254 C3484.68333,372.254 3470.046,367.0145 3459.068,356.5355 C3448.09,346.0565 3442.601,331.668667 3442.601,313.372 C3442.601,295.740667 3447.092,278.857833 3456.074,262.7235 C3465.056,246.589167 3476.69933,232.450833 3491.004,220.3085 C3505.30867,208.166167 3521.11033,198.518833 3538.409,191.3665 C3555.70767,184.214167 3572.67367,180.638 3589.307,180.638 C3607.271,180.638 3621.40933,185.461667 3631.722,195.109 C3642.03467,204.756333 3648.35533,216.399667 3650.684,230.039 C3652.34733,240.019 3656.08983,248.003 3661.9115,253.991 C3667.73317,259.979 3675.30133,262.973 3684.616,262.973 C3693.598,262.973 3702.081,260.311667 3710.065,254.989 C3718.049,249.666333 3726.532,241.682333 3735.514,231.037 L3738.508,235.029 Z M3506.473,366.266 C3514.78967,366.266 3523.10633,363.438333 3531.423,357.783 C3539.73967,352.127667 3547.72367,344.809 3555.375,335.827 C3563.02633,326.845 3570.0955,316.698667 3576.5825,305.388 C3583.0695,294.077333 3588.72483,282.766667 3593.5485,271.456 C3598.37217,260.145333 3602.11467,249.333667 3604.776,239.021 C3607.43733,228.708333 3608.768,220.059 3608.768,213.073 C3608.768,204.756333 3607.0215,198.269333 3603.5285,193.612 C3600.0355,188.954667 3594.46333,186.626 3586.812,186.626 C3578.49533,186.626 3570.17867,189.453667 3561.862,195.109 C3553.54533,200.764333 3545.56133,208.083 3537.91,217.065 C3530.25867,226.047 3523.1895,236.193333 3516.7025,247.504 C3510.2155,258.814667 3504.56017,270.125333 3499.7365,281.436 C3494.91283,292.746667 3491.17033,303.558333 3488.509,313.871 C3485.84767,324.183667 3484.517,332.833 3484.517,339.819 C3484.517,348.135667 3486.2635,354.622667 3489.7565,359.28 C3493.2495,363.937333 3498.82167,366.266 3506.473,366.266 Z" id="Shape"></path>
            <path d="M3737.51,278.442 C3742.16733,272.454 3748.90383,263.971 3757.7195,252.993 C3766.53517,242.015 3776.59833,231.203333 3787.909,220.558 C3799.21967,209.912667 3811.362,200.598 3824.336,192.614 C3837.31,184.63 3850.284,180.638 3863.258,180.638 C3874.236,180.638 3882.55267,183.715167 3888.208,189.8695 C3893.86333,196.023833 3896.691,203.592 3896.691,212.574 C3896.691,223.884667 3893.11483,235.444833 3885.9625,247.2545 C3878.81017,259.064167 3870.90933,270.873833 3862.26,282.6835 C3853.61067,294.493167 3845.70983,305.803833 3838.5575,316.6155 C3831.40517,327.427167 3827.829,337.490333 3827.829,346.805 C3827.829,350.797 3828.827,354.0405 3830.823,356.5355 C3832.819,359.0305 3836.14567,360.278 3840.803,360.278 C3845.46033,360.278 3853.19483,356.701833 3864.0065,349.5495 C3874.81817,342.397167 3889.37233,329.173667 3907.669,309.879 C3921.97367,294.576333 3935.114,279.6895 3947.09,265.2185 C3959.066,250.7475 3968.048,239.852667 3974.036,232.534 L3979.026,235.029 C3970.37667,245.341667 3959.73133,258.149333 3947.09,273.452 C3934.44867,288.754667 3920.97567,303.891 3906.671,318.861 C3889.37233,337.157667 3874.65183,350.131667 3862.5095,357.783 C3850.36717,365.434333 3837.809,369.26 3824.835,369.26 C3812.19367,369.26 3802.879,365.767 3796.891,358.781 C3790.903,351.795 3787.909,343.811 3787.909,334.829 C3787.909,323.518333 3791.48517,311.875 3798.6375,299.899 C3805.78983,287.923 3813.69067,276.1965 3822.34,264.7195 C3830.98933,253.2425 3838.89017,242.347667 3846.0425,232.035 C3853.19483,221.722333 3856.771,212.740333 3856.771,205.089 C3856.771,201.429667 3855.60667,198.435667 3853.278,196.107 C3850.94933,193.778333 3847.45633,192.614 3842.799,192.614 C3836.14567,192.614 3828.328,195.691167 3819.346,201.8455 C3810.364,207.999833 3800.883,215.983833 3790.903,225.7975 C3780.923,235.611167 3770.77667,246.7555 3760.464,259.2305 C3750.15133,271.7055 3740.42083,284.1805 3731.2725,296.6555 C3722.12417,309.1305 3713.89067,321.189667 3706.572,332.833 C3699.25333,344.476333 3693.43167,354.456333 3689.107,362.773 L3638.708,364.27 C3656.33933,334.995333 3674.05383,305.970167 3691.8515,277.1945 C3709.64917,248.418833 3727.19733,218.894667 3744.496,188.622 L3801.382,186.626 L3736.512,277.444 L3737.51,278.442 Z" id="Path"></path>
        </g>
    </g>
</svg>