<?xml version="1.0" encoding="UTF-8"?>
<svg width="1000px" height="1000px" viewBox="0 0 1000 1000" version="1.1" xmlns="http://www.w3.org/2000/svg" xmlns:xlink="http://www.w3.org/1999/xlink">
    <title>Artboard</title>
    <g id="Artboard" stroke="none" stroke-width="1" fill="none" fill-rule="evenodd">
        <g id="Logo" transform="translate(4, 38)" fill="#000000">
            <path d="M568.087634,206.272358 C569.595178,200.239837 574.11781,194.207317 580.147987,194.207317 C574.11781,194.207317 568.087634,188.174797 568.087634,182.142276 C566.58009,188.174797 562.057457,194.207317 556.027281,194.207317 C562.057457,194.207317 568.087634,198.731707 568.087634,206.272358 Z M720.34959,572.747967 C721.857134,563.699187 729.394855,554.650407 739.947663,553.142276 C729.394855,551.634146 721.857134,544.093496 720.34959,533.536585 C718.842046,544.093496 711.304325,551.634146 700.751516,553.142276 C711.304325,554.650407 718.842046,562.191057 720.34959,572.747967 Z M423.363398,731.101626 C424.870942,725.069106 429.393574,720.544715 435.423751,719.036585 C429.393574,719.036585 423.363398,713.004065 423.363398,706.971545 C421.855854,713.004065 417.333222,719.036585 411.303045,719.036585 C417.333222,720.544715 423.363398,725.069106 423.363398,731.101626 Z M501.755692,670.776423 C501.755692,667.760163 504.770781,664.743902 507.785869,664.743902 C504.770781,664.743902 501.755692,661.727642 501.755692,658.711382 C501.755692,661.727642 498.740604,664.743902 495.725516,664.743902 C498.740604,664.743902 501.755692,667.760163 501.755692,670.776423 Z M549.997104,614.97561 L546.982016,614.97561 C545.474472,614.97561 545.474472,614.97561 545.474472,616.48374 C545.474472,616.48374 545.474472,616.48374 545.474472,616.48374 L545.474472,621.00813 C545.474472,622.51626 545.474472,622.51626 546.982016,622.51626 L546.982016,622.51626 L553.012192,622.51626 L559.042369,622.51626 L559.042369,622.51626 C559.042369,622.51626 559.042369,622.51626 559.042369,622.51626 L559.042369,622.51626 L559.042369,622.51626 L559.042369,622.51626 L559.042369,622.51626 L559.042369,622.51626 L559.042369,622.51626 L559.042369,622.51626 L559.042369,622.51626 L559.042369,622.51626 L559.042369,622.51626 L559.042369,622.51626 L559.042369,622.51626 L559.042369,622.51626 L559.042369,622.51626 L559.042369,622.51626 L559.042369,622.51626 L559.042369,622.51626 L559.042369,622.51626 L559.042369,622.51626 L559.042369,622.51626 L559.042369,622.51626 L559.042369,622.51626 L559.042369,622.51626 L559.042369,622.51626 L559.042369,622.51626 L559.042369,622.51626 L559.042369,622.51626 L559.042369,622.51626 L559.042369,622.51626 L559.042369,622.51626 L559.042369,622.51626 L559.042369,622.51626 L559.042369,622.51626 L559.042369,622.51626 L559.042369,622.51626 L559.042369,622.51626 L559.042369,617.99187 C559.042369,616.48374 559.042369,616.48374 557.534825,616.48374 C557.534825,616.48374 557.534825,616.48374 557.534825,616.48374 L557.534825,616.48374 C557.534825,616.48374 556.027281,616.48374 556.027281,617.99187 C556.027281,619.5 554.519737,619.5 553.012192,619.5 L553.012192,619.5 L553.012192,619.5 L553.012192,619.5 C551.504648,619.5 551.504648,617.99187 549.997104,616.48374 C549.997104,617.99187 549.997104,616.48374 549.997104,614.97561 L549.997104,614.97561 Z M546.982016,630.056911 L546.982016,630.056911 L546.982016,630.056911 C546.982016,630.056911 546.982016,630.056911 546.982016,630.056911 L557.534825,631.565041 L557.534825,631.565041 C557.534825,631.565041 559.042369,631.565041 559.042369,630.056911 L559.042369,628.54878 L559.042369,628.54878 L559.042369,628.54878 L559.042369,627.04065 C559.042369,625.53252 559.042369,625.53252 557.534825,625.53252 L557.534825,625.53252 L557.534825,625.53252 L554.519737,625.53252 L553.012192,625.53252 L553.012192,625.53252 L548.48956,625.53252 C546.982016,625.53252 545.474472,627.04065 545.474472,627.04065 C545.474472,627.04065 545.474472,627.04065 545.474472,627.04065 L546.982016,630.056911 C546.982016,628.54878 546.982016,630.056911 546.982016,630.056911 L546.982016,630.056911 Z M548.48956,631.565041 C546.982016,645.138211 537.936751,648.154472 537.936751,648.154472 C545.474472,655.695122 549.997104,666.252033 549.997104,676.808943 L551.504648,654.186992 C549.997104,654.186992 548.48956,651.170732 548.48956,649.662602 C548.48956,648.154472 549.997104,646.646341 551.504648,646.646341 L551.504648,646.646341 C553.012192,646.646341 554.519737,648.154472 554.519737,649.662602 C554.519737,651.170732 553.012192,652.678862 551.504648,652.678862 L549.997104,675.300813 C551.504648,664.743902 557.534825,655.695122 565.072545,648.154472 C559.042369,643.630081 556.027281,637.597561 556.027281,630.056911 L551.504648,630.056911 L551.504648,630.056911 L548.48956,631.565041 Z M510.800957,631.565041 C476.127442,648.154472 455.021825,670.776423 459.544457,687.365854 C465.574633,711.495935 518.338678,717.528455 575.625354,702.447154 C632.912031,687.365854 673.615722,654.186992 667.585546,631.565041 C661.555369,611.95935 625.37431,604.418699 580.147987,610.45122 L580.147987,610.45122 C616.329046,605.926829 644.972384,611.95935 649.495016,627.04065 C655.525193,646.646341 617.83659,669.268293 569.595178,682.841463 C521.353766,696.414634 477.634986,694.906504 473.112354,675.300813 C468.589722,661.727642 485.172707,645.138211 510.800957,631.565041 C510.800957,631.565041 510.800957,631.565041 510.800957,631.565041 L510.800957,631.565041 Z M506.278325,714.512195 C489.695339,713.004065 477.634986,717.528455 476.127442,725.069106 C473.112354,735.626016 491.202883,747.691057 515.323589,753.723577 C539.444295,759.756098 562.057457,756.739837 563.565001,746.182927 C565.072545,737.134146 554.519737,728.085366 536.429207,720.544715 C536.429207,720.544715 536.429207,720.544715 536.429207,720.544715 C551.504648,726.577236 560.549913,734.117886 559.042369,741.658537 C557.534825,749.199187 539.444295,750.707317 518.338678,746.182927 C497.23306,741.658537 480.650075,732.609756 482.157619,723.560976 C483.665163,717.528455 492.710428,714.512195 506.278325,714.512195 C506.278325,716.020325 506.278325,714.512195 506.278325,714.512195 L506.278325,714.512195 Z M500.248148,63 C647.987472,63 782.158899,150.471545 840.95312,286.203252 C846.983296,278.662602 854.521017,271.121951 859.043649,263.581301 C871.104002,248.5 893.717164,248.5 907.285061,260.565041 C922.360502,272.630081 922.360502,295.252033 910.300149,308.825203 C828.892767,399.313008 724.872222,468.686992 616.329046,527.504065 L619.344134,524.487805 C623.866766,488.292683 619.344134,452.097561 604.268693,418.918699 C607.283781,456.621951 598.238516,464.162602 595.223428,468.686992 C596.730972,461.146341 596.730972,452.097561 596.730972,443.04878 L596.730972,443.04878 C590.700795,424.95122 581.655531,406.853659 571.102722,391.772358 C569.595178,405.345528 565.072545,417.410569 557.534825,427.96748 L563.565001,400.821138 C569.595178,373.674797 537.936751,331.447154 537.936751,331.447154 C539.444295,335.971545 536.429207,340.495935 531.906575,343.512195 C539.444295,320.890244 507.785869,296.760163 507.785869,296.760163 C507.785869,305.808943 504.770781,314.857724 498.740604,320.890244 C503.263236,278.662602 450.499192,243.97561 450.499192,243.97561 C452.006736,248.5 450.499192,253.02439 447.484104,256.04065 C445.97656,230.402439 409.795501,213.813008 409.795501,213.813008 C412.810589,216.829268 412.810589,222.861789 408.287957,225.878049 C394.72006,188.174797 307.282501,151.979675 307.282501,151.979675 C308.790045,164.044715 314.820221,174.601626 322.357942,182.142276 C332.910751,197.223577 343.46356,213.813008 352.508824,231.910569 C361.554089,246.99187 369.09181,263.581301 375.121986,280.170732 C379.644618,283.186992 384.167251,286.203252 388.689883,287.711382 C393.212516,290.727642 399.242692,292.235772 403.765324,295.252033 C397.735148,295.252033 391.704971,295.252033 387.182339,293.743902 C384.167251,292.235772 381.152163,290.727642 378.137074,287.711382 C385.674795,299.776423 391.704971,311.841463 397.735148,325.414634 C400.750236,332.955285 403.765324,338.987805 405.272869,346.528455 C415.825677,352.560976 426.378486,357.085366 438.438839,361.609756 C442.961472,363.117886 447.484104,364.626016 452.006736,366.134146 C444.469016,364.626016 436.931295,363.117886 429.393574,361.609756 C420.34831,358.593496 409.795501,355.577236 402.25778,349.544715 C403.765324,366.134146 412.810589,382.723577 427.88603,391.772358 C435.423751,396.296748 442.961472,400.821138 452.006736,403.837398 C447.484104,405.345528 441.453927,406.853659 435.423751,405.345528 C429.393574,405.345528 423.363398,402.329268 418.840766,399.313008 C423.363398,415.902439 430.901119,429.47561 444.469016,440.03252 C452.006736,447.573171 461.052001,452.097561 470.097266,456.621951 C459.544457,459.638211 448.991648,456.621951 439.946383,450.589431 C444.469016,468.686992 464.067089,498.849593 509.293413,519.963415 C488.187795,518.455285 468.589722,510.914634 452.006736,498.849593 C452.006736,516.947154 458.036913,535.044715 470.097266,548.617886 C482.157619,562.191057 495.725516,572.747967 512.308501,580.288618 L509.293413,581.796748 C507.785869,581.796748 506.278325,580.288618 503.263236,580.288618 C492.710428,577.272358 483.665163,571.239837 476.127442,563.699187 C483.665163,571.239837 492.710428,578.780488 501.755692,584.813008 C494.217972,587.829268 488.187795,590.845528 480.650075,593.861789 C405.272869,628.54878 326.880574,658.711382 248.48828,682.841463 C242.458103,684.349593 234.920383,687.365854 228.890206,688.873984 L228.890206,688.873984 C173.111074,703.955285 121.854574,713.004065 87.1810589,705.463415 C75.1207059,703.955285 63.060353,697.922764 55.5226324,687.365854 C49.4924559,675.300813 49.4924559,660.219512 55.5226324,648.154472 C66.0754412,619.5 96.2263236,584.813008 139.945103,550.126016 C141.452647,548.617886 144.467736,547.109756 145.97528,548.617886 C84.1659707,352.560976 191.201603,144.439024 387.182339,81.097561 C424.870942,69.0325203 462.559545,63 500.248148,63 L500.248148,63 Z M554.519737,557.666667 L545.474472,562.191057 C542.459384,525.995935 534.921663,488.292683 524.368854,453.605691 L524.368854,453.605691 C515.323589,420.426829 504.770781,388.756098 489.695339,357.085366 C468.589722,302.792683 433.916207,256.04065 387.182339,221.353659 C369.09181,207.780488 351.00128,197.223577 331.403207,186.666667 L331.403207,186.666667 C351.00128,195.715447 370.599354,206.272358 387.182339,218.337398 C411.303045,234.926829 464.067089,275.646341 506.278325,375.182927 C516.831134,400.821138 525.876398,426.45935 533.414119,452.097561 L533.414119,452.097561 C546.982016,488.292683 553.012192,522.979675 554.519737,557.666667 L554.519737,557.666667 Z M360.046545,280.170732 L360.046545,280.170732 C354.016368,274.138211 349.493736,266.597561 344.971104,259.056911 C337.433383,243.97561 340.448471,236.434959 331.403207,227.386179 C325.37303,221.353659 317.835309,218.337398 310.297589,215.321138 L310.297589,215.321138 L310.297589,215.321138 C310.297589,216.829268 311.805133,216.829268 313.312677,218.337398 L313.312677,218.337398 C313.312677,219.845528 314.820221,219.845528 314.820221,221.353659 C323.865486,234.926829 319.342854,243.97561 322.357942,253.02439 C325.37303,259.056911 332.910751,269.613821 360.046545,280.170732 L360.046545,280.170732 Z M335.925839,332.955285 C335.925839,328.430894 340.448471,325.414634 344.971104,323.906504 C340.448471,323.906504 335.925839,319.382114 335.925839,314.857724 C335.925839,319.382114 331.403207,323.906504 326.880574,323.906504 C331.403207,325.414634 334.418295,328.430894 335.925839,332.955285 Z M210.799677,666.252033 C192.709147,643.630081 177.633706,617.99187 164.065809,592.353659 C162.558265,589.337398 152.005456,565.207317 152.005456,562.191057 C152.005456,559.174797 150.497912,557.666667 148.990368,554.650407 C147.482824,560.682927 144.467736,566.715447 139.945103,569.731707 C103.764044,596.878049 79.6433383,624.02439 72.1056177,643.630081 C69.0905295,649.662602 69.0905295,658.711382 72.1056177,664.743902 C78.1357942,673.792683 88.688603,679.825203 99.2414119,679.825203 C136.930015,684.349593 176.126162,679.825203 210.799677,666.252033 L210.799677,666.252033 Z M871.104002,414.394309 C871.104002,420.426829 871.104002,427.96748 871.104002,434 C871.104002,639.105691 705.274149,805 500.248148,805 C408.287957,805 319.342854,770.313008 251.503368,709.987805 C332.910751,687.365854 412.810589,660.219512 491.202883,627.04065 C506.278325,621.00813 522.86131,613.46748 539.444295,605.926829 C542.459384,607.434959 546.982016,608.943089 549.997104,610.45122 C549.997104,607.434959 549.997104,604.418699 549.997104,601.402439 L557.534825,598.386179 C557.534825,602.910569 557.534825,607.434959 557.534825,610.45122 C571.102722,601.402439 583.163075,592.353659 593.715884,580.288618 C690.198707,533.536585 783.666443,477.735772 871.104002,414.394309 L871.104002,414.394309 Z" id="Rounder" fill-rule="nonzero"></path>
            <polygon id="Flying-Star" points="946.5 168 960 179.932203 978 179.932203 978 197.830508 990 211.254237 978 224.677966 978 242.576271 960 242.576271 946.5 256 933 244.067797 915 244.067797 915 226.169492 903 211.254237 915 197.830508 915 179.932203 933 179.932203"></polygon>
            <path d="M802.758621,133 C796.689655,98.2386364 770.896552,72.5454545 736,66.5 C752.689655,64.9886364 767.862069,57.4318182 780,46.8522727 C792.137931,34.7613636 799.724138,18.1363636 802.758621,0 C804.275862,18.1363636 813.37931,34.7613636 825.517241,46.8522727 C837.655172,57.4318182 852.827586,64.9886364 868,66.5 C834.62069,72.5454545 808.827586,98.2386364 802.758621,133 Z" id="Starlet" fill-rule="nonzero"></path>
            <path d="M25.5,532 C24,526 21,520 16.5,515.5 C12,511 6,508 0,506.5 C6,506.5 12,503.5 16.5,499 C21,494.5 24,488.5 25.5,481 C27,494.5 37.5,505 51,506.5 C37.5,508 27,518.5 25.5,532 Z" id="Starlet" fill-rule="nonzero"></path>
            <path d="M252.5,924 C246.461538,883.240385 214.759615,851.538462 174,845.5 C216.269231,840.971154 247.971154,807.759615 252.5,767 C257.028846,807.759615 290.240385,840.971154 331,845.5 C291.75,851.538462 260.048077,883.240385 252.5,924 Z" id="Starlet" fill-rule="nonzero"></path>
        </g>
    </g>
</svg>