<?xml version="1.0" encoding="UTF-8"?>
<svg width="5111px" height="1000px" viewBox="0 0 5111 1000" version="1.1" xmlns="http://www.w3.org/2000/svg" xmlns:xlink="http://www.w3.org/1999/xlink">
    <title>Artboard</title>
    <g id="Artboard" stroke="none" stroke-width="1" fill="none" fill-rule="evenodd">
        <g id="Haskell-Uzbekistan" transform="translate(1186.6115, 329.3263)" fill="#000000" fill-rule="nonzero">
            <polygon id="Path" points="0 323.673651 0 17.4918324 64.7347301 17.4918324 64.7347301 143.821733 196.147727 143.821733 196.147727 17.4918324 260.732955 17.4918324 260.732955 323.673651 196.147727 323.673651 196.147727 197.194247 64.7347301 197.194247 64.7347301 323.673651"></polygon>
            <path d="M378.39169,328.009233 C363.740412,328.009233 350.68383,325.442768 339.221946,320.309837 C327.760062,315.176906 318.71514,307.552261 312.08718,297.435902 C305.459221,287.319543 302.145241,274.686553 302.145241,259.536932 C302.145241,246.779356 304.487453,236.064986 309.171875,227.393821 C313.856297,218.722656 320.235085,211.745857 328.308239,206.463423 C336.381392,201.18099 345.575817,197.194247 355.891513,194.503196 C366.207209,191.812145 377.046165,189.918442 388.408381,188.822088 C401.763968,187.426728 412.528172,186.10612 420.700994,184.860263 C428.873816,183.614406 434.804096,181.74562 438.491832,179.253906 C442.179569,176.762192 444.023438,173.074455 444.023438,168.190696 L444.023438,167.293679 C444.023438,157.825166 441.058298,150.499527 435.128018,145.316761 C429.197739,140.133996 420.800663,137.542614 409.93679,137.542614 C398.474905,137.542614 389.355232,140.059245 382.57777,145.092507 C375.800308,150.125769 371.315223,156.429806 369.122514,164.004616 L310.218395,159.220526 C313.208452,145.266927 319.088897,133.182114 327.85973,122.966087 C336.630563,112.750059 347.967862,104.876243 361.871626,99.3446378 C375.775391,93.8130327 391.89678,91.0472301 410.235795,91.0472301 C422.993371,91.0472301 435.227687,92.5422585 446.938743,95.5323153 C458.649799,98.5223722 469.065163,103.15696 478.184837,109.43608 C487.30451,115.715199 494.505563,123.763435 499.787997,133.580788 C505.070431,143.398142 507.711648,155.134115 507.711648,168.788707 L507.711648,323.673651 L447.3125,323.673651 L447.3125,291.829545 L445.518466,291.829545 C441.830729,299.005682 436.897135,305.309718 430.717685,310.741655 C424.538234,316.173591 417.112926,320.409505 408.441761,323.449396 C399.770597,326.489287 389.753906,328.009233 378.39169,328.009233 Z M396.631037,284.055398 C405.999882,284.055398 414.272372,282.186612 421.448509,278.449041 C428.624645,274.71147 434.255919,269.653291 438.34233,263.274503 C442.428741,256.895715 444.471946,249.669744 444.471946,241.596591 L444.471946,217.227628 C442.478575,218.523319 439.762607,219.694425 436.324041,220.740945 C432.885476,221.787464 429.023319,222.734316 424.737571,223.581499 C420.451823,224.428681 416.166075,225.176196 411.880327,225.824041 C407.594579,226.471887 403.707505,227.044981 400.219105,227.543324 C392.743963,228.639678 386.215672,230.383878 380.634233,232.775923 C375.052794,235.167969 370.717211,238.38228 367.627486,242.418857 C364.53776,246.455433 362.992898,251.463778 362.992898,257.443892 C362.992898,266.115057 366.157375,272.718099 372.486328,277.253018 C378.815282,281.787938 386.863518,284.055398 396.631037,284.055398 Z" id="Shape"></path>
            <path d="M748.261719,159.519531 L689.955611,163.107599 C688.958925,158.124171 686.816051,153.614169 683.526989,149.577592 C680.237926,145.541016 675.927261,142.301787 670.594993,139.859908 C665.262725,137.418028 658.908854,136.197088 651.533381,136.197088 C641.666193,136.197088 633.343868,138.265211 626.566406,142.401456 C619.788944,146.537701 616.400213,152.044389 616.400213,158.92152 C616.400213,164.403291 618.592921,169.037879 622.978338,172.825284 C627.363755,176.612689 634.888731,179.65258 645.553267,181.944957 L687.115057,190.317116 C709.440814,194.90187 726.085464,202.277344 737.049006,212.443537 C748.012547,222.60973 753.494318,235.965317 753.494318,252.510298 C753.494318,267.560251 749.083984,280.766335 740.263317,292.128551 C731.442649,303.490767 719.382753,312.336352 704.083629,318.665305 C688.784505,324.994259 671.168087,328.158736 651.234375,328.158736 C620.835464,328.158736 596.640921,321.804865 578.650746,309.097124 C560.660571,296.389382 550.12062,279.07197 547.030895,257.144886 L609.672585,253.855824 C611.566288,263.125 616.151042,270.176551 623.426847,275.010476 C630.702652,279.844401 640.021662,282.261364 651.383878,282.261364 C662.546757,282.261364 671.541844,280.093572 678.369141,275.75799 C685.196437,271.422408 688.65992,265.816051 688.759588,258.93892 C688.65992,253.158144 686.21804,248.39897 681.433949,244.661399 C676.649858,240.923828 669.274384,238.058357 659.307528,236.064986 L619.539773,228.141335 C597.114347,223.65625 580.44478,215.882102 569.531072,204.818892 C558.617365,193.755682 553.160511,179.65258 553.160511,162.509588 C553.160511,147.758641 557.172171,135.0509 565.19549,124.386364 C573.218809,113.721828 584.531191,105.499171 599.132635,99.7183949 C613.734079,93.9376184 630.852154,91.0472301 650.486861,91.0472301 C679.490412,91.0472301 702.339429,97.1768466 719.033913,109.43608 C735.728397,121.695312 745.470999,138.389796 748.261719,159.519531 Z" id="Path"></path>
            <path d="M851.418679,257.593395 L851.568182,181.197443 L860.837358,181.197443 L934.392756,94.0372869 L1007.49964,94.0372869 L908.678267,209.45348 L893.57848,209.45348 L851.418679,257.593395 Z M793.710582,323.673651 L793.710582,17.4918324 L857.398793,17.4918324 L857.398793,323.673651 L793.710582,323.673651 Z M937.23331,323.673651 L869.658026,223.65625 L912.116832,178.655895 L1011.83523,323.673651 L937.23331,323.673651 Z" id="Shape"></path>
            <path d="M1143.24822,328.158736 C1119.62678,328.158736 1099.31931,323.349728 1082.32582,313.731712 C1065.33233,304.113696 1052.25083,290.459103 1043.08132,272.767933 C1033.91181,255.076764 1029.32706,234.121449 1029.32706,209.901989 C1029.32706,186.28054 1033.91181,165.549479 1043.08132,147.708807 C1052.25083,129.868134 1065.18282,115.96437 1081.87731,105.997514 C1098.57179,96.0306581 1118.18158,91.0472301 1140.70668,91.0472301 C1155.8563,91.0472301 1169.98432,93.4641927 1183.09073,98.2981179 C1196.19715,103.132043 1207.65903,110.382931 1217.47638,120.050781 C1227.29374,129.718632 1234.9433,141.853279 1240.42507,156.454723 C1245.90684,171.056167 1248.64773,188.124408 1248.64773,207.659446 L1248.64773,225.151278 L1054.74254,225.151278 L1054.74254,185.682528 L1188.69709,185.682528 C1188.69709,176.513021 1186.70372,168.390033 1182.71697,161.313565 C1178.73023,154.237098 1173.22354,148.680575 1166.19691,144.643999 C1159.17028,140.607422 1151.02237,138.589134 1141.7532,138.589134 C1132.08535,138.589134 1123.53877,140.806759 1116.11346,145.24201 C1108.68815,149.677261 1102.88246,155.60754 1098.69638,163.032848 C1094.5103,170.458156 1092.36742,178.705729 1092.26776,187.775568 L1092.26776,225.300781 C1092.26776,236.662997 1094.38571,246.48035 1098.62163,254.752841 C1102.85754,263.025331 1108.86257,269.404119 1116.63672,273.889205 C1124.41087,278.37429 1133.63021,280.616832 1144.29474,280.616832 C1151.37121,280.616832 1157.84967,279.620147 1163.73011,277.626776 C1169.61056,275.633404 1174.64382,272.643348 1178.8299,268.656605 C1183.01598,264.669863 1186.20537,259.786103 1188.39808,254.005327 L1247.3022,257.892401 C1244.31214,272.045336 1238.20745,284.379321 1228.9881,294.894354 C1219.76876,305.409387 1207.9082,313.582209 1193.40643,319.41282 C1178.90465,325.24343 1162.18525,328.158736 1143.24822,328.158736 Z" id="Path"></path>
            <polygon id="Path" points="1353.89773 17.4918324 1353.89773 323.673651 1290.20952 323.673651 1290.20952 17.4918324"></polygon>
            <polygon id="Path" points="1468.4169 17.4918324 1468.4169 323.673651 1404.72869 323.673651 1404.72869 17.4918324"></polygon>
            <path d="M1807.19034,17.4918324 L1871.92507,17.4918324 L1871.92507,216.330611 C1871.92507,238.656368 1866.61772,258.191406 1856.00302,274.935724 C1845.38832,291.680043 1830.56262,304.711707 1811.52592,314.030717 C1792.48923,323.349728 1770.31297,328.009233 1744.99716,328.009233 C1719.58168,328.009233 1697.35559,323.349728 1678.31889,314.030717 C1659.2822,304.711707 1644.48142,291.680043 1633.91655,274.935724 C1623.35168,258.191406 1618.06925,238.656368 1618.06925,216.330611 L1618.06925,17.4918324 L1682.80398,17.4918324 L1682.80398,210.799006 C1682.80398,222.460227 1685.37044,232.825758 1690.50337,241.895597 C1695.6363,250.965436 1702.88719,258.091738 1712.25604,263.274503 C1721.62488,268.457268 1732.53859,271.048651 1744.99716,271.048651 C1757.5554,271.048651 1768.49402,268.457268 1777.81303,263.274503 C1787.13204,258.091738 1794.35801,250.965436 1799.49094,241.895597 C1804.62388,232.825758 1807.19034,222.460227 1807.19034,210.799006 L1807.19034,17.4918324 Z" id="Path"></path>
            <polygon id="Path" points="1922.75604 323.673651 1922.75604 285.699929 2035.18217 146.512784 2035.18217 144.868253 1926.64311 144.868253 1926.64311 94.0372869 2111.87713 94.0372869 2111.87713 135.449574 2006.32812 271.198153 2006.32812 272.842685 2115.7642 272.842685 2115.7642 323.673651"></polygon>
            <path d="M2165.84766,323.673651 L2165.84766,17.4918324 L2229.53587,17.4918324 L2229.53587,132.60902 L2231.4794,132.60902 C2234.27012,126.429569 2238.33162,120.125533 2243.66388,113.696911 C2248.99615,107.268288 2255.97295,101.886186 2264.59428,97.5506037 C2273.21561,93.2150213 2283.9549,91.0472301 2296.81214,91.0472301 C2313.55646,91.0472301 2329.00509,95.4077296 2343.15803,104.128729 C2357.31096,112.849728 2368.62334,125.956143 2377.09517,143.447976 C2385.567,160.939808 2389.80291,182.841974 2389.80291,209.154474 C2389.80291,234.769295 2385.69158,256.372455 2377.46893,273.963956 C2369.24627,291.555457 2358.08339,304.86121 2343.98029,313.881214 C2329.87719,322.901219 2314.10464,327.411222 2296.66264,327.411222 C2284.30374,327.411222 2273.81362,325.368016 2265.19229,321.281605 C2256.57096,317.195194 2249.51941,312.037346 2244.03764,305.808061 C2238.55587,299.578776 2234.36979,293.27474 2231.4794,286.895952 L2228.63885,286.895952 L2228.63885,323.673651 L2165.84766,323.673651 Z M2228.19034,208.855469 C2228.19034,222.510062 2230.08404,234.420455 2233.87145,244.586648 C2237.65885,254.752841 2243.14062,262.651574 2250.31676,268.282848 C2257.4929,273.914122 2266.2139,276.729759 2276.47976,276.729759 C2286.84529,276.729759 2295.61612,273.864287 2302.79226,268.133345 C2309.96839,262.402403 2315.42525,254.428918 2319.16282,244.212891 C2322.90039,233.996863 2324.76918,222.211056 2324.76918,208.855469 C2324.76918,195.59955 2322.92531,183.938329 2319.23757,173.871804 C2315.54983,163.805279 2310.1179,155.931463 2302.94176,150.250355 C2295.76562,144.569247 2286.94496,141.728693 2276.47976,141.728693 C2266.11423,141.728693 2257.36831,144.469579 2250.24201,149.951349 C2243.11571,155.43312 2237.65885,163.207268 2233.87145,173.273793 C2230.08404,183.340317 2228.19034,195.200876 2228.19034,208.855469 Z" id="Shape"></path>
            <path d="M2536.7642,328.158736 C2513.14276,328.158736 2492.83529,323.349728 2475.8418,313.731712 C2458.84831,304.113696 2445.76681,290.459103 2436.5973,272.767933 C2427.42779,255.076764 2422.84304,234.121449 2422.84304,209.901989 C2422.84304,186.28054 2427.42779,165.549479 2436.5973,147.708807 C2445.76681,129.868134 2458.6988,115.96437 2475.39329,105.997514 C2492.08777,96.0306581 2511.69756,91.0472301 2534.22266,91.0472301 C2549.37228,91.0472301 2563.5003,93.4641927 2576.60671,98.2981179 C2589.71313,103.132043 2601.17501,110.382931 2610.99237,120.050781 C2620.80972,129.718632 2628.45928,141.853279 2633.94105,156.454723 C2639.42282,171.056167 2642.16371,188.124408 2642.16371,207.659446 L2642.16371,225.151278 L2448.25852,225.151278 L2448.25852,185.682528 L2582.21307,185.682528 C2582.21307,176.513021 2580.2197,168.390033 2576.23295,161.313565 C2572.24621,154.237098 2566.73952,148.680575 2559.71289,144.643999 C2552.68626,140.607422 2544.53835,138.589134 2535.26918,138.589134 C2525.60133,138.589134 2517.05475,140.806759 2509.62944,145.24201 C2502.20413,149.677261 2496.39844,155.60754 2492.21236,163.032848 C2488.02628,170.458156 2485.8834,178.705729 2485.78374,187.775568 L2485.78374,225.300781 C2485.78374,236.662997 2487.90169,246.48035 2492.13761,254.752841 C2496.37352,263.025331 2502.37855,269.404119 2510.1527,273.889205 C2517.92685,278.37429 2527.14619,280.616832 2537.81072,280.616832 C2544.88719,280.616832 2551.36565,279.620147 2557.24609,277.626776 C2563.12654,275.633404 2568.1598,272.643348 2572.34588,268.656605 C2576.53196,264.669863 2579.72135,259.786103 2581.91406,254.005327 L2640.81818,257.892401 C2637.82813,272.045336 2631.72343,284.379321 2622.50408,294.894354 C2613.28474,305.409387 2601.42418,313.582209 2586.92241,319.41282 C2572.42063,325.24343 2555.70123,328.158736 2536.7642,328.158736 Z" id="Path"></path>
            <path d="M2741.43359,257.593395 L2741.5831,181.197443 L2750.85227,181.197443 L2824.40767,94.0372869 L2897.51456,94.0372869 L2798.69318,209.45348 L2783.59339,209.45348 L2741.43359,257.593395 Z M2683.7255,323.673651 L2683.7255,17.4918324 L2747.41371,17.4918324 L2747.41371,323.673651 L2683.7255,323.673651 Z M2827.24822,323.673651 L2759.67294,223.65625 L2802.13175,178.655895 L2901.85014,323.673651 L2827.24822,323.673651 Z" id="Shape"></path>
            <path d="M2928.61115,323.673651 L2928.61115,94.0372869 L2992.29936,94.0372869 L2992.29936,323.673651 L2928.61115,323.673651 Z M2960.60476,64.4357244 C2951.13625,64.4357244 2943.03817,61.2712476 2936.31055,54.942294 C2929.58292,48.6133404 2926.21911,41.0136127 2926.21911,32.1431108 C2926.21911,23.3722775 2929.58292,15.822384 2936.31055,9.4934304 C2943.03817,3.1644768 2951.13625,0 2960.60476,0 C2970.07327,0 2978.17134,3.1644768 2984.89897,9.4934304 C2991.6266,15.822384 2994.99041,23.3722775 2994.99041,32.1431108 C2994.99041,41.0136127 2991.6266,48.6133404 2984.89897,54.942294 C2978.17134,61.2712476 2970.07327,64.4357244 2960.60476,64.4357244 Z" id="Shape"></path>
            <path d="M3234.19496,159.519531 L3175.88885,163.107599 C3174.89216,158.124171 3172.74929,153.614169 3169.46023,149.577592 C3166.17116,145.541016 3161.8605,142.301787 3156.52823,139.859908 C3151.19596,137.418028 3144.84209,136.197088 3137.46662,136.197088 C3127.59943,136.197088 3119.27711,138.265211 3112.49964,142.401456 C3105.72218,146.537701 3102.33345,152.044389 3102.33345,158.92152 C3102.33345,164.403291 3104.52616,169.037879 3108.91158,172.825284 C3113.29699,176.612689 3120.82197,179.65258 3131.48651,181.944957 L3173.0483,190.317116 C3195.37405,194.90187 3212.0187,202.277344 3222.98224,212.443537 C3233.94579,222.60973 3239.42756,235.965317 3239.42756,252.510298 C3239.42756,267.560251 3235.01722,280.766335 3226.19656,292.128551 C3217.37589,303.490767 3205.31599,312.336352 3190.01687,318.665305 C3174.71774,324.994259 3157.10133,328.158736 3137.16761,328.158736 C3106.7687,328.158736 3082.57416,321.804865 3064.58398,309.097124 C3046.59381,296.389382 3036.05386,279.07197 3032.96413,257.144886 L3095.60582,253.855824 C3097.49953,263.125 3102.08428,270.176551 3109.36009,275.010476 C3116.63589,279.844401 3125.9549,282.261364 3137.31712,282.261364 C3148.48,282.261364 3157.47508,280.093572 3164.30238,275.75799 C3171.12968,271.422408 3174.59316,265.816051 3174.69283,258.93892 C3174.59316,253.158144 3172.15128,248.39897 3167.36719,244.661399 C3162.5831,240.923828 3155.20762,238.058357 3145.24077,236.064986 L3105.47301,228.141335 C3083.04759,223.65625 3066.37802,215.882102 3055.46431,204.818892 C3044.5506,193.755682 3039.09375,179.65258 3039.09375,162.509588 C3039.09375,147.758641 3043.10541,135.0509 3051.12873,124.386364 C3059.15205,113.721828 3070.46443,105.499171 3085.06587,99.7183949 C3099.66732,93.9376184 3116.78539,91.0472301 3136.4201,91.0472301 C3165.42365,91.0472301 3188.27267,97.1768466 3204.96715,109.43608 C3221.66164,121.695312 3231.40424,138.389796 3234.19496,159.519531 Z" id="Path"></path>
            <path d="M3401.78764,94.0372869 L3401.78764,141.878196 L3263.49751,141.878196 L3263.49751,94.0372869 L3401.78764,94.0372869 Z M3294.89311,39.0202415 L3358.58132,39.0202415 L3358.58132,253.10831 C3358.58132,258.988755 3359.47834,263.548591 3361.27237,266.78782 C3363.06641,270.027048 3365.58304,272.294508 3368.82227,273.590199 C3372.06149,274.88589 3375.82398,275.533736 3380.10973,275.533736 C3383.09979,275.533736 3386.08984,275.259647 3389.0799,274.71147 C3392.06996,274.163293 3394.36233,273.739702 3395.95703,273.440696 L3405.97372,320.833097 C3402.78433,321.829782 3398.29924,323.000888 3392.51847,324.346413 C3386.73769,325.691939 3379.71106,326.514205 3371.43857,326.81321 C3356.08961,327.411222 3342.65927,325.368016 3331.14755,320.683594 C3319.63583,315.999171 3310.69058,308.723366 3304.31179,298.856179 C3297.933,288.988991 3294.79344,276.530421 3294.89311,261.480469 L3294.89311,39.0202415 Z" id="Shape"></path>
            <path d="M3508.68217,328.009233 C3494.03089,328.009233 3480.97431,325.442768 3469.51243,320.309837 C3458.05054,315.176906 3449.00562,307.552261 3442.37766,297.435902 C3435.7497,287.319543 3432.43572,274.686553 3432.43572,259.536932 C3432.43572,246.779356 3434.77794,236.064986 3439.46236,227.393821 C3444.14678,218.722656 3450.52557,211.745857 3458.59872,206.463423 C3466.67188,201.18099 3475.8663,197.194247 3486.182,194.503196 C3496.49769,191.812145 3507.33665,189.918442 3518.69886,188.822088 C3532.05445,187.426728 3542.81866,186.10612 3550.99148,184.860263 C3559.1643,183.614406 3565.09458,181.74562 3568.78232,179.253906 C3572.47005,176.762192 3574.31392,173.074455 3574.31392,168.190696 L3574.31392,167.293679 C3574.31392,157.825166 3571.34878,150.499527 3565.4185,145.316761 C3559.48822,140.133996 3551.09115,137.542614 3540.22727,137.542614 C3528.76539,137.542614 3519.64571,140.059245 3512.86825,145.092507 C3506.09079,150.125769 3501.60571,156.429806 3499.413,164.004616 L3440.50888,159.220526 C3443.49893,145.266927 3449.37938,133.182114 3458.15021,122.966087 C3466.92105,112.750059 3478.25835,104.876243 3492.16211,99.3446378 C3506.06587,93.8130327 3522.18726,91.0472301 3540.52628,91.0472301 C3553.28385,91.0472301 3565.51817,92.5422585 3577.22923,95.5323153 C3588.94028,98.5223722 3599.35565,103.15696 3608.47532,109.43608 C3617.59499,115.715199 3624.79605,123.763435 3630.07848,133.580788 C3635.36091,143.398142 3638.00213,155.134115 3638.00213,168.788707 L3638.00213,323.673651 L3577.60298,323.673651 L3577.60298,291.829545 L3575.80895,291.829545 C3572.12121,299.005682 3567.18762,305.309718 3561.00817,310.741655 C3554.82872,316.173591 3547.40341,320.409505 3538.73224,323.449396 C3530.06108,326.489287 3520.04439,328.009233 3508.68217,328.009233 Z M3526.92152,284.055398 C3536.29036,284.055398 3544.56286,282.186612 3551.73899,278.449041 C3558.91513,274.71147 3564.5464,269.653291 3568.63281,263.274503 C3572.71922,256.895715 3574.76243,249.669744 3574.76243,241.596591 L3574.76243,217.227628 C3572.76906,218.523319 3570.05309,219.694425 3566.61452,220.740945 C3563.17596,221.787464 3559.3138,222.734316 3555.02805,223.581499 C3550.74231,224.428681 3546.45656,225.176196 3542.17081,225.824041 C3537.88506,226.471887 3533.99799,227.044981 3530.50959,227.543324 C3523.03445,228.639678 3516.50616,230.383878 3510.92472,232.775923 C3505.34328,235.167969 3501.00769,238.38228 3497.91797,242.418857 C3494.82824,246.455433 3493.28338,251.463778 3493.28338,257.443892 C3493.28338,266.115057 3496.44786,272.718099 3502.77681,277.253018 C3509.10576,281.787938 3517.154,284.055398 3526.92152,284.055398 Z" id="Shape"></path>
            <path d="M3751.17578,190.915128 L3751.17578,323.673651 L3687.48757,323.673651 L3687.48757,94.0372869 L3748.18572,94.0372869 L3748.18572,134.552557 L3750.87678,134.552557 C3755.95987,121.19697 3764.48153,110.607185 3776.44176,102.783203 C3788.40199,94.9592211 3802.90376,91.0472301 3819.94709,91.0472301 C3835.89406,91.0472301 3849.79782,94.5356297 3861.65838,101.512429 C3873.51894,108.489228 3882.73828,118.431167 3889.31641,131.338246 C3895.89453,144.245324 3899.18359,159.6192 3899.18359,177.459872 L3899.18359,323.673651 L3835.49538,323.673651 L3835.49538,188.822088 C3835.59505,174.768821 3832.00698,163.780362 3824.73118,155.856712 C3817.45537,147.933061 3807.43868,143.971236 3794.68111,143.971236 C3786.10961,143.971236 3778.55972,145.815104 3772.03143,149.502841 C3765.50314,153.190578 3760.42004,158.547763 3756.78214,165.574396 C3753.14424,172.60103 3751.27545,181.04794 3751.17578,190.915128 Z" id="Path"></path>
        </g>
        <g id="Haskell-Logo" transform="translate(0, 141)" fill="#000000" fill-rule="nonzero">
            <polyline id="Path" points="0 718 239.428571 359 0 0 179.571429 0 419 359 179.571429 718"></polyline>
            <polyline id="Path" points="239 718 478.272727 359 239 0 418.454545 0 897 718 717.545455 718 568 493.625 418.454545 718"></polyline>
            <path d="M817.110994,509 L737.694015,389.4 L1017,389.4 L1017,509 M697.776061,329.6 L618,210 L1017,210 L1017,329.6" id="Shape"></path>
        </g>
    </g>
</svg>