<?xml version="1.0" encoding="UTF-8"?>
<svg width="1000px" height="1000px" viewBox="0 0 1000 1000" version="1.1" xmlns="http://www.w3.org/2000/svg" xmlns:xlink="http://www.w3.org/1999/xlink">
    <title>Artboard</title>
    <defs>
        <path d="M360.613533,84.0267095 C484.935841,84.0267095 593.009661,153.60498 647.981928,255.9024 C624.891972,285.656793 598.835599,317.414399 570.748164,350 C598.915772,282.0243 603.378761,229.994176 578.043949,205.661813 C537.609802,166.852897 431.273073,208.252636 305.080052,302.376945 C236.665369,252.804097 172.339532,215.063561 117.981928,192.25364 C177.657704,125.800382 264.245038,84 360.613533,84 L360.613533,84.0267095 Z M674.863251,325 C682.089058,351.92125 685.981928,380.227173 685.981928,409.411831 C685.981928,424.376957 684.968715,439.0758 682.995617,453.508359 L682.968953,453.801271 L682.808972,454.946289 L682.675655,455.958166 L682.648991,456.091308 L682.48901,457.236326 L681.982404,460.671382 L681.95574,460.831152 L681.795759,461.816401 L681.609115,462.934791 L681.555788,463.254331 L681.395807,464.079809 L681.209163,465.224828 L681.129172,465.67751 L680.995855,466.343218 L680.782547,467.461608 L680.142623,470.843407 L679.929315,471.961797 C671.79695,513.688403 655.585546,552.485892 632.974905,586.756563 L633.24154,586.756563 C610.017638,622.252137 580.047872,652.954611 545.118697,677 C526.560906,636.924351 498.297604,591.017097 461.981928,542.047583 C531.733624,480.349724 608.177857,404.112792 674.863251,325 L674.863251,325 Z M186.477081,596.266785 C154.059166,552.993611 0.949328844,343.061324 70.8095339,274.72121 C105.579284,240.738021 187.278843,257.102274 292.282954,311.213763 C251.045656,342.74098 207.884129,379.687354 164.348447,421.145243 C209.006596,387.749352 418.239781,236.226505 486.229208,305.607738 C510.388973,330.220857 509.132879,378.459367 487.057695,441.86084 C468.269736,461.882358 449.054171,481.797094 429.678254,501.3114 C402.845948,467.968899 372.672968,433.611975 339.667094,399.041488 C354.954025,419.410045 388.467681,463.323907 417.785449,513.244225 C387.265038,543.623541 356.423922,572.908348 326.037138,600.110917 C281.325538,631.504656 232.364599,661.697105 183.136405,683 C90.2389023,622.962142 33.9819277,519.277376 33.9819277,409.425981 L33.9819277,409.399286 C78.3460977,475.817334 131.529651,538.711595 186.477081,596.266785 Z M441.854279,559.026607 C455.567357,587.60281 465.939042,616.445085 469.226974,642.600026 C482.245042,745.96925 323.7828,751.530168 234.981928,713.135885 C309.909334,665.482274 382.671518,608.436298 417.261623,579.780274 C425.307698,573.10185 433.540892,566.183961 441.854279,559 L441.854279,559.026607 Z" id="path-1"></path>
        <path d="M752.591358,150.775142 C670.979586,304.862826 538.290147,430.179284 404.288277,541.444056 C339.898812,594.899232 143.543083,746.689492 46.3696308,753.768764 C29.6830098,754.970904 17.8175634,751.444625 10.3715271,744.15164 C1.9076872,735.870229 -1.19929199,722.753541 0.407766215,705.977004 C3.4343925,674.614497 24.0315218,632.432726 57.6458225,588.327531 C61.6902523,582.984685 66.0293095,583.091542 67.3149561,588.541245 C68.6006026,593.990948 66.3775054,602.753216 62.3062913,608.069348 C34.4506158,644.64113 17.6300733,676.831778 15.5944662,697.829164 C14.7641528,706.324289 16.7461913,713.350132 21.8352089,718.345693 C27.9152458,724.302967 38.0664968,727.161389 52.7710793,726.09282 C218.673054,714.044702 639.07948,258.620493 689.407186,119.466064 C698.058516,102.075099 719.2449,94.9691138 736.681482,103.59781 C754.118063,112.226507 761.242688,133.357464 752.591358,150.748428 L752.591358,150.775142 Z" id="path-2"></path>
        <polygon id="path-3" points="759.664527 0 772.822482 12.5251079 790.990481 12.9733749 791.412379 31.1150048 803.963855 44.2729603 791.412379 57.4309157 790.990481 75.5989143 772.822482 76.0208126 759.664527 88.5722892 746.53294 76.0208126 728.364941 75.5989143 727.916674 57.4309157 715.391566 44.2729603 727.916674 31.1150048 728.364941 12.9733749 746.53294 12.5251079"></polygon>
    </defs>
    <g id="Artboard" stroke="none" stroke-width="1" fill="none" fill-rule="evenodd">
        <g id="Group" transform="translate(98.0181, 123)">
            <g id="Shape">
                <use fill="#FFFFFF" xlink:href="#path-1"></use>
                <use fill="#000000" xlink:href="#path-1"></use>
            </g>
            <g id="Path">
                <use fill="#FFFFFF" xlink:href="#path-2"></use>
                <use fill="#000000" xlink:href="#path-2"></use>
            </g>
            <g id="Path">
                <use fill="#FFFFFF" xlink:href="#path-3"></use>
                <use fill="#000000" xlink:href="#path-3"></use>
            </g>
        </g>
    </g>
</svg>