<?xml version="1.0" encoding="UTF-8"?>
<svg width="5111px" height="1000px" viewBox="0 0 5111 1000" version="1.1" xmlns="http://www.w3.org/2000/svg" xmlns:xlink="http://www.w3.org/1999/xlink">
    <title>Artboard</title>
    <defs>
        <path d="M360.613533,84.0267095 C484.935841,84.0267095 593.009661,153.60498 647.981928,255.9024 C624.891972,285.656793 598.835599,317.414399 570.748164,350 C598.915772,282.0243 603.378761,229.994176 578.043949,205.661813 C537.609802,166.852897 431.273073,208.252636 305.080052,302.376945 C236.665369,252.804097 172.339532,215.063561 117.981928,192.25364 C177.657704,125.800382 264.245038,84 360.613533,84 L360.613533,84.0267095 Z M674.863251,325 C682.089058,351.92125 685.981928,380.227173 685.981928,409.411831 C685.981928,424.376957 684.968715,439.0758 682.995617,453.508359 L682.968953,453.801271 L682.808972,454.946289 L682.675655,455.958166 L682.648991,456.091308 L682.48901,457.236326 L681.982404,460.671382 L681.95574,460.831152 L681.795759,461.816401 L681.609115,462.934791 L681.555788,463.254331 L681.395807,464.079809 L681.209163,465.224828 L681.129172,465.67751 L680.995855,466.343218 L680.782547,467.461608 L680.142623,470.843407 L679.929315,471.961797 C671.79695,513.688403 655.585546,552.485892 632.974905,586.756563 L633.24154,586.756563 C610.017638,622.252137 580.047872,652.954611 545.118697,677 C526.560906,636.924351 498.297604,591.017097 461.981928,542.047583 C531.733624,480.349724 608.177857,404.112792 674.863251,325 L674.863251,325 Z M186.477081,596.266785 C154.059166,552.993611 0.949328844,343.061324 70.8095339,274.72121 C105.579284,240.738021 187.278843,257.102274 292.282954,311.213763 C251.045656,342.74098 207.884129,379.687354 164.348447,421.145243 C209.006596,387.749352 418.239781,236.226505 486.229208,305.607738 C510.388973,330.220857 509.132879,378.459367 487.057695,441.86084 C468.269736,461.882358 449.054171,481.797094 429.678254,501.3114 C402.845948,467.968899 372.672968,433.611975 339.667094,399.041488 C354.954025,419.410045 388.467681,463.323907 417.785449,513.244225 C387.265038,543.623541 356.423922,572.908348 326.037138,600.110917 C281.325538,631.504656 232.364599,661.697105 183.136405,683 C90.2389023,622.962142 33.9819277,519.277376 33.9819277,409.425981 L33.9819277,409.399286 C78.3460977,475.817334 131.529651,538.711595 186.477081,596.266785 Z M441.854279,559.026607 C455.567357,587.60281 465.939042,616.445085 469.226974,642.600026 C482.245042,745.96925 323.7828,751.530168 234.981928,713.135885 C309.909334,665.482274 382.671518,608.436298 417.261623,579.780274 C425.307698,573.10185 433.540892,566.183961 441.854279,559 L441.854279,559.026607 Z" id="path-1"></path>
        <path d="M752.591358,150.775142 C670.979586,304.862826 538.290147,430.179284 404.288277,541.444056 C339.898812,594.899232 143.543083,746.689492 46.3696308,753.768764 C29.6830098,754.970904 17.8175634,751.444625 10.3715271,744.15164 C1.9076872,735.870229 -1.19929199,722.753541 0.407766215,705.977004 C3.4343925,674.614497 24.0315218,632.432726 57.6458225,588.327531 C61.6902523,582.984685 66.0293095,583.091542 67.3149561,588.541245 C68.6006026,593.990948 66.3775054,602.753216 62.3062913,608.069348 C34.4506158,644.64113 17.6300733,676.831778 15.5944662,697.829164 C14.7641528,706.324289 16.7461913,713.350132 21.8352089,718.345693 C27.9152458,724.302967 38.0664968,727.161389 52.7710793,726.09282 C218.673054,714.044702 639.07948,258.620493 689.407186,119.466064 C698.058516,102.075099 719.2449,94.9691138 736.681482,103.59781 C754.118063,112.226507 761.242688,133.357464 752.591358,150.748428 L752.591358,150.775142 Z" id="path-2"></path>
        <polygon id="path-3" points="759.664527 0 772.822482 12.5251079 790.990481 12.9733749 791.412379 31.1150048 803.963855 44.2729603 791.412379 57.4309157 790.990481 75.5989143 772.822482 76.0208126 759.664527 88.5722892 746.53294 76.0208126 728.364941 75.5989143 727.916674 57.4309157 715.391566 44.2729603 727.916674 31.1150048 728.364941 12.9733749 746.53294 12.5251079"></polygon>
    </defs>
    <g id="Artboard" stroke="none" stroke-width="1" fill="none" fill-rule="evenodd">
        <g id="Group" transform="translate(215.0181, 123)" fill="#FFFFFF">
            <g id="Shape">
                <use xlink:href="#path-1"></use>
                <use xlink:href="#path-1"></use>
            </g>
            <g id="Path">
                <use xlink:href="#path-2"></use>
                <use xlink:href="#path-2"></use>
            </g>
            <g id="Path">
                <use xlink:href="#path-3"></use>
                <use xlink:href="#path-3"></use>
            </g>
        </g>
        <g id="Uzinfocom-Open-Sourc" transform="translate(1135.4814, 364.3013)" fill="#FFFFFF" fill-rule="nonzero">
            <path d="M102.127441,259.922363 C123.07666,259.922363 141.181966,256.149251 156.443359,248.603027 C171.704753,241.056803 183.488688,230.497721 191.795166,216.925781 C200.101644,203.353841 204.254883,187.557454 204.254883,169.536621 L204.254883,11.9106445 L153.233398,11.9106445 L153.233398,164.975098 C153.233398,180.743327 148.84082,193.301595 140.055664,202.649902 C131.270508,211.99821 118.655924,216.672363 102.211914,216.672363 C85.8805339,216.672363 73.2659505,211.99821 64.3681641,202.649902 C55.4703776,193.301595 51.0214844,180.743327 51.0214844,164.975098 L51.0214844,11.9106445 L0,11.9106445 L0,169.536621 C0,187.61377 4.18139648,203.438314 12.5441895,217.010254 C20.9069824,230.582194 32.7331543,241.127197 48.0227051,248.645264 C63.3122559,256.16333 81.347168,259.922363 102.127441,259.922363 Z" id="Path"></path>
            <polygon id="Path" points="237.114746 255.69873 386.71582 255.69873 386.71582 218.530762 299.033203 218.530762 299.033203 217.601562 384.604004 105.844238 384.604004 74.5893555 238.550781 74.5893555 238.550781 111.757324 328.17627 111.757324 328.17627 112.686523 237.114746 227.653809"></polygon>
            <path d="M416.28125,255.69873 L465.613281,255.69873 L465.613281,74.5893555 L416.28125,74.5893555 L416.28125,255.69873 Z M440.947266,51.359375 C448.380859,51.359375 454.631836,48.8251953 459.700195,43.7568359 C464.768555,38.6884766 467.302734,32.6627604 467.302734,25.6796875 C467.302734,18.5839844 464.768555,12.5301107 459.700195,7.51806641 C454.631836,2.50602214 448.380859,0 440.947266,0 C433.569987,0 427.333089,2.50602214 422.236572,7.51806641 C417.140055,12.5301107 414.591797,18.5839844 414.591797,25.6796875 C414.591797,32.6627604 417.140055,38.6884766 422.236572,43.7568359 C427.333089,48.8251953 433.569987,51.359375 440.947266,51.359375 Z" id="Shape"></path>
            <path d="M498.64209,255.69873 L547.974121,255.69873 L547.974121,151.628418 C547.974121,143.687988 549.452393,136.733073 552.408936,130.763672 C555.365479,124.794271 559.546875,120.134196 564.953125,116.783447 C570.359375,113.432699 576.722982,111.757324 584.043945,111.757324 C595.138021,111.757324 603.458577,115.009521 609.005615,121.513916 C614.552653,128.018311 617.326172,137.183594 617.326172,149.009766 L617.326172,255.69873 L666.658203,255.69873 L666.658203,138.788574 C666.658203,117.55778 661.223796,100.930745 650.35498,88.9074707 C639.486165,76.884196 624.112142,70.8725586 604.23291,70.8725586 C590.54834,70.8725586 579.088216,73.8572591 569.852539,79.8266602 C560.616862,85.7960612 553.661947,93.9899089 548.987793,104.408203 L547.974121,104.408203 L547.974121,74.5893555 L498.64209,74.5893555 L498.64209,255.69873 Z" id="Path"></path>
            <path d="M711.006348,255.69873 L760.338379,255.69873 L760.338379,111.757324 L795.141113,111.757324 L795.141113,74.5893555 L759.155762,74.5893555 L759.155762,61.918457 C759.155762,55.4422201 761.070475,50.5005697 764.899902,47.0935059 C768.729329,43.6864421 774.726888,41.9829102 782.892578,41.9829102 C785.145182,41.9829102 787.397786,42.053304 789.650391,42.1940918 C791.902995,42.3348796 793.874023,42.5460612 795.563477,42.8276367 L795.563477,10.2211914 C792.747721,9.65804036 789.030924,9.17936198 784.413086,8.78515625 C779.795247,8.39095052 775.205566,8.19384766 770.644043,8.19384766 C749.300618,8.19384766 734.025146,12.4174805 724.817627,20.8647461 C715.610107,29.3120117 711.006348,42.4052734 711.006348,60.1445312 L711.006348,74.5893555 L686.424805,74.5893555 L686.424805,111.757324 L711.006348,111.757324 L711.006348,255.69873 Z" id="Path"></path>
            <path d="M904.026367,259.415527 C922.328776,259.415527 938.181478,255.670573 951.584473,248.180664 C964.987467,240.690755 975.363525,229.920492 982.712646,215.869873 C990.061768,201.819255 993.736328,184.938802 993.736328,165.228516 L993.736328,164.890625 C993.736328,145.292969 990.019531,128.48291 982.585938,114.460449 C975.152344,100.437988 964.719971,89.6677246 951.288818,82.1496582 C937.857666,74.6315918 922.075358,70.8725586 903.941895,70.8725586 C885.921061,70.8725586 870.195068,74.6456706 856.763916,82.1918945 C843.332764,89.7381185 832.900391,100.53654 825.466797,114.587158 C818.033203,128.637777 814.316406,145.405599 814.316406,164.890625 L814.316406,165.228516 C814.316406,184.826172 817.976888,201.664388 825.297852,215.743164 C832.618815,229.82194 842.994873,240.620361 856.426025,248.138428 C869.857178,255.656494 885.723958,259.415527 904.026367,259.415527 Z M904.195312,220.727051 C896.085938,220.727051 889.060628,218.558919 883.119385,214.222656 C877.178141,209.886393 872.58846,203.579102 869.350342,195.300781 C866.112223,187.022461 864.493164,176.998372 864.493164,165.228516 L864.493164,164.890625 C864.493164,153.177083 866.126302,143.20931 869.392578,134.987305 C872.658854,126.765299 877.262614,120.472087 883.203857,116.107666 C889.145101,111.743245 896.05778,109.561035 903.941895,109.561035 C911.938639,109.561035 918.907633,111.729167 924.848877,116.06543 C930.79012,120.401693 935.39388,126.694906 938.660156,134.945068 C941.926432,143.195231 943.55957,153.177083 943.55957,164.890625 L943.55957,165.228516 C943.55957,176.998372 941.95459,187.022461 938.744629,195.300781 C935.534668,203.579102 930.987223,209.886393 925.102295,214.222656 C919.217367,218.558919 912.248372,220.727051 904.195312,220.727051 Z" id="Shape"></path>
            <path d="M1101.86133,259.415527 C1118.02376,259.415527 1132.08846,256.360433 1144.05542,250.250244 C1156.02238,244.140055 1165.44108,235.847656 1172.31152,225.373047 C1179.18197,214.898438 1183.01139,203.072266 1183.7998,189.894531 L1183.88428,188.796387 L1137.93115,188.796387 L1137.67773,190.316895 C1136.0446,199.496257 1132.21517,206.859456 1126.18945,212.406494 C1120.16374,217.953532 1112.19515,220.727051 1102.28369,220.727051 C1094.17432,220.727051 1087.14901,218.558919 1081.20776,214.222656 C1075.26652,209.886393 1070.69092,203.579102 1067.48096,195.300781 C1064.271,187.022461 1062.66602,176.998372 1062.66602,165.228516 L1062.66602,165.05957 C1062.66602,153.514974 1064.271,143.603516 1067.48096,135.325195 C1070.69092,127.046875 1075.25244,120.683268 1081.16553,116.234375 C1087.07861,111.785482 1094.06169,109.561035 1102.11475,109.561035 C1112.30778,109.561035 1120.40308,112.475342 1126.40063,118.303955 C1132.39819,124.132568 1136.12907,131.35498 1137.59326,139.971191 L1137.84668,141.491699 L1183.71533,141.491699 L1183.63086,140.309082 C1183.01139,127.243978 1179.2946,115.474121 1172.48047,104.999512 C1165.66634,94.5249023 1156.21948,86.2184245 1144.13989,80.0800781 C1132.0603,73.9417318 1117.82666,70.8725586 1101.43896,70.8725586 C1083.36182,70.8725586 1067.66398,74.6738281 1054.34546,82.2763672 C1041.02694,89.8789062 1030.72127,100.705485 1023.42847,114.756104 C1016.13566,128.806722 1012.48926,145.490072 1012.48926,164.806152 L1012.48926,164.975098 C1012.48926,184.403809 1016.1075,201.18571 1023.34399,215.320801 C1030.58049,229.455892 1040.88615,240.338786 1054.26099,247.969482 C1067.63582,255.600179 1083.5026,259.415527 1101.86133,259.415527 Z" id="Path"></path>
            <path d="M1290.65771,259.415527 C1308.96012,259.415527 1324.81283,255.670573 1338.21582,248.180664 C1351.61882,240.690755 1361.99487,229.920492 1369.34399,215.869873 C1376.69312,201.819255 1380.36768,184.938802 1380.36768,165.228516 L1380.36768,164.890625 C1380.36768,145.292969 1376.65088,128.48291 1369.21729,114.460449 C1361.78369,100.437988 1351.35132,89.6677246 1337.92017,82.1496582 C1324.48901,74.6315918 1308.70671,70.8725586 1290.57324,70.8725586 C1272.55241,70.8725586 1256.82642,74.6456706 1243.39526,82.1918945 C1229.96411,89.7381185 1219.53174,100.53654 1212.09814,114.587158 C1204.66455,128.637777 1200.94775,145.405599 1200.94775,164.890625 L1200.94775,165.228516 C1200.94775,184.826172 1204.60824,201.664388 1211.9292,215.743164 C1219.25016,229.82194 1229.62622,240.620361 1243.05737,248.138428 C1256.48853,255.656494 1272.35531,259.415527 1290.65771,259.415527 Z M1290.82666,220.727051 C1282.71729,220.727051 1275.69198,218.558919 1269.75073,214.222656 C1263.80949,209.886393 1259.21981,203.579102 1255.98169,195.300781 C1252.74357,187.022461 1251.12451,176.998372 1251.12451,165.228516 L1251.12451,164.890625 C1251.12451,153.177083 1252.75765,143.20931 1256.02393,134.987305 C1259.2902,126.765299 1263.89396,120.472087 1269.83521,116.107666 C1275.77645,111.743245 1282.68913,109.561035 1290.57324,109.561035 C1298.56999,109.561035 1305.53898,111.729167 1311.48022,116.06543 C1317.42147,120.401693 1322.02523,126.694906 1325.2915,134.945068 C1328.55778,143.195231 1330.19092,153.177083 1330.19092,164.890625 L1330.19092,165.228516 C1330.19092,176.998372 1328.58594,187.022461 1325.37598,195.300781 C1322.16602,203.579102 1317.61857,209.886393 1311.73364,214.222656 C1305.84871,218.558919 1298.87972,220.727051 1290.82666,220.727051 Z" id="Shape"></path>
            <path d="M1405.79395,255.69873 L1455.12598,255.69873 L1455.12598,146.391113 C1455.12598,139.576986 1456.44938,133.579427 1459.09619,128.398438 C1461.743,123.217448 1465.41756,119.148682 1470.11987,116.192139 C1474.82218,113.235596 1480.27067,111.757324 1486.46533,111.757324 C1495.64469,111.757324 1502.81079,114.474528 1507.96362,119.908936 C1513.11646,125.343343 1515.69287,132.959961 1515.69287,142.758789 L1515.69287,255.69873 L1563.25098,255.69873 L1563.25098,145.630859 C1563.25098,138.873047 1564.53215,132.959961 1567.09448,127.891602 C1569.65682,122.823242 1573.27507,118.867106 1577.94922,116.023193 C1582.62337,113.179281 1588.05778,111.757324 1594.25244,111.757324 C1603.82601,111.757324 1611.14697,114.559001 1616.21533,120.162354 C1621.28369,125.765706 1623.81787,133.804688 1623.81787,144.279297 L1623.81787,255.69873 L1673.1499,255.69873 L1673.1499,131.861816 C1673.1499,119.641439 1670.67204,108.969727 1665.71631,99.8466797 C1660.76058,90.7236328 1653.8479,83.6138509 1644.97827,78.517334 C1636.10864,73.4208171 1625.73258,70.8725586 1613.8501,70.8725586 C1605.00863,70.8725586 1596.82886,72.4071452 1589.31079,75.4763184 C1581.79272,78.5454915 1575.31649,82.8676758 1569.88208,88.4428711 C1564.44767,94.0180664 1560.37891,100.635091 1557.67578,108.293945 L1556.66211,108.293945 C1554.69108,100.297201 1551.38257,93.5253092 1546.73657,87.9782715 C1542.09058,82.4312337 1536.38867,78.1935221 1529.63086,75.2651367 C1522.87305,72.3367513 1515.24235,70.8725586 1506.73877,70.8725586 C1494.63102,70.8725586 1484.08602,73.9839681 1475.10376,80.2067871 C1466.1215,86.4296061 1459.80013,94.7220052 1456.13965,105.083984 L1455.12598,105.083984 L1455.12598,74.5893555 L1405.79395,74.5893555 L1405.79395,255.69873 Z" id="Path"></path>
            <path d="M1887.03467,259.922363 C1911.25016,259.922363 1932.12899,254.797689 1949.67114,244.54834 C1967.2133,234.298991 1980.75708,219.755615 1990.30249,200.918213 C1999.8479,182.080811 2004.62061,159.737793 2004.62061,133.88916 L2004.62061,133.55127 C2004.62061,107.702637 1999.8479,85.3877767 1990.30249,66.6066895 C1980.75708,47.8256022 1967.18514,33.3103841 1949.58667,23.0610352 C1931.9882,12.8116862 1911.13753,7.68701172 1887.03467,7.68701172 C1863.04443,7.68701172 1842.25008,12.7976074 1824.65161,23.0187988 C1807.05314,33.2399902 1793.45304,47.7552083 1783.85132,66.5644531 C1774.24959,85.3736979 1769.44873,107.702637 1769.44873,133.55127 L1769.44873,133.88916 C1769.44873,159.737793 1774.22144,182.094889 1783.76685,200.960449 C1793.31226,219.826009 1806.8842,234.369385 1824.48267,244.590576 C1842.08114,254.811768 1862.9318,259.922363 1887.03467,259.922363 Z M1887.03467,216.672363 C1873.68799,216.672363 1862.11523,213.307536 1852.31641,206.577881 C1842.51758,199.848226 1834.92912,190.288737 1829.55103,177.899414 C1824.17293,165.510091 1821.48389,150.840007 1821.48389,133.88916 L1821.48389,133.55127 C1821.48389,116.487793 1824.17293,101.789551 1829.55103,89.456543 C1834.92912,77.1235352 1842.54574,67.6203613 1852.40088,60.9470215 C1862.25602,54.2736816 1873.80062,50.9370117 1887.03467,50.9370117 C1900.38135,50.9370117 1911.96818,54.2877604 1921.79517,60.9892578 C1931.62215,67.6907552 1939.21061,77.2220866 1944.56055,89.583252 C1949.91048,101.944417 1952.58545,116.600423 1952.58545,133.55127 L1952.58545,133.88916 C1952.58545,150.727376 1949.93864,165.341146 1944.64502,177.730469 C1939.3514,190.119792 1931.81925,199.707438 1922.04858,206.493408 C1912.27791,213.279378 1900.60661,216.672363 1887.03467,216.672363 Z" id="Shape"></path>
            <path d="M2033.25684,314.82959 L2082.58887,314.82959 L2082.58887,224.866211 L2083.60254,224.866211 C2086.92513,232.018229 2091.30363,238.170654 2096.73804,243.323486 C2102.17244,248.476318 2108.53605,252.446533 2115.82886,255.234131 C2123.12166,258.021729 2131.07617,259.415527 2139.69238,259.415527 C2154.84115,259.415527 2167.87809,255.642415 2178.80322,248.096191 C2189.72835,240.549967 2198.14746,229.751546 2204.06055,215.700928 C2209.97363,201.650309 2212.93018,184.826172 2212.93018,165.228516 L2212.93018,165.05957 C2212.93018,145.405599 2209.95955,128.539225 2204.01831,114.460449 C2198.07707,100.381673 2189.58757,89.5973307 2178.5498,82.1074219 C2167.51204,74.617513 2154.33431,70.8725586 2139.0166,70.8725586 C2130.45671,70.8725586 2122.60075,72.294515 2115.44873,75.1384277 C2108.29671,77.9823405 2102.04574,82.037028 2096.6958,87.3024902 C2091.34587,92.5679525 2087.0096,98.8893229 2083.68701,106.266602 L2082.58887,106.266602 L2082.58887,74.5893555 L2033.25684,74.5893555 L2033.25684,314.82959 Z M2122.71338,218.530762 C2114.71663,218.530762 2107.7054,216.36263 2101.67969,212.026367 C2095.65397,207.690104 2090.9235,201.537679 2087.48828,193.569092 C2084.05306,185.600505 2082.33545,176.181803 2082.33545,165.312988 L2082.33545,165.144043 C2082.33545,154.162598 2084.03898,144.687581 2087.44604,136.718994 C2090.85311,128.750407 2095.59766,122.597982 2101.67969,118.261719 C2107.76172,113.925456 2114.77295,111.757324 2122.71338,111.757324 C2130.87907,111.757324 2137.96069,113.883219 2143.95825,118.13501 C2149.95581,122.3868 2154.58773,128.496989 2157.854,136.465576 C2161.12028,144.434163 2162.75342,153.965495 2162.75342,165.05957 L2162.75342,165.228516 C2162.75342,176.153646 2161.13436,185.600505 2157.89624,193.569092 C2154.65812,201.537679 2150.04028,207.690104 2144.04272,212.026367 C2138.04517,216.36263 2130.93538,218.530762 2122.71338,218.530762 Z" id="Shape"></path>
            <path d="M2320.9707,259.415527 C2333.86686,259.415527 2345.14396,257.726074 2354.802,254.347168 C2364.46004,250.968262 2372.63981,246.463053 2379.34131,240.831543 C2386.04281,235.200033 2391.3505,229.01945 2395.2644,222.289795 C2399.1783,215.56014 2401.83919,208.872721 2403.24707,202.227539 L2403.66943,200.284668 L2358.39209,200.284668 L2358.0542,201.29834 C2356.9279,204.733561 2354.802,208.08431 2351.67651,211.350586 C2348.55103,214.616862 2344.51042,217.305908 2339.55469,219.417725 C2334.59896,221.529541 2328.74219,222.585449 2321.98438,222.585449 C2313.42448,222.585449 2306.0472,220.698893 2299.85254,216.925781 C2293.65788,213.152669 2288.88517,207.718262 2285.53442,200.622559 C2282.18368,193.526855 2280.5083,184.995117 2280.5083,175.027344 L2280.5083,155.852051 C2280.5083,145.546387 2282.18368,136.803467 2285.53442,129.623291 C2288.88517,122.443115 2293.51709,116.994629 2299.43018,113.277832 C2305.34326,109.561035 2312.12923,107.702637 2319.78809,107.702637 C2327.44694,107.702637 2334.1766,109.50472 2339.97705,113.108887 C2345.77751,116.713053 2350.31087,122.091146 2353.57715,129.243164 C2356.84342,136.395182 2358.47656,145.264811 2358.47656,155.852051 L2358.47656,174.858398 L2381.87549,145.799805 L2256.0957,145.799805 L2256.0957,176.885742 L2405.18994,176.885742 L2405.18994,161.680664 C2405.18994,143.43457 2401.68433,127.497396 2394.6731,113.869141 C2387.66187,100.240885 2377.70817,89.6677246 2364.81201,82.1496582 C2351.91585,74.6315918 2336.6263,70.8725586 2318.94336,70.8725586 C2301.26042,70.8725586 2285.90047,74.744222 2272.86353,82.4875488 C2259.82658,90.2308757 2249.7321,101.170085 2242.58008,115.305176 C2235.42806,129.440267 2231.85205,146.109538 2231.85205,165.312988 L2231.85205,165.481934 C2231.85205,184.741699 2235.42806,201.41097 2242.58008,215.489746 C2249.7321,229.568522 2259.96737,240.40918 2273.28589,248.011719 C2286.60441,255.614258 2302.49935,259.415527 2320.9707,259.415527 Z" id="Path"></path>
            <path d="M2430.53174,255.69873 L2479.86377,255.69873 L2479.86377,151.628418 C2479.86377,143.687988 2481.34204,136.733073 2484.29858,130.763672 C2487.25513,124.794271 2491.43652,120.134196 2496.84277,116.783447 C2502.24902,113.432699 2508.61263,111.757324 2515.93359,111.757324 C2527.02767,111.757324 2535.34823,115.009521 2540.89526,121.513916 C2546.4423,128.018311 2549.21582,137.183594 2549.21582,149.009766 L2549.21582,255.69873 L2598.54785,255.69873 L2598.54785,138.788574 C2598.54785,117.55778 2593.11344,100.930745 2582.24463,88.9074707 C2571.37581,76.884196 2556.00179,70.8725586 2536.12256,70.8725586 C2522.43799,70.8725586 2510.97786,73.8572591 2501.74219,79.8266602 C2492.50651,85.7960612 2485.5516,93.9899089 2480.87744,104.408203 L2479.86377,104.408203 L2479.86377,74.5893555 L2430.53174,74.5893555 L2430.53174,255.69873 Z" id="Path"></path>
            <path d="M2791.4834,259.922363 C2811.9821,259.922363 2829.56649,256.810954 2844.23657,250.588135 C2858.90666,244.365316 2870.1556,235.523844 2877.9834,224.063721 C2885.8112,212.603597 2889.7251,199.073893 2889.7251,183.474609 L2889.7251,183.305664 C2889.7251,164.102214 2883.78385,149.023844 2871.90137,138.070557 C2860.01888,127.117269 2841.29411,119.078288 2815.72705,113.953613 L2789.96289,108.800781 C2775.94043,105.928711 2765.66292,102.14152 2759.13037,97.439209 C2752.59782,92.7368978 2749.33154,86.5281576 2749.33154,78.8129883 L2749.33154,78.644043 C2749.33154,72.8435872 2751.00692,67.7329915 2754.35767,63.3122559 C2757.70841,58.8915202 2762.52336,55.4281413 2768.80249,52.9221191 C2775.08162,50.416097 2782.55745,49.1630859 2791.22998,49.1630859 C2799.67725,49.1630859 2807.139,50.4020182 2813.61523,52.8798828 C2820.09147,55.3577474 2825.3147,58.8633626 2829.28491,63.3967285 C2833.25513,67.9300944 2835.6626,73.4067383 2836.50732,79.8266602 L2836.76074,81.8540039 L2884.91016,81.8540039 L2884.74121,78.7285156 C2883.9528,64.4807943 2879.71509,52.0210775 2872.02808,41.3493652 C2864.34106,30.677653 2853.65527,22.3993327 2839.9707,16.5144043 C2826.28613,10.6294759 2810.03923,7.68701172 2791.22998,7.68701172 C2773.26546,7.68701172 2757.28605,10.7702637 2743.29175,16.9367676 C2729.29744,23.1032715 2718.316,31.7194824 2710.34741,42.7854004 C2702.37882,53.8513184 2698.36637,66.8178711 2698.31006,81.6850586 L2698.31006,81.8540039 C2698.31006,100.212728 2704.39209,115.150309 2716.55615,126.666748 C2728.72021,138.183187 2746.79736,146.334798 2770.7876,151.121582 L2796.55176,156.274414 C2811.70052,159.371745 2822.51302,163.257487 2828.98926,167.931641 C2835.46549,172.605794 2838.70361,179.053874 2838.70361,187.275879 L2838.70361,187.444824 C2838.70361,193.639486 2836.83114,199.073893 2833.08618,203.748047 C2829.34123,208.422201 2824.04761,212.040446 2817.20532,214.602783 C2810.36304,217.16512 2802.21143,218.446289 2792.75049,218.446289 C2783.51481,218.446289 2775.25057,217.179199 2767.95776,214.64502 C2760.66496,212.11084 2754.73779,208.54891 2750.17627,203.959229 C2745.61475,199.369548 2742.77083,193.949219 2741.64453,187.698242 L2741.30664,185.755371 L2693.15723,185.755371 L2693.32617,188.542969 C2694.28353,203.466471 2698.87321,216.264079 2707.09521,226.935791 C2715.31722,237.607503 2726.6084,245.773193 2740.96875,251.432861 C2755.3291,257.092529 2772.16732,259.922363 2791.4834,259.922363 Z" id="Path"></path>
            <path d="M2999.62402,259.415527 C3017.92643,259.415527 3033.77913,255.670573 3047.18213,248.180664 C3060.58512,240.690755 3070.96118,229.920492 3078.3103,215.869873 C3085.65942,201.819255 3089.33398,184.938802 3089.33398,165.228516 L3089.33398,164.890625 C3089.33398,145.292969 3085.61719,128.48291 3078.18359,114.460449 C3070.75,100.437988 3060.31763,89.6677246 3046.88647,82.1496582 C3033.45532,74.6315918 3017.67301,70.8725586 2999.53955,70.8725586 C2981.51872,70.8725586 2965.79272,74.6456706 2952.36157,82.1918945 C2938.93042,89.7381185 2928.49805,100.53654 2921.06445,114.587158 C2913.63086,128.637777 2909.91406,145.405599 2909.91406,164.890625 L2909.91406,165.228516 C2909.91406,184.826172 2913.57454,201.664388 2920.89551,215.743164 C2928.21647,229.82194 2938.59253,240.620361 2952.02368,248.138428 C2965.45483,255.656494 2981.32161,259.415527 2999.62402,259.415527 Z M2999.79297,220.727051 C2991.68359,220.727051 2984.65828,218.558919 2978.71704,214.222656 C2972.7758,209.886393 2968.18612,203.579102 2964.948,195.300781 C2961.70988,187.022461 2960.09082,176.998372 2960.09082,165.228516 L2960.09082,164.890625 C2960.09082,153.177083 2961.72396,143.20931 2964.99023,134.987305 C2968.25651,126.765299 2972.86027,120.472087 2978.80151,116.107666 C2984.74276,111.743245 2991.65544,109.561035 2999.53955,109.561035 C3007.5363,109.561035 3014.50529,111.729167 3020.44653,116.06543 C3026.38778,120.401693 3030.99154,126.694906 3034.25781,134.945068 C3037.52409,143.195231 3039.15723,153.177083 3039.15723,164.890625 L3039.15723,165.228516 C3039.15723,176.998372 3037.55225,187.022461 3034.34229,195.300781 C3031.13232,203.579102 3026.58488,209.886393 3020.69995,214.222656 C3014.81502,218.558919 3007.84603,220.727051 2999.79297,220.727051 Z" id="Shape"></path>
            <path d="M3176.34082,259.415527 C3190.08171,259.415527 3201.56999,256.430827 3210.80566,250.461426 C3220.04134,244.492025 3226.9681,236.298177 3231.58594,225.879883 L3232.59961,225.879883 L3232.59961,255.69873 L3281.93164,255.69873 L3281.93164,74.5893555 L3232.59961,74.5893555 L3232.59961,178.659668 C3232.59961,186.487467 3231.12134,193.414225 3228.16479,199.439941 C3225.20825,205.465658 3221.04093,210.15389 3215.66284,213.504639 C3210.28475,216.855387 3203.90706,218.530762 3196.52979,218.530762 C3185.43571,218.530762 3177.11515,215.278564 3171.56812,208.77417 C3166.02108,202.269775 3163.24756,193.104492 3163.24756,181.27832 L3163.24756,74.5893555 L3113.91553,74.5893555 L3113.91553,191.499512 C3113.91553,205.578288 3116.35116,217.700114 3121.22241,227.86499 C3126.09367,238.029867 3133.18937,245.829508 3142.50952,251.263916 C3151.82967,256.698324 3163.10677,259.415527 3176.34082,259.415527 Z" id="Path"></path>
            <path d="M3314.03125,255.69873 L3363.36328,255.69873 L3363.36328,153.655762 C3363.36328,145.152181 3364.86971,137.91569 3367.88257,131.946289 C3370.89543,125.976888 3375.288,121.401286 3381.0603,118.219482 C3386.8326,115.037679 3393.77344,113.446777 3401.88281,113.446777 C3405.48698,113.446777 3408.86589,113.700195 3412.01953,114.207031 C3415.17318,114.713867 3417.76367,115.389648 3419.79102,116.234375 L3419.79102,72.8154297 C3417.93262,72.2522786 3415.77856,71.787679 3413.32886,71.4216309 C3410.87915,71.0555827 3408.27458,70.8725586 3405.51514,70.8725586 C3394.81527,70.8725586 3385.80485,73.9135742 3378.48389,79.9956055 C3371.16292,86.0776367 3366.17904,94.5812174 3363.53223,105.506348 L3362.51855,105.506348 L3362.51855,74.5893555 L3314.03125,74.5893555 L3314.03125,255.69873 Z" id="Path"></path>
            <path d="M3522.59424,259.415527 C3538.75667,259.415527 3552.82137,256.360433 3564.78833,250.250244 C3576.75529,244.140055 3586.17399,235.847656 3593.04443,225.373047 C3599.91488,214.898438 3603.7443,203.072266 3604.53271,189.894531 L3604.61719,188.796387 L3558.66406,188.796387 L3558.41064,190.316895 C3556.77751,199.496257 3552.94808,206.859456 3546.92236,212.406494 C3540.89665,217.953532 3532.92806,220.727051 3523.0166,220.727051 C3514.90723,220.727051 3507.88192,218.558919 3501.94067,214.222656 C3495.99943,209.886393 3491.42383,203.579102 3488.21387,195.300781 C3485.00391,187.022461 3483.39893,176.998372 3483.39893,165.228516 L3483.39893,165.05957 C3483.39893,153.514974 3485.00391,143.603516 3488.21387,135.325195 C3491.42383,127.046875 3495.98535,120.683268 3501.89844,116.234375 C3507.81152,111.785482 3514.7946,109.561035 3522.84766,109.561035 C3533.04069,109.561035 3541.13599,112.475342 3547.13354,118.303955 C3553.1311,124.132568 3556.86198,131.35498 3558.32617,139.971191 L3558.57959,141.491699 L3604.44824,141.491699 L3604.36377,140.309082 C3603.7443,127.243978 3600.02751,115.474121 3593.21338,104.999512 C3586.39925,94.5249023 3576.95239,86.2184245 3564.8728,80.0800781 C3552.79321,73.9417318 3538.55957,70.8725586 3522.17188,70.8725586 C3504.09473,70.8725586 3488.39689,74.6738281 3475.07837,82.2763672 C3461.75985,89.8789062 3451.45418,100.705485 3444.16138,114.756104 C3436.86857,128.806722 3433.22217,145.490072 3433.22217,164.806152 L3433.22217,164.975098 C3433.22217,184.403809 3436.84041,201.18571 3444.0769,215.320801 C3451.3134,229.455892 3461.61906,240.338786 3474.9939,247.969482 C3488.36873,255.600179 3504.23551,259.415527 3522.59424,259.415527 Z" id="Path"></path>
            <path d="M3710.79932,259.415527 C3723.69548,259.415527 3734.97257,257.726074 3744.63062,254.347168 C3754.28866,250.968262 3762.46842,246.463053 3769.16992,240.831543 C3775.87142,235.200033 3781.17912,229.01945 3785.09302,222.289795 C3789.00692,215.56014 3791.66781,208.872721 3793.07568,202.227539 L3793.49805,200.284668 L3748.2207,200.284668 L3747.88281,201.29834 C3746.75651,204.733561 3744.63062,208.08431 3741.50513,211.350586 C3738.37964,214.616862 3734.33903,217.305908 3729.3833,219.417725 C3724.42757,221.529541 3718.5708,222.585449 3711.81299,222.585449 C3703.25309,222.585449 3695.87581,220.698893 3689.68115,216.925781 C3683.48649,213.152669 3678.71379,207.718262 3675.36304,200.622559 C3672.01229,193.526855 3670.33691,184.995117 3670.33691,175.027344 L3670.33691,155.852051 C3670.33691,145.546387 3672.01229,136.803467 3675.36304,129.623291 C3678.71379,122.443115 3683.3457,116.994629 3689.25879,113.277832 C3695.17188,109.561035 3701.95785,107.702637 3709.6167,107.702637 C3717.27555,107.702637 3724.00521,109.50472 3729.80566,113.108887 C3735.60612,116.713053 3740.13949,122.091146 3743.40576,129.243164 C3746.67204,136.395182 3748.30518,145.264811 3748.30518,155.852051 L3748.30518,174.858398 L3771.7041,145.799805 L3645.92432,145.799805 L3645.92432,176.885742 L3795.01855,176.885742 L3795.01855,161.680664 C3795.01855,143.43457 3791.51294,127.497396 3784.50171,113.869141 C3777.49048,100.240885 3767.53678,89.6677246 3754.64062,82.1496582 C3741.74447,74.6315918 3726.45492,70.8725586 3708.77197,70.8725586 C3691.08903,70.8725586 3675.72909,74.744222 3662.69214,82.4875488 C3649.65519,90.2308757 3639.56071,101.170085 3632.40869,115.305176 C3625.25667,129.440267 3621.68066,146.109538 3621.68066,165.312988 L3621.68066,165.481934 C3621.68066,184.741699 3625.25667,201.41097 3632.40869,215.489746 C3639.56071,229.568522 3649.79598,240.40918 3663.1145,248.011719 C3676.43302,255.614258 3692.32796,259.415527 3710.79932,259.415527 Z" id="Path"></path>
        </g>
    </g>
</svg>